%TF.GenerationSoftware,KiCad,Pcbnew,8.0.3*%
%TF.CreationDate,2024-07-22T06:59:44+03:00*%
%TF.ProjectId,Project 2 - Breadboard Power Supply,50726f6a-6563-4742-9032-202d20427265,rev?*%
%TF.SameCoordinates,Original*%
%TF.FileFunction,Soldermask,Bot*%
%TF.FilePolarity,Negative*%
%FSLAX46Y46*%
G04 Gerber Fmt 4.6, Leading zero omitted, Abs format (unit mm)*
G04 Created by KiCad (PCBNEW 8.0.3) date 2024-07-22 06:59:44*
%MOMM*%
%LPD*%
G01*
G04 APERTURE LIST*
G04 Aperture macros list*
%AMRoundRect*
0 Rectangle with rounded corners*
0 $1 Rounding radius*
0 $2 $3 $4 $5 $6 $7 $8 $9 X,Y pos of 4 corners*
0 Add a 4 corners polygon primitive as box body*
4,1,4,$2,$3,$4,$5,$6,$7,$8,$9,$2,$3,0*
0 Add four circle primitives for the rounded corners*
1,1,$1+$1,$2,$3*
1,1,$1+$1,$4,$5*
1,1,$1+$1,$6,$7*
1,1,$1+$1,$8,$9*
0 Add four rect primitives between the rounded corners*
20,1,$1+$1,$2,$3,$4,$5,0*
20,1,$1+$1,$4,$5,$6,$7,0*
20,1,$1+$1,$6,$7,$8,$9,0*
20,1,$1+$1,$8,$9,$2,$3,0*%
G04 Aperture macros list end*
%ADD10R,3.000000X3.000000*%
%ADD11C,3.000000*%
%ADD12R,1.700000X1.700000*%
%ADD13O,1.700000X1.700000*%
%ADD14R,1.900000X1.900000*%
%ADD15C,1.900000*%
%ADD16C,1.600000*%
%ADD17R,1.905000X2.000000*%
%ADD18O,1.905000X2.000000*%
%ADD19C,1.400000*%
%ADD20O,1.400000X1.400000*%
%ADD21R,3.500000X3.500000*%
%ADD22RoundRect,0.750000X-0.750000X-1.000000X0.750000X-1.000000X0.750000X1.000000X-0.750000X1.000000X0*%
%ADD23RoundRect,0.875000X-0.875000X-0.875000X0.875000X-0.875000X0.875000X0.875000X-0.875000X0.875000X0*%
%ADD24R,1.800000X1.800000*%
%ADD25C,1.800000*%
G04 APERTURE END LIST*
D10*
%TO.C,J6*%
X155800000Y-116000000D03*
D11*
X160880000Y-116000000D03*
%TD*%
D12*
%TO.C,J2*%
X167600000Y-70000000D03*
D13*
X167600000Y-72540000D03*
%TD*%
D14*
%TO.C,S1*%
X159920000Y-81400000D03*
D15*
X157420000Y-81400000D03*
X154920000Y-81400000D03*
%TD*%
D16*
%TO.C,C3*%
X142300000Y-76800000D03*
X139800000Y-76800000D03*
%TD*%
D17*
%TO.C,U1*%
X145390000Y-83600000D03*
D18*
X142850000Y-83600000D03*
X140310000Y-83600000D03*
%TD*%
D12*
%TO.C,J5*%
X145600000Y-118200000D03*
D13*
X148140000Y-118200000D03*
X150680000Y-118200000D03*
%TD*%
D17*
%TO.C,U2*%
X140310000Y-105200000D03*
D18*
X142850000Y-105200000D03*
X145390000Y-105200000D03*
%TD*%
D16*
%TO.C,C2*%
X141800000Y-111600000D03*
X144300000Y-111600000D03*
%TD*%
D19*
%TO.C,R1*%
X160600000Y-87400000D03*
D20*
X152980000Y-87400000D03*
%TD*%
D19*
%TO.C,R3*%
X154600000Y-106400000D03*
D20*
X162220000Y-106400000D03*
%TD*%
D21*
%TO.C,J1*%
X151600000Y-94400000D03*
D22*
X145600000Y-94400000D03*
D23*
X148600000Y-99100000D03*
%TD*%
D16*
%TO.C,C1*%
X147600000Y-76800000D03*
X145100000Y-76800000D03*
%TD*%
D10*
%TO.C,J7*%
X155800000Y-72400000D03*
D11*
X160880000Y-72400000D03*
%TD*%
D19*
%TO.C,R2*%
X162200000Y-102000000D03*
D20*
X154580000Y-102000000D03*
%TD*%
D24*
%TO.C,D1*%
X158200000Y-95800000D03*
D25*
X160740000Y-95800000D03*
%TD*%
D12*
%TO.C,J4*%
X145600000Y-70000000D03*
D13*
X148140000Y-70000000D03*
X150680000Y-70000000D03*
%TD*%
D12*
%TO.C,J3*%
X167600000Y-115740000D03*
D13*
X167600000Y-118280000D03*
%TD*%
M02*
