%TF.GenerationSoftware,KiCad,Pcbnew,8.0.3*%
%TF.CreationDate,2024-07-22T06:59:44+03:00*%
%TF.ProjectId,Project 2 - Breadboard Power Supply,50726f6a-6563-4742-9032-202d20427265,rev?*%
%TF.SameCoordinates,Original*%
%TF.FileFunction,Copper,L2,Bot*%
%TF.FilePolarity,Positive*%
%FSLAX46Y46*%
G04 Gerber Fmt 4.6, Leading zero omitted, Abs format (unit mm)*
G04 Created by KiCad (PCBNEW 8.0.3) date 2024-07-22 06:59:44*
%MOMM*%
%LPD*%
G01*
G04 APERTURE LIST*
G04 Aperture macros list*
%AMRoundRect*
0 Rectangle with rounded corners*
0 $1 Rounding radius*
0 $2 $3 $4 $5 $6 $7 $8 $9 X,Y pos of 4 corners*
0 Add a 4 corners polygon primitive as box body*
4,1,4,$2,$3,$4,$5,$6,$7,$8,$9,$2,$3,0*
0 Add four circle primitives for the rounded corners*
1,1,$1+$1,$2,$3*
1,1,$1+$1,$4,$5*
1,1,$1+$1,$6,$7*
1,1,$1+$1,$8,$9*
0 Add four rect primitives between the rounded corners*
20,1,$1+$1,$2,$3,$4,$5,0*
20,1,$1+$1,$4,$5,$6,$7,0*
20,1,$1+$1,$6,$7,$8,$9,0*
20,1,$1+$1,$8,$9,$2,$3,0*%
G04 Aperture macros list end*
%TA.AperFunction,ComponentPad*%
%ADD10R,3.000000X3.000000*%
%TD*%
%TA.AperFunction,ComponentPad*%
%ADD11C,3.000000*%
%TD*%
%TA.AperFunction,ComponentPad*%
%ADD12R,1.700000X1.700000*%
%TD*%
%TA.AperFunction,ComponentPad*%
%ADD13O,1.700000X1.700000*%
%TD*%
%TA.AperFunction,ComponentPad*%
%ADD14R,1.900000X1.900000*%
%TD*%
%TA.AperFunction,ComponentPad*%
%ADD15C,1.900000*%
%TD*%
%TA.AperFunction,ComponentPad*%
%ADD16C,1.600000*%
%TD*%
%TA.AperFunction,ComponentPad*%
%ADD17R,1.905000X2.000000*%
%TD*%
%TA.AperFunction,ComponentPad*%
%ADD18O,1.905000X2.000000*%
%TD*%
%TA.AperFunction,ComponentPad*%
%ADD19C,1.400000*%
%TD*%
%TA.AperFunction,ComponentPad*%
%ADD20O,1.400000X1.400000*%
%TD*%
%TA.AperFunction,ComponentPad*%
%ADD21R,3.500000X3.500000*%
%TD*%
%TA.AperFunction,ComponentPad*%
%ADD22RoundRect,0.750000X-0.750000X-1.000000X0.750000X-1.000000X0.750000X1.000000X-0.750000X1.000000X0*%
%TD*%
%TA.AperFunction,ComponentPad*%
%ADD23RoundRect,0.875000X-0.875000X-0.875000X0.875000X-0.875000X0.875000X0.875000X-0.875000X0.875000X0*%
%TD*%
%TA.AperFunction,ComponentPad*%
%ADD24R,1.800000X1.800000*%
%TD*%
%TA.AperFunction,ComponentPad*%
%ADD25C,1.800000*%
%TD*%
%TA.AperFunction,ViaPad*%
%ADD26C,0.900000*%
%TD*%
%TA.AperFunction,Conductor*%
%ADD27C,0.350000*%
%TD*%
%TA.AperFunction,Conductor*%
%ADD28C,0.200000*%
%TD*%
G04 APERTURE END LIST*
D10*
%TO.P,J6,1,Pin_1*%
%TO.N,GND*%
X155800000Y-116000000D03*
D11*
%TO.P,J6,2,Pin_2*%
%TO.N,/PWR_OUT_BOTTOM*%
X160880000Y-116000000D03*
%TD*%
D12*
%TO.P,J2,1,Pin_1*%
%TO.N,GND*%
X167600000Y-70000000D03*
D13*
%TO.P,J2,2,Pin_2*%
%TO.N,/PWR_OUT_TOP*%
X167600000Y-72540000D03*
%TD*%
D14*
%TO.P,S1,1*%
%TO.N,/12V*%
X159920000Y-81400000D03*
D15*
%TO.P,S1,2*%
%TO.N,/PWR_input*%
X157420000Y-81400000D03*
%TO.P,S1,3*%
%TO.N,unconnected-(S1-Pad3)*%
X154920000Y-81400000D03*
%TD*%
D16*
%TO.P,C3,1*%
%TO.N,/5V*%
X142300000Y-76800000D03*
%TO.P,C3,2*%
%TO.N,GND*%
X139800000Y-76800000D03*
%TD*%
D17*
%TO.P,U1,1,VI*%
%TO.N,/12V*%
X145390000Y-83600000D03*
D18*
%TO.P,U1,2,GND*%
%TO.N,GND*%
X142850000Y-83600000D03*
%TO.P,U1,3,VO*%
%TO.N,/5V*%
X140310000Y-83600000D03*
%TD*%
D12*
%TO.P,J5,1,Pin_1*%
%TO.N,/3.3V*%
X145600000Y-118200000D03*
D13*
%TO.P,J5,2,Pin_2*%
%TO.N,/PWR_OUT_BOTTOM*%
X148140000Y-118200000D03*
%TO.P,J5,3,Pin_3*%
%TO.N,/5V*%
X150680000Y-118200000D03*
%TD*%
D17*
%TO.P,U2,1,ADJ*%
%TO.N,Net-(U2-ADJ)*%
X140310000Y-105200000D03*
D18*
%TO.P,U2,2,VO*%
%TO.N,/3.3V*%
X142850000Y-105200000D03*
%TO.P,U2,3,VI*%
%TO.N,/12V*%
X145390000Y-105200000D03*
%TD*%
D16*
%TO.P,C2,1*%
%TO.N,GND*%
X141800000Y-111600000D03*
%TO.P,C2,2*%
%TO.N,/3.3V*%
X144300000Y-111600000D03*
%TD*%
D19*
%TO.P,R1,1*%
%TO.N,Net-(D1-A)*%
X160600000Y-87400000D03*
D20*
%TO.P,R1,2*%
%TO.N,/12V*%
X152980000Y-87400000D03*
%TD*%
D19*
%TO.P,R3,1*%
%TO.N,GND*%
X154600000Y-106400000D03*
D20*
%TO.P,R3,2*%
%TO.N,Net-(U2-ADJ)*%
X162220000Y-106400000D03*
%TD*%
D21*
%TO.P,J1,1*%
%TO.N,/PWR_input*%
X151600000Y-94400000D03*
D22*
%TO.P,J1,2*%
%TO.N,GND*%
X145600000Y-94400000D03*
D23*
%TO.P,J1,3*%
X148600000Y-99100000D03*
%TD*%
D16*
%TO.P,C1,1*%
%TO.N,/12V*%
X147600000Y-76800000D03*
%TO.P,C1,2*%
%TO.N,GND*%
X145100000Y-76800000D03*
%TD*%
D10*
%TO.P,J7,1,Pin_1*%
%TO.N,GND*%
X155800000Y-72400000D03*
D11*
%TO.P,J7,2,Pin_2*%
%TO.N,/PWR_OUT_TOP*%
X160880000Y-72400000D03*
%TD*%
D19*
%TO.P,R2,1*%
%TO.N,Net-(U2-ADJ)*%
X162200000Y-102000000D03*
D20*
%TO.P,R2,2*%
%TO.N,/3.3V*%
X154580000Y-102000000D03*
%TD*%
D24*
%TO.P,D1,1,K*%
%TO.N,GND*%
X158200000Y-95800000D03*
D25*
%TO.P,D1,2,A*%
%TO.N,Net-(D1-A)*%
X160740000Y-95800000D03*
%TD*%
D12*
%TO.P,J4,1,Pin_1*%
%TO.N,/3.3V*%
X145600000Y-70000000D03*
D13*
%TO.P,J4,2,Pin_2*%
%TO.N,/PWR_OUT_TOP*%
X148140000Y-70000000D03*
%TO.P,J4,3,Pin_3*%
%TO.N,/5V*%
X150680000Y-70000000D03*
%TD*%
D12*
%TO.P,J3,1,Pin_1*%
%TO.N,GND*%
X167600000Y-115740000D03*
D13*
%TO.P,J3,2,Pin_2*%
%TO.N,/PWR_OUT_BOTTOM*%
X167600000Y-118280000D03*
%TD*%
D26*
%TO.N,/3.3V*%
X153200000Y-107600000D03*
%TD*%
D27*
%TO.N,/12V*%
X142400000Y-102210000D02*
X142400000Y-87000000D01*
X145390000Y-84010000D02*
X145390000Y-83600000D01*
X142400000Y-87000000D02*
X145390000Y-84010000D01*
X145390000Y-105200000D02*
X142400000Y-102210000D01*
%TO.N,/3.3V*%
X153200000Y-107600000D02*
X152200000Y-108600000D01*
X152200000Y-108600000D02*
X146250000Y-108600000D01*
X146250000Y-108600000D02*
X142850000Y-105200000D01*
D28*
%TO.N,Net-(U2-ADJ)*%
X159020000Y-109600000D02*
X142600000Y-109600000D01*
X140310000Y-107310000D02*
X140310000Y-105200000D01*
X162220000Y-106400000D02*
X159020000Y-109600000D01*
X142600000Y-109600000D02*
X140310000Y-107310000D01*
%TD*%
%TA.AperFunction,Conductor*%
%TO.N,GND*%
G36*
X144476936Y-68520185D02*
G01*
X144522691Y-68572989D01*
X144532635Y-68642147D01*
X144503610Y-68705703D01*
X144484208Y-68723766D01*
X144392455Y-68792452D01*
X144392452Y-68792455D01*
X144306206Y-68907664D01*
X144306202Y-68907671D01*
X144255908Y-69042517D01*
X144249501Y-69102116D01*
X144249500Y-69102135D01*
X144249500Y-70897870D01*
X144249501Y-70897876D01*
X144255908Y-70957483D01*
X144306202Y-71092328D01*
X144306206Y-71092335D01*
X144392452Y-71207544D01*
X144392455Y-71207547D01*
X144507664Y-71293793D01*
X144507671Y-71293797D01*
X144642517Y-71344091D01*
X144642516Y-71344091D01*
X144649444Y-71344835D01*
X144702127Y-71350500D01*
X146497872Y-71350499D01*
X146557483Y-71344091D01*
X146692331Y-71293796D01*
X146807546Y-71207546D01*
X146893796Y-71092331D01*
X146942810Y-70960916D01*
X146984681Y-70904984D01*
X147050145Y-70880566D01*
X147118418Y-70895417D01*
X147146673Y-70916569D01*
X147268599Y-71038495D01*
X147365384Y-71106265D01*
X147462165Y-71174032D01*
X147462167Y-71174033D01*
X147462170Y-71174035D01*
X147676337Y-71273903D01*
X147904592Y-71335063D01*
X148081034Y-71350500D01*
X148139999Y-71355659D01*
X148140000Y-71355659D01*
X148140001Y-71355659D01*
X148198966Y-71350500D01*
X148375408Y-71335063D01*
X148603663Y-71273903D01*
X148817830Y-71174035D01*
X149011401Y-71038495D01*
X149178495Y-70871401D01*
X149308425Y-70685842D01*
X149363002Y-70642217D01*
X149432500Y-70635023D01*
X149494855Y-70666546D01*
X149511575Y-70685842D01*
X149641500Y-70871395D01*
X149641505Y-70871401D01*
X149808599Y-71038495D01*
X149905384Y-71106265D01*
X150002165Y-71174032D01*
X150002167Y-71174033D01*
X150002170Y-71174035D01*
X150216337Y-71273903D01*
X150444592Y-71335063D01*
X150621034Y-71350500D01*
X150679999Y-71355659D01*
X150680000Y-71355659D01*
X150680001Y-71355659D01*
X150738966Y-71350500D01*
X150915408Y-71335063D01*
X151143663Y-71273903D01*
X151357830Y-71174035D01*
X151551401Y-71038495D01*
X151718495Y-70871401D01*
X151731971Y-70852155D01*
X153800000Y-70852155D01*
X153800000Y-72150000D01*
X155080936Y-72150000D01*
X155069207Y-72178316D01*
X155040000Y-72325147D01*
X155040000Y-72474853D01*
X155069207Y-72621684D01*
X155080936Y-72650000D01*
X153800000Y-72650000D01*
X153800000Y-73947844D01*
X153806401Y-74007372D01*
X153806403Y-74007379D01*
X153856645Y-74142086D01*
X153856649Y-74142093D01*
X153942809Y-74257187D01*
X153942812Y-74257190D01*
X154057906Y-74343350D01*
X154057913Y-74343354D01*
X154192620Y-74393596D01*
X154192627Y-74393598D01*
X154252155Y-74399999D01*
X154252172Y-74400000D01*
X155550000Y-74400000D01*
X155550000Y-73119064D01*
X155578316Y-73130793D01*
X155725147Y-73160000D01*
X155874853Y-73160000D01*
X156021684Y-73130793D01*
X156050000Y-73119064D01*
X156050000Y-74400000D01*
X157347828Y-74400000D01*
X157347844Y-74399999D01*
X157407372Y-74393598D01*
X157407379Y-74393596D01*
X157542086Y-74343354D01*
X157542093Y-74343350D01*
X157657187Y-74257190D01*
X157657190Y-74257187D01*
X157743350Y-74142093D01*
X157743354Y-74142086D01*
X157793596Y-74007379D01*
X157793598Y-74007372D01*
X157799999Y-73947844D01*
X157800000Y-73947827D01*
X157800000Y-72650000D01*
X156519064Y-72650000D01*
X156530793Y-72621684D01*
X156560000Y-72474853D01*
X156560000Y-72399998D01*
X158874390Y-72399998D01*
X158874390Y-72400001D01*
X158894804Y-72685433D01*
X158955628Y-72965037D01*
X158955630Y-72965043D01*
X158955631Y-72965046D01*
X158998207Y-73079196D01*
X159055635Y-73233166D01*
X159192770Y-73484309D01*
X159192775Y-73484317D01*
X159364254Y-73713387D01*
X159364270Y-73713405D01*
X159566594Y-73915729D01*
X159566612Y-73915745D01*
X159795682Y-74087224D01*
X159795690Y-74087229D01*
X160046833Y-74224364D01*
X160046832Y-74224364D01*
X160046836Y-74224365D01*
X160046839Y-74224367D01*
X160314954Y-74324369D01*
X160314960Y-74324370D01*
X160314962Y-74324371D01*
X160594566Y-74385195D01*
X160594568Y-74385195D01*
X160594572Y-74385196D01*
X160848220Y-74403337D01*
X160879999Y-74405610D01*
X160880000Y-74405610D01*
X160880001Y-74405610D01*
X160908595Y-74403564D01*
X161165428Y-74385196D01*
X161445046Y-74324369D01*
X161713161Y-74224367D01*
X161964315Y-74087226D01*
X162193395Y-73915739D01*
X162395739Y-73713395D01*
X162567226Y-73484315D01*
X162704367Y-73233161D01*
X162804369Y-72965046D01*
X162848975Y-72759995D01*
X162865195Y-72685433D01*
X162865195Y-72685432D01*
X162865196Y-72685428D01*
X162885610Y-72400000D01*
X162865196Y-72114572D01*
X162854833Y-72066936D01*
X162804371Y-71834962D01*
X162804370Y-71834960D01*
X162804369Y-71834954D01*
X162704367Y-71566839D01*
X162621604Y-71415271D01*
X162567229Y-71315690D01*
X162567224Y-71315682D01*
X162516932Y-71248500D01*
X163650791Y-71248500D01*
X163745666Y-71502869D01*
X163747136Y-71507037D01*
X163755584Y-71532415D01*
X163756906Y-71536636D01*
X163766948Y-71570826D01*
X163768121Y-71575100D01*
X163774752Y-71601076D01*
X163775771Y-71605388D01*
X163844179Y-71919855D01*
X163845044Y-71924202D01*
X163849802Y-71950581D01*
X163850510Y-71954954D01*
X163855579Y-71990228D01*
X163856130Y-71994613D01*
X163858989Y-72021210D01*
X163859383Y-72025617D01*
X163882338Y-72346575D01*
X163882575Y-72350994D01*
X163883531Y-72377755D01*
X163883610Y-72382182D01*
X163883610Y-72417818D01*
X163883531Y-72422245D01*
X163882575Y-72449006D01*
X163882338Y-72453425D01*
X163861091Y-72750500D01*
X164650500Y-72750500D01*
X164650500Y-71248500D01*
X163650791Y-71248500D01*
X162516932Y-71248500D01*
X162395745Y-71086612D01*
X162395729Y-71086594D01*
X162193405Y-70884270D01*
X162193387Y-70884254D01*
X161964317Y-70712775D01*
X161964309Y-70712770D01*
X161713166Y-70575635D01*
X161713167Y-70575635D01*
X161605915Y-70535632D01*
X161445046Y-70475631D01*
X161445043Y-70475630D01*
X161445037Y-70475628D01*
X161165433Y-70414804D01*
X160880001Y-70394390D01*
X160879999Y-70394390D01*
X160594566Y-70414804D01*
X160314962Y-70475628D01*
X160046833Y-70575635D01*
X159795690Y-70712770D01*
X159795682Y-70712775D01*
X159566612Y-70884254D01*
X159566594Y-70884270D01*
X159364270Y-71086594D01*
X159364254Y-71086612D01*
X159192775Y-71315682D01*
X159192770Y-71315690D01*
X159055635Y-71566833D01*
X158955628Y-71834962D01*
X158894804Y-72114566D01*
X158874390Y-72399998D01*
X156560000Y-72399998D01*
X156560000Y-72325147D01*
X156530793Y-72178316D01*
X156519064Y-72150000D01*
X157800000Y-72150000D01*
X157800000Y-70852172D01*
X157799999Y-70852155D01*
X157793598Y-70792627D01*
X157793596Y-70792620D01*
X157743354Y-70657913D01*
X157743350Y-70657906D01*
X157657190Y-70542812D01*
X157657187Y-70542809D01*
X157542093Y-70456649D01*
X157542086Y-70456645D01*
X157407379Y-70406403D01*
X157407372Y-70406401D01*
X157347844Y-70400000D01*
X156050000Y-70400000D01*
X156050000Y-71680935D01*
X156021684Y-71669207D01*
X155874853Y-71640000D01*
X155725147Y-71640000D01*
X155578316Y-71669207D01*
X155550000Y-71680935D01*
X155550000Y-70400000D01*
X154252155Y-70400000D01*
X154192627Y-70406401D01*
X154192620Y-70406403D01*
X154057913Y-70456645D01*
X154057906Y-70456649D01*
X153942812Y-70542809D01*
X153942809Y-70542812D01*
X153856649Y-70657906D01*
X153856645Y-70657913D01*
X153806403Y-70792620D01*
X153806401Y-70792627D01*
X153800000Y-70852155D01*
X151731971Y-70852155D01*
X151854035Y-70677830D01*
X151953903Y-70463663D01*
X152015063Y-70235408D01*
X152035659Y-70000000D01*
X152015063Y-69764592D01*
X151988095Y-69663944D01*
X158148500Y-69663944D01*
X158283816Y-69765243D01*
X158290707Y-69770796D01*
X158331192Y-69805876D01*
X158337671Y-69811908D01*
X158388092Y-69862329D01*
X158394124Y-69868808D01*
X158429204Y-69909293D01*
X158434757Y-69916184D01*
X158563655Y-70088368D01*
X158568703Y-70095638D01*
X158597667Y-70140705D01*
X158602185Y-70148319D01*
X158636362Y-70210909D01*
X158640323Y-70218823D01*
X158654790Y-70250500D01*
X158788981Y-70250500D01*
X163148500Y-70250500D01*
X164650500Y-70250500D01*
X164650500Y-69498500D01*
X163148500Y-69498500D01*
X163148500Y-70250500D01*
X158788981Y-70250500D01*
X158873516Y-70165965D01*
X158876701Y-70162892D01*
X158896308Y-70144637D01*
X158899605Y-70141675D01*
X158926537Y-70118340D01*
X158929934Y-70115501D01*
X158950776Y-70098707D01*
X158954268Y-70095995D01*
X159211863Y-69903162D01*
X159215450Y-69900575D01*
X159237430Y-69885313D01*
X159241107Y-69882856D01*
X159271083Y-69863589D01*
X159274853Y-69861260D01*
X159297898Y-69847586D01*
X159301747Y-69845394D01*
X159584194Y-69691166D01*
X159588118Y-69689113D01*
X159612082Y-69677118D01*
X159616079Y-69675206D01*
X159648495Y-69660404D01*
X159650500Y-69659531D01*
X159650500Y-69498500D01*
X158148500Y-69498500D01*
X158148500Y-69663944D01*
X151988095Y-69663944D01*
X151953903Y-69536337D01*
X151854035Y-69322171D01*
X151848425Y-69314158D01*
X151718494Y-69128597D01*
X151551402Y-68961506D01*
X151551395Y-68961501D01*
X151357834Y-68825967D01*
X151357830Y-68825965D01*
X151285968Y-68792455D01*
X151166790Y-68736881D01*
X151114352Y-68690710D01*
X151095200Y-68623516D01*
X151115416Y-68556635D01*
X151168581Y-68511300D01*
X151219196Y-68500500D01*
X166410731Y-68500500D01*
X166477770Y-68520185D01*
X166523525Y-68572989D01*
X166533469Y-68642147D01*
X166504444Y-68705703D01*
X166485042Y-68723766D01*
X166392812Y-68792809D01*
X166392809Y-68792812D01*
X166306649Y-68907906D01*
X166306645Y-68907913D01*
X166256403Y-69042620D01*
X166256401Y-69042627D01*
X166250000Y-69102155D01*
X166250000Y-69750000D01*
X167166988Y-69750000D01*
X167134075Y-69807007D01*
X167100000Y-69934174D01*
X167100000Y-70065826D01*
X167134075Y-70192993D01*
X167166988Y-70250000D01*
X166250000Y-70250000D01*
X166250000Y-70897844D01*
X166256401Y-70957372D01*
X166256403Y-70957379D01*
X166306645Y-71092086D01*
X166306649Y-71092093D01*
X166392809Y-71207187D01*
X166392812Y-71207190D01*
X166507906Y-71293350D01*
X166507913Y-71293354D01*
X166639470Y-71342421D01*
X166695403Y-71384292D01*
X166719821Y-71449756D01*
X166704970Y-71518029D01*
X166683819Y-71546284D01*
X166561503Y-71668600D01*
X166425965Y-71862169D01*
X166425964Y-71862171D01*
X166326098Y-72076335D01*
X166326094Y-72076344D01*
X166264938Y-72304586D01*
X166264936Y-72304596D01*
X166244341Y-72539999D01*
X166244341Y-72540000D01*
X166264936Y-72775403D01*
X166264938Y-72775413D01*
X166326094Y-73003655D01*
X166326096Y-73003659D01*
X166326097Y-73003663D01*
X166358664Y-73073503D01*
X166425965Y-73217830D01*
X166425967Y-73217834D01*
X166436703Y-73233166D01*
X166558369Y-73406923D01*
X166561501Y-73411395D01*
X166561506Y-73411402D01*
X166728597Y-73578493D01*
X166728603Y-73578498D01*
X166864887Y-73673925D01*
X166908512Y-73728502D01*
X166915706Y-73798000D01*
X166884183Y-73860355D01*
X166823953Y-73895769D01*
X166793764Y-73899500D01*
X164692682Y-73899500D01*
X164480235Y-73930044D01*
X164480225Y-73930047D01*
X164274284Y-73990517D01*
X164079061Y-74079672D01*
X164079048Y-74079679D01*
X163898485Y-74195720D01*
X163736275Y-74336275D01*
X163595720Y-74498485D01*
X163479679Y-74679048D01*
X163479678Y-74679051D01*
X163450295Y-74743390D01*
X163404539Y-74796193D01*
X163401404Y-74797856D01*
X163399999Y-74800000D01*
X163400132Y-74825610D01*
X163390705Y-74869642D01*
X163392061Y-74870148D01*
X163390514Y-74874293D01*
X163330047Y-75080225D01*
X163330044Y-75080235D01*
X163299500Y-75292682D01*
X163299500Y-101097020D01*
X163279815Y-101164059D01*
X163227011Y-101209814D01*
X163157853Y-101219758D01*
X163094297Y-101190733D01*
X163091962Y-101188657D01*
X162926562Y-101037876D01*
X162926560Y-101037874D01*
X162737404Y-100920754D01*
X162737398Y-100920752D01*
X162529940Y-100840382D01*
X162311243Y-100799500D01*
X162088757Y-100799500D01*
X161870060Y-100840382D01*
X161738864Y-100891207D01*
X161662601Y-100920752D01*
X161662595Y-100920754D01*
X161473439Y-101037874D01*
X161473437Y-101037876D01*
X161309020Y-101187761D01*
X161174943Y-101365308D01*
X161174938Y-101365316D01*
X161075775Y-101564461D01*
X161075769Y-101564476D01*
X161014885Y-101778462D01*
X161014884Y-101778464D01*
X160994357Y-101999999D01*
X160994357Y-102000000D01*
X161014884Y-102221535D01*
X161014885Y-102221537D01*
X161075769Y-102435523D01*
X161075775Y-102435538D01*
X161174938Y-102634683D01*
X161174943Y-102634691D01*
X161309020Y-102812238D01*
X161473437Y-102962123D01*
X161473439Y-102962125D01*
X161662595Y-103079245D01*
X161662596Y-103079245D01*
X161662599Y-103079247D01*
X161870060Y-103159618D01*
X162088757Y-103200500D01*
X162088759Y-103200500D01*
X162311241Y-103200500D01*
X162311243Y-103200500D01*
X162529940Y-103159618D01*
X162737401Y-103079247D01*
X162926562Y-102962124D01*
X163090981Y-102812236D01*
X163090980Y-102812236D01*
X163091962Y-102811342D01*
X163154766Y-102780725D01*
X163224153Y-102788922D01*
X163278093Y-102833332D01*
X163299461Y-102899854D01*
X163299500Y-102902979D01*
X163299500Y-105478788D01*
X163279815Y-105545827D01*
X163227011Y-105591582D01*
X163157853Y-105601526D01*
X163094297Y-105572501D01*
X163091962Y-105570425D01*
X162946562Y-105437876D01*
X162946560Y-105437874D01*
X162757404Y-105320754D01*
X162757398Y-105320752D01*
X162549940Y-105240382D01*
X162331243Y-105199500D01*
X162108757Y-105199500D01*
X161890060Y-105240382D01*
X161758864Y-105291207D01*
X161682601Y-105320752D01*
X161682595Y-105320754D01*
X161493439Y-105437874D01*
X161493437Y-105437876D01*
X161329020Y-105587761D01*
X161194943Y-105765308D01*
X161194938Y-105765316D01*
X161095775Y-105964461D01*
X161095769Y-105964476D01*
X161034885Y-106178462D01*
X161034884Y-106178464D01*
X161014357Y-106399999D01*
X161014357Y-106400000D01*
X161034885Y-106621537D01*
X161040270Y-106640463D01*
X161039683Y-106710330D01*
X161008685Y-106762078D01*
X158807584Y-108963181D01*
X158746261Y-108996666D01*
X158719903Y-108999500D01*
X153055163Y-108999500D01*
X152988124Y-108979815D01*
X152942369Y-108927011D01*
X152932425Y-108857853D01*
X152961450Y-108794297D01*
X152967473Y-108787826D01*
X153168853Y-108586446D01*
X153230172Y-108552964D01*
X153244370Y-108550728D01*
X153386331Y-108536747D01*
X153565501Y-108482396D01*
X153730625Y-108394136D01*
X153875357Y-108275357D01*
X153994136Y-108130625D01*
X154082396Y-107965501D01*
X154136747Y-107786331D01*
X154140276Y-107750500D01*
X156334472Y-107750500D01*
X157150500Y-107750500D01*
X158148500Y-107750500D01*
X158608881Y-107750500D01*
X159650500Y-106708879D01*
X159650500Y-106248500D01*
X158148500Y-106248500D01*
X158148500Y-107750500D01*
X157150500Y-107750500D01*
X157150500Y-106248500D01*
X156793378Y-106248500D01*
X156801011Y-106330878D01*
X156801408Y-106336591D01*
X156803009Y-106371211D01*
X156803141Y-106376939D01*
X156803141Y-106423061D01*
X156803009Y-106428789D01*
X156801408Y-106463409D01*
X156801011Y-106469122D01*
X156776235Y-106736495D01*
X156775575Y-106742185D01*
X156770786Y-106776517D01*
X156769863Y-106782175D01*
X156761387Y-106827510D01*
X156760205Y-106833111D01*
X156752273Y-106866836D01*
X156750834Y-106872379D01*
X156677355Y-107130637D01*
X156675660Y-107136109D01*
X156664647Y-107168968D01*
X156662701Y-107174357D01*
X156646039Y-107217366D01*
X156643848Y-107222657D01*
X156629849Y-107254363D01*
X156627414Y-107259550D01*
X156507725Y-107499917D01*
X156505055Y-107504982D01*
X156488191Y-107535260D01*
X156485287Y-107540202D01*
X156461003Y-107579421D01*
X156457875Y-107584222D01*
X156438283Y-107612821D01*
X156434937Y-107617470D01*
X156334472Y-107750500D01*
X154140276Y-107750500D01*
X154147876Y-107673330D01*
X154174036Y-107608544D01*
X154231071Y-107568185D01*
X154294064Y-107563596D01*
X154488807Y-107600000D01*
X154711193Y-107600000D01*
X154929809Y-107559133D01*
X155137168Y-107478801D01*
X155137181Y-107478795D01*
X155253326Y-107406879D01*
X154596447Y-106750000D01*
X154646078Y-106750000D01*
X154735095Y-106726148D01*
X154814905Y-106680070D01*
X154880070Y-106614905D01*
X154926148Y-106535095D01*
X154950000Y-106446078D01*
X154950000Y-106399999D01*
X154953553Y-106399999D01*
X154953553Y-106400000D01*
X155608861Y-107055308D01*
X155624631Y-107034425D01*
X155624633Y-107034422D01*
X155723759Y-106835350D01*
X155784621Y-106621439D01*
X155805141Y-106400000D01*
X155805141Y-106399999D01*
X155784621Y-106178560D01*
X155723759Y-105964649D01*
X155624635Y-105765580D01*
X155624630Y-105765572D01*
X155608860Y-105744690D01*
X154953553Y-106399999D01*
X154950000Y-106399999D01*
X154950000Y-106353922D01*
X154926148Y-106264905D01*
X154880070Y-106185095D01*
X154814905Y-106119930D01*
X154735095Y-106073852D01*
X154646078Y-106050000D01*
X154553922Y-106050000D01*
X154464905Y-106073852D01*
X154385095Y-106119930D01*
X154319930Y-106185095D01*
X154273852Y-106264905D01*
X154250000Y-106353922D01*
X154250000Y-106403553D01*
X153591138Y-105744691D01*
X153591137Y-105744691D01*
X153575368Y-105765574D01*
X153476240Y-105964649D01*
X153415378Y-106178560D01*
X153394859Y-106399999D01*
X153394859Y-106400001D01*
X153405696Y-106516958D01*
X153392281Y-106585528D01*
X153343923Y-106635960D01*
X153275977Y-106652242D01*
X153270072Y-106651802D01*
X153200001Y-106644901D01*
X153200000Y-106644901D01*
X153013668Y-106663252D01*
X153013666Y-106663253D01*
X152834497Y-106717604D01*
X152669376Y-106805862D01*
X152669373Y-106805864D01*
X152524642Y-106924642D01*
X152405864Y-107069373D01*
X152405862Y-107069376D01*
X152317604Y-107234497D01*
X152263253Y-107413666D01*
X152263253Y-107413667D01*
X152249271Y-107555622D01*
X152223110Y-107620409D01*
X152213549Y-107631148D01*
X151956516Y-107888182D01*
X151895196Y-107921666D01*
X151868837Y-107924500D01*
X146581163Y-107924500D01*
X146514124Y-107904815D01*
X146493482Y-107888181D01*
X145531801Y-106926500D01*
X148148500Y-106926500D01*
X149650500Y-106926500D01*
X150648500Y-106926500D01*
X151368127Y-106926500D01*
X151369690Y-106921349D01*
X151371598Y-106915571D01*
X151383999Y-106880912D01*
X151386189Y-106875237D01*
X151404941Y-106829962D01*
X151407408Y-106824395D01*
X151423156Y-106791098D01*
X151425893Y-106785661D01*
X151537255Y-106577316D01*
X151540254Y-106572022D01*
X151559180Y-106540445D01*
X151562435Y-106535304D01*
X151589662Y-106494554D01*
X151593168Y-106489576D01*
X151615108Y-106459993D01*
X151618853Y-106455194D01*
X151768724Y-106272576D01*
X151772699Y-106267967D01*
X151790343Y-106248500D01*
X150648500Y-106248500D01*
X150648500Y-106926500D01*
X149650500Y-106926500D01*
X149650500Y-106248500D01*
X148148500Y-106248500D01*
X148148500Y-106926500D01*
X145531801Y-106926500D01*
X145505032Y-106899731D01*
X145471547Y-106838408D01*
X145476531Y-106768716D01*
X145518403Y-106712783D01*
X145573312Y-106689577D01*
X145730245Y-106664722D01*
X145730248Y-106664721D01*
X145730249Y-106664721D01*
X145947755Y-106594049D01*
X145947755Y-106594048D01*
X145947758Y-106594048D01*
X146151538Y-106490217D01*
X146336566Y-106355786D01*
X146498286Y-106194066D01*
X146632717Y-106009038D01*
X146736548Y-105805258D01*
X146749528Y-105765311D01*
X146807221Y-105587749D01*
X146807221Y-105587748D01*
X146807222Y-105587745D01*
X146838048Y-105393119D01*
X153946671Y-105393119D01*
X154600000Y-106046447D01*
X154600001Y-106046447D01*
X155253327Y-105393119D01*
X155137178Y-105321202D01*
X155137177Y-105321201D01*
X154929804Y-105240865D01*
X154711193Y-105200000D01*
X154488807Y-105200000D01*
X154270195Y-105240865D01*
X154062824Y-105321200D01*
X154062823Y-105321201D01*
X153946671Y-105393119D01*
X146838048Y-105393119D01*
X146843000Y-105361854D01*
X146843000Y-105250500D01*
X148148500Y-105250500D01*
X149650500Y-105250500D01*
X150648500Y-105250500D01*
X152150500Y-105250500D01*
X152150500Y-104762742D01*
X153148500Y-104762742D01*
X153184823Y-104705566D01*
X153224211Y-104666630D01*
X153557042Y-104460550D01*
X153561976Y-104457651D01*
X153592235Y-104440795D01*
X153597302Y-104438123D01*
X153638587Y-104417563D01*
X153643777Y-104415127D01*
X153675497Y-104401121D01*
X153680790Y-104398928D01*
X153931193Y-104301921D01*
X153936584Y-104299975D01*
X153969466Y-104288955D01*
X153974942Y-104287259D01*
X154019304Y-104274640D01*
X154024846Y-104273202D01*
X154058560Y-104265274D01*
X154064160Y-104264092D01*
X154328090Y-104214755D01*
X154333744Y-104213833D01*
X154368062Y-104209046D01*
X154373750Y-104208386D01*
X154419673Y-104204130D01*
X154425388Y-104203733D01*
X154460012Y-104202132D01*
X154465740Y-104202000D01*
X154650500Y-104202000D01*
X154650500Y-104198500D01*
X154445695Y-104198500D01*
X154439967Y-104198368D01*
X154405346Y-104196767D01*
X154399632Y-104196370D01*
X154353706Y-104192114D01*
X154348016Y-104191454D01*
X154313693Y-104186666D01*
X154308040Y-104185744D01*
X154044004Y-104136387D01*
X154038396Y-104135204D01*
X154004654Y-104127267D01*
X153999112Y-104125827D01*
X153954752Y-104113205D01*
X153949278Y-104111510D01*
X153916428Y-104100499D01*
X153911043Y-104098555D01*
X153660569Y-104001522D01*
X153655274Y-103999328D01*
X153623553Y-103985321D01*
X153618365Y-103982886D01*
X153577080Y-103962326D01*
X153572016Y-103959656D01*
X153541757Y-103942801D01*
X153536821Y-103939900D01*
X153511498Y-103924221D01*
X155648500Y-103924221D01*
X155648500Y-104463980D01*
X155975790Y-104666632D01*
X156015178Y-104705569D01*
X156121988Y-104873705D01*
X156233303Y-104934033D01*
X156273174Y-104968324D01*
X156434946Y-105182541D01*
X156438291Y-105187192D01*
X156457873Y-105215778D01*
X156460999Y-105220574D01*
X156479530Y-105250500D01*
X157150500Y-105250500D01*
X158148500Y-105250500D01*
X159650500Y-105250500D01*
X159650500Y-104857682D01*
X160648500Y-104857682D01*
X160838129Y-104684812D01*
X160842451Y-104681051D01*
X160869109Y-104658915D01*
X160873596Y-104655361D01*
X160910402Y-104627565D01*
X160915053Y-104624218D01*
X160943650Y-104604628D01*
X160948451Y-104601500D01*
X161176821Y-104460100D01*
X161181757Y-104457199D01*
X161212016Y-104440344D01*
X161217080Y-104437674D01*
X161258365Y-104417114D01*
X161263553Y-104414679D01*
X161295274Y-104400672D01*
X161300569Y-104398478D01*
X161551043Y-104301445D01*
X161556428Y-104299501D01*
X161589278Y-104288490D01*
X161594752Y-104286795D01*
X161639112Y-104274173D01*
X161644654Y-104272733D01*
X161678396Y-104264796D01*
X161684004Y-104263613D01*
X161948040Y-104214256D01*
X161953693Y-104213334D01*
X161988016Y-104208546D01*
X161993706Y-104207886D01*
X162039632Y-104203630D01*
X162045346Y-104203233D01*
X162079967Y-104201632D01*
X162085695Y-104201500D01*
X162150500Y-104201500D01*
X162150500Y-104198500D01*
X162065695Y-104198500D01*
X162059967Y-104198368D01*
X162025346Y-104196767D01*
X162019632Y-104196370D01*
X161973706Y-104192114D01*
X161968016Y-104191454D01*
X161933693Y-104186666D01*
X161928040Y-104185744D01*
X161664004Y-104136387D01*
X161658396Y-104135204D01*
X161624654Y-104127267D01*
X161619112Y-104125827D01*
X161574752Y-104113205D01*
X161569278Y-104111510D01*
X161536428Y-104100499D01*
X161531043Y-104098555D01*
X161280569Y-104001522D01*
X161275274Y-103999328D01*
X161243553Y-103985321D01*
X161238365Y-103982886D01*
X161197080Y-103962326D01*
X161192016Y-103959656D01*
X161161757Y-103942801D01*
X161156821Y-103939900D01*
X160928451Y-103798500D01*
X160923650Y-103795372D01*
X160895053Y-103775782D01*
X160890402Y-103772435D01*
X160858709Y-103748500D01*
X160648500Y-103748500D01*
X160648500Y-104857682D01*
X159650500Y-104857682D01*
X159650500Y-103748500D01*
X158148500Y-103748500D01*
X158148500Y-105250500D01*
X157150500Y-105250500D01*
X157150500Y-103748500D01*
X155921291Y-103748500D01*
X155889598Y-103772435D01*
X155884947Y-103775782D01*
X155856350Y-103795372D01*
X155851549Y-103798500D01*
X155648500Y-103924221D01*
X153511498Y-103924221D01*
X153308451Y-103798500D01*
X153303650Y-103795372D01*
X153275053Y-103775782D01*
X153270402Y-103772435D01*
X153238709Y-103748500D01*
X153148500Y-103748500D01*
X153148500Y-104762742D01*
X152150500Y-104762742D01*
X152150500Y-103748500D01*
X150648500Y-103748500D01*
X150648500Y-105250500D01*
X149650500Y-105250500D01*
X149650500Y-103748500D01*
X148148500Y-103748500D01*
X148148500Y-105250500D01*
X146843000Y-105250500D01*
X146843000Y-105038146D01*
X146807222Y-104812255D01*
X146807221Y-104812251D01*
X146807221Y-104812250D01*
X146736549Y-104594744D01*
X146669921Y-104463980D01*
X146632717Y-104390962D01*
X146498286Y-104205934D01*
X146336566Y-104044214D01*
X146151538Y-103909783D01*
X145947755Y-103805950D01*
X145730248Y-103735278D01*
X145544812Y-103705908D01*
X145504354Y-103699500D01*
X145275646Y-103699500D01*
X145244760Y-103704391D01*
X145049755Y-103735277D01*
X144994332Y-103753285D01*
X144924491Y-103755279D01*
X144868335Y-103723034D01*
X143857191Y-102711890D01*
X145648500Y-102711890D01*
X145892264Y-102750500D01*
X147150500Y-102750500D01*
X147150500Y-102347999D01*
X148148500Y-102347999D01*
X148148500Y-102750500D01*
X149650500Y-102750500D01*
X149650500Y-102345056D01*
X149609901Y-102347212D01*
X149606605Y-102347343D01*
X149583431Y-102347956D01*
X149580152Y-102347999D01*
X148649454Y-102347999D01*
X148601999Y-102338559D01*
X148600001Y-102337731D01*
X148598004Y-102338559D01*
X148550549Y-102347999D01*
X148148500Y-102347999D01*
X147150500Y-102347999D01*
X147150500Y-102280862D01*
X147138706Y-102278582D01*
X147133564Y-102277474D01*
X147102593Y-102270109D01*
X147097498Y-102268782D01*
X147056722Y-102257236D01*
X147051688Y-102255695D01*
X147021434Y-102245723D01*
X147016469Y-102243969D01*
X146757828Y-102146362D01*
X146752945Y-102144400D01*
X146723652Y-102131901D01*
X146718853Y-102129731D01*
X146680614Y-102111458D01*
X146675914Y-102109088D01*
X146647792Y-102094152D01*
X146643198Y-102091586D01*
X146551499Y-102037775D01*
X150648500Y-102037775D01*
X150648500Y-102750500D01*
X152150500Y-102750500D01*
X152150500Y-101999999D01*
X153374357Y-101999999D01*
X153374357Y-102000000D01*
X153394884Y-102221535D01*
X153394885Y-102221537D01*
X153455769Y-102435523D01*
X153455775Y-102435538D01*
X153554938Y-102634683D01*
X153554943Y-102634691D01*
X153689020Y-102812238D01*
X153853437Y-102962123D01*
X153853439Y-102962125D01*
X154042595Y-103079245D01*
X154042596Y-103079245D01*
X154042599Y-103079247D01*
X154250060Y-103159618D01*
X154468757Y-103200500D01*
X154468759Y-103200500D01*
X154691241Y-103200500D01*
X154691243Y-103200500D01*
X154909940Y-103159618D01*
X155117401Y-103079247D01*
X155306562Y-102962124D01*
X155470981Y-102812236D01*
X155605058Y-102634689D01*
X155704229Y-102435528D01*
X155765115Y-102221536D01*
X155785643Y-102000000D01*
X155782540Y-101966518D01*
X155765115Y-101778464D01*
X155765114Y-101778462D01*
X155734670Y-101671463D01*
X155704229Y-101564472D01*
X155704224Y-101564461D01*
X155605061Y-101365316D01*
X155605056Y-101365308D01*
X155516847Y-101248500D01*
X156651029Y-101248500D01*
X156656131Y-101263723D01*
X156657824Y-101269192D01*
X156731326Y-101527524D01*
X156732766Y-101533067D01*
X156740699Y-101566795D01*
X156741881Y-101572398D01*
X156750357Y-101617734D01*
X156751280Y-101623391D01*
X156756069Y-101657724D01*
X156756729Y-101663413D01*
X156781514Y-101930879D01*
X156781911Y-101936596D01*
X156783511Y-101971214D01*
X156783643Y-101976939D01*
X156783643Y-102023061D01*
X156783511Y-102028786D01*
X156781911Y-102063404D01*
X156781514Y-102069121D01*
X156756729Y-102336587D01*
X156756069Y-102342276D01*
X156751280Y-102376609D01*
X156750357Y-102382266D01*
X156741881Y-102427602D01*
X156740699Y-102433205D01*
X156732766Y-102466933D01*
X156731326Y-102472476D01*
X156657824Y-102730808D01*
X156656131Y-102736277D01*
X156651364Y-102750500D01*
X157150500Y-102750500D01*
X158148500Y-102750500D01*
X159650500Y-102750500D01*
X159650500Y-101248500D01*
X158148500Y-101248500D01*
X158148500Y-102750500D01*
X157150500Y-102750500D01*
X157150500Y-101248500D01*
X156651029Y-101248500D01*
X155516847Y-101248500D01*
X155470979Y-101187761D01*
X155306562Y-101037876D01*
X155306560Y-101037874D01*
X155117404Y-100920754D01*
X155117398Y-100920752D01*
X154909940Y-100840382D01*
X154691243Y-100799500D01*
X154468757Y-100799500D01*
X154250060Y-100840382D01*
X154118864Y-100891207D01*
X154042601Y-100920752D01*
X154042595Y-100920754D01*
X153853439Y-101037874D01*
X153853437Y-101037876D01*
X153689020Y-101187761D01*
X153554943Y-101365308D01*
X153554938Y-101365316D01*
X153455775Y-101564461D01*
X153455769Y-101564476D01*
X153394885Y-101778462D01*
X153394884Y-101778464D01*
X153374357Y-101999999D01*
X152150500Y-101999999D01*
X152150500Y-101248500D01*
X151479094Y-101248500D01*
X151451678Y-101295219D01*
X151448917Y-101299703D01*
X151431651Y-101326455D01*
X151428706Y-101330813D01*
X151404235Y-101365414D01*
X151401103Y-101369648D01*
X151381625Y-101394847D01*
X151378319Y-101398942D01*
X151200127Y-101610290D01*
X151196648Y-101614243D01*
X151175105Y-101637697D01*
X151171463Y-101641496D01*
X151141496Y-101671463D01*
X151137697Y-101675105D01*
X151114243Y-101696648D01*
X151110290Y-101700127D01*
X150898942Y-101878319D01*
X150894847Y-101881625D01*
X150869648Y-101901103D01*
X150865414Y-101904235D01*
X150830813Y-101928706D01*
X150826455Y-101931651D01*
X150799703Y-101948917D01*
X150795219Y-101951678D01*
X150648500Y-102037775D01*
X146551499Y-102037775D01*
X146404781Y-101951678D01*
X146400297Y-101948917D01*
X146373545Y-101931651D01*
X146369187Y-101928706D01*
X146334586Y-101904235D01*
X146330352Y-101901103D01*
X146305153Y-101881625D01*
X146301058Y-101878319D01*
X146089710Y-101700127D01*
X146085757Y-101696648D01*
X146062303Y-101675105D01*
X146058504Y-101671463D01*
X146028537Y-101641496D01*
X146024895Y-101637697D01*
X146003352Y-101614243D01*
X145999873Y-101610290D01*
X145821681Y-101398942D01*
X145818375Y-101394847D01*
X145798897Y-101369648D01*
X145795765Y-101365414D01*
X145771294Y-101330813D01*
X145768349Y-101326455D01*
X145751083Y-101299703D01*
X145748322Y-101295219D01*
X145720906Y-101248500D01*
X145648500Y-101248500D01*
X145648500Y-102711890D01*
X143857191Y-102711890D01*
X143111819Y-101966518D01*
X143078334Y-101905195D01*
X143075500Y-101878837D01*
X143075500Y-100250500D01*
X144073500Y-100250500D01*
X144650500Y-100250500D01*
X144650500Y-98748500D01*
X144073500Y-98748500D01*
X144073500Y-100250500D01*
X143075500Y-100250500D01*
X143075500Y-98131421D01*
X146350000Y-98131421D01*
X146350000Y-98850000D01*
X147166988Y-98850000D01*
X147134075Y-98907007D01*
X147100000Y-99034174D01*
X147100000Y-99165826D01*
X147134075Y-99292993D01*
X147166988Y-99350000D01*
X146350001Y-99350000D01*
X146350001Y-100068588D01*
X146352794Y-100121191D01*
X146397237Y-100350987D01*
X146479879Y-100569975D01*
X146598339Y-100771841D01*
X146598344Y-100771848D01*
X146749211Y-100950786D01*
X146749213Y-100950788D01*
X146928151Y-101101655D01*
X146928158Y-101101660D01*
X147130024Y-101220120D01*
X147349012Y-101302762D01*
X147578809Y-101347205D01*
X147631382Y-101349998D01*
X147631421Y-101349999D01*
X148349999Y-101349999D01*
X148350000Y-101349998D01*
X148350000Y-99600000D01*
X148850000Y-99600000D01*
X148850000Y-101349999D01*
X149568576Y-101349999D01*
X149568588Y-101349998D01*
X149621191Y-101347205D01*
X149850987Y-101302762D01*
X150069975Y-101220120D01*
X150271841Y-101101660D01*
X150271848Y-101101655D01*
X150450786Y-100950788D01*
X150450788Y-100950786D01*
X150601655Y-100771848D01*
X150601660Y-100771841D01*
X150720120Y-100569975D01*
X150802762Y-100350987D01*
X150822196Y-100250500D01*
X151836825Y-100250500D01*
X152150500Y-100250500D01*
X153148500Y-100250500D01*
X153240033Y-100250500D01*
X153270402Y-100227565D01*
X153275053Y-100224218D01*
X153303650Y-100204628D01*
X153308451Y-100201500D01*
X153511500Y-100075778D01*
X155648500Y-100075778D01*
X155851549Y-100201500D01*
X155856350Y-100204628D01*
X155884947Y-100224218D01*
X155889598Y-100227565D01*
X155919967Y-100250500D01*
X157150500Y-100250500D01*
X158148500Y-100250500D01*
X159650500Y-100250500D01*
X160648500Y-100250500D01*
X160860033Y-100250500D01*
X160890402Y-100227565D01*
X160895053Y-100224218D01*
X160923650Y-100204628D01*
X160928451Y-100201500D01*
X161156821Y-100060100D01*
X161161757Y-100057199D01*
X161192016Y-100040344D01*
X161197080Y-100037674D01*
X161238365Y-100017114D01*
X161243553Y-100014679D01*
X161275274Y-100000672D01*
X161280569Y-99998478D01*
X161531043Y-99901445D01*
X161536428Y-99899501D01*
X161569278Y-99888490D01*
X161574752Y-99886795D01*
X161619112Y-99874173D01*
X161624654Y-99872733D01*
X161658396Y-99864796D01*
X161664004Y-99863613D01*
X161928040Y-99814256D01*
X161933693Y-99813334D01*
X161968016Y-99808546D01*
X161973706Y-99807886D01*
X162019632Y-99803630D01*
X162025346Y-99803233D01*
X162059967Y-99801632D01*
X162065695Y-99801500D01*
X162150500Y-99801500D01*
X162150500Y-98748500D01*
X160648500Y-98748500D01*
X160648500Y-100250500D01*
X159650500Y-100250500D01*
X159650500Y-98748500D01*
X158148500Y-98748500D01*
X158148500Y-100250500D01*
X157150500Y-100250500D01*
X157150500Y-98748500D01*
X155648500Y-98748500D01*
X155648500Y-100075778D01*
X153511500Y-100075778D01*
X153536821Y-100060100D01*
X153541757Y-100057199D01*
X153572016Y-100040344D01*
X153577080Y-100037674D01*
X153618365Y-100017114D01*
X153623553Y-100014679D01*
X153655274Y-100000672D01*
X153660569Y-99998478D01*
X153911043Y-99901445D01*
X153916428Y-99899501D01*
X153949278Y-99888490D01*
X153954752Y-99886795D01*
X153999112Y-99874173D01*
X154004654Y-99872733D01*
X154038396Y-99864796D01*
X154044004Y-99863613D01*
X154308040Y-99814256D01*
X154313693Y-99813334D01*
X154348016Y-99808546D01*
X154353706Y-99807886D01*
X154399632Y-99803630D01*
X154405346Y-99803233D01*
X154439967Y-99801632D01*
X154445695Y-99801500D01*
X154650500Y-99801500D01*
X154650500Y-98748500D01*
X153148500Y-98748500D01*
X153148500Y-100250500D01*
X152150500Y-100250500D01*
X152150500Y-98748500D01*
X151847999Y-98748500D01*
X151847999Y-99050546D01*
X151838559Y-99098001D01*
X151837731Y-99099998D01*
X151838561Y-99102000D01*
X151848000Y-99149454D01*
X151848000Y-100080150D01*
X151847957Y-100083427D01*
X151847344Y-100106615D01*
X151847212Y-100109917D01*
X151842888Y-100191304D01*
X151842588Y-100195565D01*
X151840330Y-100221295D01*
X151839884Y-100225539D01*
X151836825Y-100250500D01*
X150822196Y-100250500D01*
X150847205Y-100121191D01*
X150847205Y-100121190D01*
X150849998Y-100068617D01*
X150850000Y-100068578D01*
X150850000Y-99350000D01*
X150033012Y-99350000D01*
X150065925Y-99292993D01*
X150100000Y-99165826D01*
X150100000Y-99034174D01*
X150065925Y-98907007D01*
X150033012Y-98850000D01*
X150849999Y-98850000D01*
X150849999Y-98131423D01*
X150849998Y-98131411D01*
X150847205Y-98078808D01*
X150802762Y-97849012D01*
X150727092Y-97648499D01*
X153148500Y-97648499D01*
X153148500Y-97750500D01*
X154650500Y-97750500D01*
X155648500Y-97750500D01*
X156224737Y-97750500D01*
X156211908Y-97737671D01*
X156205876Y-97731192D01*
X156170796Y-97690707D01*
X156165243Y-97683816D01*
X156036345Y-97511632D01*
X156031297Y-97504362D01*
X156002333Y-97459295D01*
X155997815Y-97451681D01*
X155963638Y-97389091D01*
X155959677Y-97381177D01*
X155937419Y-97332441D01*
X155934030Y-97324261D01*
X155860421Y-97126904D01*
X155857942Y-97119564D01*
X155844332Y-97074695D01*
X155842315Y-97067212D01*
X155827972Y-97006501D01*
X155826428Y-96998916D01*
X155818522Y-96952738D01*
X155817455Y-96945069D01*
X155806289Y-96841217D01*
X155805977Y-96837905D01*
X155804364Y-96817856D01*
X155804142Y-96814542D01*
X155802713Y-96787855D01*
X155802580Y-96784539D01*
X155802044Y-96764491D01*
X155802000Y-96761177D01*
X155802000Y-96248500D01*
X155648500Y-96248500D01*
X155648500Y-97750500D01*
X154650500Y-97750500D01*
X154650500Y-96905509D01*
X154648110Y-96909537D01*
X154619146Y-96954604D01*
X154614098Y-96961874D01*
X154485114Y-97134173D01*
X154479561Y-97141064D01*
X154444481Y-97181549D01*
X154438449Y-97188028D01*
X154388028Y-97238449D01*
X154381549Y-97244481D01*
X154341064Y-97279561D01*
X154334173Y-97285114D01*
X154161874Y-97414098D01*
X154154604Y-97419146D01*
X154109537Y-97448110D01*
X154101923Y-97452628D01*
X154039333Y-97486805D01*
X154031419Y-97490767D01*
X153982682Y-97513025D01*
X153974502Y-97516413D01*
X153777018Y-97590069D01*
X153769679Y-97592548D01*
X153724828Y-97606153D01*
X153717352Y-97608168D01*
X153656637Y-97622516D01*
X153649045Y-97624061D01*
X153602840Y-97631972D01*
X153595167Y-97633041D01*
X153491244Y-97644212D01*
X153487939Y-97644522D01*
X153467899Y-97646135D01*
X153464578Y-97646358D01*
X153437895Y-97647786D01*
X153434582Y-97647919D01*
X153414534Y-97648455D01*
X153411220Y-97648499D01*
X153148500Y-97648499D01*
X150727092Y-97648499D01*
X150720120Y-97630024D01*
X150601660Y-97428158D01*
X150601655Y-97428151D01*
X150450788Y-97249213D01*
X150450786Y-97249211D01*
X150271848Y-97098344D01*
X150271841Y-97098339D01*
X150069975Y-96979879D01*
X149850984Y-96897236D01*
X149845840Y-96896241D01*
X149783760Y-96864180D01*
X149748869Y-96803646D01*
X149752244Y-96733858D01*
X149792814Y-96676973D01*
X149857697Y-96651052D01*
X149869374Y-96650499D01*
X153397872Y-96650499D01*
X153457483Y-96644091D01*
X153592331Y-96593796D01*
X153707546Y-96507546D01*
X153793796Y-96392331D01*
X153844091Y-96257483D01*
X153850500Y-96197873D01*
X153850500Y-95250500D01*
X155648500Y-95250500D01*
X155802000Y-95250500D01*
X155802000Y-94852155D01*
X156800000Y-94852155D01*
X156800000Y-95550000D01*
X157824722Y-95550000D01*
X157780667Y-95626306D01*
X157750000Y-95740756D01*
X157750000Y-95859244D01*
X157780667Y-95973694D01*
X157824722Y-96050000D01*
X156800000Y-96050000D01*
X156800000Y-96747844D01*
X156806401Y-96807372D01*
X156806403Y-96807379D01*
X156856645Y-96942086D01*
X156856649Y-96942093D01*
X156942809Y-97057187D01*
X156942812Y-97057190D01*
X157057906Y-97143350D01*
X157057913Y-97143354D01*
X157192620Y-97193596D01*
X157192627Y-97193598D01*
X157252155Y-97199999D01*
X157252172Y-97200000D01*
X157950000Y-97200000D01*
X157950000Y-96175277D01*
X158026306Y-96219333D01*
X158140756Y-96250000D01*
X158259244Y-96250000D01*
X158373694Y-96219333D01*
X158450000Y-96175277D01*
X158450000Y-97200000D01*
X159147828Y-97200000D01*
X159147844Y-97199999D01*
X159207372Y-97193598D01*
X159207379Y-97193596D01*
X159342086Y-97143354D01*
X159342093Y-97143350D01*
X159457187Y-97057190D01*
X159457190Y-97057187D01*
X159543350Y-96942093D01*
X159543355Y-96942084D01*
X159572075Y-96865081D01*
X159613945Y-96809147D01*
X159679409Y-96784729D01*
X159747682Y-96799580D01*
X159779484Y-96824428D01*
X159788216Y-96833913D01*
X159788219Y-96833915D01*
X159788222Y-96833918D01*
X159971365Y-96976464D01*
X159971371Y-96976468D01*
X159971374Y-96976470D01*
X160175497Y-97086936D01*
X160270539Y-97119564D01*
X160395015Y-97162297D01*
X160395017Y-97162297D01*
X160395019Y-97162298D01*
X160623951Y-97200500D01*
X160623952Y-97200500D01*
X160856048Y-97200500D01*
X160856049Y-97200500D01*
X161084981Y-97162298D01*
X161304503Y-97086936D01*
X161508626Y-96976470D01*
X161691784Y-96833913D01*
X161848979Y-96663153D01*
X161975924Y-96468849D01*
X162069157Y-96256300D01*
X162126134Y-96031305D01*
X162137014Y-95900000D01*
X162145300Y-95800006D01*
X162145300Y-95799993D01*
X162126135Y-95568702D01*
X162126133Y-95568691D01*
X162069157Y-95343699D01*
X161975924Y-95131151D01*
X161848983Y-94936852D01*
X161848980Y-94936849D01*
X161848979Y-94936847D01*
X161691784Y-94766087D01*
X161691779Y-94766083D01*
X161691777Y-94766081D01*
X161508634Y-94623535D01*
X161508628Y-94623531D01*
X161304504Y-94513064D01*
X161304495Y-94513061D01*
X161084984Y-94437702D01*
X160897404Y-94406401D01*
X160856049Y-94399500D01*
X160623951Y-94399500D01*
X160582596Y-94406401D01*
X160395015Y-94437702D01*
X160175504Y-94513061D01*
X160175495Y-94513064D01*
X159971371Y-94623531D01*
X159971365Y-94623535D01*
X159788222Y-94766081D01*
X159788215Y-94766087D01*
X159779484Y-94775572D01*
X159719595Y-94811561D01*
X159649757Y-94809458D01*
X159592143Y-94769932D01*
X159572075Y-94734918D01*
X159543355Y-94657915D01*
X159543350Y-94657906D01*
X159457190Y-94542812D01*
X159457187Y-94542809D01*
X159342093Y-94456649D01*
X159342086Y-94456645D01*
X159207379Y-94406403D01*
X159207372Y-94406401D01*
X159147844Y-94400000D01*
X158450000Y-94400000D01*
X158450000Y-95424722D01*
X158373694Y-95380667D01*
X158259244Y-95350000D01*
X158140756Y-95350000D01*
X158026306Y-95380667D01*
X157950000Y-95424722D01*
X157950000Y-94400000D01*
X157252155Y-94400000D01*
X157192627Y-94406401D01*
X157192620Y-94406403D01*
X157057913Y-94456645D01*
X157057906Y-94456649D01*
X156942812Y-94542809D01*
X156942809Y-94542812D01*
X156856649Y-94657906D01*
X156856645Y-94657913D01*
X156806403Y-94792620D01*
X156806401Y-94792627D01*
X156800000Y-94852155D01*
X155802000Y-94852155D01*
X155802000Y-94838823D01*
X155802044Y-94835509D01*
X155802580Y-94815461D01*
X155802713Y-94812145D01*
X155804142Y-94785458D01*
X155804364Y-94782144D01*
X155805977Y-94762095D01*
X155806289Y-94758783D01*
X155817455Y-94654931D01*
X155818522Y-94647262D01*
X155826428Y-94601084D01*
X155827972Y-94593499D01*
X155842315Y-94532788D01*
X155844332Y-94525305D01*
X155857942Y-94480436D01*
X155860421Y-94473096D01*
X155934030Y-94275739D01*
X155937419Y-94267559D01*
X155959677Y-94218823D01*
X155963638Y-94210909D01*
X155997815Y-94148319D01*
X156002333Y-94140705D01*
X156031297Y-94095638D01*
X156036345Y-94088368D01*
X156165243Y-93916184D01*
X156170796Y-93909293D01*
X156205876Y-93868808D01*
X156211908Y-93862329D01*
X156262329Y-93811908D01*
X156268808Y-93805876D01*
X156309293Y-93770796D01*
X156316184Y-93765243D01*
X156338550Y-93748500D01*
X155648500Y-93748500D01*
X155648500Y-95250500D01*
X153850500Y-95250500D01*
X153850499Y-92750500D01*
X155648500Y-92750500D01*
X157150500Y-92750500D01*
X158148500Y-92750500D01*
X159650500Y-92750500D01*
X160648500Y-92750500D01*
X162150500Y-92750500D01*
X162150500Y-91248500D01*
X160648500Y-91248500D01*
X160648500Y-92750500D01*
X159650500Y-92750500D01*
X159650500Y-91248500D01*
X158148500Y-91248500D01*
X158148500Y-92750500D01*
X157150500Y-92750500D01*
X157150500Y-91248500D01*
X155648500Y-91248500D01*
X155648500Y-92750500D01*
X153850499Y-92750500D01*
X153850499Y-92602128D01*
X153844091Y-92542517D01*
X153804571Y-92436559D01*
X153793797Y-92407671D01*
X153793793Y-92407664D01*
X153707547Y-92292455D01*
X153707544Y-92292452D01*
X153592335Y-92206206D01*
X153592328Y-92206202D01*
X153457482Y-92155908D01*
X153457483Y-92155908D01*
X153397883Y-92149501D01*
X153397881Y-92149500D01*
X153397873Y-92149500D01*
X153397864Y-92149500D01*
X149802129Y-92149500D01*
X149802123Y-92149501D01*
X149742516Y-92155908D01*
X149607671Y-92206202D01*
X149607664Y-92206206D01*
X149492455Y-92292452D01*
X149492452Y-92292455D01*
X149406206Y-92407664D01*
X149406202Y-92407671D01*
X149355908Y-92542517D01*
X149349501Y-92602116D01*
X149349501Y-92602123D01*
X149349500Y-92602135D01*
X149349500Y-96197870D01*
X149349501Y-96197876D01*
X149355908Y-96257483D01*
X149406202Y-96392328D01*
X149406206Y-96392335D01*
X149492452Y-96507544D01*
X149492455Y-96507547D01*
X149607664Y-96593793D01*
X149607673Y-96593798D01*
X149656506Y-96612011D01*
X149712440Y-96653881D01*
X149736858Y-96719345D01*
X149722007Y-96787618D01*
X149672603Y-96837024D01*
X149606598Y-96852018D01*
X149568625Y-96850001D01*
X149568579Y-96850000D01*
X148850000Y-96850000D01*
X148850000Y-98600000D01*
X148350000Y-98600000D01*
X148350000Y-96850000D01*
X147631423Y-96850000D01*
X147631411Y-96850001D01*
X147578808Y-96852794D01*
X147349012Y-96897237D01*
X147130024Y-96979879D01*
X146928158Y-97098339D01*
X146928151Y-97098344D01*
X146749213Y-97249211D01*
X146749211Y-97249213D01*
X146598344Y-97428151D01*
X146598339Y-97428158D01*
X146479879Y-97630024D01*
X146397237Y-97849012D01*
X146352794Y-98078808D01*
X146352794Y-98078809D01*
X146350001Y-98131382D01*
X146350000Y-98131421D01*
X143075500Y-98131421D01*
X143075500Y-93335803D01*
X143600000Y-93335803D01*
X143600000Y-94150000D01*
X145100000Y-94150000D01*
X145100000Y-94650000D01*
X143600001Y-94650000D01*
X143600001Y-95464197D01*
X143610400Y-95596332D01*
X143665377Y-95814519D01*
X143758428Y-96019374D01*
X143758431Y-96019380D01*
X143886559Y-96204323D01*
X143886569Y-96204335D01*
X144045664Y-96363430D01*
X144045676Y-96363440D01*
X144230619Y-96491568D01*
X144230625Y-96491571D01*
X144435480Y-96584622D01*
X144653667Y-96639599D01*
X144785810Y-96649999D01*
X145349999Y-96649999D01*
X145350000Y-96649998D01*
X145350000Y-95833012D01*
X145407007Y-95865925D01*
X145534174Y-95900000D01*
X145665826Y-95900000D01*
X145792993Y-95865925D01*
X145850000Y-95833012D01*
X145850000Y-96649999D01*
X146414182Y-96649999D01*
X146414197Y-96649998D01*
X146546332Y-96639599D01*
X146764519Y-96584622D01*
X146969374Y-96491571D01*
X146969380Y-96491568D01*
X147154323Y-96363440D01*
X147154335Y-96363430D01*
X147313430Y-96204335D01*
X147313440Y-96204323D01*
X147441568Y-96019380D01*
X147441571Y-96019374D01*
X147534622Y-95814519D01*
X147589599Y-95596332D01*
X147599999Y-95464196D01*
X147600000Y-95464184D01*
X147600000Y-94650000D01*
X146100000Y-94650000D01*
X146100000Y-94150000D01*
X147599999Y-94150000D01*
X147599999Y-93335817D01*
X147599998Y-93335802D01*
X147589599Y-93203667D01*
X147534622Y-92985480D01*
X147441571Y-92780625D01*
X147441568Y-92780619D01*
X147313440Y-92595676D01*
X147313430Y-92595664D01*
X147154335Y-92436569D01*
X147154323Y-92436559D01*
X146969380Y-92308431D01*
X146969374Y-92308428D01*
X146764519Y-92215377D01*
X146546332Y-92160400D01*
X146414196Y-92150000D01*
X145850000Y-92150000D01*
X145850000Y-92966988D01*
X145792993Y-92934075D01*
X145665826Y-92900000D01*
X145534174Y-92900000D01*
X145407007Y-92934075D01*
X145350000Y-92966988D01*
X145350000Y-92150000D01*
X144785817Y-92150000D01*
X144785802Y-92150001D01*
X144653667Y-92160400D01*
X144435480Y-92215377D01*
X144230625Y-92308428D01*
X144230619Y-92308431D01*
X144045676Y-92436559D01*
X144045664Y-92436569D01*
X143886569Y-92595664D01*
X143886559Y-92595676D01*
X143758431Y-92780619D01*
X143758428Y-92780625D01*
X143665377Y-92985480D01*
X143610400Y-93203667D01*
X143600000Y-93335803D01*
X143075500Y-93335803D01*
X143075500Y-92048549D01*
X148148500Y-92048549D01*
X148274688Y-92230693D01*
X148277753Y-92235337D01*
X148295664Y-92263842D01*
X148298519Y-92268621D01*
X148320628Y-92307587D01*
X148323263Y-92312483D01*
X148338547Y-92342478D01*
X148340962Y-92347494D01*
X148366971Y-92404755D01*
X148368029Y-92397157D01*
X148375936Y-92350971D01*
X148377481Y-92343381D01*
X148391826Y-92282670D01*
X148393842Y-92275191D01*
X148407450Y-92230328D01*
X148409929Y-92222988D01*
X148483587Y-92025498D01*
X148486975Y-92017318D01*
X148509233Y-91968581D01*
X148513195Y-91960667D01*
X148547372Y-91898077D01*
X148551890Y-91890463D01*
X148580854Y-91845396D01*
X148585902Y-91838126D01*
X148714886Y-91665827D01*
X148720439Y-91658936D01*
X148755519Y-91618451D01*
X148761551Y-91611972D01*
X148811972Y-91561551D01*
X148818451Y-91555519D01*
X148858936Y-91520439D01*
X148865827Y-91514886D01*
X149038126Y-91385902D01*
X149045396Y-91380854D01*
X149090463Y-91351890D01*
X149098077Y-91347372D01*
X149160667Y-91313195D01*
X149168581Y-91309233D01*
X149217318Y-91286975D01*
X149225498Y-91283587D01*
X149319572Y-91248500D01*
X148148500Y-91248500D01*
X148148500Y-92048549D01*
X143075500Y-92048549D01*
X143075500Y-90250500D01*
X144073500Y-90250500D01*
X144650500Y-90250500D01*
X145648500Y-90250500D01*
X147150500Y-90250500D01*
X148148500Y-90250500D01*
X149650500Y-90250500D01*
X150648500Y-90250500D01*
X152150500Y-90250500D01*
X152150500Y-89597051D01*
X153148500Y-89597051D01*
X153148500Y-90250500D01*
X154650500Y-90250500D01*
X155648500Y-90250500D01*
X157150500Y-90250500D01*
X158148500Y-90250500D01*
X159650500Y-90250500D01*
X159650500Y-89598500D01*
X160648500Y-89598500D01*
X160648500Y-90250500D01*
X162150500Y-90250500D01*
X162150500Y-88961461D01*
X161981871Y-89115188D01*
X161977549Y-89118949D01*
X161950891Y-89141085D01*
X161946404Y-89144639D01*
X161909598Y-89172435D01*
X161904947Y-89175782D01*
X161876350Y-89195372D01*
X161871549Y-89198500D01*
X161643179Y-89339900D01*
X161638243Y-89342801D01*
X161607984Y-89359656D01*
X161602920Y-89362326D01*
X161561635Y-89382886D01*
X161556447Y-89385321D01*
X161524726Y-89399328D01*
X161519431Y-89401522D01*
X161268957Y-89498555D01*
X161263572Y-89500499D01*
X161230722Y-89511510D01*
X161225248Y-89513205D01*
X161180888Y-89525827D01*
X161175346Y-89527267D01*
X161141604Y-89535204D01*
X161135996Y-89536387D01*
X160871960Y-89585744D01*
X160866307Y-89586666D01*
X160831984Y-89591454D01*
X160826294Y-89592114D01*
X160780368Y-89596370D01*
X160774654Y-89596767D01*
X160740033Y-89598368D01*
X160734305Y-89598500D01*
X160648500Y-89598500D01*
X159650500Y-89598500D01*
X159650500Y-89388388D01*
X159643553Y-89385321D01*
X159638365Y-89382886D01*
X159597080Y-89362326D01*
X159592016Y-89359656D01*
X159561757Y-89342801D01*
X159556821Y-89339900D01*
X159328451Y-89198500D01*
X159323650Y-89195372D01*
X159295053Y-89175782D01*
X159290402Y-89172435D01*
X159253596Y-89144639D01*
X159249109Y-89141085D01*
X159222451Y-89118949D01*
X159218129Y-89115188D01*
X159019627Y-88934229D01*
X159015484Y-88930273D01*
X158990976Y-88905765D01*
X158987019Y-88901621D01*
X158955948Y-88867537D01*
X158952188Y-88863217D01*
X158930050Y-88836557D01*
X158926494Y-88832067D01*
X158863387Y-88748500D01*
X158148500Y-88748500D01*
X158148500Y-90250500D01*
X157150500Y-90250500D01*
X157150500Y-88748500D01*
X155648500Y-88748500D01*
X155648500Y-90250500D01*
X154650500Y-90250500D01*
X154650500Y-88835862D01*
X154649950Y-88836557D01*
X154627812Y-88863217D01*
X154624052Y-88867537D01*
X154592981Y-88901621D01*
X154589024Y-88905765D01*
X154564516Y-88930273D01*
X154560373Y-88934229D01*
X154361871Y-89115188D01*
X154357549Y-89118949D01*
X154330891Y-89141085D01*
X154326404Y-89144639D01*
X154289598Y-89172435D01*
X154284947Y-89175782D01*
X154256350Y-89195372D01*
X154251549Y-89198500D01*
X154023179Y-89339900D01*
X154018243Y-89342801D01*
X153987984Y-89359656D01*
X153982920Y-89362326D01*
X153941635Y-89382886D01*
X153936447Y-89385321D01*
X153904726Y-89399328D01*
X153899431Y-89401522D01*
X153648957Y-89498555D01*
X153643572Y-89500499D01*
X153610722Y-89511510D01*
X153605248Y-89513205D01*
X153560888Y-89525827D01*
X153555346Y-89527267D01*
X153521604Y-89535204D01*
X153515996Y-89536387D01*
X153251960Y-89585744D01*
X153246307Y-89586666D01*
X153211984Y-89591454D01*
X153206294Y-89592114D01*
X153160368Y-89596370D01*
X153154654Y-89596767D01*
X153148500Y-89597051D01*
X152150500Y-89597051D01*
X152150500Y-89436360D01*
X152060570Y-89401522D01*
X152055274Y-89399328D01*
X152023553Y-89385321D01*
X152018365Y-89382886D01*
X151977080Y-89362326D01*
X151972016Y-89359656D01*
X151941757Y-89342801D01*
X151936821Y-89339900D01*
X151708451Y-89198500D01*
X151703650Y-89195372D01*
X151675053Y-89175782D01*
X151670402Y-89172435D01*
X151633596Y-89144639D01*
X151629109Y-89141085D01*
X151602451Y-89118949D01*
X151598129Y-89115188D01*
X151399627Y-88934229D01*
X151395484Y-88930273D01*
X151370976Y-88905765D01*
X151367019Y-88901621D01*
X151335948Y-88867537D01*
X151332188Y-88863217D01*
X151310050Y-88836557D01*
X151306494Y-88832067D01*
X151243387Y-88748500D01*
X150648500Y-88748500D01*
X150648500Y-90250500D01*
X149650500Y-90250500D01*
X149650500Y-88748500D01*
X148148500Y-88748500D01*
X148148500Y-90250500D01*
X147150500Y-90250500D01*
X147150500Y-88748500D01*
X145648500Y-88748500D01*
X145648500Y-90250500D01*
X144650500Y-90250500D01*
X144650500Y-88748500D01*
X144073500Y-88748500D01*
X144073500Y-90250500D01*
X143075500Y-90250500D01*
X143075500Y-87750500D01*
X145648500Y-87750500D01*
X147150500Y-87750500D01*
X148148500Y-87750500D01*
X149650500Y-87750500D01*
X149650500Y-87399999D01*
X151774357Y-87399999D01*
X151774357Y-87400000D01*
X151794884Y-87621535D01*
X151794885Y-87621537D01*
X151855769Y-87835523D01*
X151855775Y-87835538D01*
X151954938Y-88034683D01*
X151954943Y-88034691D01*
X152089020Y-88212238D01*
X152253437Y-88362123D01*
X152253439Y-88362125D01*
X152442595Y-88479245D01*
X152442596Y-88479245D01*
X152442599Y-88479247D01*
X152650060Y-88559618D01*
X152868757Y-88600500D01*
X152868759Y-88600500D01*
X153091241Y-88600500D01*
X153091243Y-88600500D01*
X153309940Y-88559618D01*
X153517401Y-88479247D01*
X153706562Y-88362124D01*
X153870981Y-88212236D01*
X154005058Y-88034689D01*
X154104229Y-87835528D01*
X154128422Y-87750500D01*
X155648500Y-87750500D01*
X157150500Y-87750500D01*
X158148500Y-87750500D01*
X158425078Y-87750500D01*
X158423931Y-87742276D01*
X158423271Y-87736587D01*
X158398486Y-87469121D01*
X158398089Y-87463404D01*
X158396489Y-87428786D01*
X158396357Y-87423061D01*
X158396357Y-87399999D01*
X159394357Y-87399999D01*
X159394357Y-87400000D01*
X159414884Y-87621535D01*
X159414885Y-87621537D01*
X159475769Y-87835523D01*
X159475775Y-87835538D01*
X159574938Y-88034683D01*
X159574943Y-88034691D01*
X159709020Y-88212238D01*
X159873437Y-88362123D01*
X159873439Y-88362125D01*
X160062595Y-88479245D01*
X160062596Y-88479245D01*
X160062599Y-88479247D01*
X160270060Y-88559618D01*
X160488757Y-88600500D01*
X160488759Y-88600500D01*
X160711241Y-88600500D01*
X160711243Y-88600500D01*
X160929940Y-88559618D01*
X161137401Y-88479247D01*
X161326562Y-88362124D01*
X161490981Y-88212236D01*
X161625058Y-88034689D01*
X161724229Y-87835528D01*
X161785115Y-87621536D01*
X161805643Y-87400000D01*
X161785115Y-87178464D01*
X161724229Y-86964472D01*
X161724224Y-86964461D01*
X161625061Y-86765316D01*
X161625056Y-86765308D01*
X161490979Y-86587761D01*
X161326562Y-86437876D01*
X161326560Y-86437874D01*
X161137404Y-86320754D01*
X161137398Y-86320752D01*
X160929940Y-86240382D01*
X160711243Y-86199500D01*
X160488757Y-86199500D01*
X160270060Y-86240382D01*
X160138864Y-86291207D01*
X160062601Y-86320752D01*
X160062595Y-86320754D01*
X159873439Y-86437874D01*
X159873437Y-86437876D01*
X159709020Y-86587761D01*
X159574943Y-86765308D01*
X159574938Y-86765316D01*
X159475775Y-86964461D01*
X159475769Y-86964476D01*
X159414885Y-87178462D01*
X159414884Y-87178464D01*
X159394357Y-87399999D01*
X158396357Y-87399999D01*
X158396357Y-87376939D01*
X158396489Y-87371214D01*
X158398089Y-87336596D01*
X158398486Y-87330879D01*
X158423271Y-87063413D01*
X158423931Y-87057724D01*
X158428720Y-87023391D01*
X158429643Y-87017734D01*
X158438119Y-86972398D01*
X158439301Y-86966795D01*
X158447234Y-86933067D01*
X158448674Y-86927524D01*
X158522176Y-86669192D01*
X158523869Y-86663723D01*
X158534871Y-86630895D01*
X158536813Y-86625515D01*
X158553470Y-86582506D01*
X158555664Y-86577208D01*
X158569675Y-86545472D01*
X158572112Y-86540281D01*
X158691851Y-86299815D01*
X158694523Y-86294747D01*
X158711391Y-86264464D01*
X158714293Y-86259525D01*
X158721120Y-86248500D01*
X158148500Y-86248500D01*
X158148500Y-87750500D01*
X157150500Y-87750500D01*
X157150500Y-86248500D01*
X155648500Y-86248500D01*
X155648500Y-87750500D01*
X154128422Y-87750500D01*
X154165115Y-87621536D01*
X154185643Y-87400000D01*
X154165115Y-87178464D01*
X154104229Y-86964472D01*
X154104224Y-86964461D01*
X154005061Y-86765316D01*
X154005056Y-86765308D01*
X153870979Y-86587761D01*
X153706562Y-86437876D01*
X153706560Y-86437874D01*
X153517404Y-86320754D01*
X153517398Y-86320752D01*
X153309940Y-86240382D01*
X153091243Y-86199500D01*
X152868757Y-86199500D01*
X152650060Y-86240382D01*
X152518864Y-86291207D01*
X152442601Y-86320752D01*
X152442595Y-86320754D01*
X152253439Y-86437874D01*
X152253437Y-86437876D01*
X152089020Y-86587761D01*
X151954943Y-86765308D01*
X151954938Y-86765316D01*
X151855775Y-86964461D01*
X151855769Y-86964476D01*
X151794885Y-87178462D01*
X151794884Y-87178464D01*
X151774357Y-87399999D01*
X149650500Y-87399999D01*
X149650500Y-86248500D01*
X148148500Y-86248500D01*
X148148500Y-87750500D01*
X147150500Y-87750500D01*
X147150500Y-86248500D01*
X145648500Y-86248500D01*
X145648500Y-87750500D01*
X143075500Y-87750500D01*
X143075500Y-87331162D01*
X143095185Y-87264123D01*
X143111814Y-87243486D01*
X145104799Y-85250500D01*
X148148500Y-85250500D01*
X149650500Y-85250500D01*
X150648500Y-85250500D01*
X152150500Y-85250500D01*
X152150500Y-85202948D01*
X153148500Y-85202948D01*
X153154654Y-85203233D01*
X153160368Y-85203630D01*
X153206294Y-85207886D01*
X153211984Y-85208546D01*
X153246307Y-85213334D01*
X153251960Y-85214256D01*
X153445848Y-85250500D01*
X154650500Y-85250500D01*
X155648500Y-85250500D01*
X157150500Y-85250500D01*
X158148500Y-85250500D01*
X159650500Y-85250500D01*
X159650500Y-83848499D01*
X160648500Y-83848499D01*
X160648500Y-85201500D01*
X160734305Y-85201500D01*
X160740033Y-85201632D01*
X160774654Y-85203233D01*
X160780368Y-85203630D01*
X160826294Y-85207886D01*
X160831984Y-85208546D01*
X160866307Y-85213334D01*
X160871960Y-85214256D01*
X161065848Y-85250500D01*
X162150500Y-85250500D01*
X162150500Y-83748500D01*
X161408472Y-83748500D01*
X161297018Y-83790069D01*
X161289679Y-83792548D01*
X161244828Y-83806153D01*
X161237352Y-83808168D01*
X161176637Y-83822516D01*
X161169045Y-83824061D01*
X161122840Y-83831972D01*
X161115167Y-83833041D01*
X161011244Y-83844212D01*
X161007939Y-83844522D01*
X160987899Y-83846135D01*
X160984578Y-83846358D01*
X160957895Y-83847786D01*
X160954582Y-83847919D01*
X160934534Y-83848455D01*
X160931220Y-83848499D01*
X160648500Y-83848499D01*
X159650500Y-83848499D01*
X158908752Y-83848500D01*
X158905428Y-83848455D01*
X158885326Y-83847916D01*
X158882006Y-83847783D01*
X158855320Y-83846351D01*
X158852011Y-83846129D01*
X158832018Y-83844519D01*
X158828715Y-83844208D01*
X158724825Y-83833038D01*
X158717157Y-83831971D01*
X158670971Y-83824064D01*
X158663381Y-83822519D01*
X158602670Y-83808174D01*
X158595191Y-83806158D01*
X158550328Y-83792550D01*
X158542989Y-83790071D01*
X158431529Y-83748500D01*
X158148500Y-83748500D01*
X158148500Y-85250500D01*
X157150500Y-85250500D01*
X157150500Y-83837384D01*
X156878090Y-83791928D01*
X156873053Y-83790980D01*
X156842711Y-83784618D01*
X156837720Y-83783463D01*
X156797718Y-83773334D01*
X156792775Y-83771973D01*
X156763051Y-83763124D01*
X156758169Y-83761560D01*
X156720127Y-83748500D01*
X155648500Y-83748500D01*
X155648500Y-85250500D01*
X154650500Y-85250500D01*
X154650500Y-83837384D01*
X154378090Y-83791928D01*
X154373053Y-83790980D01*
X154342711Y-83784618D01*
X154337720Y-83783463D01*
X154297718Y-83773334D01*
X154292775Y-83771973D01*
X154263051Y-83763124D01*
X154258169Y-83761560D01*
X154220127Y-83748500D01*
X153148500Y-83748500D01*
X153148500Y-85202948D01*
X152150500Y-85202948D01*
X152150500Y-83748500D01*
X150648500Y-83748500D01*
X150648500Y-85250500D01*
X149650500Y-85250500D01*
X149650500Y-83748500D01*
X148148500Y-83748500D01*
X148148500Y-85250500D01*
X145104799Y-85250500D01*
X145218482Y-85136817D01*
X145279805Y-85103333D01*
X145306163Y-85100499D01*
X146390371Y-85100499D01*
X146390372Y-85100499D01*
X146449983Y-85094091D01*
X146584831Y-85043796D01*
X146700046Y-84957546D01*
X146786296Y-84842331D01*
X146836591Y-84707483D01*
X146843000Y-84647873D01*
X146842999Y-82750500D01*
X148148500Y-82750500D01*
X149650500Y-82750500D01*
X150648500Y-82750500D01*
X152150500Y-82750500D01*
X152150500Y-81399994D01*
X153464529Y-81399994D01*
X153464529Y-81400005D01*
X153484379Y-81639559D01*
X153543389Y-81872589D01*
X153639951Y-82092729D01*
X153757256Y-82272276D01*
X153771429Y-82293969D01*
X153934236Y-82470825D01*
X153934239Y-82470827D01*
X153934242Y-82470830D01*
X154123924Y-82618466D01*
X154123930Y-82618470D01*
X154123933Y-82618472D01*
X154335344Y-82732882D01*
X154335347Y-82732883D01*
X154562699Y-82810933D01*
X154562701Y-82810933D01*
X154562703Y-82810934D01*
X154799808Y-82850500D01*
X154799809Y-82850500D01*
X155040191Y-82850500D01*
X155040192Y-82850500D01*
X155277297Y-82810934D01*
X155504656Y-82732882D01*
X155716067Y-82618472D01*
X155732179Y-82605932D01*
X155783919Y-82565661D01*
X155905764Y-82470825D01*
X156068571Y-82293969D01*
X156068577Y-82293959D01*
X156071717Y-82289926D01*
X156073549Y-82291352D01*
X156119262Y-82252287D01*
X156188487Y-82242817D01*
X156251842Y-82272276D01*
X156267597Y-82290459D01*
X156268283Y-82289926D01*
X156271427Y-82293966D01*
X156271429Y-82293969D01*
X156434236Y-82470825D01*
X156434239Y-82470827D01*
X156434242Y-82470830D01*
X156623924Y-82618466D01*
X156623930Y-82618470D01*
X156623933Y-82618472D01*
X156835344Y-82732882D01*
X156835347Y-82732883D01*
X157062699Y-82810933D01*
X157062701Y-82810933D01*
X157062703Y-82810934D01*
X157299808Y-82850500D01*
X157299809Y-82850500D01*
X157540191Y-82850500D01*
X157540192Y-82850500D01*
X157777297Y-82810934D01*
X158004656Y-82732882D01*
X158216067Y-82618472D01*
X158330674Y-82529269D01*
X158395667Y-82503627D01*
X158464207Y-82517193D01*
X158514532Y-82565661D01*
X158523018Y-82583790D01*
X158526202Y-82592328D01*
X158526206Y-82592335D01*
X158612452Y-82707544D01*
X158612455Y-82707547D01*
X158727664Y-82793793D01*
X158727671Y-82793797D01*
X158862517Y-82844091D01*
X158862516Y-82844091D01*
X158869444Y-82844835D01*
X158922127Y-82850500D01*
X160917872Y-82850499D01*
X160977483Y-82844091D01*
X161112331Y-82793796D01*
X161227546Y-82707546D01*
X161313796Y-82592331D01*
X161364091Y-82457483D01*
X161370500Y-82397873D01*
X161370499Y-80402128D01*
X161364091Y-80342517D01*
X161341410Y-80281707D01*
X161313797Y-80207671D01*
X161313793Y-80207664D01*
X161227547Y-80092455D01*
X161227544Y-80092452D01*
X161112335Y-80006206D01*
X161112328Y-80006202D01*
X160977482Y-79955908D01*
X160977483Y-79955908D01*
X160917883Y-79949501D01*
X160917881Y-79949500D01*
X160917873Y-79949500D01*
X160917864Y-79949500D01*
X158922129Y-79949500D01*
X158922123Y-79949501D01*
X158862516Y-79955908D01*
X158727671Y-80006202D01*
X158727664Y-80006206D01*
X158612455Y-80092452D01*
X158612452Y-80092455D01*
X158526206Y-80207664D01*
X158526201Y-80207674D01*
X158523017Y-80216211D01*
X158481145Y-80272144D01*
X158415680Y-80296560D01*
X158347408Y-80281707D01*
X158330674Y-80270729D01*
X158216075Y-80181533D01*
X158216069Y-80181529D01*
X158004657Y-80067118D01*
X158004652Y-80067116D01*
X157777300Y-79989066D01*
X157578593Y-79955908D01*
X157540192Y-79949500D01*
X157299808Y-79949500D01*
X157261407Y-79955908D01*
X157062699Y-79989066D01*
X156835347Y-80067116D01*
X156835342Y-80067118D01*
X156623930Y-80181529D01*
X156623924Y-80181533D01*
X156434242Y-80329169D01*
X156434239Y-80329172D01*
X156271430Y-80506029D01*
X156268283Y-80510074D01*
X156266464Y-80508658D01*
X156220659Y-80547748D01*
X156151427Y-80557169D01*
X156088093Y-80527666D01*
X156072392Y-80509547D01*
X156071717Y-80510074D01*
X156068569Y-80506029D01*
X155905764Y-80329175D01*
X155905759Y-80329171D01*
X155905757Y-80329169D01*
X155716075Y-80181533D01*
X155716069Y-80181529D01*
X155504657Y-80067118D01*
X155504652Y-80067116D01*
X155277300Y-79989066D01*
X155078593Y-79955908D01*
X155040192Y-79949500D01*
X154799808Y-79949500D01*
X154761407Y-79955908D01*
X154562699Y-79989066D01*
X154335347Y-80067116D01*
X154335342Y-80067118D01*
X154123930Y-80181529D01*
X154123924Y-80181533D01*
X153934242Y-80329169D01*
X153934239Y-80329172D01*
X153771430Y-80506029D01*
X153771427Y-80506033D01*
X153639951Y-80707270D01*
X153543389Y-80927410D01*
X153484379Y-81160440D01*
X153464529Y-81399994D01*
X152150500Y-81399994D01*
X152150500Y-81248500D01*
X150648500Y-81248500D01*
X150648500Y-82750500D01*
X149650500Y-82750500D01*
X149650500Y-81248500D01*
X148148500Y-81248500D01*
X148148500Y-82750500D01*
X146842999Y-82750500D01*
X146842999Y-82552128D01*
X146836591Y-82492517D01*
X146828502Y-82470830D01*
X146786297Y-82357671D01*
X146786293Y-82357664D01*
X146700047Y-82242455D01*
X146700044Y-82242452D01*
X146584835Y-82156206D01*
X146584828Y-82156202D01*
X146449982Y-82105908D01*
X146449983Y-82105908D01*
X146390383Y-82099501D01*
X146390381Y-82099500D01*
X146390373Y-82099500D01*
X146390364Y-82099500D01*
X144389629Y-82099500D01*
X144389623Y-82099501D01*
X144330016Y-82105908D01*
X144195171Y-82156202D01*
X144195164Y-82156206D01*
X144079955Y-82242452D01*
X144079952Y-82242455D01*
X143993706Y-82357664D01*
X143993702Y-82357671D01*
X143983127Y-82386026D01*
X143941256Y-82441960D01*
X143875791Y-82466377D01*
X143807518Y-82451525D01*
X143794060Y-82443011D01*
X143611279Y-82310213D01*
X143407568Y-82206417D01*
X143190124Y-82135765D01*
X143100000Y-82121490D01*
X143100000Y-83109252D01*
X143062292Y-83087482D01*
X142922409Y-83050000D01*
X142777591Y-83050000D01*
X142637708Y-83087482D01*
X142600000Y-83109252D01*
X142600000Y-82121490D01*
X142599999Y-82121490D01*
X142509875Y-82135765D01*
X142292431Y-82206417D01*
X142088723Y-82310211D01*
X141903757Y-82444597D01*
X141742097Y-82606257D01*
X141680627Y-82690864D01*
X141625297Y-82733529D01*
X141555684Y-82739508D01*
X141493889Y-82706902D01*
X141479991Y-82690864D01*
X141418286Y-82605934D01*
X141256566Y-82444214D01*
X141071538Y-82309783D01*
X141040501Y-82293969D01*
X140867755Y-82205950D01*
X140650248Y-82135278D01*
X140464812Y-82105908D01*
X140424354Y-82099500D01*
X140195646Y-82099500D01*
X140155188Y-82105908D01*
X139969753Y-82135278D01*
X139969750Y-82135278D01*
X139752244Y-82205950D01*
X139548461Y-82309783D01*
X139482550Y-82357671D01*
X139363434Y-82444214D01*
X139363432Y-82444216D01*
X139363431Y-82444216D01*
X139201716Y-82605931D01*
X139201716Y-82605932D01*
X139201714Y-82605934D01*
X139192605Y-82618472D01*
X139067283Y-82790961D01*
X138963450Y-82994744D01*
X138892778Y-83212250D01*
X138892778Y-83212253D01*
X138892778Y-83212255D01*
X138857000Y-83438146D01*
X138857000Y-83761854D01*
X138870348Y-83846129D01*
X138892778Y-83987746D01*
X138892778Y-83987749D01*
X138963450Y-84205255D01*
X138963452Y-84205258D01*
X139067283Y-84409038D01*
X139201714Y-84594066D01*
X139363434Y-84755786D01*
X139548462Y-84890217D01*
X139680599Y-84957544D01*
X139752244Y-84994049D01*
X139969751Y-85064721D01*
X139969752Y-85064721D01*
X139969755Y-85064722D01*
X140195646Y-85100500D01*
X140195647Y-85100500D01*
X140424353Y-85100500D01*
X140424354Y-85100500D01*
X140650245Y-85064722D01*
X140650248Y-85064721D01*
X140650249Y-85064721D01*
X140867755Y-84994049D01*
X140867755Y-84994048D01*
X140867758Y-84994048D01*
X141071538Y-84890217D01*
X141256566Y-84755786D01*
X141418286Y-84594066D01*
X141479992Y-84509134D01*
X141535319Y-84466470D01*
X141604932Y-84460491D01*
X141666727Y-84493096D01*
X141680626Y-84509135D01*
X141742097Y-84593741D01*
X141742097Y-84593742D01*
X141903757Y-84755402D01*
X142088723Y-84889788D01*
X142292429Y-84993582D01*
X142509871Y-85064234D01*
X142600000Y-85078509D01*
X142600000Y-84090747D01*
X142637708Y-84112518D01*
X142777591Y-84150000D01*
X142922409Y-84150000D01*
X143062292Y-84112518D01*
X143100000Y-84090747D01*
X143100000Y-85078509D01*
X143141566Y-85114010D01*
X143179759Y-85172517D01*
X143180258Y-85242385D01*
X143148715Y-85295981D01*
X141875307Y-86569390D01*
X141875304Y-86569394D01*
X141801383Y-86680024D01*
X141801378Y-86680034D01*
X141766053Y-86765316D01*
X141750459Y-86802964D01*
X141739544Y-86857838D01*
X141739544Y-86857839D01*
X141724500Y-86933466D01*
X141724500Y-102276535D01*
X141750457Y-102407028D01*
X141750459Y-102407036D01*
X141801378Y-102529965D01*
X141801383Y-102529975D01*
X141875304Y-102640605D01*
X141875307Y-102640609D01*
X142734967Y-103500268D01*
X142768452Y-103561591D01*
X142763468Y-103631282D01*
X142721596Y-103687216D01*
X142666684Y-103710422D01*
X142509753Y-103735278D01*
X142509750Y-103735278D01*
X142292244Y-103805950D01*
X142088461Y-103909783D01*
X141905759Y-104042525D01*
X141839952Y-104066005D01*
X141771898Y-104050180D01*
X141723203Y-104000074D01*
X141716690Y-103985538D01*
X141716609Y-103985321D01*
X141706296Y-103957669D01*
X141706293Y-103957664D01*
X141620047Y-103842455D01*
X141620044Y-103842452D01*
X141504835Y-103756206D01*
X141504828Y-103756202D01*
X141369982Y-103705908D01*
X141369983Y-103705908D01*
X141310383Y-103699501D01*
X141310381Y-103699500D01*
X141310373Y-103699500D01*
X141310364Y-103699500D01*
X139309629Y-103699500D01*
X139309623Y-103699501D01*
X139250016Y-103705908D01*
X139115171Y-103756202D01*
X139115164Y-103756206D01*
X138999955Y-103842452D01*
X138999952Y-103842455D01*
X138913706Y-103957664D01*
X138913702Y-103957671D01*
X138863408Y-104092517D01*
X138857001Y-104152116D01*
X138857000Y-104152135D01*
X138857000Y-106247870D01*
X138857001Y-106247876D01*
X138863408Y-106307483D01*
X138913702Y-106442328D01*
X138913706Y-106442335D01*
X138999952Y-106557544D01*
X138999955Y-106557547D01*
X139115164Y-106643793D01*
X139115171Y-106643797D01*
X139122995Y-106646715D01*
X139250017Y-106694091D01*
X139309627Y-106700500D01*
X139585501Y-106700499D01*
X139652539Y-106720183D01*
X139698294Y-106772987D01*
X139709500Y-106824499D01*
X139709500Y-107223330D01*
X139709499Y-107223348D01*
X139709499Y-107389054D01*
X139709498Y-107389054D01*
X139750423Y-107541787D01*
X139750424Y-107541788D01*
X139760717Y-107559615D01*
X139760719Y-107559618D01*
X139829477Y-107678712D01*
X139829481Y-107678717D01*
X139948349Y-107797585D01*
X139948355Y-107797590D01*
X142115139Y-109964374D01*
X142115149Y-109964385D01*
X142119479Y-109968715D01*
X142119480Y-109968716D01*
X142231284Y-110080520D01*
X142318095Y-110130639D01*
X142318096Y-110130640D01*
X142333404Y-110139478D01*
X142352326Y-110150403D01*
X142359491Y-110157918D01*
X142371054Y-110160337D01*
X142520943Y-110200500D01*
X142679057Y-110200500D01*
X143664665Y-110200500D01*
X143731704Y-110220185D01*
X143777459Y-110272989D01*
X143787403Y-110342147D01*
X143758378Y-110405703D01*
X143717071Y-110436881D01*
X143689101Y-110449923D01*
X143647267Y-110469431D01*
X143647265Y-110469432D01*
X143460858Y-110599954D01*
X143299954Y-110760858D01*
X143169432Y-110947265D01*
X143169429Y-110947270D01*
X143162104Y-110962979D01*
X143115929Y-111015417D01*
X143048735Y-111034566D01*
X142981855Y-111014347D01*
X142937341Y-110962973D01*
X142930133Y-110947515D01*
X142930132Y-110947513D01*
X142879025Y-110874526D01*
X142200000Y-111553551D01*
X142200000Y-111547339D01*
X142172741Y-111445606D01*
X142120080Y-111354394D01*
X142045606Y-111279920D01*
X141954394Y-111227259D01*
X141852661Y-111200000D01*
X141846448Y-111200000D01*
X142525472Y-110520974D01*
X142452478Y-110469863D01*
X142286563Y-110392496D01*
X142269953Y-110377871D01*
X142261091Y-110378294D01*
X142247918Y-110374312D01*
X142246328Y-110373733D01*
X142026610Y-110314860D01*
X142026599Y-110314858D01*
X141800002Y-110295034D01*
X141799998Y-110295034D01*
X141573400Y-110314858D01*
X141573389Y-110314860D01*
X141353682Y-110373730D01*
X141353673Y-110373734D01*
X141147516Y-110469866D01*
X141147512Y-110469868D01*
X141074526Y-110520973D01*
X141074526Y-110520974D01*
X141753553Y-111200000D01*
X141747339Y-111200000D01*
X141645606Y-111227259D01*
X141554394Y-111279920D01*
X141479920Y-111354394D01*
X141427259Y-111445606D01*
X141400000Y-111547339D01*
X141400000Y-111553552D01*
X140720974Y-110874526D01*
X140720973Y-110874526D01*
X140669868Y-110947512D01*
X140669866Y-110947516D01*
X140573734Y-111153673D01*
X140573730Y-111153682D01*
X140514860Y-111373389D01*
X140514858Y-111373400D01*
X140495034Y-111599997D01*
X140495034Y-111600002D01*
X140514858Y-111826599D01*
X140514860Y-111826610D01*
X140573730Y-112046317D01*
X140573735Y-112046331D01*
X140669863Y-112252478D01*
X140720974Y-112325472D01*
X141400000Y-111646446D01*
X141400000Y-111652661D01*
X141427259Y-111754394D01*
X141479920Y-111845606D01*
X141554394Y-111920080D01*
X141645606Y-111972741D01*
X141747339Y-112000000D01*
X141753553Y-112000000D01*
X141074526Y-112679025D01*
X141147513Y-112730132D01*
X141147521Y-112730136D01*
X141353668Y-112826264D01*
X141353682Y-112826269D01*
X141573389Y-112885139D01*
X141573400Y-112885141D01*
X141799998Y-112904966D01*
X141800002Y-112904966D01*
X142026599Y-112885141D01*
X142026610Y-112885139D01*
X142246317Y-112826269D01*
X142246331Y-112826264D01*
X142452478Y-112730136D01*
X142525471Y-112679024D01*
X141846447Y-112000000D01*
X141852661Y-112000000D01*
X141954394Y-111972741D01*
X142045606Y-111920080D01*
X142120080Y-111845606D01*
X142172741Y-111754394D01*
X142200000Y-111652661D01*
X142200000Y-111646447D01*
X142879024Y-112325471D01*
X142930134Y-112252481D01*
X142937340Y-112237028D01*
X142983511Y-112184587D01*
X143050704Y-112165433D01*
X143117585Y-112185646D01*
X143162105Y-112237022D01*
X143169430Y-112252730D01*
X143169432Y-112252734D01*
X143299954Y-112439141D01*
X143460858Y-112600045D01*
X143460861Y-112600047D01*
X143647266Y-112730568D01*
X143853504Y-112826739D01*
X144073308Y-112885635D01*
X144235230Y-112899801D01*
X144299998Y-112905468D01*
X144300000Y-112905468D01*
X144300002Y-112905468D01*
X144356673Y-112900509D01*
X144526692Y-112885635D01*
X144746496Y-112826739D01*
X144909990Y-112750500D01*
X146295573Y-112750500D01*
X147150500Y-112750500D01*
X148148500Y-112750500D01*
X149650500Y-112750500D01*
X150648500Y-112750500D01*
X152150500Y-112750500D01*
X153148500Y-112750500D01*
X154650500Y-112750500D01*
X155648500Y-112750500D01*
X157150500Y-112750500D01*
X158148500Y-112750500D01*
X159650500Y-112750500D01*
X160648500Y-112750500D01*
X162150500Y-112750500D01*
X162150500Y-111248500D01*
X160648500Y-111248500D01*
X160648500Y-112750500D01*
X159650500Y-112750500D01*
X159650500Y-111248500D01*
X158148500Y-111248500D01*
X158148500Y-112750500D01*
X157150500Y-112750500D01*
X157150500Y-111248500D01*
X155648500Y-111248500D01*
X155648500Y-112750500D01*
X154650500Y-112750500D01*
X154650500Y-111248500D01*
X153148500Y-111248500D01*
X153148500Y-112750500D01*
X152150500Y-112750500D01*
X152150500Y-111248500D01*
X150648500Y-111248500D01*
X150648500Y-112750500D01*
X149650500Y-112750500D01*
X149650500Y-111248500D01*
X148148500Y-111248500D01*
X148148500Y-112750500D01*
X147150500Y-112750500D01*
X147150500Y-111248500D01*
X146575934Y-111248500D01*
X146577350Y-111259256D01*
X146577939Y-111264633D01*
X146601568Y-111534714D01*
X146601922Y-111540111D01*
X146603350Y-111572811D01*
X146603468Y-111578221D01*
X146603468Y-111621779D01*
X146603350Y-111627189D01*
X146601922Y-111659889D01*
X146601568Y-111665286D01*
X146577939Y-111935367D01*
X146577350Y-111940744D01*
X146573079Y-111973188D01*
X146572256Y-111978535D01*
X146564693Y-112021430D01*
X146563638Y-112026737D01*
X146556553Y-112058696D01*
X146555267Y-112063951D01*
X146485095Y-112325841D01*
X146483580Y-112331038D01*
X146473731Y-112362273D01*
X146471990Y-112367401D01*
X146457089Y-112408333D01*
X146455130Y-112413371D01*
X146442611Y-112443592D01*
X146440433Y-112448541D01*
X146325857Y-112694249D01*
X146323463Y-112699103D01*
X146308347Y-112728139D01*
X146305746Y-112732880D01*
X146295573Y-112750500D01*
X144909990Y-112750500D01*
X144952734Y-112730568D01*
X145139139Y-112600047D01*
X145300047Y-112439139D01*
X145430568Y-112252734D01*
X145526739Y-112046496D01*
X145585635Y-111826692D01*
X145605468Y-111600000D01*
X145585635Y-111373308D01*
X145526739Y-111153504D01*
X145430568Y-110947266D01*
X145300047Y-110760861D01*
X145300045Y-110760858D01*
X145139141Y-110599954D01*
X144952734Y-110469432D01*
X144952732Y-110469431D01*
X144941644Y-110464260D01*
X144882929Y-110436881D01*
X144830491Y-110390710D01*
X144811339Y-110323516D01*
X144831555Y-110256635D01*
X144860309Y-110232116D01*
X160648500Y-110232116D01*
X160648500Y-110250500D01*
X162150500Y-110250500D01*
X162150500Y-108748500D01*
X162132117Y-108748500D01*
X160648500Y-110232116D01*
X144860309Y-110232116D01*
X144884720Y-110211300D01*
X144935335Y-110200500D01*
X158933331Y-110200500D01*
X158933347Y-110200501D01*
X158940943Y-110200501D01*
X159099054Y-110200501D01*
X159099057Y-110200501D01*
X159251785Y-110159577D01*
X159301904Y-110130639D01*
X159388716Y-110080520D01*
X159500520Y-109968716D01*
X159500520Y-109968714D01*
X159510728Y-109958507D01*
X159510730Y-109958504D01*
X161860319Y-107608914D01*
X161921640Y-107575431D01*
X161970783Y-107574708D01*
X162108757Y-107600500D01*
X162108759Y-107600500D01*
X162331241Y-107600500D01*
X162331243Y-107600500D01*
X162549940Y-107559618D01*
X162757401Y-107479247D01*
X162946562Y-107362124D01*
X163091963Y-107229572D01*
X163154766Y-107198957D01*
X163224153Y-107207154D01*
X163278093Y-107251564D01*
X163299461Y-107318086D01*
X163299500Y-107321211D01*
X163299500Y-112907317D01*
X163330044Y-113119764D01*
X163330047Y-113119774D01*
X163390517Y-113325715D01*
X163479672Y-113520938D01*
X163479679Y-113520951D01*
X163595720Y-113701514D01*
X163736275Y-113863724D01*
X163860277Y-113971172D01*
X163898487Y-114004281D01*
X163979968Y-114056645D01*
X164079048Y-114120320D01*
X164079061Y-114120327D01*
X164274284Y-114209482D01*
X164274288Y-114209483D01*
X164274290Y-114209484D01*
X164480231Y-114269954D01*
X164480232Y-114269954D01*
X164480235Y-114269955D01*
X164543584Y-114279062D01*
X164692682Y-114300500D01*
X164734108Y-114300500D01*
X166330582Y-114300500D01*
X166397621Y-114320185D01*
X166443376Y-114372989D01*
X166453320Y-114442147D01*
X166424295Y-114505703D01*
X166404893Y-114523766D01*
X166392812Y-114532809D01*
X166392809Y-114532812D01*
X166306649Y-114647906D01*
X166306645Y-114647913D01*
X166256403Y-114782620D01*
X166256401Y-114782627D01*
X166250000Y-114842155D01*
X166250000Y-115490000D01*
X167166988Y-115490000D01*
X167134075Y-115547007D01*
X167100000Y-115674174D01*
X167100000Y-115805826D01*
X167134075Y-115932993D01*
X167166988Y-115990000D01*
X166250000Y-115990000D01*
X166250000Y-116637844D01*
X166256401Y-116697372D01*
X166256403Y-116697379D01*
X166306645Y-116832086D01*
X166306649Y-116832093D01*
X166392809Y-116947187D01*
X166392812Y-116947190D01*
X166507906Y-117033350D01*
X166507913Y-117033354D01*
X166639470Y-117082421D01*
X166695403Y-117124292D01*
X166719821Y-117189756D01*
X166704970Y-117258029D01*
X166683819Y-117286284D01*
X166561503Y-117408600D01*
X166425965Y-117602169D01*
X166425964Y-117602171D01*
X166326098Y-117816335D01*
X166326094Y-117816344D01*
X166264938Y-118044586D01*
X166264937Y-118044594D01*
X166244341Y-118279999D01*
X166244341Y-118280000D01*
X166264936Y-118515403D01*
X166264938Y-118515413D01*
X166326094Y-118743655D01*
X166326096Y-118743659D01*
X166326097Y-118743663D01*
X166425965Y-118957830D01*
X166425967Y-118957834D01*
X166524024Y-119097873D01*
X166561505Y-119151401D01*
X166728599Y-119318495D01*
X166736937Y-119324333D01*
X166922165Y-119454032D01*
X166922167Y-119454033D01*
X166922170Y-119454035D01*
X166941649Y-119463118D01*
X166994088Y-119509291D01*
X167013240Y-119576484D01*
X166993024Y-119643365D01*
X166939859Y-119688700D01*
X166889244Y-119699500D01*
X151219196Y-119699500D01*
X151152157Y-119679815D01*
X151106402Y-119627011D01*
X151096458Y-119557853D01*
X151125483Y-119494297D01*
X151166791Y-119463118D01*
X151357830Y-119374035D01*
X151551401Y-119238495D01*
X151718495Y-119071401D01*
X151854035Y-118877830D01*
X151953903Y-118663663D01*
X152015063Y-118435408D01*
X152035659Y-118200000D01*
X152015063Y-117964592D01*
X151955445Y-117742093D01*
X151953905Y-117736344D01*
X151953904Y-117736343D01*
X151953903Y-117736337D01*
X151854035Y-117522171D01*
X151849536Y-117515745D01*
X151718494Y-117328597D01*
X151551402Y-117161506D01*
X151551395Y-117161501D01*
X151357834Y-117025967D01*
X151357830Y-117025965D01*
X151315223Y-117006097D01*
X151143663Y-116926097D01*
X151143659Y-116926096D01*
X151143655Y-116926094D01*
X150915413Y-116864938D01*
X150915403Y-116864936D01*
X150680001Y-116844341D01*
X150679999Y-116844341D01*
X150444596Y-116864936D01*
X150444586Y-116864938D01*
X150216344Y-116926094D01*
X150216335Y-116926098D01*
X150002171Y-117025964D01*
X150002169Y-117025965D01*
X149808597Y-117161505D01*
X149641505Y-117328597D01*
X149511575Y-117514158D01*
X149456998Y-117557783D01*
X149387500Y-117564977D01*
X149325145Y-117533454D01*
X149308425Y-117514158D01*
X149178494Y-117328597D01*
X149011402Y-117161506D01*
X149011395Y-117161501D01*
X148817834Y-117025967D01*
X148817830Y-117025965D01*
X148775223Y-117006097D01*
X148603663Y-116926097D01*
X148603659Y-116926096D01*
X148603655Y-116926094D01*
X148375413Y-116864938D01*
X148375403Y-116864936D01*
X148140001Y-116844341D01*
X148139999Y-116844341D01*
X147904596Y-116864936D01*
X147904586Y-116864938D01*
X147676344Y-116926094D01*
X147676335Y-116926098D01*
X147462171Y-117025964D01*
X147462169Y-117025965D01*
X147268600Y-117161503D01*
X147146673Y-117283430D01*
X147085350Y-117316914D01*
X147015658Y-117311930D01*
X146959725Y-117270058D01*
X146942810Y-117239081D01*
X146893797Y-117107671D01*
X146893793Y-117107664D01*
X146807547Y-116992455D01*
X146807544Y-116992452D01*
X146692335Y-116906206D01*
X146692328Y-116906202D01*
X146557482Y-116855908D01*
X146557483Y-116855908D01*
X146497883Y-116849501D01*
X146497881Y-116849500D01*
X146497873Y-116849500D01*
X146497864Y-116849500D01*
X144702129Y-116849500D01*
X144702123Y-116849501D01*
X144642516Y-116855908D01*
X144507671Y-116906202D01*
X144507664Y-116906206D01*
X144392455Y-116992452D01*
X144392452Y-116992455D01*
X144306206Y-117107664D01*
X144306202Y-117107671D01*
X144255908Y-117242517D01*
X144249501Y-117302116D01*
X144249500Y-117302135D01*
X144249500Y-119097870D01*
X144249501Y-119097876D01*
X144255908Y-119157483D01*
X144306202Y-119292328D01*
X144306206Y-119292335D01*
X144392452Y-119407544D01*
X144392455Y-119407547D01*
X144484208Y-119476234D01*
X144526079Y-119532168D01*
X144531063Y-119601859D01*
X144497577Y-119663182D01*
X144436254Y-119696666D01*
X144409897Y-119699500D01*
X138406962Y-119699500D01*
X138393078Y-119698720D01*
X138374849Y-119696666D01*
X138302735Y-119688540D01*
X138275666Y-119682362D01*
X138196462Y-119654648D01*
X138171444Y-119642600D01*
X138100395Y-119597957D01*
X138078686Y-119580644D01*
X138019355Y-119521313D01*
X138002042Y-119499604D01*
X137998707Y-119494297D01*
X137957398Y-119428553D01*
X137945351Y-119403537D01*
X137917637Y-119324333D01*
X137911459Y-119297263D01*
X137910903Y-119292331D01*
X137901280Y-119206922D01*
X137900500Y-119193038D01*
X137900500Y-117750500D01*
X138898500Y-117750500D01*
X139650500Y-117750500D01*
X140648500Y-117750500D01*
X142150500Y-117750500D01*
X142150500Y-116248500D01*
X140648500Y-116248500D01*
X140648500Y-117750500D01*
X139650500Y-117750500D01*
X139650500Y-116248500D01*
X138898500Y-116248500D01*
X138898500Y-117750500D01*
X137900500Y-117750500D01*
X137900500Y-115250500D01*
X138898500Y-115250500D01*
X139650500Y-115250500D01*
X140648500Y-115250500D01*
X142150500Y-115250500D01*
X143148500Y-115250500D01*
X144650500Y-115250500D01*
X145648500Y-115250500D01*
X147150500Y-115250500D01*
X148148500Y-115250500D01*
X149650500Y-115250500D01*
X150648500Y-115250500D01*
X152150500Y-115250500D01*
X152150500Y-114452155D01*
X153800000Y-114452155D01*
X153800000Y-115750000D01*
X155080936Y-115750000D01*
X155069207Y-115778316D01*
X155040000Y-115925147D01*
X155040000Y-116074853D01*
X155069207Y-116221684D01*
X155080936Y-116250000D01*
X153800000Y-116250000D01*
X153800000Y-117547844D01*
X153806401Y-117607372D01*
X153806403Y-117607379D01*
X153856645Y-117742086D01*
X153856649Y-117742093D01*
X153942809Y-117857187D01*
X153942812Y-117857190D01*
X154057906Y-117943350D01*
X154057913Y-117943354D01*
X154192620Y-117993596D01*
X154192627Y-117993598D01*
X154252155Y-117999999D01*
X154252172Y-118000000D01*
X155550000Y-118000000D01*
X155550000Y-116719064D01*
X155578316Y-116730793D01*
X155725147Y-116760000D01*
X155874853Y-116760000D01*
X156021684Y-116730793D01*
X156050000Y-116719064D01*
X156050000Y-118000000D01*
X157347828Y-118000000D01*
X157347844Y-117999999D01*
X157407372Y-117993598D01*
X157407379Y-117993596D01*
X157542086Y-117943354D01*
X157542093Y-117943350D01*
X157657187Y-117857190D01*
X157657190Y-117857187D01*
X157743350Y-117742093D01*
X157743354Y-117742086D01*
X157793596Y-117607379D01*
X157793598Y-117607372D01*
X157799999Y-117547844D01*
X157800000Y-117547827D01*
X157800000Y-116250000D01*
X156519064Y-116250000D01*
X156530793Y-116221684D01*
X156560000Y-116074853D01*
X156560000Y-115999998D01*
X158874390Y-115999998D01*
X158874390Y-116000001D01*
X158894804Y-116285433D01*
X158955628Y-116565037D01*
X158955630Y-116565043D01*
X158955631Y-116565046D01*
X159004986Y-116697372D01*
X159055635Y-116833166D01*
X159192770Y-117084309D01*
X159192775Y-117084317D01*
X159364254Y-117313387D01*
X159364270Y-117313405D01*
X159566594Y-117515729D01*
X159566612Y-117515745D01*
X159795682Y-117687224D01*
X159795690Y-117687229D01*
X160046833Y-117824364D01*
X160046832Y-117824364D01*
X160046836Y-117824365D01*
X160046839Y-117824367D01*
X160314954Y-117924369D01*
X160314960Y-117924370D01*
X160314962Y-117924371D01*
X160594566Y-117985195D01*
X160594568Y-117985195D01*
X160594572Y-117985196D01*
X160848220Y-118003337D01*
X160879999Y-118005610D01*
X160880000Y-118005610D01*
X160880001Y-118005610D01*
X160908595Y-118003564D01*
X161165428Y-117985196D01*
X161260144Y-117964592D01*
X161445037Y-117924371D01*
X161445037Y-117924370D01*
X161445046Y-117924369D01*
X161713161Y-117824367D01*
X161848438Y-117750500D01*
X163315182Y-117750500D01*
X164650500Y-117750500D01*
X164650500Y-116248500D01*
X163868386Y-116248500D01*
X163859383Y-116374383D01*
X163858989Y-116378790D01*
X163856130Y-116405387D01*
X163855579Y-116409772D01*
X163850510Y-116445046D01*
X163849802Y-116449419D01*
X163845044Y-116475798D01*
X163844179Y-116480145D01*
X163775771Y-116794612D01*
X163774752Y-116798924D01*
X163768121Y-116824900D01*
X163766948Y-116829174D01*
X163756906Y-116863364D01*
X163755584Y-116867585D01*
X163747136Y-116892963D01*
X163745666Y-116897131D01*
X163633220Y-117198611D01*
X163631600Y-117202728D01*
X163621361Y-117227449D01*
X163619596Y-117231505D01*
X163604794Y-117263921D01*
X163602882Y-117267918D01*
X163590887Y-117291882D01*
X163588834Y-117295806D01*
X163434606Y-117578253D01*
X163432414Y-117582102D01*
X163418740Y-117605147D01*
X163416411Y-117608917D01*
X163397144Y-117638893D01*
X163394687Y-117642570D01*
X163379425Y-117664550D01*
X163376838Y-117668137D01*
X163315182Y-117750500D01*
X161848438Y-117750500D01*
X161964315Y-117687226D01*
X162193395Y-117515739D01*
X162395739Y-117313395D01*
X162567226Y-117084315D01*
X162704367Y-116833161D01*
X162804369Y-116565046D01*
X162865196Y-116285428D01*
X162885610Y-116000000D01*
X162865196Y-115714572D01*
X162832112Y-115562489D01*
X162804371Y-115434962D01*
X162804370Y-115434960D01*
X162804369Y-115434954D01*
X162704367Y-115166839D01*
X162567226Y-114915685D01*
X162567224Y-114915682D01*
X162395745Y-114686612D01*
X162395729Y-114686594D01*
X162193405Y-114484270D01*
X162193387Y-114484254D01*
X161964317Y-114312775D01*
X161964309Y-114312770D01*
X161713166Y-114175635D01*
X161713167Y-114175635D01*
X161564864Y-114120321D01*
X161445046Y-114075631D01*
X161445043Y-114075630D01*
X161445037Y-114075628D01*
X161165433Y-114014804D01*
X160880001Y-113994390D01*
X160879999Y-113994390D01*
X160594566Y-114014804D01*
X160314962Y-114075628D01*
X160046833Y-114175635D01*
X159795690Y-114312770D01*
X159795682Y-114312775D01*
X159566612Y-114484254D01*
X159566594Y-114484270D01*
X159364270Y-114686594D01*
X159364254Y-114686612D01*
X159192775Y-114915682D01*
X159192770Y-114915690D01*
X159055635Y-115166833D01*
X158955628Y-115434962D01*
X158894804Y-115714566D01*
X158874390Y-115999998D01*
X156560000Y-115999998D01*
X156560000Y-115925147D01*
X156530793Y-115778316D01*
X156519064Y-115750000D01*
X157800000Y-115750000D01*
X157800000Y-114452172D01*
X157799999Y-114452155D01*
X157793598Y-114392627D01*
X157793596Y-114392620D01*
X157743354Y-114257913D01*
X157743350Y-114257906D01*
X157657190Y-114142812D01*
X157657187Y-114142809D01*
X157542093Y-114056649D01*
X157542086Y-114056645D01*
X157407379Y-114006403D01*
X157407372Y-114006401D01*
X157347844Y-114000000D01*
X156050000Y-114000000D01*
X156050000Y-115280935D01*
X156021684Y-115269207D01*
X155874853Y-115240000D01*
X155725147Y-115240000D01*
X155578316Y-115269207D01*
X155550000Y-115280935D01*
X155550000Y-114000000D01*
X154252155Y-114000000D01*
X154192627Y-114006401D01*
X154192620Y-114006403D01*
X154057913Y-114056645D01*
X154057906Y-114056649D01*
X153942812Y-114142809D01*
X153942809Y-114142812D01*
X153856649Y-114257906D01*
X153856645Y-114257913D01*
X153806403Y-114392620D01*
X153806401Y-114392627D01*
X153800000Y-114452155D01*
X152150500Y-114452155D01*
X152150500Y-113748500D01*
X150648500Y-113748500D01*
X150648500Y-115250500D01*
X149650500Y-115250500D01*
X149650500Y-113748500D01*
X148148500Y-113748500D01*
X148148500Y-115250500D01*
X147150500Y-115250500D01*
X147150500Y-113748500D01*
X145648500Y-113748500D01*
X145648500Y-115250500D01*
X144650500Y-115250500D01*
X144650500Y-113876065D01*
X144640744Y-113877350D01*
X144635367Y-113877939D01*
X144365286Y-113901568D01*
X144359889Y-113901922D01*
X144327189Y-113903350D01*
X144321779Y-113903468D01*
X144278221Y-113903468D01*
X144272811Y-113903350D01*
X144240111Y-113901922D01*
X144234714Y-113901568D01*
X143964633Y-113877939D01*
X143959256Y-113877350D01*
X143926812Y-113873079D01*
X143921465Y-113872256D01*
X143878570Y-113864693D01*
X143873263Y-113863638D01*
X143841304Y-113856553D01*
X143836049Y-113855267D01*
X143574159Y-113785095D01*
X143568962Y-113783580D01*
X143537727Y-113773731D01*
X143532599Y-113771990D01*
X143491667Y-113757089D01*
X143486629Y-113755130D01*
X143470624Y-113748500D01*
X143148500Y-113748500D01*
X143148500Y-115250500D01*
X142150500Y-115250500D01*
X142150500Y-113875560D01*
X142140656Y-113876856D01*
X142135279Y-113877445D01*
X141865285Y-113901066D01*
X141859888Y-113901420D01*
X141827189Y-113902848D01*
X141821779Y-113902966D01*
X141778221Y-113902966D01*
X141772811Y-113902848D01*
X141740112Y-113901420D01*
X141734715Y-113901066D01*
X141464721Y-113877445D01*
X141459344Y-113876856D01*
X141426899Y-113872585D01*
X141421553Y-113871763D01*
X141378657Y-113864200D01*
X141373349Y-113863144D01*
X141341390Y-113856059D01*
X141336134Y-113854773D01*
X141074327Y-113784622D01*
X141069130Y-113783107D01*
X141037896Y-113773258D01*
X141032772Y-113771518D01*
X140991842Y-113756619D01*
X140986800Y-113754658D01*
X140971935Y-113748500D01*
X140648500Y-113748500D01*
X140648500Y-115250500D01*
X139650500Y-115250500D01*
X139650500Y-113748500D01*
X138898500Y-113748500D01*
X138898500Y-115250500D01*
X137900500Y-115250500D01*
X137900500Y-112750500D01*
X138898500Y-112750500D01*
X139650500Y-112750500D01*
X139650500Y-112425651D01*
X139645342Y-112413200D01*
X139643381Y-112408158D01*
X139628482Y-112367228D01*
X139626742Y-112362104D01*
X139616893Y-112330870D01*
X139615378Y-112325673D01*
X139545227Y-112063866D01*
X139543941Y-112058610D01*
X139536856Y-112026651D01*
X139535800Y-112021343D01*
X139528237Y-111978447D01*
X139527415Y-111973101D01*
X139523144Y-111940656D01*
X139522555Y-111935279D01*
X139498934Y-111665285D01*
X139498580Y-111659888D01*
X139497152Y-111627189D01*
X139497034Y-111621779D01*
X139497034Y-111578221D01*
X139497152Y-111572811D01*
X139498580Y-111540112D01*
X139498934Y-111534715D01*
X139522555Y-111264721D01*
X139523144Y-111259344D01*
X139524571Y-111248500D01*
X138898500Y-111248500D01*
X138898500Y-112750500D01*
X137900500Y-112750500D01*
X137900500Y-110250500D01*
X138898500Y-110250500D01*
X139650500Y-110250500D01*
X139650500Y-108911119D01*
X139487881Y-108748500D01*
X138898500Y-108748500D01*
X138898500Y-110250500D01*
X137900500Y-110250500D01*
X137900500Y-102750500D01*
X138898500Y-102750500D01*
X138960739Y-102750500D01*
X138982671Y-102743847D01*
X138990148Y-102741832D01*
X139050863Y-102727484D01*
X139058455Y-102725939D01*
X139104660Y-102718028D01*
X139112333Y-102716959D01*
X139216256Y-102705788D01*
X139219561Y-102705478D01*
X139239601Y-102703865D01*
X139242922Y-102703642D01*
X139269605Y-102702214D01*
X139272918Y-102702081D01*
X139292966Y-102701545D01*
X139296280Y-102701501D01*
X139650500Y-102701500D01*
X139650500Y-101248500D01*
X138898500Y-101248500D01*
X138898500Y-102750500D01*
X137900500Y-102750500D01*
X137900500Y-100250500D01*
X138898500Y-100250500D01*
X139650500Y-100250500D01*
X139650500Y-98748500D01*
X138898500Y-98748500D01*
X138898500Y-100250500D01*
X137900500Y-100250500D01*
X137900500Y-97750500D01*
X138898500Y-97750500D01*
X139650500Y-97750500D01*
X139650500Y-96248500D01*
X138898500Y-96248500D01*
X138898500Y-97750500D01*
X137900500Y-97750500D01*
X137900500Y-95250500D01*
X138898500Y-95250500D01*
X139650500Y-95250500D01*
X139650500Y-93748500D01*
X138898500Y-93748500D01*
X138898500Y-95250500D01*
X137900500Y-95250500D01*
X137900500Y-92750500D01*
X138898500Y-92750500D01*
X139650500Y-92750500D01*
X139650500Y-91248500D01*
X138898500Y-91248500D01*
X138898500Y-92750500D01*
X137900500Y-92750500D01*
X137900500Y-90250500D01*
X138898500Y-90250500D01*
X139650500Y-90250500D01*
X139650500Y-88748500D01*
X138898500Y-88748500D01*
X138898500Y-90250500D01*
X137900500Y-90250500D01*
X137900500Y-87750500D01*
X138898500Y-87750500D01*
X139650500Y-87750500D01*
X139650500Y-86248500D01*
X138898500Y-86248500D01*
X138898500Y-87750500D01*
X137900500Y-87750500D01*
X137900500Y-80250500D01*
X138898500Y-80250500D01*
X139650500Y-80250500D01*
X139650500Y-79093698D01*
X139464721Y-79077445D01*
X139459344Y-79076856D01*
X139426899Y-79072585D01*
X139421553Y-79071763D01*
X139378657Y-79064200D01*
X139373349Y-79063144D01*
X139341390Y-79056059D01*
X139336134Y-79054773D01*
X139074327Y-78984622D01*
X139069130Y-78983107D01*
X139037896Y-78973258D01*
X139032772Y-78971518D01*
X138991842Y-78956619D01*
X138986800Y-78954658D01*
X138956580Y-78942139D01*
X138951632Y-78939962D01*
X138951497Y-78939899D01*
X140648500Y-78939899D01*
X140648500Y-80250500D01*
X142150500Y-80250500D01*
X142150500Y-79094200D01*
X141964633Y-79077939D01*
X141959256Y-79077350D01*
X141926812Y-79073079D01*
X141921465Y-79072256D01*
X141878570Y-79064693D01*
X141873263Y-79063638D01*
X141841304Y-79056553D01*
X141836049Y-79055267D01*
X141574159Y-78985095D01*
X141568962Y-78983580D01*
X141537727Y-78973731D01*
X141532599Y-78971990D01*
X141491667Y-78957089D01*
X141486629Y-78955130D01*
X141456408Y-78942611D01*
X141451500Y-78940451D01*
X143148500Y-78940451D01*
X143148500Y-80250500D01*
X144650500Y-80250500D01*
X144650500Y-79058078D01*
X144641390Y-79056059D01*
X144636134Y-79054773D01*
X144551499Y-79032095D01*
X145648500Y-79032095D01*
X145648500Y-80250500D01*
X147150500Y-80250500D01*
X147150500Y-79058591D01*
X147141304Y-79056553D01*
X147136049Y-79055267D01*
X147051498Y-79032612D01*
X148148500Y-79032612D01*
X148148500Y-80250500D01*
X149650500Y-80250500D01*
X150648500Y-80250500D01*
X152150500Y-80250500D01*
X152150500Y-79709173D01*
X153148500Y-79709173D01*
X153213953Y-79638073D01*
X153217500Y-79634377D01*
X153239417Y-79612459D01*
X153243115Y-79608910D01*
X153273473Y-79580962D01*
X153277316Y-79577568D01*
X153300985Y-79557521D01*
X153304964Y-79554290D01*
X153527231Y-79381292D01*
X153531341Y-79378228D01*
X153556581Y-79360207D01*
X153560815Y-79357313D01*
X153595360Y-79334745D01*
X153599705Y-79332034D01*
X153626338Y-79316164D01*
X153630794Y-79313631D01*
X153878502Y-79179578D01*
X153883062Y-79177231D01*
X153910936Y-79163605D01*
X153915589Y-79161449D01*
X153953379Y-79144875D01*
X153958114Y-79142914D01*
X153986982Y-79131651D01*
X153991789Y-79129889D01*
X154191502Y-79061327D01*
X155648500Y-79061327D01*
X155848211Y-79129889D01*
X155853018Y-79131651D01*
X155881886Y-79142914D01*
X155886621Y-79144875D01*
X155924411Y-79161449D01*
X155929064Y-79163605D01*
X155956938Y-79177231D01*
X155961498Y-79179578D01*
X156170000Y-79292413D01*
X156378502Y-79179578D01*
X156383062Y-79177231D01*
X156410936Y-79163605D01*
X156415589Y-79161449D01*
X156453379Y-79144875D01*
X156458114Y-79142914D01*
X156486982Y-79131651D01*
X156491789Y-79129889D01*
X156758169Y-79038440D01*
X156763051Y-79036876D01*
X156792775Y-79028027D01*
X156797718Y-79026666D01*
X156837720Y-79016537D01*
X156842711Y-79015382D01*
X156873053Y-79009020D01*
X156878090Y-79008072D01*
X157150500Y-78962615D01*
X157150500Y-78951500D01*
X160648500Y-78951500D01*
X160931248Y-78951500D01*
X160934572Y-78951545D01*
X160954674Y-78952084D01*
X160957994Y-78952217D01*
X160984680Y-78953649D01*
X160987989Y-78953871D01*
X161007982Y-78955481D01*
X161011285Y-78955792D01*
X161115175Y-78966962D01*
X161122843Y-78968029D01*
X161169029Y-78975936D01*
X161176619Y-78977481D01*
X161237330Y-78991826D01*
X161244809Y-78993842D01*
X161289672Y-79007450D01*
X161297012Y-79009929D01*
X161494502Y-79083587D01*
X161502682Y-79086975D01*
X161551419Y-79109233D01*
X161559333Y-79113195D01*
X161621923Y-79147372D01*
X161629537Y-79151890D01*
X161674604Y-79180854D01*
X161681874Y-79185902D01*
X161854173Y-79314886D01*
X161861064Y-79320439D01*
X161901549Y-79355519D01*
X161908028Y-79361551D01*
X161958449Y-79411972D01*
X161964481Y-79418451D01*
X161999561Y-79458936D01*
X162005114Y-79465827D01*
X162134098Y-79638126D01*
X162139146Y-79645396D01*
X162150500Y-79663062D01*
X162150500Y-78748500D01*
X160648500Y-78748500D01*
X160648500Y-78951500D01*
X157150500Y-78951500D01*
X157150500Y-78748500D01*
X155648500Y-78748500D01*
X155648500Y-79061327D01*
X154191502Y-79061327D01*
X154258169Y-79038440D01*
X154263051Y-79036876D01*
X154292775Y-79028027D01*
X154297718Y-79026666D01*
X154337720Y-79016537D01*
X154342711Y-79015382D01*
X154373053Y-79009020D01*
X154378090Y-79008072D01*
X154650500Y-78962615D01*
X154650500Y-78748500D01*
X153148500Y-78748500D01*
X153148500Y-79709173D01*
X152150500Y-79709173D01*
X152150500Y-78748500D01*
X150648500Y-78748500D01*
X150648500Y-80250500D01*
X149650500Y-80250500D01*
X149650500Y-78748500D01*
X148824565Y-78748500D01*
X148807321Y-78760574D01*
X148802825Y-78763578D01*
X148775228Y-78781160D01*
X148770601Y-78783968D01*
X148732880Y-78805746D01*
X148728139Y-78808347D01*
X148699103Y-78823463D01*
X148694249Y-78825857D01*
X148448541Y-78940433D01*
X148443592Y-78942611D01*
X148413371Y-78955130D01*
X148408333Y-78957089D01*
X148367401Y-78971990D01*
X148362273Y-78973731D01*
X148331038Y-78983580D01*
X148325841Y-78985095D01*
X148148500Y-79032612D01*
X147051498Y-79032612D01*
X146874159Y-78985095D01*
X146868962Y-78983580D01*
X146837727Y-78973731D01*
X146832599Y-78971990D01*
X146791667Y-78957089D01*
X146786629Y-78955130D01*
X146756408Y-78942611D01*
X146751459Y-78940433D01*
X146505751Y-78825857D01*
X146500897Y-78823463D01*
X146471861Y-78808347D01*
X146467120Y-78805746D01*
X146429399Y-78783968D01*
X146424772Y-78781160D01*
X146397175Y-78763578D01*
X146392680Y-78760575D01*
X146375435Y-78748500D01*
X146323694Y-78748500D01*
X146307090Y-78760127D01*
X146302593Y-78763132D01*
X146275000Y-78780712D01*
X146270376Y-78783518D01*
X146232651Y-78805301D01*
X146227905Y-78807905D01*
X146198857Y-78823027D01*
X146194002Y-78825421D01*
X145948367Y-78939962D01*
X145943420Y-78942139D01*
X145913200Y-78954658D01*
X145908158Y-78956619D01*
X145867228Y-78971518D01*
X145862104Y-78973258D01*
X145830870Y-78983107D01*
X145825673Y-78984622D01*
X145648500Y-79032095D01*
X144551499Y-79032095D01*
X144374327Y-78984622D01*
X144369130Y-78983107D01*
X144337896Y-78973258D01*
X144332772Y-78971518D01*
X144291842Y-78956619D01*
X144286800Y-78954658D01*
X144256580Y-78942139D01*
X144251633Y-78939962D01*
X144006004Y-78825424D01*
X144001152Y-78823032D01*
X143972114Y-78807916D01*
X143967369Y-78805312D01*
X143929646Y-78783532D01*
X143925019Y-78780724D01*
X143897418Y-78763139D01*
X143892921Y-78760135D01*
X143876305Y-78748500D01*
X143524565Y-78748500D01*
X143507321Y-78760574D01*
X143502825Y-78763578D01*
X143475228Y-78781160D01*
X143470601Y-78783968D01*
X143432880Y-78805746D01*
X143428139Y-78808347D01*
X143399103Y-78823463D01*
X143394249Y-78825857D01*
X143148541Y-78940433D01*
X143148500Y-78940451D01*
X141451500Y-78940451D01*
X141451459Y-78940433D01*
X141205751Y-78825857D01*
X141200897Y-78823463D01*
X141171861Y-78808347D01*
X141167120Y-78805746D01*
X141129399Y-78783968D01*
X141124772Y-78781160D01*
X141097175Y-78763578D01*
X141092680Y-78760575D01*
X141075435Y-78748500D01*
X141023694Y-78748500D01*
X141007090Y-78760127D01*
X141002593Y-78763132D01*
X140975000Y-78780712D01*
X140970376Y-78783518D01*
X140932651Y-78805301D01*
X140927905Y-78807905D01*
X140898857Y-78823027D01*
X140894002Y-78825421D01*
X140648500Y-78939899D01*
X138951497Y-78939899D01*
X138898500Y-78915186D01*
X138898500Y-80250500D01*
X137900500Y-80250500D01*
X137900500Y-76799997D01*
X138495034Y-76799997D01*
X138495034Y-76800002D01*
X138514858Y-77026599D01*
X138514860Y-77026610D01*
X138573730Y-77246317D01*
X138573735Y-77246331D01*
X138669863Y-77452478D01*
X138720974Y-77525472D01*
X139400000Y-76846446D01*
X139400000Y-76852661D01*
X139427259Y-76954394D01*
X139479920Y-77045606D01*
X139554394Y-77120080D01*
X139645606Y-77172741D01*
X139747339Y-77200000D01*
X139753553Y-77200000D01*
X139074526Y-77879025D01*
X139147513Y-77930132D01*
X139147521Y-77930136D01*
X139353668Y-78026264D01*
X139353682Y-78026269D01*
X139573389Y-78085139D01*
X139573400Y-78085141D01*
X139799998Y-78104966D01*
X139800002Y-78104966D01*
X140026599Y-78085141D01*
X140026610Y-78085139D01*
X140246317Y-78026269D01*
X140246331Y-78026264D01*
X140452478Y-77930136D01*
X140525471Y-77879024D01*
X139846447Y-77200000D01*
X139852661Y-77200000D01*
X139954394Y-77172741D01*
X140045606Y-77120080D01*
X140120080Y-77045606D01*
X140172741Y-76954394D01*
X140200000Y-76852661D01*
X140200000Y-76846447D01*
X140879024Y-77525471D01*
X140930134Y-77452481D01*
X140937340Y-77437028D01*
X140983511Y-77384587D01*
X141050704Y-77365433D01*
X141117585Y-77385646D01*
X141162105Y-77437022D01*
X141169430Y-77452730D01*
X141169432Y-77452734D01*
X141299954Y-77639141D01*
X141460858Y-77800045D01*
X141460861Y-77800047D01*
X141647266Y-77930568D01*
X141853504Y-78026739D01*
X142073308Y-78085635D01*
X142235230Y-78099801D01*
X142299998Y-78105468D01*
X142300000Y-78105468D01*
X142300002Y-78105468D01*
X142356673Y-78100509D01*
X142526692Y-78085635D01*
X142746496Y-78026739D01*
X142952734Y-77930568D01*
X143139139Y-77800047D01*
X143300047Y-77639139D01*
X143430568Y-77452734D01*
X143526739Y-77246496D01*
X143580484Y-77045913D01*
X143616847Y-76986256D01*
X143679694Y-76955726D01*
X143749070Y-76964020D01*
X143802948Y-77008505D01*
X143820033Y-77045915D01*
X143873731Y-77246320D01*
X143873735Y-77246331D01*
X143969863Y-77452478D01*
X144020974Y-77525472D01*
X144700000Y-76846446D01*
X144700000Y-76852661D01*
X144727259Y-76954394D01*
X144779920Y-77045606D01*
X144854394Y-77120080D01*
X144945606Y-77172741D01*
X145047339Y-77200000D01*
X145053553Y-77200000D01*
X144374526Y-77879025D01*
X144447513Y-77930132D01*
X144447521Y-77930136D01*
X144653668Y-78026264D01*
X144653682Y-78026269D01*
X144873389Y-78085139D01*
X144873400Y-78085141D01*
X145099998Y-78104966D01*
X145100002Y-78104966D01*
X145326599Y-78085141D01*
X145326610Y-78085139D01*
X145546317Y-78026269D01*
X145546331Y-78026264D01*
X145752478Y-77930136D01*
X145825471Y-77879024D01*
X145146447Y-77200000D01*
X145152661Y-77200000D01*
X145254394Y-77172741D01*
X145345606Y-77120080D01*
X145420080Y-77045606D01*
X145472741Y-76954394D01*
X145500000Y-76852661D01*
X145500000Y-76846447D01*
X146179024Y-77525471D01*
X146230134Y-77452481D01*
X146237340Y-77437028D01*
X146283511Y-77384587D01*
X146350704Y-77365433D01*
X146417585Y-77385646D01*
X146462105Y-77437022D01*
X146469430Y-77452730D01*
X146469432Y-77452734D01*
X146599954Y-77639141D01*
X146760858Y-77800045D01*
X146760861Y-77800047D01*
X146947266Y-77930568D01*
X147153504Y-78026739D01*
X147373308Y-78085635D01*
X147535230Y-78099801D01*
X147599998Y-78105468D01*
X147600000Y-78105468D01*
X147600002Y-78105468D01*
X147656673Y-78100509D01*
X147826692Y-78085635D01*
X148046496Y-78026739D01*
X148252734Y-77930568D01*
X148439139Y-77800047D01*
X148488686Y-77750500D01*
X150648500Y-77750500D01*
X152150500Y-77750500D01*
X153148500Y-77750500D01*
X154650500Y-77750500D01*
X155648500Y-77750500D01*
X157150500Y-77750500D01*
X158148500Y-77750500D01*
X159650500Y-77750500D01*
X160648500Y-77750500D01*
X162150500Y-77750500D01*
X162150500Y-76248500D01*
X160648500Y-76248500D01*
X160648500Y-77750500D01*
X159650500Y-77750500D01*
X159650500Y-76248500D01*
X158148500Y-76248500D01*
X158148500Y-77750500D01*
X157150500Y-77750500D01*
X157150500Y-76248500D01*
X155648500Y-76248500D01*
X155648500Y-77750500D01*
X154650500Y-77750500D01*
X154650500Y-76248500D01*
X153148500Y-76248500D01*
X153148500Y-77750500D01*
X152150500Y-77750500D01*
X152150500Y-76248500D01*
X150648500Y-76248500D01*
X150648500Y-77750500D01*
X148488686Y-77750500D01*
X148600047Y-77639139D01*
X148730568Y-77452734D01*
X148826739Y-77246496D01*
X148885635Y-77026692D01*
X148905468Y-76800000D01*
X148885635Y-76573308D01*
X148826739Y-76353504D01*
X148730568Y-76147266D01*
X148600047Y-75960861D01*
X148600045Y-75960858D01*
X148439141Y-75799954D01*
X148252734Y-75669432D01*
X148252732Y-75669431D01*
X148046497Y-75573261D01*
X148046488Y-75573258D01*
X147826697Y-75514366D01*
X147826693Y-75514365D01*
X147826692Y-75514365D01*
X147826691Y-75514364D01*
X147826686Y-75514364D01*
X147600002Y-75494532D01*
X147599998Y-75494532D01*
X147373313Y-75514364D01*
X147373302Y-75514366D01*
X147153511Y-75573258D01*
X147153502Y-75573261D01*
X146947267Y-75669431D01*
X146947265Y-75669432D01*
X146760858Y-75799954D01*
X146599954Y-75960858D01*
X146469432Y-76147265D01*
X146469429Y-76147270D01*
X146462104Y-76162979D01*
X146415929Y-76215417D01*
X146348735Y-76234566D01*
X146281855Y-76214347D01*
X146237341Y-76162973D01*
X146230133Y-76147515D01*
X146230132Y-76147513D01*
X146179025Y-76074526D01*
X145500000Y-76753551D01*
X145500000Y-76747339D01*
X145472741Y-76645606D01*
X145420080Y-76554394D01*
X145345606Y-76479920D01*
X145254394Y-76427259D01*
X145152661Y-76400000D01*
X145146448Y-76400000D01*
X145825472Y-75720974D01*
X145752478Y-75669863D01*
X145546331Y-75573735D01*
X145546317Y-75573730D01*
X145326610Y-75514860D01*
X145326599Y-75514858D01*
X145100002Y-75495034D01*
X145099998Y-75495034D01*
X144873400Y-75514858D01*
X144873389Y-75514860D01*
X144653682Y-75573730D01*
X144653673Y-75573734D01*
X144447516Y-75669866D01*
X144447512Y-75669868D01*
X144374526Y-75720973D01*
X144374526Y-75720974D01*
X145053553Y-76400000D01*
X145047339Y-76400000D01*
X144945606Y-76427259D01*
X144854394Y-76479920D01*
X144779920Y-76554394D01*
X144727259Y-76645606D01*
X144700000Y-76747339D01*
X144700000Y-76753552D01*
X144020974Y-76074526D01*
X144020973Y-76074526D01*
X143969868Y-76147512D01*
X143969866Y-76147516D01*
X143873734Y-76353673D01*
X143873731Y-76353680D01*
X143820033Y-76554084D01*
X143783668Y-76613744D01*
X143720821Y-76644273D01*
X143651445Y-76635978D01*
X143597567Y-76591493D01*
X143580484Y-76554086D01*
X143526739Y-76353504D01*
X143430568Y-76147266D01*
X143300047Y-75960861D01*
X143300045Y-75960858D01*
X143139141Y-75799954D01*
X142952734Y-75669432D01*
X142952732Y-75669431D01*
X142746497Y-75573261D01*
X142746488Y-75573258D01*
X142526697Y-75514366D01*
X142526693Y-75514365D01*
X142526692Y-75514365D01*
X142526691Y-75514364D01*
X142526686Y-75514364D01*
X142300002Y-75494532D01*
X142299998Y-75494532D01*
X142073313Y-75514364D01*
X142073302Y-75514366D01*
X141853511Y-75573258D01*
X141853502Y-75573261D01*
X141647267Y-75669431D01*
X141647265Y-75669432D01*
X141460858Y-75799954D01*
X141299954Y-75960858D01*
X141169432Y-76147265D01*
X141169429Y-76147270D01*
X141162104Y-76162979D01*
X141115929Y-76215417D01*
X141048735Y-76234566D01*
X140981855Y-76214347D01*
X140937341Y-76162973D01*
X140930133Y-76147515D01*
X140930132Y-76147513D01*
X140879025Y-76074526D01*
X140200000Y-76753551D01*
X140200000Y-76747339D01*
X140172741Y-76645606D01*
X140120080Y-76554394D01*
X140045606Y-76479920D01*
X139954394Y-76427259D01*
X139852661Y-76400000D01*
X139846448Y-76400000D01*
X140525472Y-75720974D01*
X140452478Y-75669863D01*
X140246331Y-75573735D01*
X140246317Y-75573730D01*
X140026610Y-75514860D01*
X140026599Y-75514858D01*
X139800002Y-75495034D01*
X139799998Y-75495034D01*
X139573400Y-75514858D01*
X139573389Y-75514860D01*
X139353682Y-75573730D01*
X139353673Y-75573734D01*
X139147516Y-75669866D01*
X139147512Y-75669868D01*
X139074526Y-75720973D01*
X139074526Y-75720974D01*
X139753553Y-76400000D01*
X139747339Y-76400000D01*
X139645606Y-76427259D01*
X139554394Y-76479920D01*
X139479920Y-76554394D01*
X139427259Y-76645606D01*
X139400000Y-76747339D01*
X139400000Y-76753552D01*
X138720974Y-76074526D01*
X138720973Y-76074526D01*
X138669868Y-76147512D01*
X138669866Y-76147516D01*
X138573734Y-76353673D01*
X138573730Y-76353682D01*
X138514860Y-76573389D01*
X138514858Y-76573400D01*
X138495034Y-76799997D01*
X137900500Y-76799997D01*
X137900500Y-74684813D01*
X138898500Y-74684813D01*
X138951498Y-74660100D01*
X140648500Y-74660100D01*
X140893996Y-74774576D01*
X140898848Y-74776968D01*
X140927886Y-74792084D01*
X140932633Y-74794688D01*
X140970355Y-74816468D01*
X140974978Y-74819274D01*
X141002579Y-74836858D01*
X141007077Y-74839863D01*
X141049565Y-74869613D01*
X141092679Y-74839426D01*
X141097175Y-74836422D01*
X141124772Y-74818840D01*
X141129399Y-74816032D01*
X141167120Y-74794254D01*
X141171861Y-74791653D01*
X141200897Y-74776537D01*
X141205751Y-74774143D01*
X141451459Y-74659567D01*
X141451502Y-74659548D01*
X143148500Y-74659548D01*
X143148541Y-74659567D01*
X143394249Y-74774143D01*
X143399103Y-74776537D01*
X143428139Y-74791653D01*
X143432880Y-74794254D01*
X143470601Y-74816032D01*
X143475228Y-74818840D01*
X143502825Y-74836422D01*
X143507321Y-74839426D01*
X143700434Y-74974643D01*
X143892935Y-74839855D01*
X143897437Y-74836847D01*
X143925050Y-74819257D01*
X143929674Y-74816451D01*
X143967397Y-74794673D01*
X143972140Y-74792071D01*
X144001162Y-74776964D01*
X144006011Y-74774573D01*
X144251631Y-74660038D01*
X144256582Y-74657860D01*
X144286802Y-74645342D01*
X144291840Y-74643382D01*
X144332771Y-74628482D01*
X144337896Y-74626742D01*
X144369130Y-74616893D01*
X144374327Y-74615378D01*
X144551502Y-74567904D01*
X145648500Y-74567904D01*
X145825673Y-74615378D01*
X145830870Y-74616893D01*
X145862104Y-74626742D01*
X145867228Y-74628482D01*
X145908158Y-74643381D01*
X145913200Y-74645342D01*
X145943420Y-74657861D01*
X145948367Y-74660038D01*
X146193996Y-74774576D01*
X146198848Y-74776968D01*
X146227886Y-74792084D01*
X146232633Y-74794688D01*
X146270355Y-74816468D01*
X146274978Y-74819274D01*
X146302579Y-74836858D01*
X146307077Y-74839863D01*
X146349565Y-74869613D01*
X146392679Y-74839426D01*
X146397175Y-74836422D01*
X146424772Y-74818840D01*
X146429399Y-74816032D01*
X146467120Y-74794254D01*
X146471861Y-74791653D01*
X146500897Y-74776537D01*
X146505751Y-74774143D01*
X146751459Y-74659567D01*
X146756408Y-74657389D01*
X146786629Y-74644870D01*
X146791667Y-74642911D01*
X146832599Y-74628010D01*
X146837727Y-74626269D01*
X146868962Y-74616420D01*
X146874159Y-74614905D01*
X147051502Y-74567387D01*
X148148500Y-74567387D01*
X148325841Y-74614905D01*
X148331038Y-74616420D01*
X148362273Y-74626269D01*
X148367401Y-74628010D01*
X148408333Y-74642911D01*
X148413371Y-74644870D01*
X148443592Y-74657389D01*
X148448541Y-74659567D01*
X148694249Y-74774143D01*
X148699103Y-74776537D01*
X148728139Y-74791653D01*
X148732880Y-74794254D01*
X148770601Y-74816032D01*
X148775228Y-74818840D01*
X148802825Y-74836422D01*
X148807321Y-74839426D01*
X149029401Y-74994926D01*
X149033761Y-74998123D01*
X149059723Y-75018043D01*
X149063944Y-75021430D01*
X149097313Y-75049429D01*
X149101381Y-75052997D01*
X149125519Y-75075115D01*
X149129428Y-75078857D01*
X149301071Y-75250500D01*
X149650500Y-75250500D01*
X150648500Y-75250500D01*
X152150500Y-75250500D01*
X152150500Y-75136055D01*
X158148500Y-75136055D01*
X158148500Y-75250500D01*
X159650500Y-75250500D01*
X159650500Y-75140468D01*
X159648495Y-75139596D01*
X159616079Y-75124794D01*
X159612082Y-75122882D01*
X159588118Y-75110887D01*
X159584194Y-75108834D01*
X159301747Y-74954606D01*
X159297898Y-74952414D01*
X159274853Y-74938740D01*
X159271083Y-74936411D01*
X159241107Y-74917144D01*
X159237430Y-74914687D01*
X159215450Y-74899425D01*
X159211863Y-74896838D01*
X158954268Y-74704005D01*
X158950776Y-74701293D01*
X158929934Y-74684499D01*
X158926537Y-74681660D01*
X158899605Y-74658325D01*
X158896308Y-74655363D01*
X158876701Y-74637108D01*
X158873516Y-74634035D01*
X158692530Y-74453049D01*
X158665970Y-74524261D01*
X158662581Y-74532441D01*
X158640323Y-74581177D01*
X158636362Y-74589091D01*
X158602185Y-74651681D01*
X158597667Y-74659295D01*
X158568703Y-74704362D01*
X158563655Y-74711632D01*
X158434757Y-74883816D01*
X158429204Y-74890707D01*
X158394124Y-74931192D01*
X158388092Y-74937671D01*
X158337671Y-74988092D01*
X158331192Y-74994124D01*
X158290707Y-75029204D01*
X158283816Y-75034757D01*
X158148500Y-75136055D01*
X152150500Y-75136055D01*
X152150500Y-73748500D01*
X150648500Y-73748500D01*
X150648500Y-75250500D01*
X149650500Y-75250500D01*
X149650500Y-73748500D01*
X148148500Y-73748500D01*
X148148500Y-74567387D01*
X147051502Y-74567387D01*
X147136049Y-74544733D01*
X147141304Y-74543447D01*
X147150500Y-74541408D01*
X147150500Y-73748500D01*
X145648500Y-73748500D01*
X145648500Y-74567904D01*
X144551502Y-74567904D01*
X144636134Y-74545227D01*
X144641390Y-74543941D01*
X144650500Y-74541921D01*
X144650500Y-73748500D01*
X143148500Y-73748500D01*
X143148500Y-74659548D01*
X141451502Y-74659548D01*
X141456408Y-74657389D01*
X141486629Y-74644870D01*
X141491667Y-74642911D01*
X141532599Y-74628010D01*
X141537727Y-74626269D01*
X141568962Y-74616420D01*
X141574159Y-74614905D01*
X141836049Y-74544733D01*
X141841304Y-74543447D01*
X141873263Y-74536362D01*
X141878570Y-74535307D01*
X141921465Y-74527744D01*
X141926812Y-74526921D01*
X141959256Y-74522650D01*
X141964633Y-74522061D01*
X142150500Y-74505799D01*
X142150500Y-73748500D01*
X140648500Y-73748500D01*
X140648500Y-74660100D01*
X138951498Y-74660100D01*
X138951631Y-74660038D01*
X138956582Y-74657860D01*
X138986802Y-74645342D01*
X138991840Y-74643382D01*
X139032771Y-74628482D01*
X139037896Y-74626742D01*
X139069130Y-74616893D01*
X139074327Y-74615378D01*
X139336134Y-74545227D01*
X139341390Y-74543941D01*
X139373349Y-74536856D01*
X139378657Y-74535800D01*
X139421553Y-74528237D01*
X139426899Y-74527415D01*
X139459344Y-74523144D01*
X139464721Y-74522555D01*
X139650500Y-74506301D01*
X139650500Y-73748500D01*
X138898500Y-73748500D01*
X138898500Y-74684813D01*
X137900500Y-74684813D01*
X137900500Y-72750500D01*
X138898500Y-72750500D01*
X139650500Y-72750500D01*
X140648500Y-72750500D01*
X142150500Y-72750500D01*
X143148500Y-72750500D01*
X144650500Y-72750500D01*
X144650500Y-72348499D01*
X145648500Y-72348499D01*
X145648500Y-72750500D01*
X147150500Y-72750500D01*
X147150500Y-72353659D01*
X148148500Y-72353659D01*
X148148500Y-72750500D01*
X149650500Y-72750500D01*
X149650500Y-72353352D01*
X150648500Y-72353352D01*
X150648500Y-72750500D01*
X152150500Y-72750500D01*
X152150500Y-71836890D01*
X152146042Y-71840311D01*
X152141678Y-71843512D01*
X151912415Y-72004044D01*
X151907916Y-72007050D01*
X151880302Y-72024642D01*
X151875673Y-72027451D01*
X151837949Y-72049229D01*
X151833209Y-72051829D01*
X151804188Y-72066936D01*
X151799337Y-72069328D01*
X151545708Y-72187598D01*
X151540756Y-72189777D01*
X151510535Y-72202295D01*
X151505500Y-72204253D01*
X151464568Y-72219154D01*
X151459440Y-72220895D01*
X151428205Y-72230744D01*
X151423008Y-72232259D01*
X151152666Y-72304695D01*
X151147412Y-72305981D01*
X151115454Y-72313066D01*
X151110146Y-72314121D01*
X151067251Y-72321684D01*
X151061904Y-72322507D01*
X151029461Y-72326778D01*
X151024084Y-72327367D01*
X150745287Y-72351759D01*
X150739890Y-72352113D01*
X150707190Y-72353541D01*
X150701780Y-72353659D01*
X150658220Y-72353659D01*
X150652810Y-72353541D01*
X150648500Y-72353352D01*
X149650500Y-72353352D01*
X149650500Y-72111219D01*
X149560663Y-72069328D01*
X149555812Y-72066936D01*
X149526791Y-72051829D01*
X149522051Y-72049229D01*
X149484327Y-72027451D01*
X149479698Y-72024642D01*
X149452084Y-72007050D01*
X149447585Y-72004043D01*
X149410000Y-71977725D01*
X149372415Y-72004043D01*
X149367916Y-72007050D01*
X149340302Y-72024642D01*
X149335673Y-72027451D01*
X149297949Y-72049229D01*
X149293209Y-72051829D01*
X149264188Y-72066936D01*
X149259337Y-72069328D01*
X149005708Y-72187598D01*
X149000756Y-72189777D01*
X148970535Y-72202295D01*
X148965500Y-72204253D01*
X148924568Y-72219154D01*
X148919440Y-72220895D01*
X148888205Y-72230744D01*
X148883008Y-72232259D01*
X148612666Y-72304695D01*
X148607412Y-72305981D01*
X148575454Y-72313066D01*
X148570146Y-72314121D01*
X148527251Y-72321684D01*
X148521904Y-72322507D01*
X148489461Y-72326778D01*
X148484084Y-72327367D01*
X148205287Y-72351759D01*
X148199890Y-72352113D01*
X148167190Y-72353541D01*
X148161780Y-72353659D01*
X148148500Y-72353659D01*
X147150500Y-72353659D01*
X147150500Y-72180707D01*
X147139333Y-72186805D01*
X147131419Y-72190767D01*
X147082682Y-72213025D01*
X147074502Y-72216413D01*
X146877018Y-72290069D01*
X146869679Y-72292548D01*
X146824828Y-72306153D01*
X146817352Y-72308168D01*
X146756637Y-72322516D01*
X146749045Y-72324061D01*
X146702840Y-72331972D01*
X146695167Y-72333041D01*
X146591245Y-72344212D01*
X146587936Y-72344523D01*
X146567899Y-72346135D01*
X146564587Y-72346357D01*
X146537905Y-72347786D01*
X146534587Y-72347919D01*
X146514536Y-72348455D01*
X146511222Y-72348499D01*
X145648500Y-72348499D01*
X144650500Y-72348499D01*
X144650500Y-72347165D01*
X144635320Y-72346351D01*
X144632011Y-72346129D01*
X144612018Y-72344519D01*
X144608715Y-72344208D01*
X144504825Y-72333038D01*
X144497157Y-72331971D01*
X144450971Y-72324064D01*
X144443381Y-72322519D01*
X144382670Y-72308174D01*
X144375191Y-72306158D01*
X144330328Y-72292550D01*
X144322988Y-72290071D01*
X144125498Y-72216413D01*
X144117318Y-72213025D01*
X144068581Y-72190767D01*
X144060667Y-72186805D01*
X143998077Y-72152628D01*
X143990463Y-72148110D01*
X143945396Y-72119146D01*
X143938126Y-72114098D01*
X143765827Y-71985114D01*
X143758936Y-71979561D01*
X143718451Y-71944481D01*
X143711972Y-71938449D01*
X143661551Y-71888028D01*
X143655519Y-71881549D01*
X143620439Y-71841064D01*
X143614886Y-71834173D01*
X143485902Y-71661874D01*
X143480854Y-71654604D01*
X143451890Y-71609537D01*
X143447372Y-71601923D01*
X143413195Y-71539333D01*
X143409233Y-71531419D01*
X143386975Y-71482682D01*
X143383587Y-71474502D01*
X143309931Y-71277018D01*
X143307452Y-71269679D01*
X143301028Y-71248500D01*
X143148500Y-71248500D01*
X143148500Y-72750500D01*
X142150500Y-72750500D01*
X142150500Y-71248500D01*
X140648500Y-71248500D01*
X140648500Y-72750500D01*
X139650500Y-72750500D01*
X139650500Y-71248500D01*
X138898500Y-71248500D01*
X138898500Y-72750500D01*
X137900500Y-72750500D01*
X137900500Y-70250500D01*
X138898500Y-70250500D01*
X139650500Y-70250500D01*
X140648500Y-70250500D01*
X142150500Y-70250500D01*
X142150500Y-69498500D01*
X140648500Y-69498500D01*
X140648500Y-70250500D01*
X139650500Y-70250500D01*
X139650500Y-69498500D01*
X138898500Y-69498500D01*
X138898500Y-70250500D01*
X137900500Y-70250500D01*
X137900500Y-69006961D01*
X137901280Y-68993077D01*
X137904837Y-68961506D01*
X137911459Y-68902731D01*
X137917635Y-68875670D01*
X137945353Y-68796456D01*
X137957396Y-68771450D01*
X138002046Y-68700389D01*
X138019351Y-68678690D01*
X138078690Y-68619351D01*
X138100389Y-68602046D01*
X138171450Y-68557396D01*
X138196456Y-68545353D01*
X138275670Y-68517635D01*
X138302733Y-68511459D01*
X138374849Y-68503334D01*
X138393079Y-68501280D01*
X138406962Y-68500500D01*
X138465892Y-68500500D01*
X143634108Y-68500500D01*
X143734108Y-68500500D01*
X144409897Y-68500500D01*
X144476936Y-68520185D01*
G37*
%TD.AperFunction*%
%TD*%
M02*
