M48
; DRILL file {KiCad 8.0.3} date 2024-07-22T07:01:09+0300
; FORMAT={-:-/ absolute / inch / decimal}
; #@! TF.CreationDate,2024-07-22T07:01:09+03:00
; #@! TF.GenerationSoftware,Kicad,Pcbnew,8.0.3
; #@! TF.FileFunction,Plated,1,2,PTH
FMAT,2
INCH
; #@! TA.AperFunction,Plated,PTH,ViaDrill
T1C0.0197
; #@! TA.AperFunction,Plated,PTH,ComponentDrill
T2C0.0276
; #@! TA.AperFunction,Plated,PTH,ComponentDrill
T3C0.0315
; #@! TA.AperFunction,Plated,PTH,ComponentDrill
T4C0.0354
; #@! TA.AperFunction,Plated,PTH,ComponentDrill
T5C0.0394
; #@! TA.AperFunction,Plated,PTH,ComponentDrill
T6C0.0433
; #@! TA.AperFunction,Plated,PTH,ComponentDrill
T7C0.0598
%
G90
G05
T1
X6.0315Y-4.2362
T2
X6.0228Y-3.4409
X6.0858Y-4.0157
X6.0866Y-4.189
X6.3228Y-3.4409
X6.3858Y-4.0157
X6.3866Y-4.189
T3
X5.5039Y-3.0236
X5.5827Y-4.3937
X5.6024Y-3.0236
X5.6811Y-4.3937
X5.7126Y-3.0236
X5.811Y-3.0236
T4
X6.0992Y-3.2047
X6.1976Y-3.2047
X6.2283Y-3.7717
X6.2961Y-3.2047
X6.3283Y-3.7717
T5
X5.7323Y-2.7559
X5.7323Y-4.6535
X5.8323Y-2.7559
X5.8323Y-4.6535
X5.9323Y-2.7559
X5.9323Y-4.6535
X6.5984Y-2.7559
X6.5984Y-2.8559
X6.5984Y-4.5567
X6.5984Y-4.6567
T6
X5.524Y-3.2913
X5.524Y-4.1417
X5.624Y-3.2913
X5.624Y-4.1417
X5.724Y-3.2913
X5.724Y-4.1417
T7
X6.1339Y-2.8504
X6.1339Y-4.5669
X6.3339Y-2.8504
X6.3339Y-4.5669
T5
G00X5.7323Y-3.6772
M15
G01X5.7323Y-3.7559
M16
G05
G00X5.811Y-3.9016
M15
G01X5.8898Y-3.9016
M16
G05
G00X5.9685Y-3.6772
M15
G01X5.9685Y-3.7559
M16
G05
M30
