%TF.GenerationSoftware,KiCad,Pcbnew,8.0.3*%
%TF.CreationDate,2024-07-22T06:59:44+03:00*%
%TF.ProjectId,Project 2 - Breadboard Power Supply,50726f6a-6563-4742-9032-202d20427265,rev?*%
%TF.SameCoordinates,Original*%
%TF.FileFunction,Legend,Top*%
%TF.FilePolarity,Positive*%
%FSLAX46Y46*%
G04 Gerber Fmt 4.6, Leading zero omitted, Abs format (unit mm)*
G04 Created by KiCad (PCBNEW 8.0.3) date 2024-07-22 06:59:44*
%MOMM*%
%LPD*%
G01*
G04 APERTURE LIST*
%ADD10C,0.150000*%
%ADD11C,0.120000*%
%ADD12C,0.100000*%
G04 APERTURE END LIST*
D10*
X158066666Y-110454819D02*
X158066666Y-111169104D01*
X158066666Y-111169104D02*
X158019047Y-111311961D01*
X158019047Y-111311961D02*
X157923809Y-111407200D01*
X157923809Y-111407200D02*
X157780952Y-111454819D01*
X157780952Y-111454819D02*
X157685714Y-111454819D01*
X158971428Y-110454819D02*
X158780952Y-110454819D01*
X158780952Y-110454819D02*
X158685714Y-110502438D01*
X158685714Y-110502438D02*
X158638095Y-110550057D01*
X158638095Y-110550057D02*
X158542857Y-110692914D01*
X158542857Y-110692914D02*
X158495238Y-110883390D01*
X158495238Y-110883390D02*
X158495238Y-111264342D01*
X158495238Y-111264342D02*
X158542857Y-111359580D01*
X158542857Y-111359580D02*
X158590476Y-111407200D01*
X158590476Y-111407200D02*
X158685714Y-111454819D01*
X158685714Y-111454819D02*
X158876190Y-111454819D01*
X158876190Y-111454819D02*
X158971428Y-111407200D01*
X158971428Y-111407200D02*
X159019047Y-111359580D01*
X159019047Y-111359580D02*
X159066666Y-111264342D01*
X159066666Y-111264342D02*
X159066666Y-111026247D01*
X159066666Y-111026247D02*
X159019047Y-110931009D01*
X159019047Y-110931009D02*
X158971428Y-110883390D01*
X158971428Y-110883390D02*
X158876190Y-110835771D01*
X158876190Y-110835771D02*
X158685714Y-110835771D01*
X158685714Y-110835771D02*
X158590476Y-110883390D01*
X158590476Y-110883390D02*
X158542857Y-110931009D01*
X158542857Y-110931009D02*
X158495238Y-111026247D01*
X164866666Y-70654819D02*
X164866666Y-71369104D01*
X164866666Y-71369104D02*
X164819047Y-71511961D01*
X164819047Y-71511961D02*
X164723809Y-71607200D01*
X164723809Y-71607200D02*
X164580952Y-71654819D01*
X164580952Y-71654819D02*
X164485714Y-71654819D01*
X165295238Y-70750057D02*
X165342857Y-70702438D01*
X165342857Y-70702438D02*
X165438095Y-70654819D01*
X165438095Y-70654819D02*
X165676190Y-70654819D01*
X165676190Y-70654819D02*
X165771428Y-70702438D01*
X165771428Y-70702438D02*
X165819047Y-70750057D01*
X165819047Y-70750057D02*
X165866666Y-70845295D01*
X165866666Y-70845295D02*
X165866666Y-70940533D01*
X165866666Y-70940533D02*
X165819047Y-71083390D01*
X165819047Y-71083390D02*
X165247619Y-71654819D01*
X165247619Y-71654819D02*
X165866666Y-71654819D01*
X156668095Y-84827200D02*
X156810952Y-84874819D01*
X156810952Y-84874819D02*
X157049047Y-84874819D01*
X157049047Y-84874819D02*
X157144285Y-84827200D01*
X157144285Y-84827200D02*
X157191904Y-84779580D01*
X157191904Y-84779580D02*
X157239523Y-84684342D01*
X157239523Y-84684342D02*
X157239523Y-84589104D01*
X157239523Y-84589104D02*
X157191904Y-84493866D01*
X157191904Y-84493866D02*
X157144285Y-84446247D01*
X157144285Y-84446247D02*
X157049047Y-84398628D01*
X157049047Y-84398628D02*
X156858571Y-84351009D01*
X156858571Y-84351009D02*
X156763333Y-84303390D01*
X156763333Y-84303390D02*
X156715714Y-84255771D01*
X156715714Y-84255771D02*
X156668095Y-84160533D01*
X156668095Y-84160533D02*
X156668095Y-84065295D01*
X156668095Y-84065295D02*
X156715714Y-83970057D01*
X156715714Y-83970057D02*
X156763333Y-83922438D01*
X156763333Y-83922438D02*
X156858571Y-83874819D01*
X156858571Y-83874819D02*
X157096666Y-83874819D01*
X157096666Y-83874819D02*
X157239523Y-83922438D01*
X158191904Y-84874819D02*
X157620476Y-84874819D01*
X157906190Y-84874819D02*
X157906190Y-83874819D01*
X157906190Y-83874819D02*
X157810952Y-84017676D01*
X157810952Y-84017676D02*
X157715714Y-84112914D01*
X157715714Y-84112914D02*
X157620476Y-84160533D01*
X140633333Y-78959580D02*
X140585714Y-79007200D01*
X140585714Y-79007200D02*
X140442857Y-79054819D01*
X140442857Y-79054819D02*
X140347619Y-79054819D01*
X140347619Y-79054819D02*
X140204762Y-79007200D01*
X140204762Y-79007200D02*
X140109524Y-78911961D01*
X140109524Y-78911961D02*
X140061905Y-78816723D01*
X140061905Y-78816723D02*
X140014286Y-78626247D01*
X140014286Y-78626247D02*
X140014286Y-78483390D01*
X140014286Y-78483390D02*
X140061905Y-78292914D01*
X140061905Y-78292914D02*
X140109524Y-78197676D01*
X140109524Y-78197676D02*
X140204762Y-78102438D01*
X140204762Y-78102438D02*
X140347619Y-78054819D01*
X140347619Y-78054819D02*
X140442857Y-78054819D01*
X140442857Y-78054819D02*
X140585714Y-78102438D01*
X140585714Y-78102438D02*
X140633333Y-78150057D01*
X140966667Y-78054819D02*
X141585714Y-78054819D01*
X141585714Y-78054819D02*
X141252381Y-78435771D01*
X141252381Y-78435771D02*
X141395238Y-78435771D01*
X141395238Y-78435771D02*
X141490476Y-78483390D01*
X141490476Y-78483390D02*
X141538095Y-78531009D01*
X141538095Y-78531009D02*
X141585714Y-78626247D01*
X141585714Y-78626247D02*
X141585714Y-78864342D01*
X141585714Y-78864342D02*
X141538095Y-78959580D01*
X141538095Y-78959580D02*
X141490476Y-79007200D01*
X141490476Y-79007200D02*
X141395238Y-79054819D01*
X141395238Y-79054819D02*
X141109524Y-79054819D01*
X141109524Y-79054819D02*
X141014286Y-79007200D01*
X141014286Y-79007200D02*
X140966667Y-78959580D01*
X139835714Y-74204819D02*
X139930952Y-74204819D01*
X139930952Y-74204819D02*
X140026190Y-74252438D01*
X140026190Y-74252438D02*
X140073809Y-74300057D01*
X140073809Y-74300057D02*
X140121428Y-74395295D01*
X140121428Y-74395295D02*
X140169047Y-74585771D01*
X140169047Y-74585771D02*
X140169047Y-74823866D01*
X140169047Y-74823866D02*
X140121428Y-75014342D01*
X140121428Y-75014342D02*
X140073809Y-75109580D01*
X140073809Y-75109580D02*
X140026190Y-75157200D01*
X140026190Y-75157200D02*
X139930952Y-75204819D01*
X139930952Y-75204819D02*
X139835714Y-75204819D01*
X139835714Y-75204819D02*
X139740476Y-75157200D01*
X139740476Y-75157200D02*
X139692857Y-75109580D01*
X139692857Y-75109580D02*
X139645238Y-75014342D01*
X139645238Y-75014342D02*
X139597619Y-74823866D01*
X139597619Y-74823866D02*
X139597619Y-74585771D01*
X139597619Y-74585771D02*
X139645238Y-74395295D01*
X139645238Y-74395295D02*
X139692857Y-74300057D01*
X139692857Y-74300057D02*
X139740476Y-74252438D01*
X139740476Y-74252438D02*
X139835714Y-74204819D01*
X140597619Y-75109580D02*
X140645238Y-75157200D01*
X140645238Y-75157200D02*
X140597619Y-75204819D01*
X140597619Y-75204819D02*
X140550000Y-75157200D01*
X140550000Y-75157200D02*
X140597619Y-75109580D01*
X140597619Y-75109580D02*
X140597619Y-75204819D01*
X141597618Y-75204819D02*
X141026190Y-75204819D01*
X141311904Y-75204819D02*
X141311904Y-74204819D01*
X141311904Y-74204819D02*
X141216666Y-74347676D01*
X141216666Y-74347676D02*
X141121428Y-74442914D01*
X141121428Y-74442914D02*
X141026190Y-74490533D01*
X142454761Y-74538152D02*
X142454761Y-75204819D01*
X142026190Y-74538152D02*
X142026190Y-75061961D01*
X142026190Y-75061961D02*
X142073809Y-75157200D01*
X142073809Y-75157200D02*
X142169047Y-75204819D01*
X142169047Y-75204819D02*
X142311904Y-75204819D01*
X142311904Y-75204819D02*
X142407142Y-75157200D01*
X142407142Y-75157200D02*
X142454761Y-75109580D01*
X142088095Y-87324819D02*
X142088095Y-88134342D01*
X142088095Y-88134342D02*
X142135714Y-88229580D01*
X142135714Y-88229580D02*
X142183333Y-88277200D01*
X142183333Y-88277200D02*
X142278571Y-88324819D01*
X142278571Y-88324819D02*
X142469047Y-88324819D01*
X142469047Y-88324819D02*
X142564285Y-88277200D01*
X142564285Y-88277200D02*
X142611904Y-88229580D01*
X142611904Y-88229580D02*
X142659523Y-88134342D01*
X142659523Y-88134342D02*
X142659523Y-87324819D01*
X143659523Y-88324819D02*
X143088095Y-88324819D01*
X143373809Y-88324819D02*
X143373809Y-87324819D01*
X143373809Y-87324819D02*
X143278571Y-87467676D01*
X143278571Y-87467676D02*
X143183333Y-87562914D01*
X143183333Y-87562914D02*
X143088095Y-87610533D01*
X147666666Y-115254819D02*
X147666666Y-115969104D01*
X147666666Y-115969104D02*
X147619047Y-116111961D01*
X147619047Y-116111961D02*
X147523809Y-116207200D01*
X147523809Y-116207200D02*
X147380952Y-116254819D01*
X147380952Y-116254819D02*
X147285714Y-116254819D01*
X148619047Y-115254819D02*
X148142857Y-115254819D01*
X148142857Y-115254819D02*
X148095238Y-115731009D01*
X148095238Y-115731009D02*
X148142857Y-115683390D01*
X148142857Y-115683390D02*
X148238095Y-115635771D01*
X148238095Y-115635771D02*
X148476190Y-115635771D01*
X148476190Y-115635771D02*
X148571428Y-115683390D01*
X148571428Y-115683390D02*
X148619047Y-115731009D01*
X148619047Y-115731009D02*
X148666666Y-115826247D01*
X148666666Y-115826247D02*
X148666666Y-116064342D01*
X148666666Y-116064342D02*
X148619047Y-116159580D01*
X148619047Y-116159580D02*
X148571428Y-116207200D01*
X148571428Y-116207200D02*
X148476190Y-116254819D01*
X148476190Y-116254819D02*
X148238095Y-116254819D01*
X148238095Y-116254819D02*
X148142857Y-116207200D01*
X148142857Y-116207200D02*
X148095238Y-116159580D01*
X142088095Y-100384819D02*
X142088095Y-101194342D01*
X142088095Y-101194342D02*
X142135714Y-101289580D01*
X142135714Y-101289580D02*
X142183333Y-101337200D01*
X142183333Y-101337200D02*
X142278571Y-101384819D01*
X142278571Y-101384819D02*
X142469047Y-101384819D01*
X142469047Y-101384819D02*
X142564285Y-101337200D01*
X142564285Y-101337200D02*
X142611904Y-101289580D01*
X142611904Y-101289580D02*
X142659523Y-101194342D01*
X142659523Y-101194342D02*
X142659523Y-100384819D01*
X143088095Y-100480057D02*
X143135714Y-100432438D01*
X143135714Y-100432438D02*
X143230952Y-100384819D01*
X143230952Y-100384819D02*
X143469047Y-100384819D01*
X143469047Y-100384819D02*
X143564285Y-100432438D01*
X143564285Y-100432438D02*
X143611904Y-100480057D01*
X143611904Y-100480057D02*
X143659523Y-100575295D01*
X143659523Y-100575295D02*
X143659523Y-100670533D01*
X143659523Y-100670533D02*
X143611904Y-100813390D01*
X143611904Y-100813390D02*
X143040476Y-101384819D01*
X143040476Y-101384819D02*
X143659523Y-101384819D01*
X142833333Y-113759580D02*
X142785714Y-113807200D01*
X142785714Y-113807200D02*
X142642857Y-113854819D01*
X142642857Y-113854819D02*
X142547619Y-113854819D01*
X142547619Y-113854819D02*
X142404762Y-113807200D01*
X142404762Y-113807200D02*
X142309524Y-113711961D01*
X142309524Y-113711961D02*
X142261905Y-113616723D01*
X142261905Y-113616723D02*
X142214286Y-113426247D01*
X142214286Y-113426247D02*
X142214286Y-113283390D01*
X142214286Y-113283390D02*
X142261905Y-113092914D01*
X142261905Y-113092914D02*
X142309524Y-112997676D01*
X142309524Y-112997676D02*
X142404762Y-112902438D01*
X142404762Y-112902438D02*
X142547619Y-112854819D01*
X142547619Y-112854819D02*
X142642857Y-112854819D01*
X142642857Y-112854819D02*
X142785714Y-112902438D01*
X142785714Y-112902438D02*
X142833333Y-112950057D01*
X143214286Y-112950057D02*
X143261905Y-112902438D01*
X143261905Y-112902438D02*
X143357143Y-112854819D01*
X143357143Y-112854819D02*
X143595238Y-112854819D01*
X143595238Y-112854819D02*
X143690476Y-112902438D01*
X143690476Y-112902438D02*
X143738095Y-112950057D01*
X143738095Y-112950057D02*
X143785714Y-113045295D01*
X143785714Y-113045295D02*
X143785714Y-113140533D01*
X143785714Y-113140533D02*
X143738095Y-113283390D01*
X143738095Y-113283390D02*
X143166667Y-113854819D01*
X143166667Y-113854819D02*
X143785714Y-113854819D01*
X141033333Y-110254819D02*
X140461905Y-110254819D01*
X140747619Y-110254819D02*
X140747619Y-109254819D01*
X140747619Y-109254819D02*
X140652381Y-109397676D01*
X140652381Y-109397676D02*
X140557143Y-109492914D01*
X140557143Y-109492914D02*
X140461905Y-109540533D01*
X141890476Y-109588152D02*
X141890476Y-110254819D01*
X141461905Y-109588152D02*
X141461905Y-110111961D01*
X141461905Y-110111961D02*
X141509524Y-110207200D01*
X141509524Y-110207200D02*
X141604762Y-110254819D01*
X141604762Y-110254819D02*
X141747619Y-110254819D01*
X141747619Y-110254819D02*
X141842857Y-110207200D01*
X141842857Y-110207200D02*
X141890476Y-110159580D01*
X156623333Y-89774819D02*
X156290000Y-89298628D01*
X156051905Y-89774819D02*
X156051905Y-88774819D01*
X156051905Y-88774819D02*
X156432857Y-88774819D01*
X156432857Y-88774819D02*
X156528095Y-88822438D01*
X156528095Y-88822438D02*
X156575714Y-88870057D01*
X156575714Y-88870057D02*
X156623333Y-88965295D01*
X156623333Y-88965295D02*
X156623333Y-89108152D01*
X156623333Y-89108152D02*
X156575714Y-89203390D01*
X156575714Y-89203390D02*
X156528095Y-89251009D01*
X156528095Y-89251009D02*
X156432857Y-89298628D01*
X156432857Y-89298628D02*
X156051905Y-89298628D01*
X157575714Y-89774819D02*
X157004286Y-89774819D01*
X157290000Y-89774819D02*
X157290000Y-88774819D01*
X157290000Y-88774819D02*
X157194762Y-88917676D01*
X157194762Y-88917676D02*
X157099524Y-89012914D01*
X157099524Y-89012914D02*
X157004286Y-89060533D01*
X159187030Y-85054819D02*
X159806077Y-85054819D01*
X159806077Y-85054819D02*
X159472744Y-85435771D01*
X159472744Y-85435771D02*
X159615601Y-85435771D01*
X159615601Y-85435771D02*
X159710839Y-85483390D01*
X159710839Y-85483390D02*
X159758458Y-85531009D01*
X159758458Y-85531009D02*
X159806077Y-85626247D01*
X159806077Y-85626247D02*
X159806077Y-85864342D01*
X159806077Y-85864342D02*
X159758458Y-85959580D01*
X159758458Y-85959580D02*
X159710839Y-86007200D01*
X159710839Y-86007200D02*
X159615601Y-86054819D01*
X159615601Y-86054819D02*
X159329887Y-86054819D01*
X159329887Y-86054819D02*
X159234649Y-86007200D01*
X159234649Y-86007200D02*
X159187030Y-85959580D01*
X160139411Y-85054819D02*
X160758458Y-85054819D01*
X160758458Y-85054819D02*
X160425125Y-85435771D01*
X160425125Y-85435771D02*
X160567982Y-85435771D01*
X160567982Y-85435771D02*
X160663220Y-85483390D01*
X160663220Y-85483390D02*
X160710839Y-85531009D01*
X160710839Y-85531009D02*
X160758458Y-85626247D01*
X160758458Y-85626247D02*
X160758458Y-85864342D01*
X160758458Y-85864342D02*
X160710839Y-85959580D01*
X160710839Y-85959580D02*
X160663220Y-86007200D01*
X160663220Y-86007200D02*
X160567982Y-86054819D01*
X160567982Y-86054819D02*
X160282268Y-86054819D01*
X160282268Y-86054819D02*
X160187030Y-86007200D01*
X160187030Y-86007200D02*
X160139411Y-85959580D01*
X161377506Y-85054819D02*
X161472744Y-85054819D01*
X161472744Y-85054819D02*
X161567982Y-85102438D01*
X161567982Y-85102438D02*
X161615601Y-85150057D01*
X161615601Y-85150057D02*
X161663220Y-85245295D01*
X161663220Y-85245295D02*
X161710839Y-85435771D01*
X161710839Y-85435771D02*
X161710839Y-85673866D01*
X161710839Y-85673866D02*
X161663220Y-85864342D01*
X161663220Y-85864342D02*
X161615601Y-85959580D01*
X161615601Y-85959580D02*
X161567982Y-86007200D01*
X161567982Y-86007200D02*
X161472744Y-86054819D01*
X161472744Y-86054819D02*
X161377506Y-86054819D01*
X161377506Y-86054819D02*
X161282268Y-86007200D01*
X161282268Y-86007200D02*
X161234649Y-85959580D01*
X161234649Y-85959580D02*
X161187030Y-85864342D01*
X161187030Y-85864342D02*
X161139411Y-85673866D01*
X161139411Y-85673866D02*
X161139411Y-85435771D01*
X161139411Y-85435771D02*
X161187030Y-85245295D01*
X161187030Y-85245295D02*
X161234649Y-85150057D01*
X161234649Y-85150057D02*
X161282268Y-85102438D01*
X161282268Y-85102438D02*
X161377506Y-85054819D01*
X158033333Y-108654819D02*
X157700000Y-108178628D01*
X157461905Y-108654819D02*
X157461905Y-107654819D01*
X157461905Y-107654819D02*
X157842857Y-107654819D01*
X157842857Y-107654819D02*
X157938095Y-107702438D01*
X157938095Y-107702438D02*
X157985714Y-107750057D01*
X157985714Y-107750057D02*
X158033333Y-107845295D01*
X158033333Y-107845295D02*
X158033333Y-107988152D01*
X158033333Y-107988152D02*
X157985714Y-108083390D01*
X157985714Y-108083390D02*
X157938095Y-108131009D01*
X157938095Y-108131009D02*
X157842857Y-108178628D01*
X157842857Y-108178628D02*
X157461905Y-108178628D01*
X158366667Y-107654819D02*
X158985714Y-107654819D01*
X158985714Y-107654819D02*
X158652381Y-108035771D01*
X158652381Y-108035771D02*
X158795238Y-108035771D01*
X158795238Y-108035771D02*
X158890476Y-108083390D01*
X158890476Y-108083390D02*
X158938095Y-108131009D01*
X158938095Y-108131009D02*
X158985714Y-108226247D01*
X158985714Y-108226247D02*
X158985714Y-108464342D01*
X158985714Y-108464342D02*
X158938095Y-108559580D01*
X158938095Y-108559580D02*
X158890476Y-108607200D01*
X158890476Y-108607200D02*
X158795238Y-108654819D01*
X158795238Y-108654819D02*
X158509524Y-108654819D01*
X158509524Y-108654819D02*
X158414286Y-108607200D01*
X158414286Y-108607200D02*
X158366667Y-108559580D01*
X154485714Y-104254819D02*
X154009524Y-104254819D01*
X154009524Y-104254819D02*
X153961905Y-104731009D01*
X153961905Y-104731009D02*
X154009524Y-104683390D01*
X154009524Y-104683390D02*
X154104762Y-104635771D01*
X154104762Y-104635771D02*
X154342857Y-104635771D01*
X154342857Y-104635771D02*
X154438095Y-104683390D01*
X154438095Y-104683390D02*
X154485714Y-104731009D01*
X154485714Y-104731009D02*
X154533333Y-104826247D01*
X154533333Y-104826247D02*
X154533333Y-105064342D01*
X154533333Y-105064342D02*
X154485714Y-105159580D01*
X154485714Y-105159580D02*
X154438095Y-105207200D01*
X154438095Y-105207200D02*
X154342857Y-105254819D01*
X154342857Y-105254819D02*
X154104762Y-105254819D01*
X154104762Y-105254819D02*
X154009524Y-105207200D01*
X154009524Y-105207200D02*
X153961905Y-105159580D01*
X155390476Y-104254819D02*
X155200000Y-104254819D01*
X155200000Y-104254819D02*
X155104762Y-104302438D01*
X155104762Y-104302438D02*
X155057143Y-104350057D01*
X155057143Y-104350057D02*
X154961905Y-104492914D01*
X154961905Y-104492914D02*
X154914286Y-104683390D01*
X154914286Y-104683390D02*
X154914286Y-105064342D01*
X154914286Y-105064342D02*
X154961905Y-105159580D01*
X154961905Y-105159580D02*
X155009524Y-105207200D01*
X155009524Y-105207200D02*
X155104762Y-105254819D01*
X155104762Y-105254819D02*
X155295238Y-105254819D01*
X155295238Y-105254819D02*
X155390476Y-105207200D01*
X155390476Y-105207200D02*
X155438095Y-105159580D01*
X155438095Y-105159580D02*
X155485714Y-105064342D01*
X155485714Y-105064342D02*
X155485714Y-104826247D01*
X155485714Y-104826247D02*
X155438095Y-104731009D01*
X155438095Y-104731009D02*
X155390476Y-104683390D01*
X155390476Y-104683390D02*
X155295238Y-104635771D01*
X155295238Y-104635771D02*
X155104762Y-104635771D01*
X155104762Y-104635771D02*
X155009524Y-104683390D01*
X155009524Y-104683390D02*
X154961905Y-104731009D01*
X154961905Y-104731009D02*
X154914286Y-104826247D01*
X156104762Y-104254819D02*
X156200000Y-104254819D01*
X156200000Y-104254819D02*
X156295238Y-104302438D01*
X156295238Y-104302438D02*
X156342857Y-104350057D01*
X156342857Y-104350057D02*
X156390476Y-104445295D01*
X156390476Y-104445295D02*
X156438095Y-104635771D01*
X156438095Y-104635771D02*
X156438095Y-104873866D01*
X156438095Y-104873866D02*
X156390476Y-105064342D01*
X156390476Y-105064342D02*
X156342857Y-105159580D01*
X156342857Y-105159580D02*
X156295238Y-105207200D01*
X156295238Y-105207200D02*
X156200000Y-105254819D01*
X156200000Y-105254819D02*
X156104762Y-105254819D01*
X156104762Y-105254819D02*
X156009524Y-105207200D01*
X156009524Y-105207200D02*
X155961905Y-105159580D01*
X155961905Y-105159580D02*
X155914286Y-105064342D01*
X155914286Y-105064342D02*
X155866667Y-104873866D01*
X155866667Y-104873866D02*
X155866667Y-104635771D01*
X155866667Y-104635771D02*
X155914286Y-104445295D01*
X155914286Y-104445295D02*
X155961905Y-104350057D01*
X155961905Y-104350057D02*
X156009524Y-104302438D01*
X156009524Y-104302438D02*
X156104762Y-104254819D01*
X138666666Y-99454819D02*
X138666666Y-100169104D01*
X138666666Y-100169104D02*
X138619047Y-100311961D01*
X138619047Y-100311961D02*
X138523809Y-100407200D01*
X138523809Y-100407200D02*
X138380952Y-100454819D01*
X138380952Y-100454819D02*
X138285714Y-100454819D01*
X139666666Y-100454819D02*
X139095238Y-100454819D01*
X139380952Y-100454819D02*
X139380952Y-99454819D01*
X139380952Y-99454819D02*
X139285714Y-99597676D01*
X139285714Y-99597676D02*
X139190476Y-99692914D01*
X139190476Y-99692914D02*
X139095238Y-99740533D01*
X145433333Y-78959580D02*
X145385714Y-79007200D01*
X145385714Y-79007200D02*
X145242857Y-79054819D01*
X145242857Y-79054819D02*
X145147619Y-79054819D01*
X145147619Y-79054819D02*
X145004762Y-79007200D01*
X145004762Y-79007200D02*
X144909524Y-78911961D01*
X144909524Y-78911961D02*
X144861905Y-78816723D01*
X144861905Y-78816723D02*
X144814286Y-78626247D01*
X144814286Y-78626247D02*
X144814286Y-78483390D01*
X144814286Y-78483390D02*
X144861905Y-78292914D01*
X144861905Y-78292914D02*
X144909524Y-78197676D01*
X144909524Y-78197676D02*
X145004762Y-78102438D01*
X145004762Y-78102438D02*
X145147619Y-78054819D01*
X145147619Y-78054819D02*
X145242857Y-78054819D01*
X145242857Y-78054819D02*
X145385714Y-78102438D01*
X145385714Y-78102438D02*
X145433333Y-78150057D01*
X146385714Y-79054819D02*
X145814286Y-79054819D01*
X146100000Y-79054819D02*
X146100000Y-78054819D01*
X146100000Y-78054819D02*
X146004762Y-78197676D01*
X146004762Y-78197676D02*
X145909524Y-78292914D01*
X145909524Y-78292914D02*
X145814286Y-78340533D01*
X145707142Y-75204819D02*
X145135714Y-75204819D01*
X145421428Y-75204819D02*
X145421428Y-74204819D01*
X145421428Y-74204819D02*
X145326190Y-74347676D01*
X145326190Y-74347676D02*
X145230952Y-74442914D01*
X145230952Y-74442914D02*
X145135714Y-74490533D01*
X146326190Y-74204819D02*
X146421428Y-74204819D01*
X146421428Y-74204819D02*
X146516666Y-74252438D01*
X146516666Y-74252438D02*
X146564285Y-74300057D01*
X146564285Y-74300057D02*
X146611904Y-74395295D01*
X146611904Y-74395295D02*
X146659523Y-74585771D01*
X146659523Y-74585771D02*
X146659523Y-74823866D01*
X146659523Y-74823866D02*
X146611904Y-75014342D01*
X146611904Y-75014342D02*
X146564285Y-75109580D01*
X146564285Y-75109580D02*
X146516666Y-75157200D01*
X146516666Y-75157200D02*
X146421428Y-75204819D01*
X146421428Y-75204819D02*
X146326190Y-75204819D01*
X146326190Y-75204819D02*
X146230952Y-75157200D01*
X146230952Y-75157200D02*
X146183333Y-75109580D01*
X146183333Y-75109580D02*
X146135714Y-75014342D01*
X146135714Y-75014342D02*
X146088095Y-74823866D01*
X146088095Y-74823866D02*
X146088095Y-74585771D01*
X146088095Y-74585771D02*
X146135714Y-74395295D01*
X146135714Y-74395295D02*
X146183333Y-74300057D01*
X146183333Y-74300057D02*
X146230952Y-74252438D01*
X146230952Y-74252438D02*
X146326190Y-74204819D01*
X147516666Y-74538152D02*
X147516666Y-75204819D01*
X147088095Y-74538152D02*
X147088095Y-75061961D01*
X147088095Y-75061961D02*
X147135714Y-75157200D01*
X147135714Y-75157200D02*
X147230952Y-75204819D01*
X147230952Y-75204819D02*
X147373809Y-75204819D01*
X147373809Y-75204819D02*
X147469047Y-75157200D01*
X147469047Y-75157200D02*
X147516666Y-75109580D01*
X158006666Y-66774819D02*
X158006666Y-67489104D01*
X158006666Y-67489104D02*
X157959047Y-67631961D01*
X157959047Y-67631961D02*
X157863809Y-67727200D01*
X157863809Y-67727200D02*
X157720952Y-67774819D01*
X157720952Y-67774819D02*
X157625714Y-67774819D01*
X158387619Y-66774819D02*
X159054285Y-66774819D01*
X159054285Y-66774819D02*
X158625714Y-67774819D01*
X158223333Y-104374819D02*
X157890000Y-103898628D01*
X157651905Y-104374819D02*
X157651905Y-103374819D01*
X157651905Y-103374819D02*
X158032857Y-103374819D01*
X158032857Y-103374819D02*
X158128095Y-103422438D01*
X158128095Y-103422438D02*
X158175714Y-103470057D01*
X158175714Y-103470057D02*
X158223333Y-103565295D01*
X158223333Y-103565295D02*
X158223333Y-103708152D01*
X158223333Y-103708152D02*
X158175714Y-103803390D01*
X158175714Y-103803390D02*
X158128095Y-103851009D01*
X158128095Y-103851009D02*
X158032857Y-103898628D01*
X158032857Y-103898628D02*
X157651905Y-103898628D01*
X158604286Y-103470057D02*
X158651905Y-103422438D01*
X158651905Y-103422438D02*
X158747143Y-103374819D01*
X158747143Y-103374819D02*
X158985238Y-103374819D01*
X158985238Y-103374819D02*
X159080476Y-103422438D01*
X159080476Y-103422438D02*
X159128095Y-103470057D01*
X159128095Y-103470057D02*
X159175714Y-103565295D01*
X159175714Y-103565295D02*
X159175714Y-103660533D01*
X159175714Y-103660533D02*
X159128095Y-103803390D01*
X159128095Y-103803390D02*
X158556667Y-104374819D01*
X158556667Y-104374819D02*
X159175714Y-104374819D01*
X157104286Y-99574819D02*
X157723333Y-99574819D01*
X157723333Y-99574819D02*
X157390000Y-99955771D01*
X157390000Y-99955771D02*
X157532857Y-99955771D01*
X157532857Y-99955771D02*
X157628095Y-100003390D01*
X157628095Y-100003390D02*
X157675714Y-100051009D01*
X157675714Y-100051009D02*
X157723333Y-100146247D01*
X157723333Y-100146247D02*
X157723333Y-100384342D01*
X157723333Y-100384342D02*
X157675714Y-100479580D01*
X157675714Y-100479580D02*
X157628095Y-100527200D01*
X157628095Y-100527200D02*
X157532857Y-100574819D01*
X157532857Y-100574819D02*
X157247143Y-100574819D01*
X157247143Y-100574819D02*
X157151905Y-100527200D01*
X157151905Y-100527200D02*
X157104286Y-100479580D01*
X158056667Y-99574819D02*
X158675714Y-99574819D01*
X158675714Y-99574819D02*
X158342381Y-99955771D01*
X158342381Y-99955771D02*
X158485238Y-99955771D01*
X158485238Y-99955771D02*
X158580476Y-100003390D01*
X158580476Y-100003390D02*
X158628095Y-100051009D01*
X158628095Y-100051009D02*
X158675714Y-100146247D01*
X158675714Y-100146247D02*
X158675714Y-100384342D01*
X158675714Y-100384342D02*
X158628095Y-100479580D01*
X158628095Y-100479580D02*
X158580476Y-100527200D01*
X158580476Y-100527200D02*
X158485238Y-100574819D01*
X158485238Y-100574819D02*
X158199524Y-100574819D01*
X158199524Y-100574819D02*
X158104286Y-100527200D01*
X158104286Y-100527200D02*
X158056667Y-100479580D01*
X159294762Y-99574819D02*
X159390000Y-99574819D01*
X159390000Y-99574819D02*
X159485238Y-99622438D01*
X159485238Y-99622438D02*
X159532857Y-99670057D01*
X159532857Y-99670057D02*
X159580476Y-99765295D01*
X159580476Y-99765295D02*
X159628095Y-99955771D01*
X159628095Y-99955771D02*
X159628095Y-100193866D01*
X159628095Y-100193866D02*
X159580476Y-100384342D01*
X159580476Y-100384342D02*
X159532857Y-100479580D01*
X159532857Y-100479580D02*
X159485238Y-100527200D01*
X159485238Y-100527200D02*
X159390000Y-100574819D01*
X159390000Y-100574819D02*
X159294762Y-100574819D01*
X159294762Y-100574819D02*
X159199524Y-100527200D01*
X159199524Y-100527200D02*
X159151905Y-100479580D01*
X159151905Y-100479580D02*
X159104286Y-100384342D01*
X159104286Y-100384342D02*
X159056667Y-100193866D01*
X159056667Y-100193866D02*
X159056667Y-99955771D01*
X159056667Y-99955771D02*
X159104286Y-99765295D01*
X159104286Y-99765295D02*
X159151905Y-99670057D01*
X159151905Y-99670057D02*
X159199524Y-99622438D01*
X159199524Y-99622438D02*
X159294762Y-99574819D01*
X158736905Y-92054819D02*
X158736905Y-91054819D01*
X158736905Y-91054819D02*
X158975000Y-91054819D01*
X158975000Y-91054819D02*
X159117857Y-91102438D01*
X159117857Y-91102438D02*
X159213095Y-91197676D01*
X159213095Y-91197676D02*
X159260714Y-91292914D01*
X159260714Y-91292914D02*
X159308333Y-91483390D01*
X159308333Y-91483390D02*
X159308333Y-91626247D01*
X159308333Y-91626247D02*
X159260714Y-91816723D01*
X159260714Y-91816723D02*
X159213095Y-91911961D01*
X159213095Y-91911961D02*
X159117857Y-92007200D01*
X159117857Y-92007200D02*
X158975000Y-92054819D01*
X158975000Y-92054819D02*
X158736905Y-92054819D01*
X160260714Y-92054819D02*
X159689286Y-92054819D01*
X159975000Y-92054819D02*
X159975000Y-91054819D01*
X159975000Y-91054819D02*
X159879762Y-91197676D01*
X159879762Y-91197676D02*
X159784524Y-91292914D01*
X159784524Y-91292914D02*
X159689286Y-91340533D01*
X147666666Y-72054819D02*
X147666666Y-72769104D01*
X147666666Y-72769104D02*
X147619047Y-72911961D01*
X147619047Y-72911961D02*
X147523809Y-73007200D01*
X147523809Y-73007200D02*
X147380952Y-73054819D01*
X147380952Y-73054819D02*
X147285714Y-73054819D01*
X148571428Y-72388152D02*
X148571428Y-73054819D01*
X148333333Y-72007200D02*
X148095238Y-72721485D01*
X148095238Y-72721485D02*
X148714285Y-72721485D01*
X164866666Y-116454819D02*
X164866666Y-117169104D01*
X164866666Y-117169104D02*
X164819047Y-117311961D01*
X164819047Y-117311961D02*
X164723809Y-117407200D01*
X164723809Y-117407200D02*
X164580952Y-117454819D01*
X164580952Y-117454819D02*
X164485714Y-117454819D01*
X165247619Y-116454819D02*
X165866666Y-116454819D01*
X165866666Y-116454819D02*
X165533333Y-116835771D01*
X165533333Y-116835771D02*
X165676190Y-116835771D01*
X165676190Y-116835771D02*
X165771428Y-116883390D01*
X165771428Y-116883390D02*
X165819047Y-116931009D01*
X165819047Y-116931009D02*
X165866666Y-117026247D01*
X165866666Y-117026247D02*
X165866666Y-117264342D01*
X165866666Y-117264342D02*
X165819047Y-117359580D01*
X165819047Y-117359580D02*
X165771428Y-117407200D01*
X165771428Y-117407200D02*
X165676190Y-117454819D01*
X165676190Y-117454819D02*
X165390476Y-117454819D01*
X165390476Y-117454819D02*
X165295238Y-117407200D01*
X165295238Y-117407200D02*
X165247619Y-117359580D01*
D11*
%TO.C,J6*%
X153260000Y-112190000D02*
X153260000Y-119810000D01*
X153260000Y-119810000D02*
X163420000Y-119810000D01*
X163420000Y-112190000D02*
X153260000Y-112190000D01*
X163420000Y-118540000D02*
X153260000Y-118540000D01*
X163420000Y-119810000D02*
X163420000Y-112190000D01*
%TO.C,J2*%
X166270000Y-68670000D02*
X167600000Y-68670000D01*
X166270000Y-70000000D02*
X166270000Y-68670000D01*
X166270000Y-71270000D02*
X166270000Y-73870000D01*
X166270000Y-71270000D02*
X168930000Y-71270000D01*
X166270000Y-73870000D02*
X168930000Y-73870000D01*
X168930000Y-71270000D02*
X168930000Y-73870000D01*
D12*
%TO.C,S1*%
X151620000Y-79300000D02*
X151620000Y-79800000D01*
X151620000Y-79300000D02*
X152120000Y-79300000D01*
X151620000Y-83500000D02*
X151620000Y-83000000D01*
X151620000Y-83500000D02*
X152120000Y-83500000D01*
X163520000Y-79300000D02*
X163020000Y-79300000D01*
X163520000Y-79300000D02*
X163520000Y-79800000D01*
X163520000Y-83500000D02*
X163020000Y-83500000D01*
X163520000Y-83500000D02*
X163520000Y-83000000D01*
D11*
%TO.C,C3*%
X141679000Y-75880000D02*
X140421000Y-75880000D01*
X141679000Y-77720000D02*
X140421000Y-77720000D01*
%TO.C,U1*%
X137730000Y-86870000D02*
X137730000Y-82229000D01*
X140999000Y-86870000D02*
X140999000Y-85360000D01*
X144700000Y-86870000D02*
X144700000Y-85360000D01*
X147970000Y-82229000D02*
X137730000Y-82229000D01*
X147970000Y-85360000D02*
X137730000Y-85360000D01*
X147970000Y-86870000D02*
X137730000Y-86870000D01*
X147970000Y-86870000D02*
X147970000Y-82229000D01*
%TO.C,J5*%
X144270000Y-119530000D02*
X144270000Y-118200000D01*
X145600000Y-119530000D02*
X144270000Y-119530000D01*
X146870000Y-116870000D02*
X152010000Y-116870000D01*
X146870000Y-119530000D02*
X146870000Y-116870000D01*
X146870000Y-119530000D02*
X152010000Y-119530000D01*
X152010000Y-119530000D02*
X152010000Y-116870000D01*
%TO.C,U2*%
X137730000Y-101930000D02*
X137730000Y-106571000D01*
X137730000Y-101930000D02*
X147970000Y-101930000D01*
X137730000Y-103440000D02*
X147970000Y-103440000D01*
X137730000Y-106571000D02*
X147970000Y-106571000D01*
X141000000Y-101930000D02*
X141000000Y-103440000D01*
X144701000Y-101930000D02*
X144701000Y-103440000D01*
X147970000Y-101930000D02*
X147970000Y-106571000D01*
%TO.C,C2*%
X142421000Y-110680000D02*
X143679000Y-110680000D01*
X142421000Y-112520000D02*
X143679000Y-112520000D01*
%TO.C,R1*%
X153920000Y-87400000D02*
X154870000Y-87400000D01*
X154870000Y-86480000D02*
X154870000Y-88320000D01*
X154870000Y-88320000D02*
X158710000Y-88320000D01*
X158710000Y-86480000D02*
X154870000Y-86480000D01*
X158710000Y-88320000D02*
X158710000Y-86480000D01*
X159660000Y-87400000D02*
X158710000Y-87400000D01*
%TO.C,R3*%
X155540000Y-106400000D02*
X156490000Y-106400000D01*
X156490000Y-105480000D02*
X156490000Y-107320000D01*
X156490000Y-107320000D02*
X160330000Y-107320000D01*
X160330000Y-105480000D02*
X156490000Y-105480000D01*
X160330000Y-107320000D02*
X160330000Y-105480000D01*
X161280000Y-106400000D02*
X160330000Y-106400000D01*
%TO.C,J1*%
X137800000Y-89800000D02*
X152500000Y-89800000D01*
X137800000Y-99000000D02*
X137800000Y-89800000D01*
X146600000Y-99000000D02*
X137800000Y-99000000D01*
X151650000Y-89600000D02*
X152700000Y-89600000D01*
X152500000Y-89800000D02*
X152500000Y-92400000D01*
X152500000Y-96300000D02*
X152500000Y-99000000D01*
X152500000Y-99000000D02*
X150600000Y-99000000D01*
X152700000Y-90650000D02*
X152700000Y-89600000D01*
%TO.C,C1*%
X146979000Y-75880000D02*
X145721000Y-75880000D01*
X146979000Y-77720000D02*
X145721000Y-77720000D01*
%TO.C,J7*%
X153260000Y-68590000D02*
X153260000Y-76210000D01*
X153260000Y-76210000D02*
X163420000Y-76210000D01*
X163420000Y-68590000D02*
X153260000Y-68590000D01*
X163420000Y-74940000D02*
X153260000Y-74940000D01*
X163420000Y-76210000D02*
X163420000Y-68590000D01*
%TO.C,R2*%
X155520000Y-102000000D02*
X156470000Y-102000000D01*
X156470000Y-101080000D02*
X156470000Y-102920000D01*
X156470000Y-102920000D02*
X160310000Y-102920000D01*
X160310000Y-101080000D02*
X156470000Y-101080000D01*
X160310000Y-102920000D02*
X160310000Y-101080000D01*
X161260000Y-102000000D02*
X160310000Y-102000000D01*
%TO.C,D1*%
X156910000Y-94255000D02*
X156910000Y-97345000D01*
X156910000Y-94255170D02*
G75*
G02*
X162460000Y-95800462I2560000J-1544830D01*
G01*
X162460000Y-95799538D02*
G75*
G02*
X156910000Y-97344830I-2990000J-462D01*
G01*
X161970000Y-95800000D02*
G75*
G02*
X156970000Y-95800000I-2500000J0D01*
G01*
X156970000Y-95800000D02*
G75*
G02*
X161970000Y-95800000I2500000J0D01*
G01*
%TO.C,J4*%
X144270000Y-71330000D02*
X144270000Y-70000000D01*
X145600000Y-71330000D02*
X144270000Y-71330000D01*
X146870000Y-68670000D02*
X152010000Y-68670000D01*
X146870000Y-71330000D02*
X146870000Y-68670000D01*
X146870000Y-71330000D02*
X152010000Y-71330000D01*
X152010000Y-71330000D02*
X152010000Y-68670000D01*
%TO.C,J3*%
X166270000Y-114410000D02*
X167600000Y-114410000D01*
X166270000Y-115740000D02*
X166270000Y-114410000D01*
X166270000Y-117010000D02*
X166270000Y-119610000D01*
X166270000Y-117010000D02*
X168930000Y-117010000D01*
X166270000Y-119610000D02*
X168930000Y-119610000D01*
X168930000Y-117010000D02*
X168930000Y-119610000D01*
%TD*%
M02*
