%TF.GenerationSoftware,KiCad,Pcbnew,8.0.3*%
%TF.CreationDate,2024-07-22T06:59:44+03:00*%
%TF.ProjectId,Project 2 - Breadboard Power Supply,50726f6a-6563-4742-9032-202d20427265,rev?*%
%TF.SameCoordinates,Original*%
%TF.FileFunction,Legend,Bot*%
%TF.FilePolarity,Positive*%
%FSLAX46Y46*%
G04 Gerber Fmt 4.6, Leading zero omitted, Abs format (unit mm)*
G04 Created by KiCad (PCBNEW 8.0.3) date 2024-07-22 06:59:44*
%MOMM*%
%LPD*%
G01*
G04 APERTURE LIST*
%ADD10C,0.100000*%
%ADD11C,0.010000*%
G04 APERTURE END LIST*
D10*
X143128721Y-86837217D02*
X143176340Y-86980074D01*
X143176340Y-86980074D02*
X143223959Y-87027693D01*
X143223959Y-87027693D02*
X143319197Y-87075312D01*
X143319197Y-87075312D02*
X143462054Y-87075312D01*
X143462054Y-87075312D02*
X143557292Y-87027693D01*
X143557292Y-87027693D02*
X143604912Y-86980074D01*
X143604912Y-86980074D02*
X143652531Y-86884836D01*
X143652531Y-86884836D02*
X143652531Y-86503884D01*
X143652531Y-86503884D02*
X142652531Y-86503884D01*
X142652531Y-86503884D02*
X142652531Y-86837217D01*
X142652531Y-86837217D02*
X142700150Y-86932455D01*
X142700150Y-86932455D02*
X142747769Y-86980074D01*
X142747769Y-86980074D02*
X142843007Y-87027693D01*
X142843007Y-87027693D02*
X142938245Y-87027693D01*
X142938245Y-87027693D02*
X143033483Y-86980074D01*
X143033483Y-86980074D02*
X143081102Y-86932455D01*
X143081102Y-86932455D02*
X143128721Y-86837217D01*
X143128721Y-86837217D02*
X143128721Y-86503884D01*
X143652531Y-87503884D02*
X142985864Y-87503884D01*
X143176340Y-87503884D02*
X143081102Y-87551503D01*
X143081102Y-87551503D02*
X143033483Y-87599122D01*
X143033483Y-87599122D02*
X142985864Y-87694360D01*
X142985864Y-87694360D02*
X142985864Y-87789598D01*
X143604912Y-88503884D02*
X143652531Y-88408646D01*
X143652531Y-88408646D02*
X143652531Y-88218170D01*
X143652531Y-88218170D02*
X143604912Y-88122932D01*
X143604912Y-88122932D02*
X143509673Y-88075313D01*
X143509673Y-88075313D02*
X143128721Y-88075313D01*
X143128721Y-88075313D02*
X143033483Y-88122932D01*
X143033483Y-88122932D02*
X142985864Y-88218170D01*
X142985864Y-88218170D02*
X142985864Y-88408646D01*
X142985864Y-88408646D02*
X143033483Y-88503884D01*
X143033483Y-88503884D02*
X143128721Y-88551503D01*
X143128721Y-88551503D02*
X143223959Y-88551503D01*
X143223959Y-88551503D02*
X143319197Y-88075313D01*
X143652531Y-89408646D02*
X143128721Y-89408646D01*
X143128721Y-89408646D02*
X143033483Y-89361027D01*
X143033483Y-89361027D02*
X142985864Y-89265789D01*
X142985864Y-89265789D02*
X142985864Y-89075313D01*
X142985864Y-89075313D02*
X143033483Y-88980075D01*
X143604912Y-89408646D02*
X143652531Y-89313408D01*
X143652531Y-89313408D02*
X143652531Y-89075313D01*
X143652531Y-89075313D02*
X143604912Y-88980075D01*
X143604912Y-88980075D02*
X143509673Y-88932456D01*
X143509673Y-88932456D02*
X143414435Y-88932456D01*
X143414435Y-88932456D02*
X143319197Y-88980075D01*
X143319197Y-88980075D02*
X143271578Y-89075313D01*
X143271578Y-89075313D02*
X143271578Y-89313408D01*
X143271578Y-89313408D02*
X143223959Y-89408646D01*
X143652531Y-90313408D02*
X142652531Y-90313408D01*
X143604912Y-90313408D02*
X143652531Y-90218170D01*
X143652531Y-90218170D02*
X143652531Y-90027694D01*
X143652531Y-90027694D02*
X143604912Y-89932456D01*
X143604912Y-89932456D02*
X143557292Y-89884837D01*
X143557292Y-89884837D02*
X143462054Y-89837218D01*
X143462054Y-89837218D02*
X143176340Y-89837218D01*
X143176340Y-89837218D02*
X143081102Y-89884837D01*
X143081102Y-89884837D02*
X143033483Y-89932456D01*
X143033483Y-89932456D02*
X142985864Y-90027694D01*
X142985864Y-90027694D02*
X142985864Y-90218170D01*
X142985864Y-90218170D02*
X143033483Y-90313408D01*
X143652531Y-90789599D02*
X142652531Y-90789599D01*
X143033483Y-90789599D02*
X142985864Y-90884837D01*
X142985864Y-90884837D02*
X142985864Y-91075313D01*
X142985864Y-91075313D02*
X143033483Y-91170551D01*
X143033483Y-91170551D02*
X143081102Y-91218170D01*
X143081102Y-91218170D02*
X143176340Y-91265789D01*
X143176340Y-91265789D02*
X143462054Y-91265789D01*
X143462054Y-91265789D02*
X143557292Y-91218170D01*
X143557292Y-91218170D02*
X143604912Y-91170551D01*
X143604912Y-91170551D02*
X143652531Y-91075313D01*
X143652531Y-91075313D02*
X143652531Y-90884837D01*
X143652531Y-90884837D02*
X143604912Y-90789599D01*
X143652531Y-91837218D02*
X143604912Y-91741980D01*
X143604912Y-91741980D02*
X143557292Y-91694361D01*
X143557292Y-91694361D02*
X143462054Y-91646742D01*
X143462054Y-91646742D02*
X143176340Y-91646742D01*
X143176340Y-91646742D02*
X143081102Y-91694361D01*
X143081102Y-91694361D02*
X143033483Y-91741980D01*
X143033483Y-91741980D02*
X142985864Y-91837218D01*
X142985864Y-91837218D02*
X142985864Y-91980075D01*
X142985864Y-91980075D02*
X143033483Y-92075313D01*
X143033483Y-92075313D02*
X143081102Y-92122932D01*
X143081102Y-92122932D02*
X143176340Y-92170551D01*
X143176340Y-92170551D02*
X143462054Y-92170551D01*
X143462054Y-92170551D02*
X143557292Y-92122932D01*
X143557292Y-92122932D02*
X143604912Y-92075313D01*
X143604912Y-92075313D02*
X143652531Y-91980075D01*
X143652531Y-91980075D02*
X143652531Y-91837218D01*
X143652531Y-93027694D02*
X143128721Y-93027694D01*
X143128721Y-93027694D02*
X143033483Y-92980075D01*
X143033483Y-92980075D02*
X142985864Y-92884837D01*
X142985864Y-92884837D02*
X142985864Y-92694361D01*
X142985864Y-92694361D02*
X143033483Y-92599123D01*
X143604912Y-93027694D02*
X143652531Y-92932456D01*
X143652531Y-92932456D02*
X143652531Y-92694361D01*
X143652531Y-92694361D02*
X143604912Y-92599123D01*
X143604912Y-92599123D02*
X143509673Y-92551504D01*
X143509673Y-92551504D02*
X143414435Y-92551504D01*
X143414435Y-92551504D02*
X143319197Y-92599123D01*
X143319197Y-92599123D02*
X143271578Y-92694361D01*
X143271578Y-92694361D02*
X143271578Y-92932456D01*
X143271578Y-92932456D02*
X143223959Y-93027694D01*
X143652531Y-93503885D02*
X142985864Y-93503885D01*
X143176340Y-93503885D02*
X143081102Y-93551504D01*
X143081102Y-93551504D02*
X143033483Y-93599123D01*
X143033483Y-93599123D02*
X142985864Y-93694361D01*
X142985864Y-93694361D02*
X142985864Y-93789599D01*
X143652531Y-94551504D02*
X142652531Y-94551504D01*
X143604912Y-94551504D02*
X143652531Y-94456266D01*
X143652531Y-94456266D02*
X143652531Y-94265790D01*
X143652531Y-94265790D02*
X143604912Y-94170552D01*
X143604912Y-94170552D02*
X143557292Y-94122933D01*
X143557292Y-94122933D02*
X143462054Y-94075314D01*
X143462054Y-94075314D02*
X143176340Y-94075314D01*
X143176340Y-94075314D02*
X143081102Y-94122933D01*
X143081102Y-94122933D02*
X143033483Y-94170552D01*
X143033483Y-94170552D02*
X142985864Y-94265790D01*
X142985864Y-94265790D02*
X142985864Y-94456266D01*
X142985864Y-94456266D02*
X143033483Y-94551504D01*
X145262475Y-86503884D02*
X144262475Y-86503884D01*
X144262475Y-86503884D02*
X144262475Y-86884836D01*
X144262475Y-86884836D02*
X144310094Y-86980074D01*
X144310094Y-86980074D02*
X144357713Y-87027693D01*
X144357713Y-87027693D02*
X144452951Y-87075312D01*
X144452951Y-87075312D02*
X144595808Y-87075312D01*
X144595808Y-87075312D02*
X144691046Y-87027693D01*
X144691046Y-87027693D02*
X144738665Y-86980074D01*
X144738665Y-86980074D02*
X144786284Y-86884836D01*
X144786284Y-86884836D02*
X144786284Y-86503884D01*
X145262475Y-87646741D02*
X145214856Y-87551503D01*
X145214856Y-87551503D02*
X145167236Y-87503884D01*
X145167236Y-87503884D02*
X145071998Y-87456265D01*
X145071998Y-87456265D02*
X144786284Y-87456265D01*
X144786284Y-87456265D02*
X144691046Y-87503884D01*
X144691046Y-87503884D02*
X144643427Y-87551503D01*
X144643427Y-87551503D02*
X144595808Y-87646741D01*
X144595808Y-87646741D02*
X144595808Y-87789598D01*
X144595808Y-87789598D02*
X144643427Y-87884836D01*
X144643427Y-87884836D02*
X144691046Y-87932455D01*
X144691046Y-87932455D02*
X144786284Y-87980074D01*
X144786284Y-87980074D02*
X145071998Y-87980074D01*
X145071998Y-87980074D02*
X145167236Y-87932455D01*
X145167236Y-87932455D02*
X145214856Y-87884836D01*
X145214856Y-87884836D02*
X145262475Y-87789598D01*
X145262475Y-87789598D02*
X145262475Y-87646741D01*
X144595808Y-88313408D02*
X145262475Y-88503884D01*
X145262475Y-88503884D02*
X144786284Y-88694360D01*
X144786284Y-88694360D02*
X145262475Y-88884836D01*
X145262475Y-88884836D02*
X144595808Y-89075312D01*
X145214856Y-89837217D02*
X145262475Y-89741979D01*
X145262475Y-89741979D02*
X145262475Y-89551503D01*
X145262475Y-89551503D02*
X145214856Y-89456265D01*
X145214856Y-89456265D02*
X145119617Y-89408646D01*
X145119617Y-89408646D02*
X144738665Y-89408646D01*
X144738665Y-89408646D02*
X144643427Y-89456265D01*
X144643427Y-89456265D02*
X144595808Y-89551503D01*
X144595808Y-89551503D02*
X144595808Y-89741979D01*
X144595808Y-89741979D02*
X144643427Y-89837217D01*
X144643427Y-89837217D02*
X144738665Y-89884836D01*
X144738665Y-89884836D02*
X144833903Y-89884836D01*
X144833903Y-89884836D02*
X144929141Y-89408646D01*
X145262475Y-90313408D02*
X144595808Y-90313408D01*
X144786284Y-90313408D02*
X144691046Y-90361027D01*
X144691046Y-90361027D02*
X144643427Y-90408646D01*
X144643427Y-90408646D02*
X144595808Y-90503884D01*
X144595808Y-90503884D02*
X144595808Y-90599122D01*
X146824800Y-86456265D02*
X146872419Y-86599122D01*
X146872419Y-86599122D02*
X146872419Y-86837217D01*
X146872419Y-86837217D02*
X146824800Y-86932455D01*
X146824800Y-86932455D02*
X146777180Y-86980074D01*
X146777180Y-86980074D02*
X146681942Y-87027693D01*
X146681942Y-87027693D02*
X146586704Y-87027693D01*
X146586704Y-87027693D02*
X146491466Y-86980074D01*
X146491466Y-86980074D02*
X146443847Y-86932455D01*
X146443847Y-86932455D02*
X146396228Y-86837217D01*
X146396228Y-86837217D02*
X146348609Y-86646741D01*
X146348609Y-86646741D02*
X146300990Y-86551503D01*
X146300990Y-86551503D02*
X146253371Y-86503884D01*
X146253371Y-86503884D02*
X146158133Y-86456265D01*
X146158133Y-86456265D02*
X146062895Y-86456265D01*
X146062895Y-86456265D02*
X145967657Y-86503884D01*
X145967657Y-86503884D02*
X145920038Y-86551503D01*
X145920038Y-86551503D02*
X145872419Y-86646741D01*
X145872419Y-86646741D02*
X145872419Y-86884836D01*
X145872419Y-86884836D02*
X145920038Y-87027693D01*
X146205752Y-87884836D02*
X146872419Y-87884836D01*
X146205752Y-87456265D02*
X146729561Y-87456265D01*
X146729561Y-87456265D02*
X146824800Y-87503884D01*
X146824800Y-87503884D02*
X146872419Y-87599122D01*
X146872419Y-87599122D02*
X146872419Y-87741979D01*
X146872419Y-87741979D02*
X146824800Y-87837217D01*
X146824800Y-87837217D02*
X146777180Y-87884836D01*
X146205752Y-88361027D02*
X147205752Y-88361027D01*
X146253371Y-88361027D02*
X146205752Y-88456265D01*
X146205752Y-88456265D02*
X146205752Y-88646741D01*
X146205752Y-88646741D02*
X146253371Y-88741979D01*
X146253371Y-88741979D02*
X146300990Y-88789598D01*
X146300990Y-88789598D02*
X146396228Y-88837217D01*
X146396228Y-88837217D02*
X146681942Y-88837217D01*
X146681942Y-88837217D02*
X146777180Y-88789598D01*
X146777180Y-88789598D02*
X146824800Y-88741979D01*
X146824800Y-88741979D02*
X146872419Y-88646741D01*
X146872419Y-88646741D02*
X146872419Y-88456265D01*
X146872419Y-88456265D02*
X146824800Y-88361027D01*
X146205752Y-89265789D02*
X147205752Y-89265789D01*
X146253371Y-89265789D02*
X146205752Y-89361027D01*
X146205752Y-89361027D02*
X146205752Y-89551503D01*
X146205752Y-89551503D02*
X146253371Y-89646741D01*
X146253371Y-89646741D02*
X146300990Y-89694360D01*
X146300990Y-89694360D02*
X146396228Y-89741979D01*
X146396228Y-89741979D02*
X146681942Y-89741979D01*
X146681942Y-89741979D02*
X146777180Y-89694360D01*
X146777180Y-89694360D02*
X146824800Y-89646741D01*
X146824800Y-89646741D02*
X146872419Y-89551503D01*
X146872419Y-89551503D02*
X146872419Y-89361027D01*
X146872419Y-89361027D02*
X146824800Y-89265789D01*
X146872419Y-90313408D02*
X146824800Y-90218170D01*
X146824800Y-90218170D02*
X146729561Y-90170551D01*
X146729561Y-90170551D02*
X145872419Y-90170551D01*
X146205752Y-90599123D02*
X146872419Y-90837218D01*
X146205752Y-91075313D02*
X146872419Y-90837218D01*
X146872419Y-90837218D02*
X147110514Y-90741980D01*
X147110514Y-90741980D02*
X147158133Y-90694361D01*
X147158133Y-90694361D02*
X147205752Y-90599123D01*
X142636068Y-89436067D02*
G75*
G02*
X138163932Y-89436067I-2236068J0D01*
G01*
X138163932Y-89436067D02*
G75*
G02*
X142636068Y-89436067I2236068J0D01*
G01*
X139872419Y-87997094D02*
X140872419Y-88330427D01*
X140872419Y-88330427D02*
X139872419Y-88663760D01*
X139872419Y-89187570D02*
X139872419Y-89282808D01*
X139872419Y-89282808D02*
X139920038Y-89378046D01*
X139920038Y-89378046D02*
X139967657Y-89425665D01*
X139967657Y-89425665D02*
X140062895Y-89473284D01*
X140062895Y-89473284D02*
X140253371Y-89520903D01*
X140253371Y-89520903D02*
X140491466Y-89520903D01*
X140491466Y-89520903D02*
X140681942Y-89473284D01*
X140681942Y-89473284D02*
X140777180Y-89425665D01*
X140777180Y-89425665D02*
X140824800Y-89378046D01*
X140824800Y-89378046D02*
X140872419Y-89282808D01*
X140872419Y-89282808D02*
X140872419Y-89187570D01*
X140872419Y-89187570D02*
X140824800Y-89092332D01*
X140824800Y-89092332D02*
X140777180Y-89044713D01*
X140777180Y-89044713D02*
X140681942Y-88997094D01*
X140681942Y-88997094D02*
X140491466Y-88949475D01*
X140491466Y-88949475D02*
X140253371Y-88949475D01*
X140253371Y-88949475D02*
X140062895Y-88997094D01*
X140062895Y-88997094D02*
X139967657Y-89044713D01*
X139967657Y-89044713D02*
X139920038Y-89092332D01*
X139920038Y-89092332D02*
X139872419Y-89187570D01*
X140777180Y-89949475D02*
X140824800Y-89997094D01*
X140824800Y-89997094D02*
X140872419Y-89949475D01*
X140872419Y-89949475D02*
X140824800Y-89901856D01*
X140824800Y-89901856D02*
X140777180Y-89949475D01*
X140777180Y-89949475D02*
X140872419Y-89949475D01*
X140872419Y-90949474D02*
X140872419Y-90378046D01*
X140872419Y-90663760D02*
X139872419Y-90663760D01*
X139872419Y-90663760D02*
X140015276Y-90568522D01*
X140015276Y-90568522D02*
X140110514Y-90473284D01*
X140110514Y-90473284D02*
X140158133Y-90378046D01*
D11*
%TO.C,REF\u002A\u002A*%
X161181264Y-109918873D02*
X161198739Y-109950233D01*
X161199575Y-109986034D01*
X161179082Y-110017472D01*
X161174416Y-110021348D01*
X161164949Y-110026814D01*
X161151267Y-110031021D01*
X161130748Y-110034133D01*
X161100768Y-110036313D01*
X161058704Y-110037724D01*
X161001932Y-110038529D01*
X160927830Y-110038893D01*
X160833773Y-110038978D01*
X160512227Y-110038978D01*
X160490647Y-110012327D01*
X160475877Y-109988614D01*
X160469067Y-109965600D01*
X160474949Y-109944594D01*
X160490647Y-109918873D01*
X160512227Y-109892222D01*
X161159684Y-109892222D01*
X161181264Y-109918873D01*
G36*
X161181264Y-109918873D02*
G01*
X161198739Y-109950233D01*
X161199575Y-109986034D01*
X161179082Y-110017472D01*
X161174416Y-110021348D01*
X161164949Y-110026814D01*
X161151267Y-110031021D01*
X161130748Y-110034133D01*
X161100768Y-110036313D01*
X161058704Y-110037724D01*
X161001932Y-110038529D01*
X160927830Y-110038893D01*
X160833773Y-110038978D01*
X160512227Y-110038978D01*
X160490647Y-110012327D01*
X160475877Y-109988614D01*
X160469067Y-109965600D01*
X160474949Y-109944594D01*
X160490647Y-109918873D01*
X160512227Y-109892222D01*
X161159684Y-109892222D01*
X161181264Y-109918873D01*
G37*
X160921567Y-102752041D02*
X160995789Y-102752299D01*
X161052541Y-102752970D01*
X161094512Y-102754248D01*
X161124389Y-102756327D01*
X161144861Y-102759401D01*
X161158614Y-102763666D01*
X161168337Y-102769316D01*
X161176717Y-102776545D01*
X161198181Y-102808009D01*
X161199947Y-102843174D01*
X161180267Y-102876178D01*
X161174398Y-102881484D01*
X161165314Y-102886934D01*
X161151973Y-102891100D01*
X161131757Y-102894154D01*
X161102049Y-102896268D01*
X161060232Y-102897614D01*
X161003689Y-102898362D01*
X160929802Y-102898686D01*
X160835956Y-102898755D01*
X160760294Y-102898716D01*
X160682385Y-102898461D01*
X160622375Y-102897817D01*
X160577648Y-102896613D01*
X160545585Y-102894676D01*
X160523571Y-102891836D01*
X160508987Y-102887921D01*
X160499218Y-102882758D01*
X160491645Y-102876178D01*
X160472623Y-102846994D01*
X160473463Y-102813863D01*
X160496776Y-102779709D01*
X160524485Y-102752000D01*
X160837537Y-102752000D01*
X160921567Y-102752041D01*
G36*
X160921567Y-102752041D02*
G01*
X160995789Y-102752299D01*
X161052541Y-102752970D01*
X161094512Y-102754248D01*
X161124389Y-102756327D01*
X161144861Y-102759401D01*
X161158614Y-102763666D01*
X161168337Y-102769316D01*
X161176717Y-102776545D01*
X161198181Y-102808009D01*
X161199947Y-102843174D01*
X161180267Y-102876178D01*
X161174398Y-102881484D01*
X161165314Y-102886934D01*
X161151973Y-102891100D01*
X161131757Y-102894154D01*
X161102049Y-102896268D01*
X161060232Y-102897614D01*
X161003689Y-102898362D01*
X160929802Y-102898686D01*
X160835956Y-102898755D01*
X160760294Y-102898716D01*
X160682385Y-102898461D01*
X160622375Y-102897817D01*
X160577648Y-102896613D01*
X160545585Y-102894676D01*
X160523571Y-102891836D01*
X160508987Y-102887921D01*
X160499218Y-102882758D01*
X160491645Y-102876178D01*
X160472623Y-102846994D01*
X160473463Y-102813863D01*
X160496776Y-102779709D01*
X160524485Y-102752000D01*
X160837537Y-102752000D01*
X160921567Y-102752041D01*
G37*
X155734307Y-102995331D02*
X155775450Y-102997540D01*
X155807582Y-103003106D01*
X155838122Y-103013414D01*
X155874489Y-103029852D01*
X155901728Y-103043800D01*
X155987429Y-103102335D01*
X156056617Y-103174381D01*
X156107741Y-103258053D01*
X156139250Y-103351469D01*
X156146225Y-103384566D01*
X156153094Y-103425040D01*
X156154919Y-103458001D01*
X156151947Y-103492302D01*
X156144426Y-103536800D01*
X156132002Y-103588066D01*
X156094112Y-103678566D01*
X156039836Y-103757655D01*
X155971770Y-103823472D01*
X155892511Y-103874160D01*
X155804654Y-103907860D01*
X155710795Y-103922714D01*
X155613530Y-103916864D01*
X155517220Y-103890601D01*
X155428494Y-103845582D01*
X155353419Y-103784627D01*
X155293641Y-103709816D01*
X155250809Y-103623232D01*
X155226571Y-103526957D01*
X155222576Y-103423072D01*
X155232850Y-103345438D01*
X155260053Y-103262687D01*
X155305484Y-103187594D01*
X155371302Y-103115702D01*
X155415567Y-103077154D01*
X155473961Y-103037744D01*
X155534586Y-103012554D01*
X155603865Y-102999139D01*
X155688222Y-102995052D01*
X155734307Y-102995331D01*
G36*
X155734307Y-102995331D02*
G01*
X155775450Y-102997540D01*
X155807582Y-103003106D01*
X155838122Y-103013414D01*
X155874489Y-103029852D01*
X155901728Y-103043800D01*
X155987429Y-103102335D01*
X156056617Y-103174381D01*
X156107741Y-103258053D01*
X156139250Y-103351469D01*
X156146225Y-103384566D01*
X156153094Y-103425040D01*
X156154919Y-103458001D01*
X156151947Y-103492302D01*
X156144426Y-103536800D01*
X156132002Y-103588066D01*
X156094112Y-103678566D01*
X156039836Y-103757655D01*
X155971770Y-103823472D01*
X155892511Y-103874160D01*
X155804654Y-103907860D01*
X155710795Y-103922714D01*
X155613530Y-103916864D01*
X155517220Y-103890601D01*
X155428494Y-103845582D01*
X155353419Y-103784627D01*
X155293641Y-103709816D01*
X155250809Y-103623232D01*
X155226571Y-103526957D01*
X155222576Y-103423072D01*
X155232850Y-103345438D01*
X155260053Y-103262687D01*
X155305484Y-103187594D01*
X155371302Y-103115702D01*
X155415567Y-103077154D01*
X155473961Y-103037744D01*
X155534586Y-103012554D01*
X155603865Y-102999139D01*
X155688222Y-102995052D01*
X155734307Y-102995331D01*
G37*
X160595178Y-110289083D02*
X160596631Y-110290443D01*
X160604992Y-110301646D01*
X160610547Y-110318748D01*
X160613840Y-110345918D01*
X160615418Y-110387322D01*
X160615822Y-110447127D01*
X160615822Y-110586489D01*
X160879589Y-110586489D01*
X160955417Y-110586564D01*
X161022083Y-110586972D01*
X161071867Y-110587954D01*
X161107784Y-110589750D01*
X161132850Y-110592601D01*
X161150081Y-110596747D01*
X161162492Y-110602429D01*
X161173100Y-110609886D01*
X161175906Y-110612176D01*
X161198548Y-110643354D01*
X161200112Y-110677734D01*
X161180267Y-110710666D01*
X161172191Y-110717645D01*
X161161593Y-110723117D01*
X161145749Y-110727137D01*
X161121773Y-110729928D01*
X161086774Y-110731712D01*
X161037864Y-110732711D01*
X160972154Y-110733148D01*
X160886756Y-110733244D01*
X160615822Y-110733244D01*
X160615822Y-110879180D01*
X160615821Y-110890280D01*
X160615596Y-110946798D01*
X160614457Y-110985642D01*
X160611657Y-111011035D01*
X160606450Y-111027196D01*
X160598089Y-111038348D01*
X160585826Y-111048711D01*
X160555138Y-111064559D01*
X160521358Y-111061457D01*
X160488822Y-111035813D01*
X160485105Y-111030871D01*
X160480269Y-111020662D01*
X160476506Y-111005236D01*
X160473683Y-110982114D01*
X160471670Y-110948817D01*
X160470333Y-110902863D01*
X160469542Y-110841772D01*
X160469163Y-110763065D01*
X160469067Y-110664260D01*
X160469068Y-110644233D01*
X160469158Y-110550110D01*
X160469498Y-110475595D01*
X160470239Y-110418189D01*
X160471535Y-110375389D01*
X160473537Y-110344696D01*
X160476396Y-110323609D01*
X160480266Y-110309627D01*
X160485298Y-110300250D01*
X160491645Y-110292978D01*
X160524362Y-110274172D01*
X160561939Y-110272725D01*
X160595178Y-110289083D01*
G36*
X160595178Y-110289083D02*
G01*
X160596631Y-110290443D01*
X160604992Y-110301646D01*
X160610547Y-110318748D01*
X160613840Y-110345918D01*
X160615418Y-110387322D01*
X160615822Y-110447127D01*
X160615822Y-110586489D01*
X160879589Y-110586489D01*
X160955417Y-110586564D01*
X161022083Y-110586972D01*
X161071867Y-110587954D01*
X161107784Y-110589750D01*
X161132850Y-110592601D01*
X161150081Y-110596747D01*
X161162492Y-110602429D01*
X161173100Y-110609886D01*
X161175906Y-110612176D01*
X161198548Y-110643354D01*
X161200112Y-110677734D01*
X161180267Y-110710666D01*
X161172191Y-110717645D01*
X161161593Y-110723117D01*
X161145749Y-110727137D01*
X161121773Y-110729928D01*
X161086774Y-110731712D01*
X161037864Y-110732711D01*
X160972154Y-110733148D01*
X160886756Y-110733244D01*
X160615822Y-110733244D01*
X160615822Y-110879180D01*
X160615821Y-110890280D01*
X160615596Y-110946798D01*
X160614457Y-110985642D01*
X160611657Y-111011035D01*
X160606450Y-111027196D01*
X160598089Y-111038348D01*
X160585826Y-111048711D01*
X160555138Y-111064559D01*
X160521358Y-111061457D01*
X160488822Y-111035813D01*
X160485105Y-111030871D01*
X160480269Y-111020662D01*
X160476506Y-111005236D01*
X160473683Y-110982114D01*
X160471670Y-110948817D01*
X160470333Y-110902863D01*
X160469542Y-110841772D01*
X160469163Y-110763065D01*
X160469067Y-110664260D01*
X160469068Y-110644233D01*
X160469158Y-110550110D01*
X160469498Y-110475595D01*
X160470239Y-110418189D01*
X160471535Y-110375389D01*
X160473537Y-110344696D01*
X160476396Y-110323609D01*
X160480266Y-110309627D01*
X160485298Y-110300250D01*
X160491645Y-110292978D01*
X160524362Y-110274172D01*
X160561939Y-110272725D01*
X160595178Y-110289083D01*
G37*
X160877631Y-111296891D02*
X160994000Y-111297375D01*
X161008175Y-111297443D01*
X161069937Y-111298029D01*
X161113620Y-111299352D01*
X161143001Y-111301897D01*
X161161855Y-111306152D01*
X161173959Y-111312604D01*
X161183089Y-111321738D01*
X161200506Y-111355196D01*
X161197604Y-111390144D01*
X161173100Y-111421047D01*
X161159897Y-111430056D01*
X161141361Y-111437508D01*
X161115333Y-111441876D01*
X161076787Y-111443931D01*
X161020700Y-111444444D01*
X160898045Y-111444444D01*
X160898045Y-111941155D01*
X161032871Y-111941155D01*
X161068662Y-111941228D01*
X161114992Y-111941991D01*
X161145526Y-111944167D01*
X161164557Y-111948464D01*
X161176374Y-111955588D01*
X161185271Y-111966245D01*
X161200341Y-111998496D01*
X161197673Y-112033783D01*
X161173100Y-112064514D01*
X161166845Y-112069169D01*
X161156321Y-112075105D01*
X161142391Y-112079636D01*
X161122317Y-112082952D01*
X161093360Y-112085241D01*
X161052780Y-112086692D01*
X160997840Y-112087495D01*
X160925799Y-112087838D01*
X160833920Y-112087911D01*
X160524485Y-112087911D01*
X160496776Y-112060202D01*
X160474533Y-112028823D01*
X160471844Y-111995594D01*
X160491645Y-111963733D01*
X160501415Y-111955447D01*
X160517307Y-111948035D01*
X160541275Y-111943698D01*
X160578148Y-111941662D01*
X160632756Y-111941155D01*
X160751289Y-111941155D01*
X160751289Y-111444444D01*
X160635776Y-111444444D01*
X160584078Y-111444006D01*
X160549554Y-111442042D01*
X160526978Y-111437526D01*
X160511126Y-111429433D01*
X160496776Y-111416735D01*
X160474533Y-111385357D01*
X160471844Y-111352128D01*
X160491645Y-111320266D01*
X160497835Y-111314634D01*
X160506041Y-111309544D01*
X160517817Y-111305457D01*
X160535276Y-111302279D01*
X160560530Y-111299913D01*
X160595690Y-111298262D01*
X160642869Y-111297231D01*
X160704177Y-111296723D01*
X160781727Y-111296641D01*
X160877631Y-111296891D01*
G36*
X160877631Y-111296891D02*
G01*
X160994000Y-111297375D01*
X161008175Y-111297443D01*
X161069937Y-111298029D01*
X161113620Y-111299352D01*
X161143001Y-111301897D01*
X161161855Y-111306152D01*
X161173959Y-111312604D01*
X161183089Y-111321738D01*
X161200506Y-111355196D01*
X161197604Y-111390144D01*
X161173100Y-111421047D01*
X161159897Y-111430056D01*
X161141361Y-111437508D01*
X161115333Y-111441876D01*
X161076787Y-111443931D01*
X161020700Y-111444444D01*
X160898045Y-111444444D01*
X160898045Y-111941155D01*
X161032871Y-111941155D01*
X161068662Y-111941228D01*
X161114992Y-111941991D01*
X161145526Y-111944167D01*
X161164557Y-111948464D01*
X161176374Y-111955588D01*
X161185271Y-111966245D01*
X161200341Y-111998496D01*
X161197673Y-112033783D01*
X161173100Y-112064514D01*
X161166845Y-112069169D01*
X161156321Y-112075105D01*
X161142391Y-112079636D01*
X161122317Y-112082952D01*
X161093360Y-112085241D01*
X161052780Y-112086692D01*
X160997840Y-112087495D01*
X160925799Y-112087838D01*
X160833920Y-112087911D01*
X160524485Y-112087911D01*
X160496776Y-112060202D01*
X160474533Y-112028823D01*
X160471844Y-111995594D01*
X160491645Y-111963733D01*
X160501415Y-111955447D01*
X160517307Y-111948035D01*
X160541275Y-111943698D01*
X160578148Y-111941662D01*
X160632756Y-111941155D01*
X160751289Y-111941155D01*
X160751289Y-111444444D01*
X160635776Y-111444444D01*
X160584078Y-111444006D01*
X160549554Y-111442042D01*
X160526978Y-111437526D01*
X160511126Y-111429433D01*
X160496776Y-111416735D01*
X160474533Y-111385357D01*
X160471844Y-111352128D01*
X160491645Y-111320266D01*
X160497835Y-111314634D01*
X160506041Y-111309544D01*
X160517817Y-111305457D01*
X160535276Y-111302279D01*
X160560530Y-111299913D01*
X160595690Y-111298262D01*
X160642869Y-111297231D01*
X160704177Y-111296723D01*
X160781727Y-111296641D01*
X160877631Y-111296891D01*
G37*
X160895526Y-106612825D02*
X160974311Y-106613050D01*
X161035021Y-106613668D01*
X161056089Y-106614225D01*
X161080396Y-106614867D01*
X161113175Y-106616837D01*
X161136095Y-106619765D01*
X161151897Y-106623842D01*
X161163319Y-106629257D01*
X161173100Y-106636197D01*
X161202845Y-106659594D01*
X161202251Y-106825286D01*
X161201953Y-106860082D01*
X161198522Y-106958565D01*
X161190839Y-107039527D01*
X161178282Y-107106621D01*
X161160227Y-107163504D01*
X161136052Y-107213831D01*
X161134135Y-107217190D01*
X161097417Y-107275002D01*
X161060451Y-107317356D01*
X161016966Y-107350172D01*
X160960689Y-107379372D01*
X160951073Y-107383654D01*
X160887887Y-107406231D01*
X160832509Y-107413203D01*
X160777483Y-107404601D01*
X160715351Y-107380459D01*
X160713658Y-107379663D01*
X160644236Y-107339212D01*
X160587638Y-107288527D01*
X160543070Y-107225802D01*
X160509741Y-107149226D01*
X160486861Y-107056991D01*
X160473636Y-106947288D01*
X160469275Y-106818309D01*
X160469270Y-106814737D01*
X160469372Y-106770844D01*
X160615822Y-106770844D01*
X160616270Y-106858333D01*
X160618746Y-106925253D01*
X160629998Y-107017651D01*
X160649537Y-107096966D01*
X160676511Y-107158940D01*
X160697240Y-107189880D01*
X160727006Y-107218000D01*
X160769434Y-107241340D01*
X160785400Y-107248467D01*
X160817902Y-107260291D01*
X160842333Y-107262721D01*
X160867061Y-107257108D01*
X160882939Y-107251382D01*
X160942847Y-107218452D01*
X160988600Y-107171114D01*
X161021736Y-107107348D01*
X161043790Y-107025139D01*
X161044292Y-107022345D01*
X161050255Y-106976060D01*
X161054483Y-106919664D01*
X161056089Y-106864726D01*
X161056089Y-106770844D01*
X160615822Y-106770844D01*
X160469372Y-106770844D01*
X160469410Y-106754717D01*
X160470446Y-106712786D01*
X160473040Y-106684672D01*
X160477853Y-106666103D01*
X160485544Y-106652806D01*
X160496776Y-106640509D01*
X160524485Y-106612800D01*
X160833920Y-106612800D01*
X160895526Y-106612825D01*
G36*
X160895526Y-106612825D02*
G01*
X160974311Y-106613050D01*
X161035021Y-106613668D01*
X161056089Y-106614225D01*
X161080396Y-106614867D01*
X161113175Y-106616837D01*
X161136095Y-106619765D01*
X161151897Y-106623842D01*
X161163319Y-106629257D01*
X161173100Y-106636197D01*
X161202845Y-106659594D01*
X161202251Y-106825286D01*
X161201953Y-106860082D01*
X161198522Y-106958565D01*
X161190839Y-107039527D01*
X161178282Y-107106621D01*
X161160227Y-107163504D01*
X161136052Y-107213831D01*
X161134135Y-107217190D01*
X161097417Y-107275002D01*
X161060451Y-107317356D01*
X161016966Y-107350172D01*
X160960689Y-107379372D01*
X160951073Y-107383654D01*
X160887887Y-107406231D01*
X160832509Y-107413203D01*
X160777483Y-107404601D01*
X160715351Y-107380459D01*
X160713658Y-107379663D01*
X160644236Y-107339212D01*
X160587638Y-107288527D01*
X160543070Y-107225802D01*
X160509741Y-107149226D01*
X160486861Y-107056991D01*
X160473636Y-106947288D01*
X160469275Y-106818309D01*
X160469270Y-106814737D01*
X160469372Y-106770844D01*
X160615822Y-106770844D01*
X160616270Y-106858333D01*
X160618746Y-106925253D01*
X160629998Y-107017651D01*
X160649537Y-107096966D01*
X160676511Y-107158940D01*
X160697240Y-107189880D01*
X160727006Y-107218000D01*
X160769434Y-107241340D01*
X160785400Y-107248467D01*
X160817902Y-107260291D01*
X160842333Y-107262721D01*
X160867061Y-107257108D01*
X160882939Y-107251382D01*
X160942847Y-107218452D01*
X160988600Y-107171114D01*
X161021736Y-107107348D01*
X161043790Y-107025139D01*
X161044292Y-107022345D01*
X161050255Y-106976060D01*
X161054483Y-106919664D01*
X161056089Y-106864726D01*
X161056089Y-106770844D01*
X160615822Y-106770844D01*
X160469372Y-106770844D01*
X160469410Y-106754717D01*
X160470446Y-106712786D01*
X160473040Y-106684672D01*
X160477853Y-106666103D01*
X160485544Y-106652806D01*
X160496776Y-106640509D01*
X160524485Y-106612800D01*
X160833920Y-106612800D01*
X160895526Y-106612825D01*
G37*
X160835956Y-99523378D02*
X160911617Y-99523417D01*
X160989526Y-99523672D01*
X161049536Y-99524316D01*
X161094264Y-99525520D01*
X161126326Y-99527457D01*
X161148340Y-99530297D01*
X161162924Y-99534212D01*
X161172694Y-99539374D01*
X161180267Y-99545955D01*
X161186501Y-99552923D01*
X161193801Y-99565921D01*
X161198554Y-99585069D01*
X161201292Y-99614472D01*
X161202545Y-99658238D01*
X161202845Y-99720472D01*
X161202469Y-99769418D01*
X161198041Y-99876278D01*
X161187953Y-99965506D01*
X161171365Y-100040304D01*
X161147435Y-100103875D01*
X161115321Y-100159421D01*
X161074182Y-100210146D01*
X161068330Y-100216134D01*
X161019821Y-100253001D01*
X160959013Y-100284101D01*
X160894769Y-100305583D01*
X160835956Y-100313600D01*
X160814739Y-100312321D01*
X160757323Y-100300009D01*
X160697413Y-100277480D01*
X160643363Y-100248250D01*
X160603532Y-100215833D01*
X160586510Y-100196292D01*
X160547322Y-100141580D01*
X160517193Y-100081277D01*
X160495232Y-100012081D01*
X160480550Y-99930689D01*
X160472259Y-99833800D01*
X160470148Y-99746333D01*
X160615808Y-99746333D01*
X160615817Y-99749361D01*
X160617782Y-99800481D01*
X160622507Y-99860584D01*
X160629035Y-99917292D01*
X160638331Y-99967250D01*
X160664600Y-100042002D01*
X160703899Y-100099511D01*
X160756933Y-100141012D01*
X160808200Y-100162229D01*
X160856026Y-100163647D01*
X160906961Y-100145365D01*
X160952878Y-100115695D01*
X160995287Y-100068998D01*
X161025090Y-100007608D01*
X161044226Y-99928462D01*
X161044464Y-99926972D01*
X161050256Y-99878001D01*
X161054396Y-99819307D01*
X161056004Y-99763266D01*
X161056089Y-99670133D01*
X160615822Y-99670133D01*
X160615808Y-99746333D01*
X160470148Y-99746333D01*
X160469467Y-99718111D01*
X160469066Y-99678629D01*
X160468653Y-99632918D01*
X160470457Y-99597117D01*
X160476739Y-99570026D01*
X160489759Y-99550444D01*
X160511778Y-99537170D01*
X160545055Y-99529002D01*
X160591851Y-99524740D01*
X160615822Y-99524143D01*
X160654427Y-99523183D01*
X160735041Y-99523130D01*
X160835956Y-99523378D01*
G36*
X160835956Y-99523378D02*
G01*
X160911617Y-99523417D01*
X160989526Y-99523672D01*
X161049536Y-99524316D01*
X161094264Y-99525520D01*
X161126326Y-99527457D01*
X161148340Y-99530297D01*
X161162924Y-99534212D01*
X161172694Y-99539374D01*
X161180267Y-99545955D01*
X161186501Y-99552923D01*
X161193801Y-99565921D01*
X161198554Y-99585069D01*
X161201292Y-99614472D01*
X161202545Y-99658238D01*
X161202845Y-99720472D01*
X161202469Y-99769418D01*
X161198041Y-99876278D01*
X161187953Y-99965506D01*
X161171365Y-100040304D01*
X161147435Y-100103875D01*
X161115321Y-100159421D01*
X161074182Y-100210146D01*
X161068330Y-100216134D01*
X161019821Y-100253001D01*
X160959013Y-100284101D01*
X160894769Y-100305583D01*
X160835956Y-100313600D01*
X160814739Y-100312321D01*
X160757323Y-100300009D01*
X160697413Y-100277480D01*
X160643363Y-100248250D01*
X160603532Y-100215833D01*
X160586510Y-100196292D01*
X160547322Y-100141580D01*
X160517193Y-100081277D01*
X160495232Y-100012081D01*
X160480550Y-99930689D01*
X160472259Y-99833800D01*
X160470148Y-99746333D01*
X160615808Y-99746333D01*
X160615817Y-99749361D01*
X160617782Y-99800481D01*
X160622507Y-99860584D01*
X160629035Y-99917292D01*
X160638331Y-99967250D01*
X160664600Y-100042002D01*
X160703899Y-100099511D01*
X160756933Y-100141012D01*
X160808200Y-100162229D01*
X160856026Y-100163647D01*
X160906961Y-100145365D01*
X160952878Y-100115695D01*
X160995287Y-100068998D01*
X161025090Y-100007608D01*
X161044226Y-99928462D01*
X161044464Y-99926972D01*
X161050256Y-99878001D01*
X161054396Y-99819307D01*
X161056004Y-99763266D01*
X161056089Y-99670133D01*
X160615822Y-99670133D01*
X160615808Y-99746333D01*
X160470148Y-99746333D01*
X160469467Y-99718111D01*
X160469066Y-99678629D01*
X160468653Y-99632918D01*
X160470457Y-99597117D01*
X160476739Y-99570026D01*
X160489759Y-99550444D01*
X160511778Y-99537170D01*
X160545055Y-99529002D01*
X160591851Y-99524740D01*
X160615822Y-99524143D01*
X160654427Y-99523183D01*
X160735041Y-99523130D01*
X160835956Y-99523378D01*
G37*
X160894486Y-104411489D02*
X160973573Y-104411708D01*
X161034516Y-104412317D01*
X161080062Y-104413508D01*
X161112963Y-104415471D01*
X161135968Y-104418397D01*
X161151826Y-104422477D01*
X161163286Y-104427903D01*
X161173100Y-104434864D01*
X161197493Y-104465292D01*
X161200372Y-104500235D01*
X161181282Y-104537216D01*
X161177807Y-104541400D01*
X161169279Y-104549576D01*
X161157728Y-104555636D01*
X161139896Y-104560019D01*
X161112524Y-104563161D01*
X161072354Y-104565498D01*
X161016128Y-104567469D01*
X160940589Y-104569511D01*
X160721458Y-104575155D01*
X160962099Y-104840444D01*
X161028875Y-104914278D01*
X161086991Y-104979458D01*
X161131949Y-105031652D01*
X161164871Y-105072727D01*
X161186879Y-105104545D01*
X161199094Y-105128974D01*
X161202639Y-105147876D01*
X161198636Y-105163117D01*
X161188207Y-105176561D01*
X161172474Y-105190073D01*
X161163991Y-105196318D01*
X161153413Y-105201950D01*
X161139255Y-105206161D01*
X161118803Y-105209113D01*
X161089342Y-105210968D01*
X161048161Y-105211887D01*
X160992544Y-105212032D01*
X160919779Y-105211565D01*
X160827151Y-105210648D01*
X160512199Y-105207333D01*
X160490633Y-105180682D01*
X160474441Y-105154617D01*
X160471670Y-105121759D01*
X160490623Y-105087228D01*
X160494208Y-105082916D01*
X160502737Y-105074784D01*
X160514329Y-105068755D01*
X160532235Y-105064394D01*
X160559706Y-105061266D01*
X160599994Y-105058937D01*
X160656351Y-105056971D01*
X160732029Y-105054933D01*
X160951878Y-105049289D01*
X160788084Y-104868666D01*
X160709451Y-104781928D01*
X160641058Y-104706157D01*
X160585708Y-104644020D01*
X160542338Y-104593922D01*
X160509881Y-104554265D01*
X160487273Y-104523452D01*
X160473448Y-104499886D01*
X160467343Y-104481970D01*
X160467892Y-104468107D01*
X160474029Y-104456699D01*
X160484691Y-104446150D01*
X160498811Y-104434864D01*
X160504772Y-104430411D01*
X160515268Y-104424412D01*
X160529093Y-104419833D01*
X160548998Y-104416481D01*
X160577732Y-104414167D01*
X160618045Y-104412699D01*
X160672687Y-104411887D01*
X160744407Y-104411540D01*
X160835956Y-104411466D01*
X160894486Y-104411489D01*
G36*
X160894486Y-104411489D02*
G01*
X160973573Y-104411708D01*
X161034516Y-104412317D01*
X161080062Y-104413508D01*
X161112963Y-104415471D01*
X161135968Y-104418397D01*
X161151826Y-104422477D01*
X161163286Y-104427903D01*
X161173100Y-104434864D01*
X161197493Y-104465292D01*
X161200372Y-104500235D01*
X161181282Y-104537216D01*
X161177807Y-104541400D01*
X161169279Y-104549576D01*
X161157728Y-104555636D01*
X161139896Y-104560019D01*
X161112524Y-104563161D01*
X161072354Y-104565498D01*
X161016128Y-104567469D01*
X160940589Y-104569511D01*
X160721458Y-104575155D01*
X160962099Y-104840444D01*
X161028875Y-104914278D01*
X161086991Y-104979458D01*
X161131949Y-105031652D01*
X161164871Y-105072727D01*
X161186879Y-105104545D01*
X161199094Y-105128974D01*
X161202639Y-105147876D01*
X161198636Y-105163117D01*
X161188207Y-105176561D01*
X161172474Y-105190073D01*
X161163991Y-105196318D01*
X161153413Y-105201950D01*
X161139255Y-105206161D01*
X161118803Y-105209113D01*
X161089342Y-105210968D01*
X161048161Y-105211887D01*
X160992544Y-105212032D01*
X160919779Y-105211565D01*
X160827151Y-105210648D01*
X160512199Y-105207333D01*
X160490633Y-105180682D01*
X160474441Y-105154617D01*
X160471670Y-105121759D01*
X160490623Y-105087228D01*
X160494208Y-105082916D01*
X160502737Y-105074784D01*
X160514329Y-105068755D01*
X160532235Y-105064394D01*
X160559706Y-105061266D01*
X160599994Y-105058937D01*
X160656351Y-105056971D01*
X160732029Y-105054933D01*
X160951878Y-105049289D01*
X160788084Y-104868666D01*
X160709451Y-104781928D01*
X160641058Y-104706157D01*
X160585708Y-104644020D01*
X160542338Y-104593922D01*
X160509881Y-104554265D01*
X160487273Y-104523452D01*
X160473448Y-104499886D01*
X160467343Y-104481970D01*
X160467892Y-104468107D01*
X160474029Y-104456699D01*
X160484691Y-104446150D01*
X160498811Y-104434864D01*
X160504772Y-104430411D01*
X160515268Y-104424412D01*
X160529093Y-104419833D01*
X160548998Y-104416481D01*
X160577732Y-104414167D01*
X160618045Y-104412699D01*
X160672687Y-104411887D01*
X160744407Y-104411540D01*
X160835956Y-104411466D01*
X160894486Y-104411489D01*
G37*
X160854259Y-103227702D02*
X160905592Y-103240643D01*
X160962118Y-103263806D01*
X161016035Y-103293698D01*
X161059539Y-103326827D01*
X161069887Y-103337023D01*
X161121662Y-103404108D01*
X161161554Y-103484234D01*
X161185956Y-103570444D01*
X161194068Y-103625408D01*
X161200673Y-103718861D01*
X161198586Y-103808642D01*
X161188340Y-103891131D01*
X161170470Y-103962714D01*
X161145508Y-104019772D01*
X161113988Y-104058689D01*
X161112012Y-104060064D01*
X161086786Y-104067152D01*
X161039535Y-104071391D01*
X160970071Y-104072800D01*
X160907838Y-104071940D01*
X160860456Y-104067220D01*
X160828353Y-104055530D01*
X160808800Y-104033761D01*
X160799070Y-103998802D01*
X160796433Y-103947544D01*
X160798161Y-103876877D01*
X160801173Y-103828257D01*
X160809366Y-103778061D01*
X160823419Y-103745567D01*
X160844654Y-103728108D01*
X160874394Y-103723017D01*
X160878936Y-103723123D01*
X160913730Y-103731825D01*
X160937147Y-103755835D01*
X160950347Y-103797100D01*
X160954489Y-103857569D01*
X160954489Y-103926044D01*
X160992841Y-103926044D01*
X161001976Y-103925994D01*
X161019227Y-103923773D01*
X161029521Y-103914506D01*
X161036459Y-103893125D01*
X161043641Y-103854564D01*
X161044575Y-103849090D01*
X161054478Y-103752140D01*
X161051559Y-103662148D01*
X161036829Y-103581240D01*
X161011299Y-103511541D01*
X160975978Y-103455176D01*
X160931879Y-103414271D01*
X160880012Y-103390949D01*
X160821388Y-103387337D01*
X160792494Y-103392855D01*
X160736604Y-103419539D01*
X160690945Y-103465727D01*
X160656108Y-103530709D01*
X160632690Y-103613771D01*
X160628241Y-103638445D01*
X160617742Y-103727774D01*
X160618971Y-103807581D01*
X160631906Y-103885674D01*
X160638696Y-103920817D01*
X160639713Y-103966255D01*
X160627182Y-103997570D01*
X160600395Y-104017723D01*
X160572148Y-104024107D01*
X160540924Y-104014621D01*
X160527499Y-104005292D01*
X160503967Y-103971057D01*
X160486095Y-103918435D01*
X160474599Y-103849919D01*
X160470192Y-103768000D01*
X160474179Y-103670850D01*
X160490494Y-103564843D01*
X160518545Y-103471031D01*
X160557452Y-103392235D01*
X160606334Y-103331281D01*
X160639195Y-103305211D01*
X160688394Y-103275703D01*
X160742252Y-103250432D01*
X160793419Y-103232782D01*
X160834544Y-103226142D01*
X160854259Y-103227702D01*
G36*
X160854259Y-103227702D02*
G01*
X160905592Y-103240643D01*
X160962118Y-103263806D01*
X161016035Y-103293698D01*
X161059539Y-103326827D01*
X161069887Y-103337023D01*
X161121662Y-103404108D01*
X161161554Y-103484234D01*
X161185956Y-103570444D01*
X161194068Y-103625408D01*
X161200673Y-103718861D01*
X161198586Y-103808642D01*
X161188340Y-103891131D01*
X161170470Y-103962714D01*
X161145508Y-104019772D01*
X161113988Y-104058689D01*
X161112012Y-104060064D01*
X161086786Y-104067152D01*
X161039535Y-104071391D01*
X160970071Y-104072800D01*
X160907838Y-104071940D01*
X160860456Y-104067220D01*
X160828353Y-104055530D01*
X160808800Y-104033761D01*
X160799070Y-103998802D01*
X160796433Y-103947544D01*
X160798161Y-103876877D01*
X160801173Y-103828257D01*
X160809366Y-103778061D01*
X160823419Y-103745567D01*
X160844654Y-103728108D01*
X160874394Y-103723017D01*
X160878936Y-103723123D01*
X160913730Y-103731825D01*
X160937147Y-103755835D01*
X160950347Y-103797100D01*
X160954489Y-103857569D01*
X160954489Y-103926044D01*
X160992841Y-103926044D01*
X161001976Y-103925994D01*
X161019227Y-103923773D01*
X161029521Y-103914506D01*
X161036459Y-103893125D01*
X161043641Y-103854564D01*
X161044575Y-103849090D01*
X161054478Y-103752140D01*
X161051559Y-103662148D01*
X161036829Y-103581240D01*
X161011299Y-103511541D01*
X160975978Y-103455176D01*
X160931879Y-103414271D01*
X160880012Y-103390949D01*
X160821388Y-103387337D01*
X160792494Y-103392855D01*
X160736604Y-103419539D01*
X160690945Y-103465727D01*
X160656108Y-103530709D01*
X160632690Y-103613771D01*
X160628241Y-103638445D01*
X160617742Y-103727774D01*
X160618971Y-103807581D01*
X160631906Y-103885674D01*
X160638696Y-103920817D01*
X160639713Y-103966255D01*
X160627182Y-103997570D01*
X160600395Y-104017723D01*
X160572148Y-104024107D01*
X160540924Y-104014621D01*
X160527499Y-104005292D01*
X160503967Y-103971057D01*
X160486095Y-103918435D01*
X160474599Y-103849919D01*
X160470192Y-103768000D01*
X160474179Y-103670850D01*
X160490494Y-103564843D01*
X160518545Y-103471031D01*
X160557452Y-103392235D01*
X160606334Y-103331281D01*
X160639195Y-103305211D01*
X160688394Y-103275703D01*
X160742252Y-103250432D01*
X160793419Y-103232782D01*
X160834544Y-103226142D01*
X160854259Y-103227702D01*
G37*
X160906911Y-105596829D02*
X160985228Y-105597061D01*
X161045496Y-105597681D01*
X161090393Y-105598874D01*
X161122602Y-105600821D01*
X161144800Y-105603706D01*
X161159669Y-105607712D01*
X161169889Y-105613021D01*
X161178138Y-105619817D01*
X161182795Y-105624332D01*
X161189282Y-105632562D01*
X161194194Y-105643922D01*
X161197749Y-105661190D01*
X161200167Y-105687145D01*
X161201667Y-105724564D01*
X161202467Y-105776227D01*
X161202787Y-105844911D01*
X161202845Y-105933394D01*
X161202838Y-105953069D01*
X161202572Y-106040094D01*
X161201806Y-106107746D01*
X161200392Y-106158701D01*
X161198180Y-106195633D01*
X161195022Y-106221217D01*
X161190769Y-106238129D01*
X161185271Y-106249043D01*
X161175285Y-106259536D01*
X161144168Y-106272797D01*
X161108280Y-106271614D01*
X161076733Y-106255450D01*
X161074457Y-106253261D01*
X161068189Y-106244573D01*
X161063523Y-106231231D01*
X161060227Y-106210248D01*
X161058068Y-106178637D01*
X161056814Y-106133410D01*
X161056231Y-106071580D01*
X161056089Y-105990161D01*
X161056089Y-105743555D01*
X160898045Y-105743555D01*
X160898045Y-105905994D01*
X160897964Y-105941662D01*
X160897167Y-105997432D01*
X160895162Y-106036570D01*
X160891521Y-106063024D01*
X160885812Y-106080741D01*
X160877607Y-106093671D01*
X160874423Y-106097314D01*
X160843448Y-106115722D01*
X160807112Y-106116356D01*
X160773493Y-106098817D01*
X160773424Y-106098755D01*
X160764798Y-106089084D01*
X160758742Y-106075791D01*
X160754811Y-106055083D01*
X160752556Y-106023172D01*
X160751531Y-105976266D01*
X160751289Y-105910576D01*
X160751289Y-105742429D01*
X160686378Y-105745814D01*
X160621467Y-105749200D01*
X160618414Y-105991277D01*
X160618086Y-106016293D01*
X160616606Y-106097913D01*
X160614222Y-106160232D01*
X160610227Y-106205846D01*
X160603913Y-106237348D01*
X160594574Y-106257333D01*
X160581503Y-106268396D01*
X160563992Y-106273131D01*
X160541335Y-106274133D01*
X160538970Y-106274127D01*
X160518939Y-106272973D01*
X160503146Y-106268176D01*
X160491090Y-106257368D01*
X160482267Y-106238183D01*
X160476175Y-106208255D01*
X160472311Y-106165217D01*
X160470174Y-106106701D01*
X160469260Y-106030343D01*
X160469067Y-105933774D01*
X160469067Y-105643594D01*
X160498811Y-105620197D01*
X160505495Y-105615248D01*
X160516066Y-105609404D01*
X160530153Y-105604943D01*
X160550478Y-105601679D01*
X160579765Y-105599426D01*
X160620737Y-105597998D01*
X160676117Y-105597208D01*
X160748628Y-105596871D01*
X160840994Y-105596800D01*
X160906911Y-105596829D01*
G36*
X160906911Y-105596829D02*
G01*
X160985228Y-105597061D01*
X161045496Y-105597681D01*
X161090393Y-105598874D01*
X161122602Y-105600821D01*
X161144800Y-105603706D01*
X161159669Y-105607712D01*
X161169889Y-105613021D01*
X161178138Y-105619817D01*
X161182795Y-105624332D01*
X161189282Y-105632562D01*
X161194194Y-105643922D01*
X161197749Y-105661190D01*
X161200167Y-105687145D01*
X161201667Y-105724564D01*
X161202467Y-105776227D01*
X161202787Y-105844911D01*
X161202845Y-105933394D01*
X161202838Y-105953069D01*
X161202572Y-106040094D01*
X161201806Y-106107746D01*
X161200392Y-106158701D01*
X161198180Y-106195633D01*
X161195022Y-106221217D01*
X161190769Y-106238129D01*
X161185271Y-106249043D01*
X161175285Y-106259536D01*
X161144168Y-106272797D01*
X161108280Y-106271614D01*
X161076733Y-106255450D01*
X161074457Y-106253261D01*
X161068189Y-106244573D01*
X161063523Y-106231231D01*
X161060227Y-106210248D01*
X161058068Y-106178637D01*
X161056814Y-106133410D01*
X161056231Y-106071580D01*
X161056089Y-105990161D01*
X161056089Y-105743555D01*
X160898045Y-105743555D01*
X160898045Y-105905994D01*
X160897964Y-105941662D01*
X160897167Y-105997432D01*
X160895162Y-106036570D01*
X160891521Y-106063024D01*
X160885812Y-106080741D01*
X160877607Y-106093671D01*
X160874423Y-106097314D01*
X160843448Y-106115722D01*
X160807112Y-106116356D01*
X160773493Y-106098817D01*
X160773424Y-106098755D01*
X160764798Y-106089084D01*
X160758742Y-106075791D01*
X160754811Y-106055083D01*
X160752556Y-106023172D01*
X160751531Y-105976266D01*
X160751289Y-105910576D01*
X160751289Y-105742429D01*
X160686378Y-105745814D01*
X160621467Y-105749200D01*
X160618414Y-105991277D01*
X160618086Y-106016293D01*
X160616606Y-106097913D01*
X160614222Y-106160232D01*
X160610227Y-106205846D01*
X160603913Y-106237348D01*
X160594574Y-106257333D01*
X160581503Y-106268396D01*
X160563992Y-106273131D01*
X160541335Y-106274133D01*
X160538970Y-106274127D01*
X160518939Y-106272973D01*
X160503146Y-106268176D01*
X160491090Y-106257368D01*
X160482267Y-106238183D01*
X160476175Y-106208255D01*
X160472311Y-106165217D01*
X160470174Y-106106701D01*
X160469260Y-106030343D01*
X160469067Y-105933774D01*
X160469067Y-105643594D01*
X160498811Y-105620197D01*
X160505495Y-105615248D01*
X160516066Y-105609404D01*
X160530153Y-105604943D01*
X160550478Y-105601679D01*
X160579765Y-105599426D01*
X160620737Y-105597998D01*
X160676117Y-105597208D01*
X160748628Y-105596871D01*
X160840994Y-105596800D01*
X160906911Y-105596829D01*
G37*
X160910713Y-100652303D02*
X160988889Y-100652552D01*
X161049103Y-100653188D01*
X161093982Y-100654385D01*
X161126152Y-100656316D01*
X161148239Y-100659154D01*
X161162870Y-100663073D01*
X161172670Y-100668245D01*
X161180267Y-100674844D01*
X161183444Y-100678178D01*
X161189554Y-100686700D01*
X161194229Y-100698702D01*
X161197659Y-100716913D01*
X161200036Y-100744060D01*
X161201552Y-100782871D01*
X161202398Y-100836076D01*
X161202765Y-100906402D01*
X161202845Y-100996578D01*
X161202833Y-101038686D01*
X161202651Y-101119833D01*
X161202098Y-101182325D01*
X161200982Y-101228891D01*
X161199113Y-101262259D01*
X161196298Y-101285156D01*
X161192346Y-101300312D01*
X161187066Y-101310454D01*
X161180267Y-101318311D01*
X161158667Y-101333037D01*
X161129467Y-101340889D01*
X161105560Y-101335390D01*
X161078667Y-101318311D01*
X161074059Y-101313332D01*
X161067772Y-101303557D01*
X161063146Y-101289441D01*
X161059930Y-101267946D01*
X161057870Y-101236032D01*
X161056712Y-101190658D01*
X161056202Y-101128787D01*
X161056089Y-101047378D01*
X161056089Y-100799022D01*
X160898045Y-100799022D01*
X160898045Y-100960199D01*
X160897899Y-100996017D01*
X160896176Y-101061641D01*
X160891741Y-101108882D01*
X160883637Y-101140617D01*
X160870906Y-101159723D01*
X160852592Y-101169077D01*
X160827738Y-101171555D01*
X160807482Y-101170758D01*
X160785656Y-101165506D01*
X160770304Y-101152712D01*
X160760309Y-101129372D01*
X160754553Y-101092483D01*
X160751919Y-101039041D01*
X160751289Y-100966042D01*
X160751289Y-100797895D01*
X160686378Y-100801281D01*
X160621467Y-100804666D01*
X160618418Y-101052383D01*
X160617539Y-101114974D01*
X160616095Y-101183435D01*
X160614164Y-101234339D01*
X160611514Y-101270592D01*
X160607910Y-101295099D01*
X160603121Y-101310765D01*
X160596913Y-101320494D01*
X160590510Y-101326509D01*
X160558828Y-101339518D01*
X160523142Y-101335957D01*
X160492084Y-101316182D01*
X160489161Y-101312931D01*
X160482810Y-101303951D01*
X160477957Y-101291847D01*
X160474403Y-101273841D01*
X160471946Y-101247153D01*
X160470385Y-101209003D01*
X160469518Y-101156614D01*
X160469146Y-101087206D01*
X160469067Y-100997999D01*
X160469083Y-100943266D01*
X160469275Y-100866169D01*
X160469860Y-100807223D01*
X160471051Y-100763636D01*
X160473064Y-100732617D01*
X160476112Y-100711375D01*
X160480409Y-100697118D01*
X160486172Y-100687055D01*
X160493612Y-100678394D01*
X160495293Y-100676609D01*
X160502832Y-100669365D01*
X160511850Y-100663723D01*
X160524984Y-100659483D01*
X160544872Y-100656444D01*
X160574151Y-100654406D01*
X160615458Y-100653170D01*
X160671431Y-100652535D01*
X160744707Y-100652300D01*
X160837923Y-100652266D01*
X160910713Y-100652303D01*
G36*
X160910713Y-100652303D02*
G01*
X160988889Y-100652552D01*
X161049103Y-100653188D01*
X161093982Y-100654385D01*
X161126152Y-100656316D01*
X161148239Y-100659154D01*
X161162870Y-100663073D01*
X161172670Y-100668245D01*
X161180267Y-100674844D01*
X161183444Y-100678178D01*
X161189554Y-100686700D01*
X161194229Y-100698702D01*
X161197659Y-100716913D01*
X161200036Y-100744060D01*
X161201552Y-100782871D01*
X161202398Y-100836076D01*
X161202765Y-100906402D01*
X161202845Y-100996578D01*
X161202833Y-101038686D01*
X161202651Y-101119833D01*
X161202098Y-101182325D01*
X161200982Y-101228891D01*
X161199113Y-101262259D01*
X161196298Y-101285156D01*
X161192346Y-101300312D01*
X161187066Y-101310454D01*
X161180267Y-101318311D01*
X161158667Y-101333037D01*
X161129467Y-101340889D01*
X161105560Y-101335390D01*
X161078667Y-101318311D01*
X161074059Y-101313332D01*
X161067772Y-101303557D01*
X161063146Y-101289441D01*
X161059930Y-101267946D01*
X161057870Y-101236032D01*
X161056712Y-101190658D01*
X161056202Y-101128787D01*
X161056089Y-101047378D01*
X161056089Y-100799022D01*
X160898045Y-100799022D01*
X160898045Y-100960199D01*
X160897899Y-100996017D01*
X160896176Y-101061641D01*
X160891741Y-101108882D01*
X160883637Y-101140617D01*
X160870906Y-101159723D01*
X160852592Y-101169077D01*
X160827738Y-101171555D01*
X160807482Y-101170758D01*
X160785656Y-101165506D01*
X160770304Y-101152712D01*
X160760309Y-101129372D01*
X160754553Y-101092483D01*
X160751919Y-101039041D01*
X160751289Y-100966042D01*
X160751289Y-100797895D01*
X160686378Y-100801281D01*
X160621467Y-100804666D01*
X160618418Y-101052383D01*
X160617539Y-101114974D01*
X160616095Y-101183435D01*
X160614164Y-101234339D01*
X160611514Y-101270592D01*
X160607910Y-101295099D01*
X160603121Y-101310765D01*
X160596913Y-101320494D01*
X160590510Y-101326509D01*
X160558828Y-101339518D01*
X160523142Y-101335957D01*
X160492084Y-101316182D01*
X160489161Y-101312931D01*
X160482810Y-101303951D01*
X160477957Y-101291847D01*
X160474403Y-101273841D01*
X160471946Y-101247153D01*
X160470385Y-101209003D01*
X160469518Y-101156614D01*
X160469146Y-101087206D01*
X160469067Y-100997999D01*
X160469083Y-100943266D01*
X160469275Y-100866169D01*
X160469860Y-100807223D01*
X160471051Y-100763636D01*
X160473064Y-100732617D01*
X160476112Y-100711375D01*
X160480409Y-100697118D01*
X160486172Y-100687055D01*
X160493612Y-100678394D01*
X160495293Y-100676609D01*
X160502832Y-100669365D01*
X160511850Y-100663723D01*
X160524984Y-100659483D01*
X160544872Y-100656444D01*
X160574151Y-100654406D01*
X160615458Y-100653170D01*
X160671431Y-100652535D01*
X160744707Y-100652300D01*
X160837923Y-100652266D01*
X160910713Y-100652303D01*
G37*
X160551915Y-108504772D02*
X160586481Y-108517636D01*
X160634826Y-108537395D01*
X160693825Y-108562619D01*
X160760355Y-108591881D01*
X160831291Y-108623750D01*
X160903507Y-108656799D01*
X160973880Y-108689599D01*
X161039285Y-108720720D01*
X161096597Y-108748735D01*
X161142692Y-108772214D01*
X161174446Y-108789728D01*
X161188733Y-108799849D01*
X161202102Y-108834257D01*
X161195741Y-108875954D01*
X161191044Y-108881319D01*
X161168893Y-108897148D01*
X161132132Y-108919350D01*
X161084415Y-108945767D01*
X161029393Y-108974240D01*
X160870150Y-109054014D01*
X161016742Y-109127201D01*
X161036032Y-109136897D01*
X161088380Y-109163875D01*
X161133170Y-109187904D01*
X161166154Y-109206668D01*
X161183089Y-109217854D01*
X161184332Y-109219000D01*
X161199619Y-109247121D01*
X161201302Y-109282183D01*
X161188733Y-109313224D01*
X161185884Y-109315650D01*
X161165259Y-109327910D01*
X161127708Y-109347648D01*
X161075880Y-109373552D01*
X161012423Y-109404315D01*
X160939985Y-109438625D01*
X160861216Y-109475175D01*
X160817093Y-109495415D01*
X160736365Y-109532188D01*
X160672687Y-109560645D01*
X160623752Y-109581669D01*
X160587257Y-109596146D01*
X160560895Y-109604961D01*
X160542361Y-109608996D01*
X160529352Y-109609138D01*
X160519561Y-109606270D01*
X160498678Y-109591613D01*
X160478377Y-109565010D01*
X160478035Y-109564255D01*
X160471034Y-109544665D01*
X160470504Y-109527210D01*
X160478478Y-109510298D01*
X160496989Y-109492337D01*
X160528071Y-109471737D01*
X160573756Y-109446905D01*
X160636078Y-109416250D01*
X160717071Y-109378180D01*
X160748454Y-109363546D01*
X160811638Y-109333797D01*
X160866244Y-109307703D01*
X160909290Y-109286708D01*
X160937793Y-109272261D01*
X160948770Y-109265809D01*
X160948189Y-109264450D01*
X160934242Y-109254458D01*
X160904704Y-109237167D01*
X160863087Y-109214570D01*
X160812903Y-109188662D01*
X160781414Y-109172689D01*
X160726061Y-109143739D01*
X160687044Y-109121251D01*
X160661566Y-109103035D01*
X160646831Y-109086904D01*
X160640042Y-109070670D01*
X160638400Y-109052143D01*
X160638875Y-109041640D01*
X160643082Y-109025524D01*
X160653946Y-109010210D01*
X160674219Y-108993612D01*
X160706654Y-108973643D01*
X160754004Y-108948217D01*
X160819022Y-108915248D01*
X160838277Y-108905515D01*
X160884946Y-108881057D01*
X160921109Y-108860822D01*
X160943497Y-108846689D01*
X160948845Y-108840540D01*
X160945573Y-108839173D01*
X160924664Y-108829798D01*
X160887725Y-108812938D01*
X160837874Y-108790021D01*
X160778226Y-108762480D01*
X160711898Y-108731745D01*
X160654677Y-108705030D01*
X160592688Y-108675407D01*
X160546949Y-108652336D01*
X160514908Y-108634357D01*
X160494014Y-108620010D01*
X160481718Y-108607834D01*
X160475466Y-108596368D01*
X160472574Y-108586958D01*
X160472425Y-108561853D01*
X160487768Y-108534710D01*
X160488753Y-108533410D01*
X160511388Y-108511326D01*
X160533613Y-108500277D01*
X160534253Y-108500231D01*
X160551915Y-108504772D01*
G36*
X160551915Y-108504772D02*
G01*
X160586481Y-108517636D01*
X160634826Y-108537395D01*
X160693825Y-108562619D01*
X160760355Y-108591881D01*
X160831291Y-108623750D01*
X160903507Y-108656799D01*
X160973880Y-108689599D01*
X161039285Y-108720720D01*
X161096597Y-108748735D01*
X161142692Y-108772214D01*
X161174446Y-108789728D01*
X161188733Y-108799849D01*
X161202102Y-108834257D01*
X161195741Y-108875954D01*
X161191044Y-108881319D01*
X161168893Y-108897148D01*
X161132132Y-108919350D01*
X161084415Y-108945767D01*
X161029393Y-108974240D01*
X160870150Y-109054014D01*
X161016742Y-109127201D01*
X161036032Y-109136897D01*
X161088380Y-109163875D01*
X161133170Y-109187904D01*
X161166154Y-109206668D01*
X161183089Y-109217854D01*
X161184332Y-109219000D01*
X161199619Y-109247121D01*
X161201302Y-109282183D01*
X161188733Y-109313224D01*
X161185884Y-109315650D01*
X161165259Y-109327910D01*
X161127708Y-109347648D01*
X161075880Y-109373552D01*
X161012423Y-109404315D01*
X160939985Y-109438625D01*
X160861216Y-109475175D01*
X160817093Y-109495415D01*
X160736365Y-109532188D01*
X160672687Y-109560645D01*
X160623752Y-109581669D01*
X160587257Y-109596146D01*
X160560895Y-109604961D01*
X160542361Y-109608996D01*
X160529352Y-109609138D01*
X160519561Y-109606270D01*
X160498678Y-109591613D01*
X160478377Y-109565010D01*
X160478035Y-109564255D01*
X160471034Y-109544665D01*
X160470504Y-109527210D01*
X160478478Y-109510298D01*
X160496989Y-109492337D01*
X160528071Y-109471737D01*
X160573756Y-109446905D01*
X160636078Y-109416250D01*
X160717071Y-109378180D01*
X160748454Y-109363546D01*
X160811638Y-109333797D01*
X160866244Y-109307703D01*
X160909290Y-109286708D01*
X160937793Y-109272261D01*
X160948770Y-109265809D01*
X160948189Y-109264450D01*
X160934242Y-109254458D01*
X160904704Y-109237167D01*
X160863087Y-109214570D01*
X160812903Y-109188662D01*
X160781414Y-109172689D01*
X160726061Y-109143739D01*
X160687044Y-109121251D01*
X160661566Y-109103035D01*
X160646831Y-109086904D01*
X160640042Y-109070670D01*
X160638400Y-109052143D01*
X160638875Y-109041640D01*
X160643082Y-109025524D01*
X160653946Y-109010210D01*
X160674219Y-108993612D01*
X160706654Y-108973643D01*
X160754004Y-108948217D01*
X160819022Y-108915248D01*
X160838277Y-108905515D01*
X160884946Y-108881057D01*
X160921109Y-108860822D01*
X160943497Y-108846689D01*
X160948845Y-108840540D01*
X160945573Y-108839173D01*
X160924664Y-108829798D01*
X160887725Y-108812938D01*
X160837874Y-108790021D01*
X160778226Y-108762480D01*
X160711898Y-108731745D01*
X160654677Y-108705030D01*
X160592688Y-108675407D01*
X160546949Y-108652336D01*
X160514908Y-108634357D01*
X160494014Y-108620010D01*
X160481718Y-108607834D01*
X160475466Y-108596368D01*
X160472574Y-108586958D01*
X160472425Y-108561853D01*
X160487768Y-108534710D01*
X160488753Y-108533410D01*
X160511388Y-108511326D01*
X160533613Y-108500277D01*
X160534253Y-108500231D01*
X160551915Y-108504772D01*
G37*
X160720232Y-101624048D02*
X160745029Y-101629840D01*
X160766699Y-101644647D01*
X160794049Y-101672620D01*
X160801378Y-101680598D01*
X160822281Y-101704308D01*
X160839251Y-101726702D01*
X160853205Y-101750735D01*
X160865056Y-101779363D01*
X160875720Y-101815540D01*
X160886111Y-101862220D01*
X160897146Y-101922359D01*
X160909738Y-101998910D01*
X160924804Y-102094829D01*
X160927838Y-102113192D01*
X160941458Y-102175522D01*
X160957192Y-102220740D01*
X160974263Y-102247024D01*
X160991897Y-102252553D01*
X160996168Y-102249932D01*
X161011233Y-102232000D01*
X161027867Y-102203874D01*
X161033857Y-102191074D01*
X161041050Y-102169776D01*
X161045827Y-102143390D01*
X161048646Y-102107546D01*
X161049964Y-102057872D01*
X161050237Y-101990000D01*
X161050164Y-101972215D01*
X161049053Y-101904594D01*
X161046828Y-101839655D01*
X161043762Y-101784030D01*
X161040127Y-101744349D01*
X161036059Y-101708838D01*
X161035276Y-101679585D01*
X161039876Y-101660685D01*
X161050551Y-101645571D01*
X161054144Y-101641915D01*
X161085918Y-101625573D01*
X161121572Y-101626893D01*
X161152190Y-101645850D01*
X161163796Y-101666220D01*
X161176491Y-101702204D01*
X161186541Y-101744628D01*
X161187140Y-101748078D01*
X161192356Y-101790748D01*
X161196730Y-101848134D01*
X161199818Y-101913151D01*
X161201177Y-101978711D01*
X161201218Y-101994943D01*
X161198741Y-102093256D01*
X161190735Y-102173308D01*
X161176203Y-102238487D01*
X161154149Y-102292183D01*
X161123576Y-102337784D01*
X161083486Y-102378677D01*
X161057259Y-102398798D01*
X161027712Y-102410424D01*
X160987995Y-102413333D01*
X160976026Y-102413192D01*
X160943345Y-102409319D01*
X160916819Y-102396935D01*
X160885971Y-102371770D01*
X160863831Y-102350558D01*
X160841285Y-102324162D01*
X160822917Y-102294445D01*
X160807661Y-102258215D01*
X160794449Y-102212283D01*
X160782214Y-102153456D01*
X160769889Y-102078544D01*
X160756406Y-101984355D01*
X160749396Y-101939043D01*
X160734837Y-101871089D01*
X160718337Y-101821953D01*
X160700439Y-101792386D01*
X160681685Y-101783136D01*
X160662615Y-101794952D01*
X160643771Y-101828584D01*
X160642557Y-101831630D01*
X160630479Y-101877989D01*
X160622279Y-101940639D01*
X160618119Y-102014073D01*
X160618161Y-102092783D01*
X160622569Y-102171261D01*
X160631505Y-102244000D01*
X160632154Y-102247927D01*
X160639861Y-102296743D01*
X160643473Y-102328995D01*
X160642876Y-102349992D01*
X160637954Y-102365046D01*
X160628596Y-102379466D01*
X160627725Y-102380636D01*
X160597351Y-102405153D01*
X160561850Y-102409946D01*
X160527269Y-102394140D01*
X160522813Y-102389594D01*
X160507673Y-102359980D01*
X160494550Y-102312998D01*
X160483750Y-102252694D01*
X160475581Y-102183112D01*
X160470351Y-102108297D01*
X160468367Y-102032294D01*
X160469936Y-101959147D01*
X160475366Y-101892900D01*
X160484964Y-101837600D01*
X160499825Y-101786717D01*
X160532958Y-101715405D01*
X160575640Y-101664248D01*
X160627705Y-101633425D01*
X160688983Y-101623111D01*
X160720232Y-101624048D01*
G36*
X160720232Y-101624048D02*
G01*
X160745029Y-101629840D01*
X160766699Y-101644647D01*
X160794049Y-101672620D01*
X160801378Y-101680598D01*
X160822281Y-101704308D01*
X160839251Y-101726702D01*
X160853205Y-101750735D01*
X160865056Y-101779363D01*
X160875720Y-101815540D01*
X160886111Y-101862220D01*
X160897146Y-101922359D01*
X160909738Y-101998910D01*
X160924804Y-102094829D01*
X160927838Y-102113192D01*
X160941458Y-102175522D01*
X160957192Y-102220740D01*
X160974263Y-102247024D01*
X160991897Y-102252553D01*
X160996168Y-102249932D01*
X161011233Y-102232000D01*
X161027867Y-102203874D01*
X161033857Y-102191074D01*
X161041050Y-102169776D01*
X161045827Y-102143390D01*
X161048646Y-102107546D01*
X161049964Y-102057872D01*
X161050237Y-101990000D01*
X161050164Y-101972215D01*
X161049053Y-101904594D01*
X161046828Y-101839655D01*
X161043762Y-101784030D01*
X161040127Y-101744349D01*
X161036059Y-101708838D01*
X161035276Y-101679585D01*
X161039876Y-101660685D01*
X161050551Y-101645571D01*
X161054144Y-101641915D01*
X161085918Y-101625573D01*
X161121572Y-101626893D01*
X161152190Y-101645850D01*
X161163796Y-101666220D01*
X161176491Y-101702204D01*
X161186541Y-101744628D01*
X161187140Y-101748078D01*
X161192356Y-101790748D01*
X161196730Y-101848134D01*
X161199818Y-101913151D01*
X161201177Y-101978711D01*
X161201218Y-101994943D01*
X161198741Y-102093256D01*
X161190735Y-102173308D01*
X161176203Y-102238487D01*
X161154149Y-102292183D01*
X161123576Y-102337784D01*
X161083486Y-102378677D01*
X161057259Y-102398798D01*
X161027712Y-102410424D01*
X160987995Y-102413333D01*
X160976026Y-102413192D01*
X160943345Y-102409319D01*
X160916819Y-102396935D01*
X160885971Y-102371770D01*
X160863831Y-102350558D01*
X160841285Y-102324162D01*
X160822917Y-102294445D01*
X160807661Y-102258215D01*
X160794449Y-102212283D01*
X160782214Y-102153456D01*
X160769889Y-102078544D01*
X160756406Y-101984355D01*
X160749396Y-101939043D01*
X160734837Y-101871089D01*
X160718337Y-101821953D01*
X160700439Y-101792386D01*
X160681685Y-101783136D01*
X160662615Y-101794952D01*
X160643771Y-101828584D01*
X160642557Y-101831630D01*
X160630479Y-101877989D01*
X160622279Y-101940639D01*
X160618119Y-102014073D01*
X160618161Y-102092783D01*
X160622569Y-102171261D01*
X160631505Y-102244000D01*
X160632154Y-102247927D01*
X160639861Y-102296743D01*
X160643473Y-102328995D01*
X160642876Y-102349992D01*
X160637954Y-102365046D01*
X160628596Y-102379466D01*
X160627725Y-102380636D01*
X160597351Y-102405153D01*
X160561850Y-102409946D01*
X160527269Y-102394140D01*
X160522813Y-102389594D01*
X160507673Y-102359980D01*
X160494550Y-102312998D01*
X160483750Y-102252694D01*
X160475581Y-102183112D01*
X160470351Y-102108297D01*
X160468367Y-102032294D01*
X160469936Y-101959147D01*
X160475366Y-101892900D01*
X160484964Y-101837600D01*
X160499825Y-101786717D01*
X160532958Y-101715405D01*
X160575640Y-101664248D01*
X160627705Y-101633425D01*
X160688983Y-101623111D01*
X160720232Y-101624048D01*
G37*
X158021325Y-104482449D02*
X158222581Y-104499209D01*
X158417128Y-104532708D01*
X158600756Y-104582956D01*
X158718053Y-104626810D01*
X158880951Y-104704652D01*
X159034866Y-104798172D01*
X159176671Y-104905178D01*
X159303239Y-105023481D01*
X159411441Y-105150889D01*
X159464120Y-105228394D01*
X159533750Y-105355275D01*
X159592468Y-105492757D01*
X159637587Y-105634284D01*
X159666422Y-105773298D01*
X159668106Y-105787403D01*
X159671434Y-105830847D01*
X159674275Y-105888277D01*
X159676373Y-105953878D01*
X159677468Y-106021833D01*
X159675140Y-106148622D01*
X159662136Y-106296327D01*
X159637133Y-106434221D01*
X159599318Y-106567986D01*
X159590889Y-106591438D01*
X159571408Y-106639388D01*
X159546473Y-106695860D01*
X159517722Y-106757621D01*
X159486790Y-106821437D01*
X159455315Y-106884074D01*
X159424934Y-106942297D01*
X159397283Y-106992873D01*
X159373999Y-107032567D01*
X159356718Y-107058146D01*
X159347079Y-107066375D01*
X159343984Y-107064924D01*
X159324079Y-107053750D01*
X159288420Y-107032866D01*
X159239459Y-107003735D01*
X159179646Y-106967819D01*
X159111433Y-106926580D01*
X159037271Y-106881483D01*
X158740008Y-106700215D01*
X158784539Y-106653685D01*
X158862865Y-106562277D01*
X158937439Y-106448666D01*
X158991474Y-106330878D01*
X159024290Y-106210441D01*
X159035211Y-106088883D01*
X159033868Y-106047415D01*
X159015612Y-105929920D01*
X158976617Y-105819911D01*
X158917670Y-105718570D01*
X158839557Y-105627079D01*
X158743064Y-105546620D01*
X158628978Y-105478373D01*
X158594724Y-105462092D01*
X158471240Y-105416018D01*
X158332918Y-105380894D01*
X158183561Y-105356803D01*
X158026973Y-105343827D01*
X157866956Y-105342051D01*
X157707314Y-105351557D01*
X157551850Y-105372428D01*
X157404366Y-105404748D01*
X157268667Y-105448601D01*
X157182076Y-105486018D01*
X157068688Y-105550815D01*
X156975070Y-105626228D01*
X156900959Y-105712582D01*
X156846094Y-105810205D01*
X156810212Y-105919423D01*
X156793051Y-106040561D01*
X156791880Y-106109962D01*
X156806141Y-106232832D01*
X156841241Y-106348336D01*
X156896682Y-106455047D01*
X156971964Y-106551536D01*
X156986440Y-106567280D01*
X157012962Y-106597850D01*
X157030138Y-106620191D01*
X157034787Y-106630309D01*
X157032597Y-106632294D01*
X157013721Y-106646759D01*
X156980397Y-106670600D01*
X156935380Y-106701971D01*
X156881425Y-106739026D01*
X156821285Y-106779917D01*
X156757718Y-106822798D01*
X156693476Y-106865822D01*
X156631315Y-106907143D01*
X156573991Y-106944914D01*
X156524257Y-106977288D01*
X156484868Y-107002418D01*
X156458580Y-107018458D01*
X156448147Y-107023561D01*
X156443941Y-107018950D01*
X156438933Y-106999733D01*
X156436386Y-106990162D01*
X156425249Y-106962191D01*
X156406802Y-106920552D01*
X156382725Y-106869005D01*
X156354699Y-106811310D01*
X156349154Y-106800043D01*
X156269889Y-106622313D01*
X156210385Y-106452510D01*
X156170245Y-106288570D01*
X156149071Y-106128429D01*
X156146466Y-105970023D01*
X156162033Y-105811289D01*
X156179523Y-105715732D01*
X156224564Y-105551442D01*
X156287656Y-105397411D01*
X156369915Y-105251491D01*
X156472457Y-105111534D01*
X156596399Y-104975392D01*
X156641661Y-104931527D01*
X156773865Y-104819242D01*
X156911832Y-104726028D01*
X157059750Y-104649281D01*
X157221803Y-104586397D01*
X157233391Y-104582580D01*
X157419392Y-104532493D01*
X157615521Y-104499101D01*
X157817568Y-104482416D01*
X158021325Y-104482449D01*
G36*
X158021325Y-104482449D02*
G01*
X158222581Y-104499209D01*
X158417128Y-104532708D01*
X158600756Y-104582956D01*
X158718053Y-104626810D01*
X158880951Y-104704652D01*
X159034866Y-104798172D01*
X159176671Y-104905178D01*
X159303239Y-105023481D01*
X159411441Y-105150889D01*
X159464120Y-105228394D01*
X159533750Y-105355275D01*
X159592468Y-105492757D01*
X159637587Y-105634284D01*
X159666422Y-105773298D01*
X159668106Y-105787403D01*
X159671434Y-105830847D01*
X159674275Y-105888277D01*
X159676373Y-105953878D01*
X159677468Y-106021833D01*
X159675140Y-106148622D01*
X159662136Y-106296327D01*
X159637133Y-106434221D01*
X159599318Y-106567986D01*
X159590889Y-106591438D01*
X159571408Y-106639388D01*
X159546473Y-106695860D01*
X159517722Y-106757621D01*
X159486790Y-106821437D01*
X159455315Y-106884074D01*
X159424934Y-106942297D01*
X159397283Y-106992873D01*
X159373999Y-107032567D01*
X159356718Y-107058146D01*
X159347079Y-107066375D01*
X159343984Y-107064924D01*
X159324079Y-107053750D01*
X159288420Y-107032866D01*
X159239459Y-107003735D01*
X159179646Y-106967819D01*
X159111433Y-106926580D01*
X159037271Y-106881483D01*
X158740008Y-106700215D01*
X158784539Y-106653685D01*
X158862865Y-106562277D01*
X158937439Y-106448666D01*
X158991474Y-106330878D01*
X159024290Y-106210441D01*
X159035211Y-106088883D01*
X159033868Y-106047415D01*
X159015612Y-105929920D01*
X158976617Y-105819911D01*
X158917670Y-105718570D01*
X158839557Y-105627079D01*
X158743064Y-105546620D01*
X158628978Y-105478373D01*
X158594724Y-105462092D01*
X158471240Y-105416018D01*
X158332918Y-105380894D01*
X158183561Y-105356803D01*
X158026973Y-105343827D01*
X157866956Y-105342051D01*
X157707314Y-105351557D01*
X157551850Y-105372428D01*
X157404366Y-105404748D01*
X157268667Y-105448601D01*
X157182076Y-105486018D01*
X157068688Y-105550815D01*
X156975070Y-105626228D01*
X156900959Y-105712582D01*
X156846094Y-105810205D01*
X156810212Y-105919423D01*
X156793051Y-106040561D01*
X156791880Y-106109962D01*
X156806141Y-106232832D01*
X156841241Y-106348336D01*
X156896682Y-106455047D01*
X156971964Y-106551536D01*
X156986440Y-106567280D01*
X157012962Y-106597850D01*
X157030138Y-106620191D01*
X157034787Y-106630309D01*
X157032597Y-106632294D01*
X157013721Y-106646759D01*
X156980397Y-106670600D01*
X156935380Y-106701971D01*
X156881425Y-106739026D01*
X156821285Y-106779917D01*
X156757718Y-106822798D01*
X156693476Y-106865822D01*
X156631315Y-106907143D01*
X156573991Y-106944914D01*
X156524257Y-106977288D01*
X156484868Y-107002418D01*
X156458580Y-107018458D01*
X156448147Y-107023561D01*
X156443941Y-107018950D01*
X156438933Y-106999733D01*
X156436386Y-106990162D01*
X156425249Y-106962191D01*
X156406802Y-106920552D01*
X156382725Y-106869005D01*
X156354699Y-106811310D01*
X156349154Y-106800043D01*
X156269889Y-106622313D01*
X156210385Y-106452510D01*
X156170245Y-106288570D01*
X156149071Y-106128429D01*
X156146466Y-105970023D01*
X156162033Y-105811289D01*
X156179523Y-105715732D01*
X156224564Y-105551442D01*
X156287656Y-105397411D01*
X156369915Y-105251491D01*
X156472457Y-105111534D01*
X156596399Y-104975392D01*
X156641661Y-104931527D01*
X156773865Y-104819242D01*
X156911832Y-104726028D01*
X157059750Y-104649281D01*
X157221803Y-104586397D01*
X157233391Y-104582580D01*
X157419392Y-104532493D01*
X157615521Y-104499101D01*
X157817568Y-104482416D01*
X158021325Y-104482449D01*
G37*
X158520158Y-109614732D02*
X158671594Y-109623311D01*
X158808283Y-109642167D01*
X158934276Y-109672163D01*
X159053625Y-109714164D01*
X159170381Y-109769031D01*
X159281179Y-109835833D01*
X159394739Y-109926637D01*
X159490211Y-110030292D01*
X159567073Y-110146113D01*
X159624797Y-110273414D01*
X159662858Y-110411511D01*
X159668666Y-110449207D01*
X159674396Y-110528248D01*
X159674583Y-110616371D01*
X159669539Y-110705764D01*
X159659578Y-110788616D01*
X159645012Y-110857113D01*
X159635364Y-110887965D01*
X159605123Y-110965270D01*
X159567617Y-111042321D01*
X159526614Y-111111800D01*
X159485879Y-111166385D01*
X159466505Y-111189084D01*
X159448662Y-111211799D01*
X159441778Y-111223221D01*
X159443424Y-111224463D01*
X159461205Y-111227272D01*
X159494370Y-111229224D01*
X159537733Y-111229955D01*
X159633689Y-111229955D01*
X159633689Y-112088104D01*
X159572974Y-112053839D01*
X159563868Y-112048645D01*
X159549249Y-112040285D01*
X159535173Y-112032712D01*
X159520540Y-112025888D01*
X159504249Y-112019773D01*
X159485198Y-112014327D01*
X159462286Y-112009513D01*
X159434413Y-112005292D01*
X159400478Y-112001623D01*
X159359379Y-111998469D01*
X159310015Y-111995789D01*
X159251286Y-111993546D01*
X159182090Y-111991701D01*
X159101326Y-111990213D01*
X159007894Y-111989045D01*
X158900692Y-111988156D01*
X158778620Y-111987509D01*
X158640576Y-111987064D01*
X158485459Y-111986782D01*
X158312168Y-111986625D01*
X158119603Y-111986552D01*
X157906662Y-111986526D01*
X157672245Y-111986507D01*
X155987378Y-111986311D01*
X155987378Y-111080983D01*
X156024067Y-111105415D01*
X156033647Y-111111682D01*
X156079981Y-111137792D01*
X156127102Y-111155531D01*
X156182251Y-111167092D01*
X156252667Y-111174669D01*
X156259650Y-111175161D01*
X156297641Y-111176938D01*
X156351576Y-111178556D01*
X156418703Y-111180001D01*
X156496271Y-111181260D01*
X156581528Y-111182320D01*
X156671724Y-111183171D01*
X156764107Y-111183797D01*
X156855925Y-111184188D01*
X156944427Y-111184330D01*
X157026862Y-111184210D01*
X157100479Y-111183817D01*
X157162526Y-111183138D01*
X157210251Y-111182159D01*
X157240904Y-111180868D01*
X157251733Y-111179253D01*
X157247333Y-111171043D01*
X157232362Y-111149353D01*
X157210448Y-111119986D01*
X157176236Y-111071121D01*
X157129714Y-110982875D01*
X157096046Y-110884084D01*
X157093231Y-110869557D01*
X157647465Y-110869557D01*
X157659389Y-110954681D01*
X157686040Y-111038867D01*
X157726962Y-111117392D01*
X157770530Y-111184800D01*
X158920721Y-111184800D01*
X158967089Y-111114244D01*
X158990791Y-111073583D01*
X159016639Y-111019454D01*
X159034829Y-110970311D01*
X159050551Y-110906835D01*
X159061541Y-110810669D01*
X159053365Y-110726100D01*
X159025805Y-110652781D01*
X158978642Y-110590363D01*
X158911658Y-110538498D01*
X158824633Y-110496840D01*
X158717350Y-110465038D01*
X158705009Y-110462455D01*
X158643772Y-110454000D01*
X158566692Y-110448337D01*
X158479002Y-110445424D01*
X158385934Y-110445217D01*
X158292720Y-110447670D01*
X158204594Y-110452739D01*
X158126788Y-110460381D01*
X158064533Y-110470552D01*
X158058666Y-110471833D01*
X157948121Y-110500874D01*
X157857575Y-110535390D01*
X157784953Y-110576544D01*
X157728181Y-110625501D01*
X157685184Y-110683426D01*
X157669615Y-110715380D01*
X157650722Y-110788216D01*
X157647465Y-110869557D01*
X157093231Y-110869557D01*
X157074231Y-110771490D01*
X157063265Y-110641836D01*
X157062219Y-110549330D01*
X157072014Y-110427989D01*
X157096174Y-110317901D01*
X157135785Y-110214611D01*
X157191932Y-110113662D01*
X157222883Y-110068497D01*
X157314115Y-109963089D01*
X157423106Y-109871462D01*
X157549726Y-109793668D01*
X157693845Y-109729759D01*
X157855332Y-109679786D01*
X158034059Y-109643802D01*
X158229895Y-109621857D01*
X158385934Y-109616100D01*
X158442711Y-109614006D01*
X158520158Y-109614732D01*
G36*
X158520158Y-109614732D02*
G01*
X158671594Y-109623311D01*
X158808283Y-109642167D01*
X158934276Y-109672163D01*
X159053625Y-109714164D01*
X159170381Y-109769031D01*
X159281179Y-109835833D01*
X159394739Y-109926637D01*
X159490211Y-110030292D01*
X159567073Y-110146113D01*
X159624797Y-110273414D01*
X159662858Y-110411511D01*
X159668666Y-110449207D01*
X159674396Y-110528248D01*
X159674583Y-110616371D01*
X159669539Y-110705764D01*
X159659578Y-110788616D01*
X159645012Y-110857113D01*
X159635364Y-110887965D01*
X159605123Y-110965270D01*
X159567617Y-111042321D01*
X159526614Y-111111800D01*
X159485879Y-111166385D01*
X159466505Y-111189084D01*
X159448662Y-111211799D01*
X159441778Y-111223221D01*
X159443424Y-111224463D01*
X159461205Y-111227272D01*
X159494370Y-111229224D01*
X159537733Y-111229955D01*
X159633689Y-111229955D01*
X159633689Y-112088104D01*
X159572974Y-112053839D01*
X159563868Y-112048645D01*
X159549249Y-112040285D01*
X159535173Y-112032712D01*
X159520540Y-112025888D01*
X159504249Y-112019773D01*
X159485198Y-112014327D01*
X159462286Y-112009513D01*
X159434413Y-112005292D01*
X159400478Y-112001623D01*
X159359379Y-111998469D01*
X159310015Y-111995789D01*
X159251286Y-111993546D01*
X159182090Y-111991701D01*
X159101326Y-111990213D01*
X159007894Y-111989045D01*
X158900692Y-111988156D01*
X158778620Y-111987509D01*
X158640576Y-111987064D01*
X158485459Y-111986782D01*
X158312168Y-111986625D01*
X158119603Y-111986552D01*
X157906662Y-111986526D01*
X157672245Y-111986507D01*
X155987378Y-111986311D01*
X155987378Y-111080983D01*
X156024067Y-111105415D01*
X156033647Y-111111682D01*
X156079981Y-111137792D01*
X156127102Y-111155531D01*
X156182251Y-111167092D01*
X156252667Y-111174669D01*
X156259650Y-111175161D01*
X156297641Y-111176938D01*
X156351576Y-111178556D01*
X156418703Y-111180001D01*
X156496271Y-111181260D01*
X156581528Y-111182320D01*
X156671724Y-111183171D01*
X156764107Y-111183797D01*
X156855925Y-111184188D01*
X156944427Y-111184330D01*
X157026862Y-111184210D01*
X157100479Y-111183817D01*
X157162526Y-111183138D01*
X157210251Y-111182159D01*
X157240904Y-111180868D01*
X157251733Y-111179253D01*
X157247333Y-111171043D01*
X157232362Y-111149353D01*
X157210448Y-111119986D01*
X157176236Y-111071121D01*
X157129714Y-110982875D01*
X157096046Y-110884084D01*
X157093231Y-110869557D01*
X157647465Y-110869557D01*
X157659389Y-110954681D01*
X157686040Y-111038867D01*
X157726962Y-111117392D01*
X157770530Y-111184800D01*
X158920721Y-111184800D01*
X158967089Y-111114244D01*
X158990791Y-111073583D01*
X159016639Y-111019454D01*
X159034829Y-110970311D01*
X159050551Y-110906835D01*
X159061541Y-110810669D01*
X159053365Y-110726100D01*
X159025805Y-110652781D01*
X158978642Y-110590363D01*
X158911658Y-110538498D01*
X158824633Y-110496840D01*
X158717350Y-110465038D01*
X158705009Y-110462455D01*
X158643772Y-110454000D01*
X158566692Y-110448337D01*
X158479002Y-110445424D01*
X158385934Y-110445217D01*
X158292720Y-110447670D01*
X158204594Y-110452739D01*
X158126788Y-110460381D01*
X158064533Y-110470552D01*
X158058666Y-110471833D01*
X157948121Y-110500874D01*
X157857575Y-110535390D01*
X157784953Y-110576544D01*
X157728181Y-110625501D01*
X157685184Y-110683426D01*
X157669615Y-110715380D01*
X157650722Y-110788216D01*
X157647465Y-110869557D01*
X157093231Y-110869557D01*
X157074231Y-110771490D01*
X157063265Y-110641836D01*
X157062219Y-110549330D01*
X157072014Y-110427989D01*
X157096174Y-110317901D01*
X157135785Y-110214611D01*
X157191932Y-110113662D01*
X157222883Y-110068497D01*
X157314115Y-109963089D01*
X157423106Y-109871462D01*
X157549726Y-109793668D01*
X157693845Y-109729759D01*
X157855332Y-109679786D01*
X158034059Y-109643802D01*
X158229895Y-109621857D01*
X158385934Y-109616100D01*
X158442711Y-109614006D01*
X158520158Y-109614732D01*
G37*
X158877363Y-107072739D02*
X158952202Y-107076368D01*
X159014401Y-107083978D01*
X159070984Y-107096312D01*
X159197076Y-107140687D01*
X159311679Y-107203600D01*
X159412568Y-107283762D01*
X159498924Y-107380260D01*
X159569932Y-107492178D01*
X159624776Y-107618603D01*
X159662638Y-107758622D01*
X159668351Y-107794851D01*
X159674313Y-107873845D01*
X159674646Y-107962159D01*
X159669659Y-108051925D01*
X159659666Y-108135278D01*
X159644978Y-108204349D01*
X159614749Y-108290813D01*
X159560057Y-108400714D01*
X159492543Y-108498044D01*
X159441556Y-108560133D01*
X159537622Y-108563395D01*
X159633689Y-108566657D01*
X159633689Y-108989550D01*
X159633686Y-109000457D01*
X159633380Y-109094944D01*
X159632616Y-109181669D01*
X159631451Y-109258163D01*
X159629942Y-109321957D01*
X159628147Y-109370582D01*
X159626121Y-109401567D01*
X159623922Y-109412444D01*
X159623463Y-109412422D01*
X159607910Y-109405386D01*
X159585071Y-109389566D01*
X159579638Y-109385266D01*
X159565606Y-109374223D01*
X159552186Y-109364689D01*
X159537722Y-109356539D01*
X159520556Y-109349648D01*
X159499034Y-109343889D01*
X159471498Y-109339138D01*
X159436292Y-109335269D01*
X159391760Y-109332156D01*
X159336246Y-109329675D01*
X159268093Y-109327700D01*
X159185645Y-109326106D01*
X159087246Y-109324766D01*
X158971239Y-109323556D01*
X158835968Y-109322351D01*
X158679778Y-109321025D01*
X158537012Y-109319772D01*
X158391942Y-109318349D01*
X158266027Y-109316824D01*
X158157436Y-109315067D01*
X158064334Y-109312949D01*
X157984891Y-109310340D01*
X157917273Y-109307110D01*
X157859649Y-109303131D01*
X157810185Y-109298272D01*
X157767050Y-109292403D01*
X157728410Y-109285396D01*
X157692434Y-109277120D01*
X157657289Y-109267446D01*
X157621142Y-109256244D01*
X157582161Y-109243384D01*
X157539091Y-109227910D01*
X157446871Y-109185006D01*
X157367099Y-109131265D01*
X157292965Y-109062424D01*
X157229405Y-108984815D01*
X157167725Y-108880239D01*
X157120202Y-108760756D01*
X157086567Y-108625492D01*
X157066552Y-108473574D01*
X157059889Y-108304128D01*
X157060287Y-108246110D01*
X157062335Y-108180602D01*
X157066704Y-108119307D01*
X157074035Y-108057903D01*
X157084969Y-107992068D01*
X157100147Y-107917480D01*
X157120209Y-107829816D01*
X157145797Y-107724755D01*
X157152820Y-107696194D01*
X157170776Y-107620946D01*
X157186820Y-107550612D01*
X157200028Y-107489433D01*
X157209474Y-107441646D01*
X157214231Y-107411489D01*
X157217910Y-107383217D01*
X157223187Y-107356940D01*
X157227942Y-107346941D01*
X157236781Y-107350048D01*
X157264072Y-107360806D01*
X157306906Y-107378136D01*
X157362425Y-107400874D01*
X157427772Y-107427853D01*
X157500089Y-107457910D01*
X157515879Y-107464507D01*
X157606484Y-107503093D01*
X157676217Y-107534232D01*
X157725405Y-107558083D01*
X157754374Y-107574802D01*
X157763452Y-107584546D01*
X157761405Y-107592234D01*
X157751760Y-107618585D01*
X157736190Y-107657018D01*
X157716815Y-107702178D01*
X157678814Y-107796707D01*
X157637780Y-107933520D01*
X157612612Y-108074711D01*
X157608611Y-108112686D01*
X157606447Y-108215941D01*
X157619622Y-108303048D01*
X157648756Y-108374871D01*
X157694466Y-108432269D01*
X157757372Y-108476104D01*
X157838092Y-108507238D01*
X157937245Y-108526530D01*
X157996224Y-108533950D01*
X157989445Y-108372064D01*
X157989110Y-108346106D01*
X158511842Y-108346106D01*
X158511857Y-108354993D01*
X158512655Y-108410340D01*
X158514488Y-108457264D01*
X158517111Y-108491047D01*
X158520274Y-108506972D01*
X158526741Y-108511057D01*
X158548875Y-108515428D01*
X158587988Y-108518396D01*
X158645939Y-108520086D01*
X158724586Y-108520622D01*
X158920462Y-108520622D01*
X158976973Y-108475952D01*
X158992212Y-108463215D01*
X159034844Y-108416396D01*
X159070672Y-108355745D01*
X159075850Y-108345103D01*
X159092745Y-108306324D01*
X159102909Y-108271308D01*
X159108325Y-108231278D01*
X159110978Y-108177459D01*
X159111383Y-108159352D01*
X159108540Y-108083989D01*
X159096620Y-108023257D01*
X159074037Y-107971548D01*
X159039211Y-107923254D01*
X159034798Y-107918197D01*
X158979160Y-107869728D01*
X158915333Y-107841541D01*
X158840282Y-107832248D01*
X158768693Y-107839480D01*
X158705645Y-107864204D01*
X158647758Y-107908751D01*
X158600808Y-107963681D01*
X158560961Y-108036106D01*
X158533263Y-108122660D01*
X158517096Y-108225330D01*
X158511842Y-108346106D01*
X157989110Y-108346106D01*
X157987813Y-108245505D01*
X157994194Y-108094049D01*
X158008777Y-107945604D01*
X158030882Y-107809422D01*
X158045821Y-107744755D01*
X158088741Y-107612510D01*
X158145340Y-107490238D01*
X158214017Y-107380315D01*
X158293170Y-107285117D01*
X158381196Y-107207020D01*
X158476493Y-107148401D01*
X158528864Y-107124405D01*
X158599590Y-107098768D01*
X158670812Y-107082522D01*
X158749712Y-107074178D01*
X158840282Y-107072310D01*
X158843467Y-107072245D01*
X158877363Y-107072739D01*
G36*
X158877363Y-107072739D02*
G01*
X158952202Y-107076368D01*
X159014401Y-107083978D01*
X159070984Y-107096312D01*
X159197076Y-107140687D01*
X159311679Y-107203600D01*
X159412568Y-107283762D01*
X159498924Y-107380260D01*
X159569932Y-107492178D01*
X159624776Y-107618603D01*
X159662638Y-107758622D01*
X159668351Y-107794851D01*
X159674313Y-107873845D01*
X159674646Y-107962159D01*
X159669659Y-108051925D01*
X159659666Y-108135278D01*
X159644978Y-108204349D01*
X159614749Y-108290813D01*
X159560057Y-108400714D01*
X159492543Y-108498044D01*
X159441556Y-108560133D01*
X159537622Y-108563395D01*
X159633689Y-108566657D01*
X159633689Y-108989550D01*
X159633686Y-109000457D01*
X159633380Y-109094944D01*
X159632616Y-109181669D01*
X159631451Y-109258163D01*
X159629942Y-109321957D01*
X159628147Y-109370582D01*
X159626121Y-109401567D01*
X159623922Y-109412444D01*
X159623463Y-109412422D01*
X159607910Y-109405386D01*
X159585071Y-109389566D01*
X159579638Y-109385266D01*
X159565606Y-109374223D01*
X159552186Y-109364689D01*
X159537722Y-109356539D01*
X159520556Y-109349648D01*
X159499034Y-109343889D01*
X159471498Y-109339138D01*
X159436292Y-109335269D01*
X159391760Y-109332156D01*
X159336246Y-109329675D01*
X159268093Y-109327700D01*
X159185645Y-109326106D01*
X159087246Y-109324766D01*
X158971239Y-109323556D01*
X158835968Y-109322351D01*
X158679778Y-109321025D01*
X158537012Y-109319772D01*
X158391942Y-109318349D01*
X158266027Y-109316824D01*
X158157436Y-109315067D01*
X158064334Y-109312949D01*
X157984891Y-109310340D01*
X157917273Y-109307110D01*
X157859649Y-109303131D01*
X157810185Y-109298272D01*
X157767050Y-109292403D01*
X157728410Y-109285396D01*
X157692434Y-109277120D01*
X157657289Y-109267446D01*
X157621142Y-109256244D01*
X157582161Y-109243384D01*
X157539091Y-109227910D01*
X157446871Y-109185006D01*
X157367099Y-109131265D01*
X157292965Y-109062424D01*
X157229405Y-108984815D01*
X157167725Y-108880239D01*
X157120202Y-108760756D01*
X157086567Y-108625492D01*
X157066552Y-108473574D01*
X157059889Y-108304128D01*
X157060287Y-108246110D01*
X157062335Y-108180602D01*
X157066704Y-108119307D01*
X157074035Y-108057903D01*
X157084969Y-107992068D01*
X157100147Y-107917480D01*
X157120209Y-107829816D01*
X157145797Y-107724755D01*
X157152820Y-107696194D01*
X157170776Y-107620946D01*
X157186820Y-107550612D01*
X157200028Y-107489433D01*
X157209474Y-107441646D01*
X157214231Y-107411489D01*
X157217910Y-107383217D01*
X157223187Y-107356940D01*
X157227942Y-107346941D01*
X157236781Y-107350048D01*
X157264072Y-107360806D01*
X157306906Y-107378136D01*
X157362425Y-107400874D01*
X157427772Y-107427853D01*
X157500089Y-107457910D01*
X157515879Y-107464507D01*
X157606484Y-107503093D01*
X157676217Y-107534232D01*
X157725405Y-107558083D01*
X157754374Y-107574802D01*
X157763452Y-107584546D01*
X157761405Y-107592234D01*
X157751760Y-107618585D01*
X157736190Y-107657018D01*
X157716815Y-107702178D01*
X157678814Y-107796707D01*
X157637780Y-107933520D01*
X157612612Y-108074711D01*
X157608611Y-108112686D01*
X157606447Y-108215941D01*
X157619622Y-108303048D01*
X157648756Y-108374871D01*
X157694466Y-108432269D01*
X157757372Y-108476104D01*
X157838092Y-108507238D01*
X157937245Y-108526530D01*
X157996224Y-108533950D01*
X157989445Y-108372064D01*
X157989110Y-108346106D01*
X158511842Y-108346106D01*
X158511857Y-108354993D01*
X158512655Y-108410340D01*
X158514488Y-108457264D01*
X158517111Y-108491047D01*
X158520274Y-108506972D01*
X158526741Y-108511057D01*
X158548875Y-108515428D01*
X158587988Y-108518396D01*
X158645939Y-108520086D01*
X158724586Y-108520622D01*
X158920462Y-108520622D01*
X158976973Y-108475952D01*
X158992212Y-108463215D01*
X159034844Y-108416396D01*
X159070672Y-108355745D01*
X159075850Y-108345103D01*
X159092745Y-108306324D01*
X159102909Y-108271308D01*
X159108325Y-108231278D01*
X159110978Y-108177459D01*
X159111383Y-108159352D01*
X159108540Y-108083989D01*
X159096620Y-108023257D01*
X159074037Y-107971548D01*
X159039211Y-107923254D01*
X159034798Y-107918197D01*
X158979160Y-107869728D01*
X158915333Y-107841541D01*
X158840282Y-107832248D01*
X158768693Y-107839480D01*
X158705645Y-107864204D01*
X158647758Y-107908751D01*
X158600808Y-107963681D01*
X158560961Y-108036106D01*
X158533263Y-108122660D01*
X158517096Y-108225330D01*
X158511842Y-108346106D01*
X157989110Y-108346106D01*
X157987813Y-108245505D01*
X157994194Y-108094049D01*
X158008777Y-107945604D01*
X158030882Y-107809422D01*
X158045821Y-107744755D01*
X158088741Y-107612510D01*
X158145340Y-107490238D01*
X158214017Y-107380315D01*
X158293170Y-107285117D01*
X158381196Y-107207020D01*
X158476493Y-107148401D01*
X158528864Y-107124405D01*
X158599590Y-107098768D01*
X158670812Y-107082522D01*
X158749712Y-107074178D01*
X158840282Y-107072310D01*
X158843467Y-107072245D01*
X158877363Y-107072739D01*
G37*
X158821295Y-99523313D02*
X159001535Y-99523407D01*
X159164015Y-99523605D01*
X159309670Y-99523937D01*
X159439434Y-99524431D01*
X159554243Y-99525117D01*
X159655030Y-99526024D01*
X159742730Y-99527183D01*
X159818279Y-99528622D01*
X159882611Y-99530371D01*
X159936661Y-99532460D01*
X159981363Y-99534917D01*
X160017652Y-99537773D01*
X160046463Y-99541057D01*
X160068731Y-99544798D01*
X160085390Y-99549026D01*
X160097375Y-99553771D01*
X160105621Y-99559061D01*
X160111062Y-99564927D01*
X160114634Y-99571398D01*
X160117270Y-99578503D01*
X160119906Y-99586272D01*
X160123477Y-99594734D01*
X160125145Y-99599092D01*
X160127111Y-99607605D01*
X160128911Y-99620306D01*
X160130555Y-99638115D01*
X160132047Y-99661951D01*
X160133397Y-99692734D01*
X160134611Y-99731383D01*
X160135697Y-99778818D01*
X160136661Y-99835957D01*
X160137511Y-99903721D01*
X160138253Y-99983029D01*
X160138897Y-100074801D01*
X160139447Y-100179956D01*
X160139913Y-100299413D01*
X160140300Y-100434092D01*
X160140616Y-100584912D01*
X160140869Y-100752794D01*
X160141066Y-100938655D01*
X160141213Y-101143417D01*
X160141318Y-101367998D01*
X160141389Y-101613318D01*
X160141432Y-101880296D01*
X160141437Y-101918679D01*
X160141480Y-102184078D01*
X160141525Y-102427950D01*
X160141548Y-102651217D01*
X160141524Y-102854804D01*
X160141430Y-103039633D01*
X160141243Y-103206627D01*
X160140939Y-103356710D01*
X160140494Y-103490804D01*
X160139885Y-103609834D01*
X160139089Y-103714721D01*
X160138080Y-103806390D01*
X160136837Y-103885763D01*
X160135335Y-103953763D01*
X160133551Y-104011314D01*
X160131461Y-104059338D01*
X160129042Y-104098760D01*
X160126270Y-104130501D01*
X160123121Y-104155486D01*
X160119572Y-104174636D01*
X160115598Y-104188877D01*
X160111178Y-104199129D01*
X160106286Y-104206318D01*
X160100900Y-104211365D01*
X160094996Y-104215195D01*
X160088549Y-104218729D01*
X160081537Y-104222892D01*
X160079687Y-104223975D01*
X160074180Y-104226187D01*
X160065868Y-104228214D01*
X160053809Y-104230062D01*
X160037063Y-104231739D01*
X160014687Y-104233255D01*
X159985740Y-104234617D01*
X159949280Y-104235833D01*
X159904367Y-104236911D01*
X159850057Y-104237860D01*
X159785410Y-104238688D01*
X159709484Y-104239403D01*
X159621338Y-104240013D01*
X159520029Y-104240526D01*
X159404617Y-104240950D01*
X159274160Y-104241294D01*
X159127716Y-104241566D01*
X158964344Y-104241773D01*
X158783101Y-104241924D01*
X158583048Y-104242028D01*
X158363241Y-104242092D01*
X158122739Y-104242124D01*
X157860602Y-104242133D01*
X155669031Y-104242133D01*
X155630649Y-104203751D01*
X155606911Y-104176645D01*
X155595111Y-104149747D01*
X155592267Y-104113440D01*
X155592267Y-104061511D01*
X155680206Y-104061511D01*
X155730102Y-104059573D01*
X155840523Y-104040801D01*
X155941987Y-104003783D01*
X156033152Y-103950631D01*
X156112673Y-103883454D01*
X156179205Y-103804362D01*
X156231406Y-103715466D01*
X156267930Y-103618875D01*
X156287434Y-103516700D01*
X156288561Y-103412147D01*
X157104978Y-103412147D01*
X157104978Y-103857805D01*
X158281845Y-103860880D01*
X159458711Y-103863955D01*
X159517622Y-103890593D01*
X159542183Y-103902515D01*
X159572434Y-103919754D01*
X159589560Y-103932926D01*
X159597591Y-103940924D01*
X159612493Y-103948622D01*
X159613765Y-103944740D01*
X159615791Y-103921480D01*
X159617626Y-103879126D01*
X159619227Y-103819868D01*
X159620549Y-103745893D01*
X159621548Y-103659390D01*
X159622180Y-103562548D01*
X159622400Y-103457555D01*
X159622349Y-103388644D01*
X159622091Y-103290393D01*
X159621637Y-103200970D01*
X159621010Y-103122667D01*
X159620235Y-103057777D01*
X159619335Y-103008589D01*
X159618334Y-102977396D01*
X159617257Y-102966489D01*
X159614037Y-102967678D01*
X159596452Y-102977824D01*
X159570158Y-102994960D01*
X159557691Y-103003460D01*
X159543622Y-103012671D01*
X159529351Y-103020767D01*
X159513479Y-103027815D01*
X159494609Y-103033883D01*
X159471341Y-103039039D01*
X159442278Y-103043349D01*
X159406021Y-103046881D01*
X159361170Y-103049703D01*
X159306328Y-103051882D01*
X159240097Y-103053486D01*
X159161077Y-103054581D01*
X159067871Y-103055235D01*
X158959079Y-103055516D01*
X158833303Y-103055491D01*
X158689145Y-103055228D01*
X158525207Y-103054794D01*
X158340089Y-103054255D01*
X158161232Y-103053721D01*
X158002374Y-103053195D01*
X157863316Y-103052650D01*
X157742665Y-103052055D01*
X157639028Y-103051381D01*
X157551011Y-103050597D01*
X157477223Y-103049674D01*
X157416269Y-103048581D01*
X157366757Y-103047288D01*
X157327293Y-103045765D01*
X157296484Y-103043981D01*
X157272938Y-103041908D01*
X157255260Y-103039514D01*
X157242059Y-103036770D01*
X157231940Y-103033644D01*
X157223511Y-103030108D01*
X157215375Y-103026209D01*
X157178544Y-103006562D01*
X157148391Y-102987775D01*
X157146908Y-102986728D01*
X157124659Y-102972398D01*
X157111702Y-102966489D01*
X157111249Y-102967496D01*
X157109803Y-102984695D01*
X157108480Y-103021344D01*
X157107316Y-103075038D01*
X157106347Y-103143370D01*
X157105611Y-103223936D01*
X157105142Y-103314330D01*
X157104978Y-103412147D01*
X156288561Y-103412147D01*
X156288573Y-103411050D01*
X156270005Y-103304036D01*
X156230384Y-103197768D01*
X156172516Y-103100781D01*
X156097684Y-103015707D01*
X156009615Y-102946985D01*
X155910616Y-102896082D01*
X155802993Y-102864465D01*
X155689054Y-102853600D01*
X155592267Y-102853600D01*
X155592267Y-101233247D01*
X155592280Y-101022103D01*
X155592313Y-100887686D01*
X156201867Y-100887686D01*
X156264966Y-100849689D01*
X156290005Y-100835007D01*
X156317586Y-100820469D01*
X156345700Y-100808373D01*
X156376551Y-100798468D01*
X156412344Y-100790506D01*
X156455283Y-100784239D01*
X156507574Y-100779418D01*
X156571419Y-100775794D01*
X156649025Y-100773119D01*
X156742594Y-100771143D01*
X156854333Y-100769618D01*
X156986445Y-100768296D01*
X157106434Y-100767387D01*
X157223063Y-100766980D01*
X157318531Y-100767233D01*
X157392556Y-100768143D01*
X157444855Y-100769707D01*
X157475149Y-100771921D01*
X157483156Y-100774780D01*
X157479858Y-100777839D01*
X157458408Y-100795994D01*
X157421889Y-100825725D01*
X157372442Y-100865361D01*
X157312207Y-100913229D01*
X157243327Y-100967657D01*
X157167943Y-101026973D01*
X157088196Y-101089505D01*
X157006228Y-101153579D01*
X156924180Y-101217525D01*
X156844194Y-101279669D01*
X156768411Y-101338339D01*
X156698973Y-101391863D01*
X156638021Y-101438570D01*
X156587696Y-101476786D01*
X156550140Y-101504839D01*
X156527495Y-101521057D01*
X156455212Y-101566365D01*
X156375463Y-101606339D01*
X156307188Y-101627870D01*
X156249844Y-101631173D01*
X156201867Y-101625884D01*
X156202117Y-102757644D01*
X156232722Y-102718133D01*
X156240089Y-102708752D01*
X156294438Y-102645817D01*
X156362259Y-102577003D01*
X156445516Y-102500404D01*
X156546178Y-102414112D01*
X156566847Y-102396948D01*
X156616409Y-102356167D01*
X156677326Y-102306412D01*
X156747898Y-102249045D01*
X156826424Y-102185431D01*
X156911204Y-102116931D01*
X157000537Y-102044910D01*
X157092722Y-101970730D01*
X157111702Y-101955483D01*
X157186060Y-101895754D01*
X157278848Y-101821347D01*
X157369388Y-101748869D01*
X157455978Y-101679686D01*
X157536918Y-101615159D01*
X157610506Y-101556653D01*
X157675044Y-101505530D01*
X157728829Y-101463153D01*
X157770162Y-101430885D01*
X157797342Y-101410090D01*
X157808668Y-101402131D01*
X157812771Y-101403889D01*
X157833334Y-101416770D01*
X157869561Y-101441115D01*
X157919824Y-101475753D01*
X157982492Y-101519514D01*
X158055936Y-101571225D01*
X158138527Y-101629716D01*
X158228636Y-101693816D01*
X158324631Y-101762354D01*
X158424885Y-101834157D01*
X158527768Y-101908056D01*
X158631650Y-101982879D01*
X158734901Y-102057455D01*
X158835892Y-102130613D01*
X158932994Y-102201181D01*
X159024577Y-102267989D01*
X159109011Y-102329865D01*
X159184667Y-102385639D01*
X159249916Y-102434138D01*
X159303128Y-102474193D01*
X159342673Y-102504631D01*
X159368026Y-102525056D01*
X159422295Y-102571101D01*
X159478775Y-102621388D01*
X159528669Y-102668185D01*
X159622400Y-102759349D01*
X159622400Y-101604910D01*
X159546200Y-101605544D01*
X159504160Y-101604426D01*
X159468334Y-101598696D01*
X159430772Y-101586110D01*
X159382577Y-101564432D01*
X159375897Y-101561211D01*
X159326359Y-101535812D01*
X159278369Y-101509004D01*
X159241466Y-101486083D01*
X159234834Y-101481515D01*
X159203593Y-101459484D01*
X159158654Y-101427307D01*
X159102147Y-101386543D01*
X159036204Y-101338755D01*
X158962957Y-101285502D01*
X158884536Y-101228345D01*
X158803072Y-101168845D01*
X158720698Y-101108563D01*
X158639544Y-101049060D01*
X158561742Y-100991895D01*
X158489423Y-100938630D01*
X158424718Y-100890826D01*
X158369759Y-100850043D01*
X158326676Y-100817842D01*
X158297602Y-100795784D01*
X158284667Y-100785429D01*
X158280351Y-100780956D01*
X158278312Y-100776764D01*
X158280926Y-100773357D01*
X158289986Y-100770675D01*
X158307285Y-100768659D01*
X158334614Y-100767252D01*
X158373765Y-100766395D01*
X158426533Y-100766030D01*
X158494707Y-100766097D01*
X158580082Y-100766540D01*
X158684449Y-100767298D01*
X158809600Y-100768315D01*
X158854300Y-100768692D01*
X158975395Y-100769831D01*
X159076688Y-100771028D01*
X159160262Y-100772364D01*
X159228204Y-100773923D01*
X159282599Y-100775785D01*
X159325532Y-100778034D01*
X159359089Y-100780752D01*
X159385355Y-100784021D01*
X159406416Y-100787922D01*
X159424357Y-100792539D01*
X159450770Y-100800808D01*
X159512772Y-100824417D01*
X159565573Y-100850315D01*
X159602645Y-100875465D01*
X159604075Y-100876661D01*
X159608424Y-100878832D01*
X159612026Y-100876672D01*
X159614951Y-100868356D01*
X159617269Y-100852060D01*
X159619051Y-100825959D01*
X159620367Y-100788229D01*
X159621286Y-100737044D01*
X159621878Y-100670580D01*
X159622215Y-100587013D01*
X159622365Y-100484517D01*
X159622400Y-100361268D01*
X159622400Y-99829704D01*
X159564783Y-99868477D01*
X159555893Y-99874568D01*
X159541069Y-99885024D01*
X159527422Y-99894421D01*
X159513765Y-99902817D01*
X159498911Y-99910267D01*
X159481670Y-99916827D01*
X159460855Y-99922554D01*
X159435280Y-99927505D01*
X159403755Y-99931734D01*
X159365093Y-99935299D01*
X159318107Y-99938256D01*
X159261608Y-99940660D01*
X159194409Y-99942569D01*
X159115322Y-99944038D01*
X159023160Y-99945124D01*
X158916734Y-99945882D01*
X158794857Y-99946370D01*
X158656341Y-99946642D01*
X158499999Y-99946757D01*
X158324642Y-99946769D01*
X158129082Y-99946735D01*
X157912133Y-99946711D01*
X157789513Y-99946720D01*
X157584447Y-99946757D01*
X157400116Y-99946773D01*
X157235334Y-99946712D01*
X157088916Y-99946516D01*
X156959674Y-99946130D01*
X156846422Y-99945495D01*
X156747975Y-99944556D01*
X156663144Y-99943255D01*
X156590744Y-99941536D01*
X156529589Y-99939341D01*
X156478492Y-99936615D01*
X156436267Y-99933299D01*
X156401727Y-99929338D01*
X156373686Y-99924675D01*
X156350958Y-99919253D01*
X156332356Y-99913014D01*
X156316693Y-99905903D01*
X156302784Y-99897862D01*
X156289441Y-99888834D01*
X156275479Y-99878764D01*
X156259711Y-99867593D01*
X156201867Y-99827803D01*
X156201867Y-100887686D01*
X155592313Y-100887686D01*
X155592330Y-100817980D01*
X155592430Y-100634314D01*
X155592592Y-100470009D01*
X155592829Y-100323971D01*
X155593153Y-100195106D01*
X155593575Y-100082317D01*
X155594109Y-99984512D01*
X155594767Y-99900596D01*
X155595561Y-99829473D01*
X155596504Y-99770050D01*
X155597608Y-99721232D01*
X155598884Y-99681923D01*
X155600347Y-99651031D01*
X155602007Y-99627459D01*
X155603878Y-99610114D01*
X155605972Y-99597901D01*
X155608300Y-99589725D01*
X155610876Y-99584492D01*
X155614445Y-99578496D01*
X155617978Y-99571721D01*
X155621488Y-99565522D01*
X155625918Y-99559874D01*
X155632208Y-99554753D01*
X155641301Y-99550131D01*
X155654139Y-99545985D01*
X155671662Y-99542287D01*
X155694813Y-99539013D01*
X155724534Y-99536137D01*
X155761765Y-99533633D01*
X155807449Y-99531476D01*
X155862527Y-99529640D01*
X155927941Y-99528100D01*
X156004633Y-99526830D01*
X156093544Y-99525805D01*
X156195617Y-99524999D01*
X156201867Y-99524966D01*
X156311792Y-99524386D01*
X156443011Y-99523941D01*
X156590216Y-99523638D01*
X156754349Y-99523452D01*
X156936352Y-99523358D01*
X157137165Y-99523329D01*
X157357732Y-99523339D01*
X157598992Y-99523364D01*
X157861889Y-99523378D01*
X157904040Y-99523378D01*
X158164668Y-99523354D01*
X158403796Y-99523315D01*
X158622360Y-99523292D01*
X158821295Y-99523313D01*
G36*
X158821295Y-99523313D02*
G01*
X159001535Y-99523407D01*
X159164015Y-99523605D01*
X159309670Y-99523937D01*
X159439434Y-99524431D01*
X159554243Y-99525117D01*
X159655030Y-99526024D01*
X159742730Y-99527183D01*
X159818279Y-99528622D01*
X159882611Y-99530371D01*
X159936661Y-99532460D01*
X159981363Y-99534917D01*
X160017652Y-99537773D01*
X160046463Y-99541057D01*
X160068731Y-99544798D01*
X160085390Y-99549026D01*
X160097375Y-99553771D01*
X160105621Y-99559061D01*
X160111062Y-99564927D01*
X160114634Y-99571398D01*
X160117270Y-99578503D01*
X160119906Y-99586272D01*
X160123477Y-99594734D01*
X160125145Y-99599092D01*
X160127111Y-99607605D01*
X160128911Y-99620306D01*
X160130555Y-99638115D01*
X160132047Y-99661951D01*
X160133397Y-99692734D01*
X160134611Y-99731383D01*
X160135697Y-99778818D01*
X160136661Y-99835957D01*
X160137511Y-99903721D01*
X160138253Y-99983029D01*
X160138897Y-100074801D01*
X160139447Y-100179956D01*
X160139913Y-100299413D01*
X160140300Y-100434092D01*
X160140616Y-100584912D01*
X160140869Y-100752794D01*
X160141066Y-100938655D01*
X160141213Y-101143417D01*
X160141318Y-101367998D01*
X160141389Y-101613318D01*
X160141432Y-101880296D01*
X160141437Y-101918679D01*
X160141480Y-102184078D01*
X160141525Y-102427950D01*
X160141548Y-102651217D01*
X160141524Y-102854804D01*
X160141430Y-103039633D01*
X160141243Y-103206627D01*
X160140939Y-103356710D01*
X160140494Y-103490804D01*
X160139885Y-103609834D01*
X160139089Y-103714721D01*
X160138080Y-103806390D01*
X160136837Y-103885763D01*
X160135335Y-103953763D01*
X160133551Y-104011314D01*
X160131461Y-104059338D01*
X160129042Y-104098760D01*
X160126270Y-104130501D01*
X160123121Y-104155486D01*
X160119572Y-104174636D01*
X160115598Y-104188877D01*
X160111178Y-104199129D01*
X160106286Y-104206318D01*
X160100900Y-104211365D01*
X160094996Y-104215195D01*
X160088549Y-104218729D01*
X160081537Y-104222892D01*
X160079687Y-104223975D01*
X160074180Y-104226187D01*
X160065868Y-104228214D01*
X160053809Y-104230062D01*
X160037063Y-104231739D01*
X160014687Y-104233255D01*
X159985740Y-104234617D01*
X159949280Y-104235833D01*
X159904367Y-104236911D01*
X159850057Y-104237860D01*
X159785410Y-104238688D01*
X159709484Y-104239403D01*
X159621338Y-104240013D01*
X159520029Y-104240526D01*
X159404617Y-104240950D01*
X159274160Y-104241294D01*
X159127716Y-104241566D01*
X158964344Y-104241773D01*
X158783101Y-104241924D01*
X158583048Y-104242028D01*
X158363241Y-104242092D01*
X158122739Y-104242124D01*
X157860602Y-104242133D01*
X155669031Y-104242133D01*
X155630649Y-104203751D01*
X155606911Y-104176645D01*
X155595111Y-104149747D01*
X155592267Y-104113440D01*
X155592267Y-104061511D01*
X155680206Y-104061511D01*
X155730102Y-104059573D01*
X155840523Y-104040801D01*
X155941987Y-104003783D01*
X156033152Y-103950631D01*
X156112673Y-103883454D01*
X156179205Y-103804362D01*
X156231406Y-103715466D01*
X156267930Y-103618875D01*
X156287434Y-103516700D01*
X156288561Y-103412147D01*
X157104978Y-103412147D01*
X157104978Y-103857805D01*
X158281845Y-103860880D01*
X159458711Y-103863955D01*
X159517622Y-103890593D01*
X159542183Y-103902515D01*
X159572434Y-103919754D01*
X159589560Y-103932926D01*
X159597591Y-103940924D01*
X159612493Y-103948622D01*
X159613765Y-103944740D01*
X159615791Y-103921480D01*
X159617626Y-103879126D01*
X159619227Y-103819868D01*
X159620549Y-103745893D01*
X159621548Y-103659390D01*
X159622180Y-103562548D01*
X159622400Y-103457555D01*
X159622349Y-103388644D01*
X159622091Y-103290393D01*
X159621637Y-103200970D01*
X159621010Y-103122667D01*
X159620235Y-103057777D01*
X159619335Y-103008589D01*
X159618334Y-102977396D01*
X159617257Y-102966489D01*
X159614037Y-102967678D01*
X159596452Y-102977824D01*
X159570158Y-102994960D01*
X159557691Y-103003460D01*
X159543622Y-103012671D01*
X159529351Y-103020767D01*
X159513479Y-103027815D01*
X159494609Y-103033883D01*
X159471341Y-103039039D01*
X159442278Y-103043349D01*
X159406021Y-103046881D01*
X159361170Y-103049703D01*
X159306328Y-103051882D01*
X159240097Y-103053486D01*
X159161077Y-103054581D01*
X159067871Y-103055235D01*
X158959079Y-103055516D01*
X158833303Y-103055491D01*
X158689145Y-103055228D01*
X158525207Y-103054794D01*
X158340089Y-103054255D01*
X158161232Y-103053721D01*
X158002374Y-103053195D01*
X157863316Y-103052650D01*
X157742665Y-103052055D01*
X157639028Y-103051381D01*
X157551011Y-103050597D01*
X157477223Y-103049674D01*
X157416269Y-103048581D01*
X157366757Y-103047288D01*
X157327293Y-103045765D01*
X157296484Y-103043981D01*
X157272938Y-103041908D01*
X157255260Y-103039514D01*
X157242059Y-103036770D01*
X157231940Y-103033644D01*
X157223511Y-103030108D01*
X157215375Y-103026209D01*
X157178544Y-103006562D01*
X157148391Y-102987775D01*
X157146908Y-102986728D01*
X157124659Y-102972398D01*
X157111702Y-102966489D01*
X157111249Y-102967496D01*
X157109803Y-102984695D01*
X157108480Y-103021344D01*
X157107316Y-103075038D01*
X157106347Y-103143370D01*
X157105611Y-103223936D01*
X157105142Y-103314330D01*
X157104978Y-103412147D01*
X156288561Y-103412147D01*
X156288573Y-103411050D01*
X156270005Y-103304036D01*
X156230384Y-103197768D01*
X156172516Y-103100781D01*
X156097684Y-103015707D01*
X156009615Y-102946985D01*
X155910616Y-102896082D01*
X155802993Y-102864465D01*
X155689054Y-102853600D01*
X155592267Y-102853600D01*
X155592267Y-101233247D01*
X155592280Y-101022103D01*
X155592313Y-100887686D01*
X156201867Y-100887686D01*
X156264966Y-100849689D01*
X156290005Y-100835007D01*
X156317586Y-100820469D01*
X156345700Y-100808373D01*
X156376551Y-100798468D01*
X156412344Y-100790506D01*
X156455283Y-100784239D01*
X156507574Y-100779418D01*
X156571419Y-100775794D01*
X156649025Y-100773119D01*
X156742594Y-100771143D01*
X156854333Y-100769618D01*
X156986445Y-100768296D01*
X157106434Y-100767387D01*
X157223063Y-100766980D01*
X157318531Y-100767233D01*
X157392556Y-100768143D01*
X157444855Y-100769707D01*
X157475149Y-100771921D01*
X157483156Y-100774780D01*
X157479858Y-100777839D01*
X157458408Y-100795994D01*
X157421889Y-100825725D01*
X157372442Y-100865361D01*
X157312207Y-100913229D01*
X157243327Y-100967657D01*
X157167943Y-101026973D01*
X157088196Y-101089505D01*
X157006228Y-101153579D01*
X156924180Y-101217525D01*
X156844194Y-101279669D01*
X156768411Y-101338339D01*
X156698973Y-101391863D01*
X156638021Y-101438570D01*
X156587696Y-101476786D01*
X156550140Y-101504839D01*
X156527495Y-101521057D01*
X156455212Y-101566365D01*
X156375463Y-101606339D01*
X156307188Y-101627870D01*
X156249844Y-101631173D01*
X156201867Y-101625884D01*
X156202117Y-102757644D01*
X156232722Y-102718133D01*
X156240089Y-102708752D01*
X156294438Y-102645817D01*
X156362259Y-102577003D01*
X156445516Y-102500404D01*
X156546178Y-102414112D01*
X156566847Y-102396948D01*
X156616409Y-102356167D01*
X156677326Y-102306412D01*
X156747898Y-102249045D01*
X156826424Y-102185431D01*
X156911204Y-102116931D01*
X157000537Y-102044910D01*
X157092722Y-101970730D01*
X157111702Y-101955483D01*
X157186060Y-101895754D01*
X157278848Y-101821347D01*
X157369388Y-101748869D01*
X157455978Y-101679686D01*
X157536918Y-101615159D01*
X157610506Y-101556653D01*
X157675044Y-101505530D01*
X157728829Y-101463153D01*
X157770162Y-101430885D01*
X157797342Y-101410090D01*
X157808668Y-101402131D01*
X157812771Y-101403889D01*
X157833334Y-101416770D01*
X157869561Y-101441115D01*
X157919824Y-101475753D01*
X157982492Y-101519514D01*
X158055936Y-101571225D01*
X158138527Y-101629716D01*
X158228636Y-101693816D01*
X158324631Y-101762354D01*
X158424885Y-101834157D01*
X158527768Y-101908056D01*
X158631650Y-101982879D01*
X158734901Y-102057455D01*
X158835892Y-102130613D01*
X158932994Y-102201181D01*
X159024577Y-102267989D01*
X159109011Y-102329865D01*
X159184667Y-102385639D01*
X159249916Y-102434138D01*
X159303128Y-102474193D01*
X159342673Y-102504631D01*
X159368026Y-102525056D01*
X159422295Y-102571101D01*
X159478775Y-102621388D01*
X159528669Y-102668185D01*
X159622400Y-102759349D01*
X159622400Y-101604910D01*
X159546200Y-101605544D01*
X159504160Y-101604426D01*
X159468334Y-101598696D01*
X159430772Y-101586110D01*
X159382577Y-101564432D01*
X159375897Y-101561211D01*
X159326359Y-101535812D01*
X159278369Y-101509004D01*
X159241466Y-101486083D01*
X159234834Y-101481515D01*
X159203593Y-101459484D01*
X159158654Y-101427307D01*
X159102147Y-101386543D01*
X159036204Y-101338755D01*
X158962957Y-101285502D01*
X158884536Y-101228345D01*
X158803072Y-101168845D01*
X158720698Y-101108563D01*
X158639544Y-101049060D01*
X158561742Y-100991895D01*
X158489423Y-100938630D01*
X158424718Y-100890826D01*
X158369759Y-100850043D01*
X158326676Y-100817842D01*
X158297602Y-100795784D01*
X158284667Y-100785429D01*
X158280351Y-100780956D01*
X158278312Y-100776764D01*
X158280926Y-100773357D01*
X158289986Y-100770675D01*
X158307285Y-100768659D01*
X158334614Y-100767252D01*
X158373765Y-100766395D01*
X158426533Y-100766030D01*
X158494707Y-100766097D01*
X158580082Y-100766540D01*
X158684449Y-100767298D01*
X158809600Y-100768315D01*
X158854300Y-100768692D01*
X158975395Y-100769831D01*
X159076688Y-100771028D01*
X159160262Y-100772364D01*
X159228204Y-100773923D01*
X159282599Y-100775785D01*
X159325532Y-100778034D01*
X159359089Y-100780752D01*
X159385355Y-100784021D01*
X159406416Y-100787922D01*
X159424357Y-100792539D01*
X159450770Y-100800808D01*
X159512772Y-100824417D01*
X159565573Y-100850315D01*
X159602645Y-100875465D01*
X159604075Y-100876661D01*
X159608424Y-100878832D01*
X159612026Y-100876672D01*
X159614951Y-100868356D01*
X159617269Y-100852060D01*
X159619051Y-100825959D01*
X159620367Y-100788229D01*
X159621286Y-100737044D01*
X159621878Y-100670580D01*
X159622215Y-100587013D01*
X159622365Y-100484517D01*
X159622400Y-100361268D01*
X159622400Y-99829704D01*
X159564783Y-99868477D01*
X159555893Y-99874568D01*
X159541069Y-99885024D01*
X159527422Y-99894421D01*
X159513765Y-99902817D01*
X159498911Y-99910267D01*
X159481670Y-99916827D01*
X159460855Y-99922554D01*
X159435280Y-99927505D01*
X159403755Y-99931734D01*
X159365093Y-99935299D01*
X159318107Y-99938256D01*
X159261608Y-99940660D01*
X159194409Y-99942569D01*
X159115322Y-99944038D01*
X159023160Y-99945124D01*
X158916734Y-99945882D01*
X158794857Y-99946370D01*
X158656341Y-99946642D01*
X158499999Y-99946757D01*
X158324642Y-99946769D01*
X158129082Y-99946735D01*
X157912133Y-99946711D01*
X157789513Y-99946720D01*
X157584447Y-99946757D01*
X157400116Y-99946773D01*
X157235334Y-99946712D01*
X157088916Y-99946516D01*
X156959674Y-99946130D01*
X156846422Y-99945495D01*
X156747975Y-99944556D01*
X156663144Y-99943255D01*
X156590744Y-99941536D01*
X156529589Y-99939341D01*
X156478492Y-99936615D01*
X156436267Y-99933299D01*
X156401727Y-99929338D01*
X156373686Y-99924675D01*
X156350958Y-99919253D01*
X156332356Y-99913014D01*
X156316693Y-99905903D01*
X156302784Y-99897862D01*
X156289441Y-99888834D01*
X156275479Y-99878764D01*
X156259711Y-99867593D01*
X156201867Y-99827803D01*
X156201867Y-100887686D01*
X155592313Y-100887686D01*
X155592330Y-100817980D01*
X155592430Y-100634314D01*
X155592592Y-100470009D01*
X155592829Y-100323971D01*
X155593153Y-100195106D01*
X155593575Y-100082317D01*
X155594109Y-99984512D01*
X155594767Y-99900596D01*
X155595561Y-99829473D01*
X155596504Y-99770050D01*
X155597608Y-99721232D01*
X155598884Y-99681923D01*
X155600347Y-99651031D01*
X155602007Y-99627459D01*
X155603878Y-99610114D01*
X155605972Y-99597901D01*
X155608300Y-99589725D01*
X155610876Y-99584492D01*
X155614445Y-99578496D01*
X155617978Y-99571721D01*
X155621488Y-99565522D01*
X155625918Y-99559874D01*
X155632208Y-99554753D01*
X155641301Y-99550131D01*
X155654139Y-99545985D01*
X155671662Y-99542287D01*
X155694813Y-99539013D01*
X155724534Y-99536137D01*
X155761765Y-99533633D01*
X155807449Y-99531476D01*
X155862527Y-99529640D01*
X155927941Y-99528100D01*
X156004633Y-99526830D01*
X156093544Y-99525805D01*
X156195617Y-99524999D01*
X156201867Y-99524966D01*
X156311792Y-99524386D01*
X156443011Y-99523941D01*
X156590216Y-99523638D01*
X156754349Y-99523452D01*
X156936352Y-99523358D01*
X157137165Y-99523329D01*
X157357732Y-99523339D01*
X157598992Y-99523364D01*
X157861889Y-99523378D01*
X157904040Y-99523378D01*
X158164668Y-99523354D01*
X158403796Y-99523315D01*
X158622360Y-99523292D01*
X158821295Y-99523313D01*
G37*
%TD*%
M02*
