%TF.GenerationSoftware,KiCad,Pcbnew,8.0.1*%
%TF.CreationDate,2024-07-03T00:43:56+03:00*%
%TF.ProjectId,Project 1 - LED Torch,50726f6a-6563-4742-9031-202d204c4544,0.1*%
%TF.SameCoordinates,Original*%
%TF.FileFunction,Legend,Bot*%
%TF.FilePolarity,Positive*%
%FSLAX46Y46*%
G04 Gerber Fmt 4.6, Leading zero omitted, Abs format (unit mm)*
G04 Created by KiCad (PCBNEW 8.0.1) date 2024-07-03 00:43:56*
%MOMM*%
%LPD*%
G01*
G04 APERTURE LIST*
%ADD10C,0.100000*%
%ADD11C,0.010000*%
G04 APERTURE END LIST*
D10*
X155338972Y-98697419D02*
X155005639Y-99697419D01*
X155005639Y-99697419D02*
X154672306Y-98697419D01*
X153815163Y-99697419D02*
X154386591Y-99697419D01*
X154100877Y-99697419D02*
X154100877Y-98697419D01*
X154100877Y-98697419D02*
X154196115Y-98840276D01*
X154196115Y-98840276D02*
X154291353Y-98935514D01*
X154291353Y-98935514D02*
X154386591Y-98983133D01*
X153386591Y-99602180D02*
X153338972Y-99649800D01*
X153338972Y-99649800D02*
X153386591Y-99697419D01*
X153386591Y-99697419D02*
X153434210Y-99649800D01*
X153434210Y-99649800D02*
X153386591Y-99602180D01*
X153386591Y-99602180D02*
X153386591Y-99697419D01*
X152719925Y-98697419D02*
X152624687Y-98697419D01*
X152624687Y-98697419D02*
X152529449Y-98745038D01*
X152529449Y-98745038D02*
X152481830Y-98792657D01*
X152481830Y-98792657D02*
X152434211Y-98887895D01*
X152434211Y-98887895D02*
X152386592Y-99078371D01*
X152386592Y-99078371D02*
X152386592Y-99316466D01*
X152386592Y-99316466D02*
X152434211Y-99506942D01*
X152434211Y-99506942D02*
X152481830Y-99602180D01*
X152481830Y-99602180D02*
X152529449Y-99649800D01*
X152529449Y-99649800D02*
X152624687Y-99697419D01*
X152624687Y-99697419D02*
X152719925Y-99697419D01*
X152719925Y-99697419D02*
X152815163Y-99649800D01*
X152815163Y-99649800D02*
X152862782Y-99602180D01*
X152862782Y-99602180D02*
X152910401Y-99506942D01*
X152910401Y-99506942D02*
X152958020Y-99316466D01*
X152958020Y-99316466D02*
X152958020Y-99078371D01*
X152958020Y-99078371D02*
X152910401Y-98887895D01*
X152910401Y-98887895D02*
X152862782Y-98792657D01*
X152862782Y-98792657D02*
X152815163Y-98745038D01*
X152815163Y-98745038D02*
X152719925Y-98697419D01*
D11*
%TO.C,REF\u002A\u002A*%
X147907002Y-108689242D02*
X147941247Y-108710142D01*
X147976729Y-108738873D01*
X147976729Y-109600871D01*
X147941247Y-109629602D01*
X147899495Y-109652867D01*
X147851832Y-109653980D01*
X147809976Y-109626696D01*
X147804815Y-109620486D01*
X147797538Y-109607881D01*
X147791937Y-109589666D01*
X147787794Y-109562347D01*
X147784892Y-109522433D01*
X147783014Y-109466430D01*
X147781941Y-109390847D01*
X147781457Y-109292190D01*
X147781344Y-109166966D01*
X147781344Y-108738873D01*
X147816826Y-108710142D01*
X147848396Y-108690477D01*
X147879037Y-108681410D01*
X147907002Y-108689242D01*
G36*
X147907002Y-108689242D02*
G01*
X147941247Y-108710142D01*
X147976729Y-108738873D01*
X147976729Y-109600871D01*
X147941247Y-109629602D01*
X147899495Y-109652867D01*
X147851832Y-109653980D01*
X147809976Y-109626696D01*
X147804815Y-109620486D01*
X147797538Y-109607881D01*
X147791937Y-109589666D01*
X147787794Y-109562347D01*
X147784892Y-109522433D01*
X147783014Y-109466430D01*
X147781941Y-109390847D01*
X147781457Y-109292190D01*
X147781344Y-109166966D01*
X147781344Y-108738873D01*
X147816826Y-108710142D01*
X147848396Y-108690477D01*
X147879037Y-108681410D01*
X147907002Y-108689242D01*
G37*
X157400579Y-108687264D02*
X157446051Y-108718301D01*
X157482942Y-108755192D01*
X157482942Y-109171978D01*
X157482887Y-109283852D01*
X157482543Y-109382668D01*
X157481650Y-109458226D01*
X157479949Y-109514104D01*
X157477181Y-109553882D01*
X157473088Y-109581136D01*
X157467409Y-109599447D01*
X157459888Y-109612391D01*
X157450263Y-109623548D01*
X157408374Y-109652125D01*
X157361556Y-109654476D01*
X157317617Y-109628274D01*
X157310551Y-109620461D01*
X157303296Y-109608367D01*
X157297750Y-109590605D01*
X157293683Y-109563690D01*
X157290869Y-109524138D01*
X157289077Y-109468465D01*
X157288081Y-109393185D01*
X157287650Y-109294816D01*
X157287557Y-109169872D01*
X157287610Y-109069140D01*
X157287949Y-108965414D01*
X157288807Y-108885519D01*
X157290410Y-108825971D01*
X157292988Y-108783284D01*
X157296769Y-108753975D01*
X157301982Y-108734559D01*
X157308855Y-108721552D01*
X157317617Y-108711470D01*
X157356470Y-108686145D01*
X157400579Y-108687264D01*
G36*
X157400579Y-108687264D02*
G01*
X157446051Y-108718301D01*
X157482942Y-108755192D01*
X157482942Y-109171978D01*
X157482887Y-109283852D01*
X157482543Y-109382668D01*
X157481650Y-109458226D01*
X157479949Y-109514104D01*
X157477181Y-109553882D01*
X157473088Y-109581136D01*
X157467409Y-109599447D01*
X157459888Y-109612391D01*
X157450263Y-109623548D01*
X157408374Y-109652125D01*
X157361556Y-109654476D01*
X157317617Y-109628274D01*
X157310551Y-109620461D01*
X157303296Y-109608367D01*
X157297750Y-109590605D01*
X157293683Y-109563690D01*
X157290869Y-109524138D01*
X157289077Y-109468465D01*
X157288081Y-109393185D01*
X157287650Y-109294816D01*
X157287557Y-109169872D01*
X157287610Y-109069140D01*
X157287949Y-108965414D01*
X157288807Y-108885519D01*
X157290410Y-108825971D01*
X157292988Y-108783284D01*
X157296769Y-108753975D01*
X157301982Y-108734559D01*
X157308855Y-108721552D01*
X157317617Y-108711470D01*
X157356470Y-108686145D01*
X157400579Y-108687264D01*
G37*
X157486337Y-100145839D02*
X157625779Y-100180005D01*
X157757955Y-100241325D01*
X157878699Y-100329810D01*
X157983846Y-100445470D01*
X158069230Y-100588313D01*
X158092121Y-100638633D01*
X158110666Y-100689636D01*
X158121072Y-100740624D01*
X158125633Y-100803691D01*
X158126643Y-100890929D01*
X158126032Y-100963539D01*
X158122350Y-101030270D01*
X158113322Y-101082334D01*
X158096694Y-101131686D01*
X158070212Y-101190286D01*
X158062552Y-101205902D01*
X157972006Y-101348893D01*
X157858125Y-101466543D01*
X157724141Y-101556089D01*
X157573286Y-101614772D01*
X157495881Y-101631147D01*
X157338849Y-101638810D01*
X157186753Y-101614016D01*
X157044054Y-101559306D01*
X156915212Y-101477223D01*
X156804686Y-101370309D01*
X156716936Y-101241107D01*
X156656423Y-101092158D01*
X156634283Y-100970265D01*
X156632288Y-100835751D01*
X156650295Y-100704908D01*
X156687446Y-100591572D01*
X156730372Y-100510543D01*
X156825933Y-100381987D01*
X156939221Y-100280527D01*
X157066071Y-100206172D01*
X157202318Y-100158933D01*
X157343795Y-100138818D01*
X157486337Y-100145839D01*
G36*
X157486337Y-100145839D02*
G01*
X157625779Y-100180005D01*
X157757955Y-100241325D01*
X157878699Y-100329810D01*
X157983846Y-100445470D01*
X158069230Y-100588313D01*
X158092121Y-100638633D01*
X158110666Y-100689636D01*
X158121072Y-100740624D01*
X158125633Y-100803691D01*
X158126643Y-100890929D01*
X158126032Y-100963539D01*
X158122350Y-101030270D01*
X158113322Y-101082334D01*
X158096694Y-101131686D01*
X158070212Y-101190286D01*
X158062552Y-101205902D01*
X157972006Y-101348893D01*
X157858125Y-101466543D01*
X157724141Y-101556089D01*
X157573286Y-101614772D01*
X157495881Y-101631147D01*
X157338849Y-101638810D01*
X157186753Y-101614016D01*
X157044054Y-101559306D01*
X156915212Y-101477223D01*
X156804686Y-101370309D01*
X156716936Y-101241107D01*
X156656423Y-101092158D01*
X156634283Y-100970265D01*
X156632288Y-100835751D01*
X156650295Y-100704908D01*
X156687446Y-100591572D01*
X156730372Y-100510543D01*
X156825933Y-100381987D01*
X156939221Y-100280527D01*
X157066071Y-100206172D01*
X157202318Y-100158933D01*
X157343795Y-100138818D01*
X157486337Y-100145839D01*
G37*
X146975531Y-108681412D02*
X147100843Y-108681532D01*
X147200048Y-108681984D01*
X147276478Y-108682972D01*
X147333459Y-108684697D01*
X147374323Y-108687361D01*
X147402397Y-108691169D01*
X147421012Y-108696321D01*
X147433496Y-108703020D01*
X147443179Y-108711470D01*
X147468216Y-108755029D01*
X147470142Y-108805057D01*
X147448364Y-108849310D01*
X147446553Y-108851245D01*
X147431638Y-108862376D01*
X147408868Y-108869771D01*
X147372696Y-108874157D01*
X147317573Y-108876256D01*
X147237950Y-108876795D01*
X147052409Y-108876795D01*
X147052409Y-109227963D01*
X147052309Y-109328918D01*
X147051766Y-109417674D01*
X147050458Y-109483955D01*
X147048067Y-109531773D01*
X147044271Y-109565146D01*
X147038752Y-109588086D01*
X147031188Y-109604610D01*
X147021259Y-109618733D01*
X147018210Y-109622469D01*
X146976700Y-109652614D01*
X146930929Y-109654696D01*
X146887084Y-109628274D01*
X146877793Y-109617523D01*
X146870508Y-109603412D01*
X146865156Y-109582319D01*
X146861440Y-109550398D01*
X146859064Y-109503802D01*
X146857734Y-109438685D01*
X146857153Y-109351201D01*
X146857025Y-109237505D01*
X146857025Y-108876795D01*
X146662731Y-108876795D01*
X146647953Y-108876794D01*
X146572708Y-108876494D01*
X146520992Y-108874977D01*
X146487185Y-108871250D01*
X146465668Y-108864318D01*
X146450821Y-108853186D01*
X146437024Y-108836860D01*
X146415926Y-108796003D01*
X146420056Y-108751029D01*
X146454197Y-108707712D01*
X146460775Y-108702763D01*
X146474369Y-108696325D01*
X146494906Y-108691314D01*
X146525689Y-108687557D01*
X146570020Y-108684876D01*
X146631201Y-108683096D01*
X146712535Y-108682043D01*
X146817323Y-108681539D01*
X146948867Y-108681410D01*
X146975531Y-108681412D01*
G36*
X146975531Y-108681412D02*
G01*
X147100843Y-108681532D01*
X147200048Y-108681984D01*
X147276478Y-108682972D01*
X147333459Y-108684697D01*
X147374323Y-108687361D01*
X147402397Y-108691169D01*
X147421012Y-108696321D01*
X147433496Y-108703020D01*
X147443179Y-108711470D01*
X147468216Y-108755029D01*
X147470142Y-108805057D01*
X147448364Y-108849310D01*
X147446553Y-108851245D01*
X147431638Y-108862376D01*
X147408868Y-108869771D01*
X147372696Y-108874157D01*
X147317573Y-108876256D01*
X147237950Y-108876795D01*
X147052409Y-108876795D01*
X147052409Y-109227963D01*
X147052309Y-109328918D01*
X147051766Y-109417674D01*
X147050458Y-109483955D01*
X147048067Y-109531773D01*
X147044271Y-109565146D01*
X147038752Y-109588086D01*
X147031188Y-109604610D01*
X147021259Y-109618733D01*
X147018210Y-109622469D01*
X146976700Y-109652614D01*
X146930929Y-109654696D01*
X146887084Y-109628274D01*
X146877793Y-109617523D01*
X146870508Y-109603412D01*
X146865156Y-109582319D01*
X146861440Y-109550398D01*
X146859064Y-109503802D01*
X146857734Y-109438685D01*
X146857153Y-109351201D01*
X146857025Y-109237505D01*
X146857025Y-108876795D01*
X146662731Y-108876795D01*
X146647953Y-108876794D01*
X146572708Y-108876494D01*
X146520992Y-108874977D01*
X146487185Y-108871250D01*
X146465668Y-108864318D01*
X146450821Y-108853186D01*
X146437024Y-108836860D01*
X146415926Y-108796003D01*
X146420056Y-108751029D01*
X146454197Y-108707712D01*
X146460775Y-108702763D01*
X146474369Y-108696325D01*
X146494906Y-108691314D01*
X146525689Y-108687557D01*
X146570020Y-108684876D01*
X146631201Y-108683096D01*
X146712535Y-108682043D01*
X146817323Y-108681539D01*
X146948867Y-108681410D01*
X146975531Y-108681412D01*
G37*
X146075486Y-108711470D02*
X146082985Y-108719711D01*
X146089762Y-108730636D01*
X146095202Y-108746315D01*
X146099434Y-108769559D01*
X146102584Y-108803181D01*
X146104782Y-108849992D01*
X146106155Y-108912803D01*
X146106832Y-108994427D01*
X146106940Y-109097674D01*
X146106608Y-109225357D01*
X146105964Y-109380286D01*
X146105872Y-109399158D01*
X146105092Y-109481386D01*
X146103331Y-109539544D01*
X146099942Y-109578660D01*
X146094277Y-109603761D01*
X146085688Y-109619876D01*
X146073527Y-109632032D01*
X146028983Y-109655220D01*
X145982454Y-109651357D01*
X145941311Y-109618733D01*
X145929316Y-109601155D01*
X145919396Y-109576477D01*
X145913581Y-109541824D01*
X145910845Y-109490505D01*
X145910161Y-109415833D01*
X145910161Y-109252535D01*
X145248859Y-109252535D01*
X145248859Y-109432038D01*
X145248762Y-109479688D01*
X145247747Y-109541370D01*
X145244849Y-109582022D01*
X145239128Y-109607358D01*
X145229644Y-109623092D01*
X145215456Y-109634937D01*
X145172518Y-109655000D01*
X145125539Y-109651449D01*
X145084625Y-109618733D01*
X145078426Y-109610405D01*
X145070524Y-109596394D01*
X145064491Y-109577848D01*
X145060077Y-109551123D01*
X145057029Y-109512570D01*
X145055097Y-109458544D01*
X145054028Y-109385398D01*
X145053571Y-109289486D01*
X145053475Y-109167162D01*
X145053475Y-108755192D01*
X145090365Y-108718301D01*
X145132141Y-108688688D01*
X145176381Y-108685107D01*
X145218800Y-108711470D01*
X145229831Y-108724478D01*
X145239699Y-108745636D01*
X145245474Y-108777545D01*
X145248184Y-108826636D01*
X145248859Y-108899339D01*
X145248859Y-109057150D01*
X145910161Y-109057150D01*
X145910161Y-108903360D01*
X145910744Y-108834533D01*
X145913359Y-108788568D01*
X145919371Y-108758511D01*
X145930147Y-108737407D01*
X145947052Y-108718301D01*
X145988828Y-108688688D01*
X146033067Y-108685107D01*
X146075486Y-108711470D01*
G36*
X146075486Y-108711470D02*
G01*
X146082985Y-108719711D01*
X146089762Y-108730636D01*
X146095202Y-108746315D01*
X146099434Y-108769559D01*
X146102584Y-108803181D01*
X146104782Y-108849992D01*
X146106155Y-108912803D01*
X146106832Y-108994427D01*
X146106940Y-109097674D01*
X146106608Y-109225357D01*
X146105964Y-109380286D01*
X146105872Y-109399158D01*
X146105092Y-109481386D01*
X146103331Y-109539544D01*
X146099942Y-109578660D01*
X146094277Y-109603761D01*
X146085688Y-109619876D01*
X146073527Y-109632032D01*
X146028983Y-109655220D01*
X145982454Y-109651357D01*
X145941311Y-109618733D01*
X145929316Y-109601155D01*
X145919396Y-109576477D01*
X145913581Y-109541824D01*
X145910845Y-109490505D01*
X145910161Y-109415833D01*
X145910161Y-109252535D01*
X145248859Y-109252535D01*
X145248859Y-109432038D01*
X145248762Y-109479688D01*
X145247747Y-109541370D01*
X145244849Y-109582022D01*
X145239128Y-109607358D01*
X145229644Y-109623092D01*
X145215456Y-109634937D01*
X145172518Y-109655000D01*
X145125539Y-109651449D01*
X145084625Y-109618733D01*
X145078426Y-109610405D01*
X145070524Y-109596394D01*
X145064491Y-109577848D01*
X145060077Y-109551123D01*
X145057029Y-109512570D01*
X145055097Y-109458544D01*
X145054028Y-109385398D01*
X145053571Y-109289486D01*
X145053475Y-109167162D01*
X145053475Y-108755192D01*
X145090365Y-108718301D01*
X145132141Y-108688688D01*
X145176381Y-108685107D01*
X145218800Y-108711470D01*
X145229831Y-108724478D01*
X145239699Y-108745636D01*
X145245474Y-108777545D01*
X145248184Y-108826636D01*
X145248859Y-108899339D01*
X145248859Y-109057150D01*
X145910161Y-109057150D01*
X145910161Y-108903360D01*
X145910744Y-108834533D01*
X145913359Y-108788568D01*
X145919371Y-108758511D01*
X145930147Y-108737407D01*
X145947052Y-108718301D01*
X145988828Y-108688688D01*
X146033067Y-108685107D01*
X146075486Y-108711470D01*
G37*
X152340071Y-109495311D02*
X152337449Y-109538950D01*
X152333550Y-109569466D01*
X152328122Y-109590504D01*
X152320914Y-109605711D01*
X152311674Y-109618733D01*
X152280524Y-109658334D01*
X152059928Y-109657543D01*
X152013602Y-109657146D01*
X151882485Y-109652579D01*
X151774696Y-109642351D01*
X151685369Y-109625632D01*
X151609637Y-109601595D01*
X151542634Y-109569409D01*
X151538162Y-109566857D01*
X151461194Y-109517972D01*
X151404805Y-109468757D01*
X151361115Y-109410862D01*
X151322239Y-109335937D01*
X151316539Y-109323135D01*
X151286480Y-109239012D01*
X151278845Y-109178362D01*
X151477544Y-109178362D01*
X151485017Y-109211284D01*
X151492640Y-109232424D01*
X151536482Y-109312183D01*
X151599506Y-109373097D01*
X151684401Y-109417212D01*
X151793851Y-109446575D01*
X151797570Y-109447243D01*
X151859193Y-109455181D01*
X151934277Y-109460810D01*
X152007418Y-109462949D01*
X152132409Y-109462949D01*
X152132409Y-108876795D01*
X152015930Y-108877392D01*
X151926836Y-108880688D01*
X151803821Y-108895668D01*
X151698224Y-108921682D01*
X151615713Y-108957594D01*
X151574521Y-108985191D01*
X151537083Y-109024820D01*
X151506010Y-109081307D01*
X151496521Y-109102564D01*
X151480779Y-109145836D01*
X151477544Y-109178362D01*
X151278845Y-109178362D01*
X151277199Y-109165284D01*
X151288651Y-109092024D01*
X151320792Y-109009304D01*
X151321851Y-109007050D01*
X151375707Y-108914624D01*
X151443186Y-108839271D01*
X151526697Y-108779935D01*
X151628647Y-108735563D01*
X151751445Y-108705101D01*
X151897499Y-108687493D01*
X152069217Y-108681687D01*
X152073972Y-108681681D01*
X152153881Y-108681867D01*
X152209706Y-108683247D01*
X152247135Y-108686701D01*
X152271857Y-108693108D01*
X152289560Y-108703348D01*
X152305933Y-108718301D01*
X152342824Y-108755192D01*
X152342824Y-109167162D01*
X152342790Y-109249181D01*
X152342490Y-109354072D01*
X152341668Y-109434900D01*
X152340926Y-109462949D01*
X152340071Y-109495311D01*
G36*
X152340071Y-109495311D02*
G01*
X152337449Y-109538950D01*
X152333550Y-109569466D01*
X152328122Y-109590504D01*
X152320914Y-109605711D01*
X152311674Y-109618733D01*
X152280524Y-109658334D01*
X152059928Y-109657543D01*
X152013602Y-109657146D01*
X151882485Y-109652579D01*
X151774696Y-109642351D01*
X151685369Y-109625632D01*
X151609637Y-109601595D01*
X151542634Y-109569409D01*
X151538162Y-109566857D01*
X151461194Y-109517972D01*
X151404805Y-109468757D01*
X151361115Y-109410862D01*
X151322239Y-109335937D01*
X151316539Y-109323135D01*
X151286480Y-109239012D01*
X151278845Y-109178362D01*
X151477544Y-109178362D01*
X151485017Y-109211284D01*
X151492640Y-109232424D01*
X151536482Y-109312183D01*
X151599506Y-109373097D01*
X151684401Y-109417212D01*
X151793851Y-109446575D01*
X151797570Y-109447243D01*
X151859193Y-109455181D01*
X151934277Y-109460810D01*
X152007418Y-109462949D01*
X152132409Y-109462949D01*
X152132409Y-108876795D01*
X152015930Y-108877392D01*
X151926836Y-108880688D01*
X151803821Y-108895668D01*
X151698224Y-108921682D01*
X151615713Y-108957594D01*
X151574521Y-108985191D01*
X151537083Y-109024820D01*
X151506010Y-109081307D01*
X151496521Y-109102564D01*
X151480779Y-109145836D01*
X151477544Y-109178362D01*
X151278845Y-109178362D01*
X151277199Y-109165284D01*
X151288651Y-109092024D01*
X151320792Y-109009304D01*
X151321851Y-109007050D01*
X151375707Y-108914624D01*
X151443186Y-108839271D01*
X151526697Y-108779935D01*
X151628647Y-108735563D01*
X151751445Y-108705101D01*
X151897499Y-108687493D01*
X152069217Y-108681687D01*
X152073972Y-108681681D01*
X152153881Y-108681867D01*
X152209706Y-108683247D01*
X152247135Y-108686701D01*
X152271857Y-108693108D01*
X152289560Y-108703348D01*
X152305933Y-108718301D01*
X152342824Y-108755192D01*
X152342824Y-109167162D01*
X152342790Y-109249181D01*
X152342490Y-109354072D01*
X152341668Y-109434900D01*
X152340926Y-109462949D01*
X152340071Y-109495311D01*
G37*
X161781662Y-108928192D02*
X161781734Y-109035519D01*
X161781403Y-109169872D01*
X161781351Y-109270605D01*
X161781011Y-109374330D01*
X161780154Y-109454225D01*
X161778551Y-109513773D01*
X161775973Y-109556460D01*
X161772192Y-109585769D01*
X161766979Y-109605185D01*
X161760106Y-109618192D01*
X161751344Y-109628274D01*
X161742068Y-109636574D01*
X161724763Y-109646293D01*
X161699270Y-109652622D01*
X161660123Y-109656266D01*
X161601855Y-109657935D01*
X161519000Y-109658334D01*
X161453834Y-109657834D01*
X161311566Y-109651938D01*
X161192771Y-109638508D01*
X161093188Y-109616423D01*
X161008552Y-109584563D01*
X160934600Y-109541808D01*
X160867067Y-109487038D01*
X160859095Y-109479246D01*
X160810011Y-109414663D01*
X160768607Y-109333705D01*
X160740005Y-109248174D01*
X160732974Y-109196593D01*
X160928974Y-109196593D01*
X160953314Y-109264406D01*
X160992816Y-109325538D01*
X161054986Y-109382000D01*
X161136717Y-109421678D01*
X161242090Y-109447155D01*
X161244074Y-109447472D01*
X161309272Y-109455183D01*
X161387415Y-109460696D01*
X161462025Y-109462835D01*
X161586019Y-109462949D01*
X161586019Y-108876795D01*
X161484569Y-108876776D01*
X161480538Y-108876788D01*
X161412479Y-108879404D01*
X161332461Y-108885694D01*
X161256961Y-108894386D01*
X161190449Y-108906763D01*
X161090927Y-108941735D01*
X161014362Y-108994056D01*
X160959109Y-109064665D01*
X160930861Y-109132919D01*
X160928974Y-109196593D01*
X160732974Y-109196593D01*
X160729332Y-109169872D01*
X160731035Y-109141625D01*
X160747427Y-109065184D01*
X160777421Y-108985421D01*
X160816337Y-108913462D01*
X160859495Y-108860433D01*
X160885512Y-108837769D01*
X160958353Y-108785597D01*
X161038638Y-108745483D01*
X161130763Y-108716246D01*
X161239125Y-108696699D01*
X161368119Y-108685660D01*
X161522143Y-108681944D01*
X161574708Y-108681409D01*
X161635566Y-108680859D01*
X161683229Y-108683261D01*
X161719297Y-108691625D01*
X161745368Y-108708960D01*
X161763041Y-108738275D01*
X161773915Y-108782579D01*
X161779590Y-108844881D01*
X161780384Y-108876795D01*
X161781662Y-108928192D01*
G36*
X161781662Y-108928192D02*
G01*
X161781734Y-109035519D01*
X161781403Y-109169872D01*
X161781351Y-109270605D01*
X161781011Y-109374330D01*
X161780154Y-109454225D01*
X161778551Y-109513773D01*
X161775973Y-109556460D01*
X161772192Y-109585769D01*
X161766979Y-109605185D01*
X161760106Y-109618192D01*
X161751344Y-109628274D01*
X161742068Y-109636574D01*
X161724763Y-109646293D01*
X161699270Y-109652622D01*
X161660123Y-109656266D01*
X161601855Y-109657935D01*
X161519000Y-109658334D01*
X161453834Y-109657834D01*
X161311566Y-109651938D01*
X161192771Y-109638508D01*
X161093188Y-109616423D01*
X161008552Y-109584563D01*
X160934600Y-109541808D01*
X160867067Y-109487038D01*
X160859095Y-109479246D01*
X160810011Y-109414663D01*
X160768607Y-109333705D01*
X160740005Y-109248174D01*
X160732974Y-109196593D01*
X160928974Y-109196593D01*
X160953314Y-109264406D01*
X160992816Y-109325538D01*
X161054986Y-109382000D01*
X161136717Y-109421678D01*
X161242090Y-109447155D01*
X161244074Y-109447472D01*
X161309272Y-109455183D01*
X161387415Y-109460696D01*
X161462025Y-109462835D01*
X161586019Y-109462949D01*
X161586019Y-108876795D01*
X161484569Y-108876776D01*
X161480538Y-108876788D01*
X161412479Y-108879404D01*
X161332461Y-108885694D01*
X161256961Y-108894386D01*
X161190449Y-108906763D01*
X161090927Y-108941735D01*
X161014362Y-108994056D01*
X160959109Y-109064665D01*
X160930861Y-109132919D01*
X160928974Y-109196593D01*
X160732974Y-109196593D01*
X160729332Y-109169872D01*
X160731035Y-109141625D01*
X160747427Y-109065184D01*
X160777421Y-108985421D01*
X160816337Y-108913462D01*
X160859495Y-108860433D01*
X160885512Y-108837769D01*
X160958353Y-108785597D01*
X161038638Y-108745483D01*
X161130763Y-108716246D01*
X161239125Y-108696699D01*
X161368119Y-108685660D01*
X161522143Y-108681944D01*
X161574708Y-108681409D01*
X161635566Y-108680859D01*
X161683229Y-108683261D01*
X161719297Y-108691625D01*
X161745368Y-108708960D01*
X161763041Y-108738275D01*
X161773915Y-108782579D01*
X161779590Y-108844881D01*
X161780384Y-108876795D01*
X161781662Y-108928192D01*
G37*
X155198184Y-108679846D02*
X155213372Y-108688017D01*
X155227416Y-108702212D01*
X155242443Y-108721011D01*
X155248371Y-108728948D01*
X155256357Y-108742920D01*
X155262454Y-108761327D01*
X155266916Y-108787827D01*
X155269997Y-108826083D01*
X155271951Y-108879755D01*
X155273033Y-108952503D01*
X155273495Y-109047988D01*
X155273593Y-109169872D01*
X155273562Y-109247797D01*
X155273272Y-109353091D01*
X155272461Y-109434227D01*
X155270875Y-109494866D01*
X155268262Y-109538669D01*
X155264366Y-109569296D01*
X155258933Y-109590409D01*
X155251710Y-109605667D01*
X155242443Y-109618733D01*
X155201931Y-109651209D01*
X155155410Y-109655042D01*
X155106175Y-109629626D01*
X155100605Y-109625000D01*
X155089720Y-109613646D01*
X155081651Y-109598268D01*
X155075816Y-109574526D01*
X155071633Y-109538084D01*
X155068521Y-109484604D01*
X155065897Y-109409747D01*
X155063179Y-109309177D01*
X155055664Y-109017435D01*
X154702469Y-109337814D01*
X154604169Y-109426718D01*
X154517391Y-109504091D01*
X154447902Y-109563946D01*
X154393217Y-109607777D01*
X154350854Y-109637077D01*
X154318332Y-109653340D01*
X154293166Y-109658060D01*
X154272875Y-109652731D01*
X154254976Y-109638846D01*
X154236987Y-109617899D01*
X154228672Y-109606605D01*
X154221174Y-109592523D01*
X154215568Y-109573673D01*
X154211638Y-109546443D01*
X154209168Y-109507221D01*
X154207944Y-109452394D01*
X154207751Y-109378348D01*
X154208373Y-109281471D01*
X154209594Y-109158150D01*
X154214007Y-108738835D01*
X154249489Y-108710123D01*
X154284191Y-108688566D01*
X154327937Y-108684877D01*
X154373910Y-108710110D01*
X154379651Y-108714882D01*
X154390478Y-108726238D01*
X154398505Y-108741671D01*
X154404310Y-108765510D01*
X154408474Y-108802084D01*
X154411576Y-108855722D01*
X154414193Y-108930754D01*
X154416906Y-109031508D01*
X154424421Y-109324207D01*
X154664895Y-109106138D01*
X154780374Y-109001448D01*
X154881253Y-108910392D01*
X154963979Y-108836702D01*
X155030678Y-108778960D01*
X155083476Y-108735749D01*
X155124499Y-108705649D01*
X155155874Y-108687244D01*
X155179727Y-108679116D01*
X155198184Y-108679846D01*
G36*
X155198184Y-108679846D02*
G01*
X155213372Y-108688017D01*
X155227416Y-108702212D01*
X155242443Y-108721011D01*
X155248371Y-108728948D01*
X155256357Y-108742920D01*
X155262454Y-108761327D01*
X155266916Y-108787827D01*
X155269997Y-108826083D01*
X155271951Y-108879755D01*
X155273033Y-108952503D01*
X155273495Y-109047988D01*
X155273593Y-109169872D01*
X155273562Y-109247797D01*
X155273272Y-109353091D01*
X155272461Y-109434227D01*
X155270875Y-109494866D01*
X155268262Y-109538669D01*
X155264366Y-109569296D01*
X155258933Y-109590409D01*
X155251710Y-109605667D01*
X155242443Y-109618733D01*
X155201931Y-109651209D01*
X155155410Y-109655042D01*
X155106175Y-109629626D01*
X155100605Y-109625000D01*
X155089720Y-109613646D01*
X155081651Y-109598268D01*
X155075816Y-109574526D01*
X155071633Y-109538084D01*
X155068521Y-109484604D01*
X155065897Y-109409747D01*
X155063179Y-109309177D01*
X155055664Y-109017435D01*
X154702469Y-109337814D01*
X154604169Y-109426718D01*
X154517391Y-109504091D01*
X154447902Y-109563946D01*
X154393217Y-109607777D01*
X154350854Y-109637077D01*
X154318332Y-109653340D01*
X154293166Y-109658060D01*
X154272875Y-109652731D01*
X154254976Y-109638846D01*
X154236987Y-109617899D01*
X154228672Y-109606605D01*
X154221174Y-109592523D01*
X154215568Y-109573673D01*
X154211638Y-109546443D01*
X154209168Y-109507221D01*
X154207944Y-109452394D01*
X154207751Y-109378348D01*
X154208373Y-109281471D01*
X154209594Y-109158150D01*
X154214007Y-108738835D01*
X154249489Y-108710123D01*
X154284191Y-108688566D01*
X154327937Y-108684877D01*
X154373910Y-108710110D01*
X154379651Y-108714882D01*
X154390478Y-108726238D01*
X154398505Y-108741671D01*
X154404310Y-108765510D01*
X154408474Y-108802084D01*
X154411576Y-108855722D01*
X154414193Y-108930754D01*
X154416906Y-109031508D01*
X154424421Y-109324207D01*
X154664895Y-109106138D01*
X154780374Y-109001448D01*
X154881253Y-108910392D01*
X154963979Y-108836702D01*
X155030678Y-108778960D01*
X155083476Y-108735749D01*
X155124499Y-108705649D01*
X155155874Y-108687244D01*
X155179727Y-108679116D01*
X155198184Y-108679846D01*
G37*
X156259621Y-108688217D02*
X156400754Y-108709938D01*
X156525652Y-108747285D01*
X156630557Y-108799083D01*
X156711709Y-108864162D01*
X156746418Y-108907913D01*
X156785703Y-108973414D01*
X156819349Y-109045119D01*
X156842847Y-109113241D01*
X156851688Y-109167993D01*
X156849611Y-109194241D01*
X156832381Y-109262583D01*
X156801543Y-109337840D01*
X156761746Y-109409622D01*
X156717640Y-109467542D01*
X156704065Y-109481319D01*
X156614750Y-109550250D01*
X156508074Y-109603362D01*
X156393297Y-109635849D01*
X156320120Y-109646649D01*
X156195700Y-109655442D01*
X156076170Y-109652663D01*
X155966346Y-109639023D01*
X155871044Y-109615232D01*
X155795079Y-109581998D01*
X155743267Y-109540033D01*
X155741436Y-109537403D01*
X155732000Y-109503818D01*
X155726356Y-109440910D01*
X155724480Y-109348428D01*
X155725625Y-109265574D01*
X155731909Y-109202491D01*
X155747472Y-109159750D01*
X155776455Y-109133719D01*
X155822998Y-109120764D01*
X155891241Y-109117253D01*
X155985324Y-109119554D01*
X156050055Y-109123564D01*
X156116884Y-109134471D01*
X156160145Y-109153181D01*
X156183389Y-109181453D01*
X156190167Y-109221048D01*
X156190026Y-109227094D01*
X156178440Y-109273417D01*
X156146475Y-109304594D01*
X156091536Y-109322168D01*
X156011031Y-109327683D01*
X155919865Y-109327683D01*
X155919865Y-109378743D01*
X155919932Y-109390906D01*
X155922888Y-109413873D01*
X155935226Y-109427578D01*
X155963692Y-109436814D01*
X156015031Y-109446376D01*
X156022319Y-109447620D01*
X156151395Y-109460805D01*
X156271206Y-109456918D01*
X156378924Y-109437307D01*
X156471718Y-109403317D01*
X156546760Y-109356293D01*
X156601220Y-109297581D01*
X156632270Y-109228527D01*
X156637079Y-109150478D01*
X156629732Y-109112008D01*
X156594207Y-109037599D01*
X156532713Y-108976810D01*
X156446199Y-108930431D01*
X156335614Y-108899252D01*
X156302763Y-108893329D01*
X156183834Y-108879351D01*
X156077582Y-108880987D01*
X155973613Y-108898209D01*
X155926824Y-108907248D01*
X155866330Y-108908603D01*
X155824639Y-108891919D01*
X155797807Y-108856256D01*
X155789308Y-108818649D01*
X155801938Y-108777078D01*
X155814358Y-108759204D01*
X155859936Y-108727875D01*
X155929995Y-108704082D01*
X156021216Y-108688776D01*
X156130279Y-108682909D01*
X156259621Y-108688217D01*
G36*
X156259621Y-108688217D02*
G01*
X156400754Y-108709938D01*
X156525652Y-108747285D01*
X156630557Y-108799083D01*
X156711709Y-108864162D01*
X156746418Y-108907913D01*
X156785703Y-108973414D01*
X156819349Y-109045119D01*
X156842847Y-109113241D01*
X156851688Y-109167993D01*
X156849611Y-109194241D01*
X156832381Y-109262583D01*
X156801543Y-109337840D01*
X156761746Y-109409622D01*
X156717640Y-109467542D01*
X156704065Y-109481319D01*
X156614750Y-109550250D01*
X156508074Y-109603362D01*
X156393297Y-109635849D01*
X156320120Y-109646649D01*
X156195700Y-109655442D01*
X156076170Y-109652663D01*
X155966346Y-109639023D01*
X155871044Y-109615232D01*
X155795079Y-109581998D01*
X155743267Y-109540033D01*
X155741436Y-109537403D01*
X155732000Y-109503818D01*
X155726356Y-109440910D01*
X155724480Y-109348428D01*
X155725625Y-109265574D01*
X155731909Y-109202491D01*
X155747472Y-109159750D01*
X155776455Y-109133719D01*
X155822998Y-109120764D01*
X155891241Y-109117253D01*
X155985324Y-109119554D01*
X156050055Y-109123564D01*
X156116884Y-109134471D01*
X156160145Y-109153181D01*
X156183389Y-109181453D01*
X156190167Y-109221048D01*
X156190026Y-109227094D01*
X156178440Y-109273417D01*
X156146475Y-109304594D01*
X156091536Y-109322168D01*
X156011031Y-109327683D01*
X155919865Y-109327683D01*
X155919865Y-109378743D01*
X155919932Y-109390906D01*
X155922888Y-109413873D01*
X155935226Y-109427578D01*
X155963692Y-109436814D01*
X156015031Y-109446376D01*
X156022319Y-109447620D01*
X156151395Y-109460805D01*
X156271206Y-109456918D01*
X156378924Y-109437307D01*
X156471718Y-109403317D01*
X156546760Y-109356293D01*
X156601220Y-109297581D01*
X156632270Y-109228527D01*
X156637079Y-109150478D01*
X156629732Y-109112008D01*
X156594207Y-109037599D01*
X156532713Y-108976810D01*
X156446199Y-108930431D01*
X156335614Y-108899252D01*
X156302763Y-108893329D01*
X156183834Y-108879351D01*
X156077582Y-108880987D01*
X155973613Y-108898209D01*
X155926824Y-108907248D01*
X155866330Y-108908603D01*
X155824639Y-108891919D01*
X155797807Y-108856256D01*
X155789308Y-108818649D01*
X155801938Y-108777078D01*
X155814358Y-108759204D01*
X155859936Y-108727875D01*
X155929995Y-108704082D01*
X156021216Y-108688776D01*
X156130279Y-108682909D01*
X156259621Y-108688217D01*
G37*
X153664336Y-108721011D02*
X153670925Y-108729910D01*
X153678706Y-108743984D01*
X153684645Y-108762739D01*
X153688991Y-108789799D01*
X153691990Y-108828790D01*
X153693892Y-108883339D01*
X153694943Y-108957069D01*
X153695392Y-109053608D01*
X153695486Y-109176580D01*
X153695448Y-109264339D01*
X153695139Y-109368607D01*
X153694313Y-109448845D01*
X153692725Y-109508621D01*
X153690132Y-109551502D01*
X153686291Y-109581056D01*
X153680958Y-109600852D01*
X153673890Y-109614457D01*
X153664842Y-109625440D01*
X153658831Y-109631641D01*
X153647874Y-109640277D01*
X153632750Y-109646816D01*
X153609760Y-109651550D01*
X153575204Y-109654769D01*
X153525386Y-109656766D01*
X153456604Y-109657831D01*
X153365161Y-109658256D01*
X153247357Y-109658334D01*
X153221163Y-109658325D01*
X153105302Y-109657970D01*
X153015232Y-109656951D01*
X152947393Y-109655068D01*
X152898224Y-109652123D01*
X152864162Y-109647919D01*
X152841646Y-109642256D01*
X152827115Y-109634937D01*
X152813145Y-109621642D01*
X152795490Y-109580214D01*
X152797064Y-109532434D01*
X152818585Y-109490434D01*
X152821500Y-109487404D01*
X152833066Y-109479059D01*
X152850829Y-109472847D01*
X152878765Y-109468458D01*
X152920851Y-109465584D01*
X152981065Y-109463914D01*
X153063382Y-109463139D01*
X153171780Y-109462949D01*
X153500102Y-109462949D01*
X153500102Y-109252535D01*
X153283838Y-109252535D01*
X153236350Y-109252428D01*
X153162100Y-109251366D01*
X153109993Y-109248697D01*
X153074774Y-109243849D01*
X153051185Y-109236249D01*
X153033971Y-109225325D01*
X153029121Y-109221086D01*
X153004614Y-109179847D01*
X153003770Y-109131471D01*
X153027120Y-109086711D01*
X153027203Y-109086620D01*
X153040078Y-109075135D01*
X153057777Y-109067073D01*
X153085346Y-109061839D01*
X153127831Y-109058837D01*
X153190279Y-109057473D01*
X153277737Y-109057150D01*
X153501602Y-109057150D01*
X153497094Y-108970730D01*
X153492587Y-108884310D01*
X153170295Y-108880245D01*
X153136989Y-108879809D01*
X153028324Y-108877839D01*
X152945354Y-108874665D01*
X152884626Y-108869345D01*
X152842685Y-108860940D01*
X152816078Y-108848506D01*
X152801349Y-108831103D01*
X152795045Y-108807790D01*
X152793711Y-108777626D01*
X152793719Y-108774476D01*
X152795255Y-108747808D01*
X152801643Y-108726782D01*
X152816032Y-108710731D01*
X152841573Y-108698984D01*
X152881419Y-108690874D01*
X152938718Y-108685730D01*
X153016623Y-108682884D01*
X153118284Y-108681667D01*
X153246852Y-108681410D01*
X153633186Y-108681410D01*
X153664336Y-108721011D01*
G36*
X153664336Y-108721011D02*
G01*
X153670925Y-108729910D01*
X153678706Y-108743984D01*
X153684645Y-108762739D01*
X153688991Y-108789799D01*
X153691990Y-108828790D01*
X153693892Y-108883339D01*
X153694943Y-108957069D01*
X153695392Y-109053608D01*
X153695486Y-109176580D01*
X153695448Y-109264339D01*
X153695139Y-109368607D01*
X153694313Y-109448845D01*
X153692725Y-109508621D01*
X153690132Y-109551502D01*
X153686291Y-109581056D01*
X153680958Y-109600852D01*
X153673890Y-109614457D01*
X153664842Y-109625440D01*
X153658831Y-109631641D01*
X153647874Y-109640277D01*
X153632750Y-109646816D01*
X153609760Y-109651550D01*
X153575204Y-109654769D01*
X153525386Y-109656766D01*
X153456604Y-109657831D01*
X153365161Y-109658256D01*
X153247357Y-109658334D01*
X153221163Y-109658325D01*
X153105302Y-109657970D01*
X153015232Y-109656951D01*
X152947393Y-109655068D01*
X152898224Y-109652123D01*
X152864162Y-109647919D01*
X152841646Y-109642256D01*
X152827115Y-109634937D01*
X152813145Y-109621642D01*
X152795490Y-109580214D01*
X152797064Y-109532434D01*
X152818585Y-109490434D01*
X152821500Y-109487404D01*
X152833066Y-109479059D01*
X152850829Y-109472847D01*
X152878765Y-109468458D01*
X152920851Y-109465584D01*
X152981065Y-109463914D01*
X153063382Y-109463139D01*
X153171780Y-109462949D01*
X153500102Y-109462949D01*
X153500102Y-109252535D01*
X153283838Y-109252535D01*
X153236350Y-109252428D01*
X153162100Y-109251366D01*
X153109993Y-109248697D01*
X153074774Y-109243849D01*
X153051185Y-109236249D01*
X153033971Y-109225325D01*
X153029121Y-109221086D01*
X153004614Y-109179847D01*
X153003770Y-109131471D01*
X153027120Y-109086711D01*
X153027203Y-109086620D01*
X153040078Y-109075135D01*
X153057777Y-109067073D01*
X153085346Y-109061839D01*
X153127831Y-109058837D01*
X153190279Y-109057473D01*
X153277737Y-109057150D01*
X153501602Y-109057150D01*
X153497094Y-108970730D01*
X153492587Y-108884310D01*
X153170295Y-108880245D01*
X153136989Y-108879809D01*
X153028324Y-108877839D01*
X152945354Y-108874665D01*
X152884626Y-108869345D01*
X152842685Y-108860940D01*
X152816078Y-108848506D01*
X152801349Y-108831103D01*
X152795045Y-108807790D01*
X152793711Y-108777626D01*
X152793719Y-108774476D01*
X152795255Y-108747808D01*
X152801643Y-108726782D01*
X152816032Y-108710731D01*
X152841573Y-108698984D01*
X152881419Y-108690874D01*
X152938718Y-108685730D01*
X153016623Y-108682884D01*
X153118284Y-108681667D01*
X153246852Y-108681410D01*
X153633186Y-108681410D01*
X153664336Y-108721011D01*
G37*
X159891020Y-108681432D02*
X159993663Y-108681688D01*
X160072142Y-108682466D01*
X160130172Y-108684052D01*
X160171469Y-108686732D01*
X160199750Y-108690790D01*
X160218732Y-108696512D01*
X160232129Y-108704183D01*
X160243660Y-108714090D01*
X160246036Y-108716327D01*
X160255680Y-108726364D01*
X160263191Y-108738370D01*
X160268837Y-108755857D01*
X160272883Y-108782334D01*
X160275596Y-108821315D01*
X160277242Y-108876310D01*
X160278088Y-108950830D01*
X160278400Y-109048387D01*
X160278445Y-109172492D01*
X160278396Y-109269401D01*
X160278065Y-109373481D01*
X160277218Y-109453648D01*
X160275624Y-109513398D01*
X160273053Y-109556228D01*
X160269275Y-109585634D01*
X160264058Y-109605112D01*
X160257171Y-109618160D01*
X160248386Y-109628274D01*
X160243947Y-109632504D01*
X160232601Y-109640640D01*
X160216622Y-109646863D01*
X160192377Y-109651430D01*
X160156235Y-109654595D01*
X160104563Y-109656613D01*
X160033728Y-109657739D01*
X159940098Y-109658227D01*
X159820043Y-109658334D01*
X159763981Y-109658318D01*
X159655945Y-109658075D01*
X159572745Y-109657339D01*
X159510749Y-109655854D01*
X159466325Y-109653365D01*
X159435840Y-109649618D01*
X159415662Y-109644357D01*
X159402159Y-109637327D01*
X159391699Y-109628274D01*
X159372093Y-109599518D01*
X159361640Y-109560641D01*
X159368961Y-109528813D01*
X159391699Y-109493008D01*
X159398328Y-109486873D01*
X159411342Y-109478503D01*
X159430135Y-109472345D01*
X159458753Y-109468063D01*
X159501243Y-109465320D01*
X159561651Y-109463778D01*
X159644024Y-109463100D01*
X159752409Y-109462949D01*
X160083060Y-109462949D01*
X160083060Y-109252535D01*
X159868475Y-109252535D01*
X159820789Y-109252341D01*
X159733420Y-109250048D01*
X159670525Y-109244143D01*
X159628274Y-109233353D01*
X159602837Y-109216404D01*
X159590384Y-109192021D01*
X159587084Y-109158931D01*
X159588146Y-109131963D01*
X159595138Y-109102905D01*
X159612171Y-109082467D01*
X159643245Y-109069159D01*
X159692357Y-109061496D01*
X159763508Y-109057989D01*
X159860696Y-109057150D01*
X160084560Y-109057150D01*
X160075546Y-108884310D01*
X159745745Y-108880251D01*
X159662414Y-108879081D01*
X159571268Y-108877158D01*
X159503496Y-108874588D01*
X159455230Y-108871059D01*
X159422602Y-108866261D01*
X159401746Y-108859885D01*
X159388793Y-108851620D01*
X159380784Y-108843095D01*
X159363465Y-108800916D01*
X159368205Y-108753404D01*
X159394533Y-108712055D01*
X159398863Y-108708163D01*
X159410818Y-108699707D01*
X159426932Y-108693247D01*
X159450905Y-108688515D01*
X159486437Y-108685244D01*
X159537227Y-108683165D01*
X159606976Y-108682012D01*
X159699384Y-108681516D01*
X159818150Y-108681410D01*
X159891020Y-108681432D01*
G36*
X159891020Y-108681432D02*
G01*
X159993663Y-108681688D01*
X160072142Y-108682466D01*
X160130172Y-108684052D01*
X160171469Y-108686732D01*
X160199750Y-108690790D01*
X160218732Y-108696512D01*
X160232129Y-108704183D01*
X160243660Y-108714090D01*
X160246036Y-108716327D01*
X160255680Y-108726364D01*
X160263191Y-108738370D01*
X160268837Y-108755857D01*
X160272883Y-108782334D01*
X160275596Y-108821315D01*
X160277242Y-108876310D01*
X160278088Y-108950830D01*
X160278400Y-109048387D01*
X160278445Y-109172492D01*
X160278396Y-109269401D01*
X160278065Y-109373481D01*
X160277218Y-109453648D01*
X160275624Y-109513398D01*
X160273053Y-109556228D01*
X160269275Y-109585634D01*
X160264058Y-109605112D01*
X160257171Y-109618160D01*
X160248386Y-109628274D01*
X160243947Y-109632504D01*
X160232601Y-109640640D01*
X160216622Y-109646863D01*
X160192377Y-109651430D01*
X160156235Y-109654595D01*
X160104563Y-109656613D01*
X160033728Y-109657739D01*
X159940098Y-109658227D01*
X159820043Y-109658334D01*
X159763981Y-109658318D01*
X159655945Y-109658075D01*
X159572745Y-109657339D01*
X159510749Y-109655854D01*
X159466325Y-109653365D01*
X159435840Y-109649618D01*
X159415662Y-109644357D01*
X159402159Y-109637327D01*
X159391699Y-109628274D01*
X159372093Y-109599518D01*
X159361640Y-109560641D01*
X159368961Y-109528813D01*
X159391699Y-109493008D01*
X159398328Y-109486873D01*
X159411342Y-109478503D01*
X159430135Y-109472345D01*
X159458753Y-109468063D01*
X159501243Y-109465320D01*
X159561651Y-109463778D01*
X159644024Y-109463100D01*
X159752409Y-109462949D01*
X160083060Y-109462949D01*
X160083060Y-109252535D01*
X159868475Y-109252535D01*
X159820789Y-109252341D01*
X159733420Y-109250048D01*
X159670525Y-109244143D01*
X159628274Y-109233353D01*
X159602837Y-109216404D01*
X159590384Y-109192021D01*
X159587084Y-109158931D01*
X159588146Y-109131963D01*
X159595138Y-109102905D01*
X159612171Y-109082467D01*
X159643245Y-109069159D01*
X159692357Y-109061496D01*
X159763508Y-109057989D01*
X159860696Y-109057150D01*
X160084560Y-109057150D01*
X160075546Y-108884310D01*
X159745745Y-108880251D01*
X159662414Y-108879081D01*
X159571268Y-108877158D01*
X159503496Y-108874588D01*
X159455230Y-108871059D01*
X159422602Y-108866261D01*
X159401746Y-108859885D01*
X159388793Y-108851620D01*
X159380784Y-108843095D01*
X159363465Y-108800916D01*
X159368205Y-108753404D01*
X159394533Y-108712055D01*
X159398863Y-108708163D01*
X159410818Y-108699707D01*
X159426932Y-108693247D01*
X159450905Y-108688515D01*
X159486437Y-108685244D01*
X159537227Y-108683165D01*
X159606976Y-108682012D01*
X159699384Y-108681516D01*
X159818150Y-108681410D01*
X159891020Y-108681432D01*
G37*
X148485208Y-108693940D02*
X148509119Y-108718585D01*
X148536546Y-108759966D01*
X148569607Y-108820790D01*
X148610420Y-108903763D01*
X148661104Y-109011594D01*
X148680587Y-109053376D01*
X148720193Y-109137496D01*
X148754935Y-109210196D01*
X148782886Y-109267507D01*
X148802120Y-109305455D01*
X148810711Y-109320069D01*
X148812520Y-109319296D01*
X148825823Y-109300727D01*
X148848844Y-109261401D01*
X148878928Y-109205994D01*
X148913422Y-109139180D01*
X148934687Y-109097258D01*
X148973230Y-109023562D01*
X149003170Y-108971617D01*
X149027422Y-108937697D01*
X149048898Y-108918079D01*
X149070512Y-108909040D01*
X149095177Y-108906854D01*
X149109160Y-108907487D01*
X149130616Y-108913088D01*
X149151005Y-108927552D01*
X149173103Y-108954542D01*
X149199689Y-108997725D01*
X149233540Y-109060765D01*
X149277434Y-109147328D01*
X149290392Y-109172963D01*
X149322954Y-109235096D01*
X149349895Y-109283241D01*
X149368710Y-109313049D01*
X149376897Y-109320168D01*
X149378717Y-109315813D01*
X149391198Y-109287975D01*
X149413646Y-109238796D01*
X149444156Y-109172426D01*
X149480823Y-109093014D01*
X149521742Y-109004707D01*
X149557309Y-108928525D01*
X149596749Y-108845995D01*
X149627465Y-108785100D01*
X149651401Y-108742442D01*
X149670502Y-108714625D01*
X149686713Y-108698253D01*
X149701978Y-108689931D01*
X149714506Y-108686080D01*
X149747930Y-108685882D01*
X149784067Y-108706308D01*
X149785798Y-108707620D01*
X149815200Y-108737756D01*
X149829909Y-108767345D01*
X149829971Y-108768197D01*
X149823926Y-108791711D01*
X149806799Y-108837731D01*
X149780493Y-108902096D01*
X149746910Y-108980645D01*
X149707952Y-109069221D01*
X149665522Y-109163661D01*
X149621522Y-109259807D01*
X149577854Y-109353499D01*
X149536420Y-109440576D01*
X149499123Y-109516880D01*
X149467864Y-109578249D01*
X149444546Y-109620525D01*
X149431071Y-109639547D01*
X149385262Y-109657345D01*
X149329748Y-109648876D01*
X149322606Y-109642622D01*
X149301532Y-109613131D01*
X149271973Y-109564190D01*
X149236803Y-109500661D01*
X149198894Y-109427407D01*
X149092686Y-109215397D01*
X148995248Y-109410563D01*
X148982340Y-109436246D01*
X148946421Y-109505940D01*
X148914431Y-109565571D01*
X148889449Y-109609486D01*
X148874556Y-109632032D01*
X148873030Y-109633687D01*
X148835591Y-109654039D01*
X148788911Y-109656280D01*
X148747584Y-109639547D01*
X148744354Y-109635754D01*
X148728031Y-109608294D01*
X148701754Y-109558300D01*
X148667266Y-109489298D01*
X148626310Y-109404814D01*
X148580630Y-109308373D01*
X148531969Y-109203503D01*
X148505022Y-109144759D01*
X148456064Y-109037281D01*
X148418178Y-108952502D01*
X148390187Y-108887353D01*
X148370912Y-108838764D01*
X148359178Y-108803667D01*
X148353805Y-108778992D01*
X148353616Y-108761672D01*
X148357434Y-108748636D01*
X148376948Y-108720834D01*
X148412366Y-108693806D01*
X148413372Y-108693350D01*
X148439453Y-108684030D01*
X148462692Y-108683324D01*
X148485208Y-108693940D01*
G36*
X148485208Y-108693940D02*
G01*
X148509119Y-108718585D01*
X148536546Y-108759966D01*
X148569607Y-108820790D01*
X148610420Y-108903763D01*
X148661104Y-109011594D01*
X148680587Y-109053376D01*
X148720193Y-109137496D01*
X148754935Y-109210196D01*
X148782886Y-109267507D01*
X148802120Y-109305455D01*
X148810711Y-109320069D01*
X148812520Y-109319296D01*
X148825823Y-109300727D01*
X148848844Y-109261401D01*
X148878928Y-109205994D01*
X148913422Y-109139180D01*
X148934687Y-109097258D01*
X148973230Y-109023562D01*
X149003170Y-108971617D01*
X149027422Y-108937697D01*
X149048898Y-108918079D01*
X149070512Y-108909040D01*
X149095177Y-108906854D01*
X149109160Y-108907487D01*
X149130616Y-108913088D01*
X149151005Y-108927552D01*
X149173103Y-108954542D01*
X149199689Y-108997725D01*
X149233540Y-109060765D01*
X149277434Y-109147328D01*
X149290392Y-109172963D01*
X149322954Y-109235096D01*
X149349895Y-109283241D01*
X149368710Y-109313049D01*
X149376897Y-109320168D01*
X149378717Y-109315813D01*
X149391198Y-109287975D01*
X149413646Y-109238796D01*
X149444156Y-109172426D01*
X149480823Y-109093014D01*
X149521742Y-109004707D01*
X149557309Y-108928525D01*
X149596749Y-108845995D01*
X149627465Y-108785100D01*
X149651401Y-108742442D01*
X149670502Y-108714625D01*
X149686713Y-108698253D01*
X149701978Y-108689931D01*
X149714506Y-108686080D01*
X149747930Y-108685882D01*
X149784067Y-108706308D01*
X149785798Y-108707620D01*
X149815200Y-108737756D01*
X149829909Y-108767345D01*
X149829971Y-108768197D01*
X149823926Y-108791711D01*
X149806799Y-108837731D01*
X149780493Y-108902096D01*
X149746910Y-108980645D01*
X149707952Y-109069221D01*
X149665522Y-109163661D01*
X149621522Y-109259807D01*
X149577854Y-109353499D01*
X149536420Y-109440576D01*
X149499123Y-109516880D01*
X149467864Y-109578249D01*
X149444546Y-109620525D01*
X149431071Y-109639547D01*
X149385262Y-109657345D01*
X149329748Y-109648876D01*
X149322606Y-109642622D01*
X149301532Y-109613131D01*
X149271973Y-109564190D01*
X149236803Y-109500661D01*
X149198894Y-109427407D01*
X149092686Y-109215397D01*
X148995248Y-109410563D01*
X148982340Y-109436246D01*
X148946421Y-109505940D01*
X148914431Y-109565571D01*
X148889449Y-109609486D01*
X148874556Y-109632032D01*
X148873030Y-109633687D01*
X148835591Y-109654039D01*
X148788911Y-109656280D01*
X148747584Y-109639547D01*
X148744354Y-109635754D01*
X148728031Y-109608294D01*
X148701754Y-109558300D01*
X148667266Y-109489298D01*
X148626310Y-109404814D01*
X148580630Y-109308373D01*
X148531969Y-109203503D01*
X148505022Y-109144759D01*
X148456064Y-109037281D01*
X148418178Y-108952502D01*
X148390187Y-108887353D01*
X148370912Y-108838764D01*
X148359178Y-108803667D01*
X148353805Y-108778992D01*
X148353616Y-108761672D01*
X148357434Y-108748636D01*
X148376948Y-108720834D01*
X148412366Y-108693806D01*
X148413372Y-108693350D01*
X148439453Y-108684030D01*
X148462692Y-108683324D01*
X148485208Y-108693940D01*
G37*
X158538515Y-108682568D02*
X158626713Y-108689797D01*
X158700338Y-108702576D01*
X158768081Y-108722361D01*
X158863024Y-108766472D01*
X158931132Y-108823298D01*
X158972169Y-108892615D01*
X158985901Y-108974199D01*
X158984653Y-109015802D01*
X158976941Y-109048816D01*
X158957227Y-109077666D01*
X158919986Y-109114080D01*
X158909364Y-109123837D01*
X158877798Y-109151666D01*
X158847984Y-109174260D01*
X158815986Y-109192837D01*
X158777872Y-109208615D01*
X158729708Y-109222812D01*
X158667560Y-109236647D01*
X158587494Y-109251338D01*
X158485576Y-109268103D01*
X158357874Y-109288161D01*
X158333425Y-109292200D01*
X158250442Y-109310334D01*
X158190241Y-109331281D01*
X158155247Y-109354009D01*
X158147886Y-109377487D01*
X158151375Y-109383172D01*
X158175250Y-109403229D01*
X158212695Y-109425375D01*
X158229736Y-109433351D01*
X158258092Y-109442927D01*
X158293221Y-109449287D01*
X158340943Y-109453040D01*
X158407076Y-109454794D01*
X158497439Y-109455158D01*
X158521117Y-109455061D01*
X158611145Y-109453582D01*
X158697602Y-109450619D01*
X158771659Y-109446537D01*
X158824489Y-109441698D01*
X158871767Y-109436282D01*
X158910712Y-109435240D01*
X158935876Y-109441363D01*
X158955998Y-109455576D01*
X158960866Y-109460359D01*
X158982623Y-109502662D01*
X158980865Y-109550130D01*
X158955627Y-109590895D01*
X158928506Y-109606346D01*
X158880599Y-109623248D01*
X158824118Y-109636628D01*
X158819524Y-109637425D01*
X158762716Y-109644370D01*
X158686313Y-109650193D01*
X158599752Y-109654304D01*
X158512469Y-109656113D01*
X158490857Y-109656169D01*
X158359968Y-109652870D01*
X158253390Y-109642211D01*
X158166612Y-109622864D01*
X158095124Y-109593502D01*
X158034413Y-109552798D01*
X157979969Y-109499424D01*
X157953181Y-109464507D01*
X157937702Y-109425169D01*
X157933830Y-109372292D01*
X157934017Y-109356357D01*
X157939173Y-109312846D01*
X157955662Y-109277531D01*
X157989165Y-109236460D01*
X158017406Y-109206984D01*
X158052549Y-109176967D01*
X158092113Y-109152513D01*
X158140347Y-109132202D01*
X158201500Y-109114612D01*
X158279819Y-109098323D01*
X158379554Y-109081913D01*
X158504954Y-109063962D01*
X158565280Y-109054630D01*
X158655752Y-109035246D01*
X158721169Y-109013280D01*
X158760534Y-108989451D01*
X158772850Y-108964482D01*
X158757118Y-108939093D01*
X158712342Y-108914005D01*
X158708287Y-108912389D01*
X158646566Y-108896309D01*
X158563156Y-108885391D01*
X158465389Y-108879852D01*
X158360598Y-108879909D01*
X158256115Y-108885778D01*
X158159273Y-108897675D01*
X158154045Y-108898539D01*
X158089053Y-108908800D01*
X158046114Y-108913608D01*
X158018159Y-108912813D01*
X157998117Y-108906261D01*
X157978918Y-108893801D01*
X157977361Y-108892642D01*
X157944720Y-108852204D01*
X157938338Y-108804939D01*
X157959383Y-108758899D01*
X157965435Y-108752966D01*
X158004862Y-108732810D01*
X158067412Y-108715338D01*
X158147698Y-108700959D01*
X158240337Y-108690084D01*
X158339942Y-108683121D01*
X158441130Y-108680479D01*
X158538515Y-108682568D01*
G36*
X158538515Y-108682568D02*
G01*
X158626713Y-108689797D01*
X158700338Y-108702576D01*
X158768081Y-108722361D01*
X158863024Y-108766472D01*
X158931132Y-108823298D01*
X158972169Y-108892615D01*
X158985901Y-108974199D01*
X158984653Y-109015802D01*
X158976941Y-109048816D01*
X158957227Y-109077666D01*
X158919986Y-109114080D01*
X158909364Y-109123837D01*
X158877798Y-109151666D01*
X158847984Y-109174260D01*
X158815986Y-109192837D01*
X158777872Y-109208615D01*
X158729708Y-109222812D01*
X158667560Y-109236647D01*
X158587494Y-109251338D01*
X158485576Y-109268103D01*
X158357874Y-109288161D01*
X158333425Y-109292200D01*
X158250442Y-109310334D01*
X158190241Y-109331281D01*
X158155247Y-109354009D01*
X158147886Y-109377487D01*
X158151375Y-109383172D01*
X158175250Y-109403229D01*
X158212695Y-109425375D01*
X158229736Y-109433351D01*
X158258092Y-109442927D01*
X158293221Y-109449287D01*
X158340943Y-109453040D01*
X158407076Y-109454794D01*
X158497439Y-109455158D01*
X158521117Y-109455061D01*
X158611145Y-109453582D01*
X158697602Y-109450619D01*
X158771659Y-109446537D01*
X158824489Y-109441698D01*
X158871767Y-109436282D01*
X158910712Y-109435240D01*
X158935876Y-109441363D01*
X158955998Y-109455576D01*
X158960866Y-109460359D01*
X158982623Y-109502662D01*
X158980865Y-109550130D01*
X158955627Y-109590895D01*
X158928506Y-109606346D01*
X158880599Y-109623248D01*
X158824118Y-109636628D01*
X158819524Y-109637425D01*
X158762716Y-109644370D01*
X158686313Y-109650193D01*
X158599752Y-109654304D01*
X158512469Y-109656113D01*
X158490857Y-109656169D01*
X158359968Y-109652870D01*
X158253390Y-109642211D01*
X158166612Y-109622864D01*
X158095124Y-109593502D01*
X158034413Y-109552798D01*
X157979969Y-109499424D01*
X157953181Y-109464507D01*
X157937702Y-109425169D01*
X157933830Y-109372292D01*
X157934017Y-109356357D01*
X157939173Y-109312846D01*
X157955662Y-109277531D01*
X157989165Y-109236460D01*
X158017406Y-109206984D01*
X158052549Y-109176967D01*
X158092113Y-109152513D01*
X158140347Y-109132202D01*
X158201500Y-109114612D01*
X158279819Y-109098323D01*
X158379554Y-109081913D01*
X158504954Y-109063962D01*
X158565280Y-109054630D01*
X158655752Y-109035246D01*
X158721169Y-109013280D01*
X158760534Y-108989451D01*
X158772850Y-108964482D01*
X158757118Y-108939093D01*
X158712342Y-108914005D01*
X158708287Y-108912389D01*
X158646566Y-108896309D01*
X158563156Y-108885391D01*
X158465389Y-108879852D01*
X158360598Y-108879909D01*
X158256115Y-108885778D01*
X158159273Y-108897675D01*
X158154045Y-108898539D01*
X158089053Y-108908800D01*
X158046114Y-108913608D01*
X158018159Y-108912813D01*
X157998117Y-108906261D01*
X157978918Y-108893801D01*
X157977361Y-108892642D01*
X157944720Y-108852204D01*
X157938338Y-108804939D01*
X157959383Y-108758899D01*
X157965435Y-108752966D01*
X158004862Y-108732810D01*
X158067412Y-108715338D01*
X158147698Y-108700959D01*
X158240337Y-108690084D01*
X158339942Y-108683121D01*
X158441130Y-108680479D01*
X158538515Y-108682568D01*
G37*
X153373834Y-101641031D02*
X153617638Y-101663413D01*
X153844132Y-101708551D01*
X154061742Y-101778345D01*
X154278891Y-101874696D01*
X154493845Y-101997715D01*
X154724534Y-102165422D01*
X154938459Y-102359323D01*
X155130911Y-102574618D01*
X155297180Y-102806507D01*
X155432553Y-103050190D01*
X155444841Y-103076258D01*
X155547750Y-103327881D01*
X155625946Y-103589345D01*
X155680439Y-103865646D01*
X155712241Y-104161779D01*
X155722360Y-104482739D01*
X155710056Y-104814528D01*
X155671001Y-105141276D01*
X155604590Y-105447149D01*
X155510227Y-105734317D01*
X155387320Y-106004949D01*
X155235273Y-106261214D01*
X155092450Y-106457000D01*
X154895243Y-106677289D01*
X154680296Y-106865974D01*
X154447703Y-107022993D01*
X154197558Y-107148285D01*
X153929957Y-107241786D01*
X153644992Y-107303437D01*
X153641740Y-107303917D01*
X153586862Y-107308732D01*
X153504049Y-107312304D01*
X153400958Y-107314465D01*
X153285246Y-107315050D01*
X153164572Y-107313891D01*
X153079997Y-107312192D01*
X152954512Y-107308258D01*
X152853958Y-107302626D01*
X152771083Y-107294694D01*
X152698634Y-107283863D01*
X152629357Y-107269530D01*
X152551416Y-107251007D01*
X152470099Y-107229914D01*
X152396556Y-107207787D01*
X152324112Y-107182033D01*
X152246093Y-107150060D01*
X152155825Y-107109278D01*
X152046631Y-107057093D01*
X151911839Y-106990915D01*
X151539036Y-106806677D01*
X151837628Y-106316231D01*
X151876719Y-106252041D01*
X151946950Y-106136810D01*
X152009811Y-106033794D01*
X152063004Y-105946748D01*
X152104233Y-105879432D01*
X152131200Y-105835601D01*
X152141607Y-105819015D01*
X152144502Y-105819510D01*
X152167820Y-105835742D01*
X152208786Y-105869429D01*
X152260927Y-105915345D01*
X152353787Y-105994678D01*
X152519562Y-106111990D01*
X152680403Y-106193771D01*
X152796631Y-106234611D01*
X152993222Y-106276348D01*
X153186378Y-106283746D01*
X153373299Y-106257309D01*
X153551183Y-106197540D01*
X153717230Y-106104943D01*
X153868637Y-105980022D01*
X153952886Y-105888014D01*
X154071574Y-105717831D01*
X154168964Y-105520342D01*
X154245519Y-105294536D01*
X154301707Y-105039401D01*
X154304256Y-105023562D01*
X154316033Y-104920903D01*
X154324800Y-104793351D01*
X154330486Y-104649622D01*
X154333021Y-104498431D01*
X154332333Y-104348493D01*
X154328352Y-104208524D01*
X154321006Y-104087241D01*
X154310225Y-103993357D01*
X154268900Y-103780692D01*
X154199365Y-103532270D01*
X154111915Y-103314781D01*
X154006665Y-103128393D01*
X153883732Y-102973273D01*
X153743235Y-102849590D01*
X153585288Y-102757512D01*
X153410010Y-102697209D01*
X153371121Y-102689724D01*
X153273666Y-102679951D01*
X153159773Y-102676761D01*
X153042204Y-102679979D01*
X152933717Y-102689429D01*
X152847072Y-102704936D01*
X152702732Y-102754313D01*
X152535228Y-102844456D01*
X152386080Y-102963084D01*
X152359756Y-102988073D01*
X152312057Y-103032285D01*
X152278345Y-103062042D01*
X152264649Y-103071941D01*
X152261277Y-103067207D01*
X152240523Y-103037313D01*
X152203028Y-102983033D01*
X152151270Y-102907962D01*
X152087728Y-102815694D01*
X152014877Y-102709823D01*
X151935197Y-102593944D01*
X151609286Y-102119817D01*
X151682092Y-102098004D01*
X151689690Y-102095532D01*
X151739145Y-102075898D01*
X151810447Y-102044239D01*
X151895228Y-102004362D01*
X151985120Y-101960076D01*
X152024292Y-101940496D01*
X152241804Y-101839409D01*
X152442283Y-101761238D01*
X152633438Y-101703985D01*
X152822981Y-101665649D01*
X153018622Y-101644231D01*
X153228072Y-101637731D01*
X153373834Y-101641031D01*
G36*
X153373834Y-101641031D02*
G01*
X153617638Y-101663413D01*
X153844132Y-101708551D01*
X154061742Y-101778345D01*
X154278891Y-101874696D01*
X154493845Y-101997715D01*
X154724534Y-102165422D01*
X154938459Y-102359323D01*
X155130911Y-102574618D01*
X155297180Y-102806507D01*
X155432553Y-103050190D01*
X155444841Y-103076258D01*
X155547750Y-103327881D01*
X155625946Y-103589345D01*
X155680439Y-103865646D01*
X155712241Y-104161779D01*
X155722360Y-104482739D01*
X155710056Y-104814528D01*
X155671001Y-105141276D01*
X155604590Y-105447149D01*
X155510227Y-105734317D01*
X155387320Y-106004949D01*
X155235273Y-106261214D01*
X155092450Y-106457000D01*
X154895243Y-106677289D01*
X154680296Y-106865974D01*
X154447703Y-107022993D01*
X154197558Y-107148285D01*
X153929957Y-107241786D01*
X153644992Y-107303437D01*
X153641740Y-107303917D01*
X153586862Y-107308732D01*
X153504049Y-107312304D01*
X153400958Y-107314465D01*
X153285246Y-107315050D01*
X153164572Y-107313891D01*
X153079997Y-107312192D01*
X152954512Y-107308258D01*
X152853958Y-107302626D01*
X152771083Y-107294694D01*
X152698634Y-107283863D01*
X152629357Y-107269530D01*
X152551416Y-107251007D01*
X152470099Y-107229914D01*
X152396556Y-107207787D01*
X152324112Y-107182033D01*
X152246093Y-107150060D01*
X152155825Y-107109278D01*
X152046631Y-107057093D01*
X151911839Y-106990915D01*
X151539036Y-106806677D01*
X151837628Y-106316231D01*
X151876719Y-106252041D01*
X151946950Y-106136810D01*
X152009811Y-106033794D01*
X152063004Y-105946748D01*
X152104233Y-105879432D01*
X152131200Y-105835601D01*
X152141607Y-105819015D01*
X152144502Y-105819510D01*
X152167820Y-105835742D01*
X152208786Y-105869429D01*
X152260927Y-105915345D01*
X152353787Y-105994678D01*
X152519562Y-106111990D01*
X152680403Y-106193771D01*
X152796631Y-106234611D01*
X152993222Y-106276348D01*
X153186378Y-106283746D01*
X153373299Y-106257309D01*
X153551183Y-106197540D01*
X153717230Y-106104943D01*
X153868637Y-105980022D01*
X153952886Y-105888014D01*
X154071574Y-105717831D01*
X154168964Y-105520342D01*
X154245519Y-105294536D01*
X154301707Y-105039401D01*
X154304256Y-105023562D01*
X154316033Y-104920903D01*
X154324800Y-104793351D01*
X154330486Y-104649622D01*
X154333021Y-104498431D01*
X154332333Y-104348493D01*
X154328352Y-104208524D01*
X154321006Y-104087241D01*
X154310225Y-103993357D01*
X154268900Y-103780692D01*
X154199365Y-103532270D01*
X154111915Y-103314781D01*
X154006665Y-103128393D01*
X153883732Y-102973273D01*
X153743235Y-102849590D01*
X153585288Y-102757512D01*
X153410010Y-102697209D01*
X153371121Y-102689724D01*
X153273666Y-102679951D01*
X153159773Y-102676761D01*
X153042204Y-102679979D01*
X152933717Y-102689429D01*
X152847072Y-102704936D01*
X152702732Y-102754313D01*
X152535228Y-102844456D01*
X152386080Y-102963084D01*
X152359756Y-102988073D01*
X152312057Y-103032285D01*
X152278345Y-103062042D01*
X152264649Y-103071941D01*
X152261277Y-103067207D01*
X152240523Y-103037313D01*
X152203028Y-102983033D01*
X152151270Y-102907962D01*
X152087728Y-102815694D01*
X152014877Y-102709823D01*
X151935197Y-102593944D01*
X151609286Y-102119817D01*
X151682092Y-102098004D01*
X151689690Y-102095532D01*
X151739145Y-102075898D01*
X151810447Y-102044239D01*
X151895228Y-102004362D01*
X151985120Y-101960076D01*
X152024292Y-101940496D01*
X152241804Y-101839409D01*
X152442283Y-101761238D01*
X152633438Y-101703985D01*
X152822981Y-101665649D01*
X153018622Y-101644231D01*
X153228072Y-101637731D01*
X153373834Y-101641031D01*
G37*
X147447105Y-105421537D02*
X147443255Y-105589433D01*
X147432247Y-105737502D01*
X147413229Y-105873798D01*
X147385349Y-106006375D01*
X147347754Y-106143286D01*
X147290743Y-106306936D01*
X147186036Y-106527857D01*
X147057598Y-106725734D01*
X146907393Y-106898697D01*
X146737387Y-107044876D01*
X146549545Y-107162401D01*
X146345832Y-107249402D01*
X146128212Y-107304009D01*
X146125593Y-107304447D01*
X145966553Y-107319750D01*
X145791809Y-107317707D01*
X145613820Y-107299579D01*
X145445046Y-107266624D01*
X145297948Y-107220101D01*
X145235161Y-107191791D01*
X145153387Y-107148761D01*
X145069359Y-107099546D01*
X144991845Y-107049563D01*
X144929612Y-107004229D01*
X144891429Y-106968960D01*
X144882663Y-106959277D01*
X144872214Y-106955892D01*
X144865229Y-106972696D01*
X144860082Y-107015045D01*
X144855143Y-107088295D01*
X144846072Y-107240929D01*
X143456360Y-107250433D01*
X143504439Y-107168393D01*
X143507305Y-107163543D01*
X143521285Y-107140772D01*
X143533969Y-107120487D01*
X143545423Y-107100925D01*
X143555715Y-107080324D01*
X143564915Y-107056920D01*
X143573090Y-107028953D01*
X143580309Y-106994660D01*
X143586640Y-106952278D01*
X143592151Y-106900046D01*
X143596910Y-106836200D01*
X143600985Y-106758979D01*
X143604446Y-106666620D01*
X143607359Y-106557361D01*
X143609794Y-106429440D01*
X143611818Y-106281094D01*
X143613452Y-106115556D01*
X144936786Y-106115556D01*
X145027500Y-106175057D01*
X145062386Y-106196491D01*
X145142265Y-106239311D01*
X145218000Y-106273410D01*
X145251168Y-106284955D01*
X145356705Y-106308004D01*
X145490143Y-106319773D01*
X145557996Y-106322222D01*
X145620980Y-106321666D01*
X145667866Y-106315375D01*
X145709920Y-106301626D01*
X145758409Y-106278692D01*
X145851595Y-106217259D01*
X145932324Y-106130358D01*
X145996945Y-106018369D01*
X146046073Y-105879539D01*
X146080321Y-105712111D01*
X146100306Y-105514329D01*
X146106641Y-105284440D01*
X146106333Y-105232175D01*
X146097225Y-104990015D01*
X146075109Y-104779302D01*
X146039447Y-104597814D01*
X145989701Y-104443327D01*
X145925333Y-104313619D01*
X145845805Y-104206466D01*
X145812812Y-104173763D01*
X145710560Y-104105632D01*
X145590526Y-104064173D01*
X145457910Y-104049622D01*
X145317913Y-104062214D01*
X145175733Y-104102185D01*
X145036572Y-104169771D01*
X144936786Y-104229584D01*
X144936786Y-106115556D01*
X143613452Y-106115556D01*
X143613501Y-106110562D01*
X143614909Y-105916081D01*
X143616112Y-105695888D01*
X143617177Y-105448221D01*
X143618173Y-105171318D01*
X143619168Y-104863417D01*
X143620231Y-104522756D01*
X143621429Y-104147572D01*
X143630500Y-101380786D01*
X144351679Y-101376042D01*
X144404124Y-101375723D01*
X144558429Y-101375089D01*
X144699564Y-101374961D01*
X144823677Y-101375311D01*
X144926915Y-101376112D01*
X145005426Y-101377340D01*
X145055357Y-101378967D01*
X145072857Y-101380967D01*
X145070618Y-101387305D01*
X145053917Y-101417356D01*
X145026255Y-101461057D01*
X145023495Y-101465235D01*
X145002048Y-101498977D01*
X144984065Y-101531806D01*
X144969242Y-101567105D01*
X144957274Y-101608255D01*
X144947856Y-101658638D01*
X144940683Y-101721634D01*
X144935450Y-101800627D01*
X144931852Y-101898997D01*
X144929584Y-102020126D01*
X144928342Y-102167396D01*
X144927821Y-102344188D01*
X144927714Y-102553884D01*
X144927905Y-102717603D01*
X144928487Y-102878339D01*
X144929419Y-103024083D01*
X144930659Y-103151286D01*
X144932164Y-103256400D01*
X144933893Y-103335875D01*
X144935802Y-103386163D01*
X144937850Y-103403714D01*
X144944455Y-103400990D01*
X144973490Y-103381807D01*
X145014957Y-103350303D01*
X145075072Y-103307936D01*
X145188021Y-103245511D01*
X145317116Y-103189828D01*
X145450309Y-103146525D01*
X145562215Y-103124444D01*
X145701587Y-103110368D01*
X145852426Y-103105492D01*
X146003093Y-103109820D01*
X146141946Y-103123359D01*
X146257345Y-103146115D01*
X146374847Y-103184447D01*
X146570869Y-103277371D01*
X146752371Y-103400908D01*
X146916004Y-103552212D01*
X147058419Y-103728440D01*
X147176270Y-103926746D01*
X147205528Y-103987556D01*
X147287518Y-104192670D01*
X147351619Y-104415285D01*
X147398642Y-104659325D01*
X147429395Y-104928713D01*
X147444690Y-105227374D01*
X147445400Y-105284440D01*
X147447105Y-105421537D01*
G36*
X147447105Y-105421537D02*
G01*
X147443255Y-105589433D01*
X147432247Y-105737502D01*
X147413229Y-105873798D01*
X147385349Y-106006375D01*
X147347754Y-106143286D01*
X147290743Y-106306936D01*
X147186036Y-106527857D01*
X147057598Y-106725734D01*
X146907393Y-106898697D01*
X146737387Y-107044876D01*
X146549545Y-107162401D01*
X146345832Y-107249402D01*
X146128212Y-107304009D01*
X146125593Y-107304447D01*
X145966553Y-107319750D01*
X145791809Y-107317707D01*
X145613820Y-107299579D01*
X145445046Y-107266624D01*
X145297948Y-107220101D01*
X145235161Y-107191791D01*
X145153387Y-107148761D01*
X145069359Y-107099546D01*
X144991845Y-107049563D01*
X144929612Y-107004229D01*
X144891429Y-106968960D01*
X144882663Y-106959277D01*
X144872214Y-106955892D01*
X144865229Y-106972696D01*
X144860082Y-107015045D01*
X144855143Y-107088295D01*
X144846072Y-107240929D01*
X143456360Y-107250433D01*
X143504439Y-107168393D01*
X143507305Y-107163543D01*
X143521285Y-107140772D01*
X143533969Y-107120487D01*
X143545423Y-107100925D01*
X143555715Y-107080324D01*
X143564915Y-107056920D01*
X143573090Y-107028953D01*
X143580309Y-106994660D01*
X143586640Y-106952278D01*
X143592151Y-106900046D01*
X143596910Y-106836200D01*
X143600985Y-106758979D01*
X143604446Y-106666620D01*
X143607359Y-106557361D01*
X143609794Y-106429440D01*
X143611818Y-106281094D01*
X143613452Y-106115556D01*
X144936786Y-106115556D01*
X145027500Y-106175057D01*
X145062386Y-106196491D01*
X145142265Y-106239311D01*
X145218000Y-106273410D01*
X145251168Y-106284955D01*
X145356705Y-106308004D01*
X145490143Y-106319773D01*
X145557996Y-106322222D01*
X145620980Y-106321666D01*
X145667866Y-106315375D01*
X145709920Y-106301626D01*
X145758409Y-106278692D01*
X145851595Y-106217259D01*
X145932324Y-106130358D01*
X145996945Y-106018369D01*
X146046073Y-105879539D01*
X146080321Y-105712111D01*
X146100306Y-105514329D01*
X146106641Y-105284440D01*
X146106333Y-105232175D01*
X146097225Y-104990015D01*
X146075109Y-104779302D01*
X146039447Y-104597814D01*
X145989701Y-104443327D01*
X145925333Y-104313619D01*
X145845805Y-104206466D01*
X145812812Y-104173763D01*
X145710560Y-104105632D01*
X145590526Y-104064173D01*
X145457910Y-104049622D01*
X145317913Y-104062214D01*
X145175733Y-104102185D01*
X145036572Y-104169771D01*
X144936786Y-104229584D01*
X144936786Y-106115556D01*
X143613452Y-106115556D01*
X143613501Y-106110562D01*
X143614909Y-105916081D01*
X143616112Y-105695888D01*
X143617177Y-105448221D01*
X143618173Y-105171318D01*
X143619168Y-104863417D01*
X143620231Y-104522756D01*
X143621429Y-104147572D01*
X143630500Y-101380786D01*
X144351679Y-101376042D01*
X144404124Y-101375723D01*
X144558429Y-101375089D01*
X144699564Y-101374961D01*
X144823677Y-101375311D01*
X144926915Y-101376112D01*
X145005426Y-101377340D01*
X145055357Y-101378967D01*
X145072857Y-101380967D01*
X145070618Y-101387305D01*
X145053917Y-101417356D01*
X145026255Y-101461057D01*
X145023495Y-101465235D01*
X145002048Y-101498977D01*
X144984065Y-101531806D01*
X144969242Y-101567105D01*
X144957274Y-101608255D01*
X144947856Y-101658638D01*
X144940683Y-101721634D01*
X144935450Y-101800627D01*
X144931852Y-101898997D01*
X144929584Y-102020126D01*
X144928342Y-102167396D01*
X144927821Y-102344188D01*
X144927714Y-102553884D01*
X144927905Y-102717603D01*
X144928487Y-102878339D01*
X144929419Y-103024083D01*
X144930659Y-103151286D01*
X144932164Y-103256400D01*
X144933893Y-103335875D01*
X144935802Y-103386163D01*
X144937850Y-103403714D01*
X144944455Y-103400990D01*
X144973490Y-103381807D01*
X145014957Y-103350303D01*
X145075072Y-103307936D01*
X145188021Y-103245511D01*
X145317116Y-103189828D01*
X145450309Y-103146525D01*
X145562215Y-103124444D01*
X145701587Y-103110368D01*
X145852426Y-103105492D01*
X146003093Y-103109820D01*
X146141946Y-103123359D01*
X146257345Y-103146115D01*
X146374847Y-103184447D01*
X146570869Y-103277371D01*
X146752371Y-103400908D01*
X146916004Y-103552212D01*
X147058419Y-103728440D01*
X147176270Y-103926746D01*
X147205528Y-103987556D01*
X147287518Y-104192670D01*
X147351619Y-104415285D01*
X147398642Y-104659325D01*
X147429395Y-104928713D01*
X147444690Y-105227374D01*
X147445400Y-105284440D01*
X147447105Y-105421537D01*
G37*
X151547990Y-105992437D02*
X151539842Y-106138722D01*
X151522232Y-106274833D01*
X151495659Y-106388214D01*
X151453259Y-106504867D01*
X151354976Y-106697110D01*
X151229350Y-106866247D01*
X151077681Y-107011126D01*
X150901271Y-107130594D01*
X150701420Y-107223499D01*
X150479429Y-107288689D01*
X150388907Y-107303392D01*
X150259552Y-107313611D01*
X150118675Y-107315909D01*
X149978050Y-107310472D01*
X149849449Y-107297485D01*
X149744643Y-107277133D01*
X149691979Y-107261109D01*
X149572369Y-107214219D01*
X149450783Y-107154688D01*
X149339765Y-107088971D01*
X149251859Y-107023524D01*
X149250778Y-107022579D01*
X149202607Y-106981736D01*
X149165545Y-106952653D01*
X149147537Y-106941572D01*
X149145568Y-106944217D01*
X149141113Y-106972794D01*
X149138018Y-107026094D01*
X149136857Y-107095786D01*
X149136857Y-107250000D01*
X148456500Y-107250000D01*
X148438389Y-107249997D01*
X148286490Y-107249731D01*
X148147078Y-107249070D01*
X148024118Y-107248062D01*
X147921579Y-107246758D01*
X147843426Y-107245205D01*
X147793625Y-107243454D01*
X147776143Y-107241553D01*
X147776550Y-107239893D01*
X147787988Y-107215377D01*
X147811962Y-107169317D01*
X147844179Y-107110018D01*
X147912215Y-106986929D01*
X147922190Y-105771689D01*
X149209429Y-105771689D01*
X149209935Y-105867703D01*
X149212387Y-105968587D01*
X149217190Y-106041507D01*
X149224695Y-106091212D01*
X149235250Y-106122449D01*
X149248828Y-106144755D01*
X149299962Y-106205561D01*
X149368475Y-106268863D01*
X149443568Y-106325265D01*
X149514440Y-106365370D01*
X149553761Y-106380085D01*
X149644302Y-106399677D01*
X149762555Y-106409694D01*
X149887232Y-106408177D01*
X150005627Y-106387574D01*
X150104449Y-106345011D01*
X150189948Y-106278571D01*
X150214000Y-106253995D01*
X150276622Y-106170185D01*
X150310504Y-106079850D01*
X150320679Y-105971151D01*
X150317922Y-105913725D01*
X150290661Y-105795507D01*
X150233390Y-105694039D01*
X150145068Y-105608179D01*
X150024651Y-105536784D01*
X149871097Y-105478714D01*
X149809193Y-105463475D01*
X149734251Y-105453041D01*
X149639937Y-105447246D01*
X149517857Y-105445298D01*
X149498026Y-105445299D01*
X149406696Y-105446414D01*
X149328244Y-105449108D01*
X149270471Y-105453029D01*
X149241179Y-105457824D01*
X149237808Y-105459380D01*
X149226910Y-105469154D01*
X149219192Y-105488794D01*
X149214119Y-105523585D01*
X149211157Y-105578809D01*
X149209772Y-105659750D01*
X149209429Y-105771689D01*
X147922190Y-105771689D01*
X147922714Y-105707857D01*
X147924275Y-105521561D01*
X147926458Y-105283965D01*
X147928750Y-105077698D01*
X147931335Y-104899842D01*
X147934400Y-104747481D01*
X147938128Y-104617696D01*
X147942705Y-104507572D01*
X147948316Y-104414190D01*
X147955147Y-104334635D01*
X147963383Y-104265988D01*
X147973208Y-104205333D01*
X147984808Y-104149752D01*
X147998368Y-104096329D01*
X148014073Y-104042146D01*
X148032109Y-103984286D01*
X148103161Y-103802898D01*
X148200464Y-103635258D01*
X148321641Y-103491732D01*
X148467803Y-103371570D01*
X148640057Y-103274020D01*
X148839515Y-103198331D01*
X149067285Y-103143753D01*
X149324477Y-103109535D01*
X149414368Y-103102730D01*
X149565760Y-103097755D01*
X149715814Y-103102235D01*
X149871554Y-103116927D01*
X150040005Y-103142584D01*
X150228193Y-103179962D01*
X150443143Y-103229818D01*
X150492828Y-103241881D01*
X150617601Y-103271565D01*
X150735861Y-103298898D01*
X150840436Y-103322263D01*
X150924154Y-103340047D01*
X150979845Y-103350636D01*
X151108333Y-103371740D01*
X150927695Y-103809549D01*
X150882512Y-103918859D01*
X150838061Y-104025969D01*
X150799923Y-104117418D01*
X150769969Y-104188733D01*
X150750071Y-104235437D01*
X150742103Y-104253058D01*
X150740850Y-104253310D01*
X150717758Y-104245443D01*
X150672353Y-104225283D01*
X150612824Y-104196417D01*
X150489096Y-104140203D01*
X150318837Y-104078740D01*
X150144578Y-104031670D01*
X149973133Y-104000177D01*
X149811317Y-103985443D01*
X149665944Y-103988650D01*
X149543829Y-104010979D01*
X149458601Y-104046409D01*
X149361809Y-104119017D01*
X149287297Y-104217518D01*
X149237199Y-104338883D01*
X149213649Y-104480080D01*
X149205355Y-104610215D01*
X149638285Y-104611400D01*
X149784285Y-104612624D01*
X149945771Y-104616972D01*
X150083725Y-104625178D01*
X150205281Y-104638039D01*
X150317577Y-104656354D01*
X150427747Y-104680919D01*
X150542929Y-104712533D01*
X150715268Y-104772709D01*
X150917975Y-104871806D01*
X151095876Y-104993190D01*
X151247217Y-105135155D01*
X151370243Y-105295993D01*
X151463199Y-105473997D01*
X151524330Y-105667460D01*
X151533904Y-105719565D01*
X151546177Y-105848533D01*
X151547722Y-105971151D01*
X151547990Y-105992437D01*
G36*
X151547990Y-105992437D02*
G01*
X151539842Y-106138722D01*
X151522232Y-106274833D01*
X151495659Y-106388214D01*
X151453259Y-106504867D01*
X151354976Y-106697110D01*
X151229350Y-106866247D01*
X151077681Y-107011126D01*
X150901271Y-107130594D01*
X150701420Y-107223499D01*
X150479429Y-107288689D01*
X150388907Y-107303392D01*
X150259552Y-107313611D01*
X150118675Y-107315909D01*
X149978050Y-107310472D01*
X149849449Y-107297485D01*
X149744643Y-107277133D01*
X149691979Y-107261109D01*
X149572369Y-107214219D01*
X149450783Y-107154688D01*
X149339765Y-107088971D01*
X149251859Y-107023524D01*
X149250778Y-107022579D01*
X149202607Y-106981736D01*
X149165545Y-106952653D01*
X149147537Y-106941572D01*
X149145568Y-106944217D01*
X149141113Y-106972794D01*
X149138018Y-107026094D01*
X149136857Y-107095786D01*
X149136857Y-107250000D01*
X148456500Y-107250000D01*
X148438389Y-107249997D01*
X148286490Y-107249731D01*
X148147078Y-107249070D01*
X148024118Y-107248062D01*
X147921579Y-107246758D01*
X147843426Y-107245205D01*
X147793625Y-107243454D01*
X147776143Y-107241553D01*
X147776550Y-107239893D01*
X147787988Y-107215377D01*
X147811962Y-107169317D01*
X147844179Y-107110018D01*
X147912215Y-106986929D01*
X147922190Y-105771689D01*
X149209429Y-105771689D01*
X149209935Y-105867703D01*
X149212387Y-105968587D01*
X149217190Y-106041507D01*
X149224695Y-106091212D01*
X149235250Y-106122449D01*
X149248828Y-106144755D01*
X149299962Y-106205561D01*
X149368475Y-106268863D01*
X149443568Y-106325265D01*
X149514440Y-106365370D01*
X149553761Y-106380085D01*
X149644302Y-106399677D01*
X149762555Y-106409694D01*
X149887232Y-106408177D01*
X150005627Y-106387574D01*
X150104449Y-106345011D01*
X150189948Y-106278571D01*
X150214000Y-106253995D01*
X150276622Y-106170185D01*
X150310504Y-106079850D01*
X150320679Y-105971151D01*
X150317922Y-105913725D01*
X150290661Y-105795507D01*
X150233390Y-105694039D01*
X150145068Y-105608179D01*
X150024651Y-105536784D01*
X149871097Y-105478714D01*
X149809193Y-105463475D01*
X149734251Y-105453041D01*
X149639937Y-105447246D01*
X149517857Y-105445298D01*
X149498026Y-105445299D01*
X149406696Y-105446414D01*
X149328244Y-105449108D01*
X149270471Y-105453029D01*
X149241179Y-105457824D01*
X149237808Y-105459380D01*
X149226910Y-105469154D01*
X149219192Y-105488794D01*
X149214119Y-105523585D01*
X149211157Y-105578809D01*
X149209772Y-105659750D01*
X149209429Y-105771689D01*
X147922190Y-105771689D01*
X147922714Y-105707857D01*
X147924275Y-105521561D01*
X147926458Y-105283965D01*
X147928750Y-105077698D01*
X147931335Y-104899842D01*
X147934400Y-104747481D01*
X147938128Y-104617696D01*
X147942705Y-104507572D01*
X147948316Y-104414190D01*
X147955147Y-104334635D01*
X147963383Y-104265988D01*
X147973208Y-104205333D01*
X147984808Y-104149752D01*
X147998368Y-104096329D01*
X148014073Y-104042146D01*
X148032109Y-103984286D01*
X148103161Y-103802898D01*
X148200464Y-103635258D01*
X148321641Y-103491732D01*
X148467803Y-103371570D01*
X148640057Y-103274020D01*
X148839515Y-103198331D01*
X149067285Y-103143753D01*
X149324477Y-103109535D01*
X149414368Y-103102730D01*
X149565760Y-103097755D01*
X149715814Y-103102235D01*
X149871554Y-103116927D01*
X150040005Y-103142584D01*
X150228193Y-103179962D01*
X150443143Y-103229818D01*
X150492828Y-103241881D01*
X150617601Y-103271565D01*
X150735861Y-103298898D01*
X150840436Y-103322263D01*
X150924154Y-103340047D01*
X150979845Y-103350636D01*
X151108333Y-103371740D01*
X150927695Y-103809549D01*
X150882512Y-103918859D01*
X150838061Y-104025969D01*
X150799923Y-104117418D01*
X150769969Y-104188733D01*
X150750071Y-104235437D01*
X150742103Y-104253058D01*
X150740850Y-104253310D01*
X150717758Y-104245443D01*
X150672353Y-104225283D01*
X150612824Y-104196417D01*
X150489096Y-104140203D01*
X150318837Y-104078740D01*
X150144578Y-104031670D01*
X149973133Y-104000177D01*
X149811317Y-103985443D01*
X149665944Y-103988650D01*
X149543829Y-104010979D01*
X149458601Y-104046409D01*
X149361809Y-104119017D01*
X149287297Y-104217518D01*
X149237199Y-104338883D01*
X149213649Y-104480080D01*
X149205355Y-104610215D01*
X149638285Y-104611400D01*
X149784285Y-104612624D01*
X149945771Y-104616972D01*
X150083725Y-104625178D01*
X150205281Y-104638039D01*
X150317577Y-104656354D01*
X150427747Y-104680919D01*
X150542929Y-104712533D01*
X150715268Y-104772709D01*
X150917975Y-104871806D01*
X151095876Y-104993190D01*
X151247217Y-105135155D01*
X151370243Y-105295993D01*
X151463199Y-105473997D01*
X151524330Y-105667460D01*
X151533904Y-105719565D01*
X151546177Y-105848533D01*
X151547722Y-105971151D01*
X151547990Y-105992437D01*
G37*
X163719428Y-107285860D02*
X163717560Y-107426553D01*
X163715241Y-107547746D01*
X163712425Y-107650940D01*
X163709064Y-107737635D01*
X163705110Y-107809332D01*
X163700517Y-107867530D01*
X163695238Y-107913730D01*
X163689225Y-107949433D01*
X163682430Y-107976137D01*
X163674808Y-107995345D01*
X163666309Y-108008555D01*
X163656889Y-108017268D01*
X163646498Y-108022985D01*
X163635090Y-108027206D01*
X163622618Y-108031430D01*
X163609034Y-108037159D01*
X163601391Y-108040030D01*
X163587371Y-108043165D01*
X163566538Y-108046037D01*
X163537421Y-108048659D01*
X163498544Y-108051040D01*
X163448434Y-108053194D01*
X163385617Y-108055130D01*
X163308620Y-108056862D01*
X163215969Y-108058400D01*
X163106190Y-108059756D01*
X162977810Y-108060941D01*
X162829354Y-108061968D01*
X162659350Y-108062846D01*
X162466323Y-108063589D01*
X162248800Y-108064207D01*
X162005308Y-108064713D01*
X161734371Y-108065116D01*
X161434517Y-108065430D01*
X161104273Y-108065665D01*
X160742164Y-108065834D01*
X160346716Y-108065947D01*
X159916456Y-108066016D01*
X159780108Y-108066029D01*
X159359186Y-108066038D01*
X158972647Y-108065985D01*
X158619034Y-108065860D01*
X158296890Y-108065652D01*
X158004761Y-108065351D01*
X157741188Y-108064946D01*
X157504716Y-108064426D01*
X157293890Y-108063782D01*
X157107251Y-108063002D01*
X156943345Y-108062076D01*
X156800715Y-108060993D01*
X156677905Y-108059743D01*
X156573458Y-108058315D01*
X156485919Y-108056698D01*
X156413830Y-108054883D01*
X156355736Y-108052858D01*
X156310180Y-108050613D01*
X156275707Y-108048137D01*
X156250859Y-108045420D01*
X156234181Y-108042451D01*
X156224217Y-108039220D01*
X156221046Y-108037782D01*
X156208067Y-108033058D01*
X156196165Y-108029608D01*
X156185292Y-108025930D01*
X156175398Y-108020521D01*
X156166437Y-108011879D01*
X156158359Y-107998502D01*
X156151116Y-107978886D01*
X156144661Y-107951531D01*
X156138945Y-107914933D01*
X156133919Y-107867590D01*
X156129536Y-107808000D01*
X156125747Y-107734659D01*
X156122504Y-107646067D01*
X156119759Y-107540720D01*
X156117463Y-107417117D01*
X156115568Y-107273754D01*
X156114946Y-107207367D01*
X156593373Y-107207367D01*
X156593898Y-107213725D01*
X156603521Y-107218877D01*
X156625264Y-107222950D01*
X156662148Y-107226070D01*
X156717193Y-107228365D01*
X156793419Y-107229959D01*
X156893848Y-107230979D01*
X157021501Y-107231551D01*
X157179398Y-107231802D01*
X157370559Y-107231857D01*
X158171314Y-107231857D01*
X158103621Y-107109393D01*
X158035929Y-106986929D01*
X158035929Y-103430929D01*
X158103621Y-103308465D01*
X158171314Y-103186000D01*
X156739993Y-103186000D01*
X156734818Y-105068322D01*
X156729643Y-106950643D01*
X156678903Y-107059008D01*
X156652151Y-107112719D01*
X156621860Y-107166524D01*
X156598984Y-107199615D01*
X156598926Y-107199679D01*
X156593373Y-107207367D01*
X156114946Y-107207367D01*
X156114026Y-107109129D01*
X156112789Y-106921740D01*
X156111808Y-106710085D01*
X156111035Y-106472661D01*
X156110422Y-106207966D01*
X156109921Y-105914498D01*
X156109484Y-105590753D01*
X156109061Y-105235230D01*
X156108605Y-104846426D01*
X156108068Y-104422840D01*
X156107999Y-104371560D01*
X156107400Y-103950657D01*
X156106827Y-103564362D01*
X156106323Y-103211172D01*
X156105930Y-102889584D01*
X156105690Y-102598094D01*
X156105646Y-102335200D01*
X156105840Y-102099398D01*
X156106314Y-101889186D01*
X156107112Y-101703060D01*
X156108274Y-101539517D01*
X156109844Y-101397055D01*
X156111864Y-101274170D01*
X156114377Y-101169359D01*
X156117424Y-101081119D01*
X156121049Y-101007947D01*
X156125293Y-100948340D01*
X156130198Y-100900795D01*
X156135808Y-100863808D01*
X156142165Y-100835878D01*
X156149311Y-100815500D01*
X156157288Y-100801171D01*
X156166139Y-100791390D01*
X156175906Y-100784651D01*
X156186632Y-100779454D01*
X156198358Y-100774293D01*
X156211128Y-100767667D01*
X156214865Y-100765556D01*
X156271405Y-100745118D01*
X156333300Y-100736717D01*
X156403072Y-100736720D01*
X156404234Y-100895467D01*
X156404529Y-100913735D01*
X156426706Y-101099427D01*
X156483188Y-101274147D01*
X156573192Y-101436043D01*
X156695932Y-101583265D01*
X156761798Y-101643311D01*
X156908454Y-101742838D01*
X157068470Y-101812242D01*
X157237185Y-101851487D01*
X157409939Y-101860537D01*
X157582072Y-101839353D01*
X157748922Y-101787899D01*
X157886080Y-101716429D01*
X158493127Y-101716429D01*
X158572957Y-101773862D01*
X158640470Y-101827841D01*
X158735603Y-101915886D01*
X158843507Y-102026230D01*
X158960097Y-102154670D01*
X159081285Y-102297000D01*
X159112494Y-102335062D01*
X159165629Y-102400343D01*
X159235083Y-102485988D01*
X159318556Y-102589140D01*
X159413746Y-102706939D01*
X159518354Y-102836528D01*
X159630077Y-102975047D01*
X159746615Y-103119639D01*
X159800067Y-103186000D01*
X159865667Y-103267444D01*
X159984932Y-103415603D01*
X160102109Y-103561260D01*
X160214896Y-103701554D01*
X160320994Y-103833627D01*
X160418101Y-103954621D01*
X160503916Y-104061678D01*
X160576138Y-104151938D01*
X160632466Y-104222543D01*
X160670599Y-104270635D01*
X160688237Y-104293355D01*
X160689692Y-104301893D01*
X160684850Y-104318132D01*
X160672302Y-104343679D01*
X160650797Y-104380347D01*
X160619080Y-104429949D01*
X160575900Y-104494295D01*
X160520005Y-104575198D01*
X160450141Y-104674471D01*
X160365057Y-104793926D01*
X160263499Y-104935374D01*
X160144216Y-105100629D01*
X160005954Y-105291501D01*
X159847462Y-105509804D01*
X159721177Y-105683571D01*
X159567105Y-105895407D01*
X159431580Y-106081440D01*
X159313024Y-106243734D01*
X159209861Y-106384354D01*
X159120515Y-106505365D01*
X159043411Y-106608832D01*
X158976972Y-106696818D01*
X158919623Y-106771390D01*
X158869786Y-106834610D01*
X158825886Y-106888545D01*
X158786347Y-106935258D01*
X158749593Y-106976814D01*
X158714047Y-107015279D01*
X158678135Y-107052715D01*
X158640278Y-107091189D01*
X158500771Y-107231857D01*
X160376357Y-107231933D01*
X160370464Y-107118275D01*
X160370179Y-107112564D01*
X160369060Y-107067127D01*
X160371181Y-107023593D01*
X160377958Y-106979576D01*
X160390812Y-106932693D01*
X160411160Y-106880558D01*
X160440420Y-106820786D01*
X160480012Y-106750994D01*
X160531353Y-106668797D01*
X160595862Y-106571809D01*
X160674957Y-106457647D01*
X160770057Y-106323925D01*
X160882581Y-106168260D01*
X161013946Y-105988265D01*
X161165572Y-105781557D01*
X161700786Y-105052911D01*
X161705501Y-105897755D01*
X161705919Y-105976562D01*
X161706656Y-106188832D01*
X161706321Y-106369381D01*
X161704519Y-106521628D01*
X161700856Y-106648988D01*
X161694936Y-106754878D01*
X161686367Y-106842715D01*
X161674751Y-106915916D01*
X161659697Y-106977898D01*
X161640807Y-107032076D01*
X161617689Y-107081869D01*
X161589947Y-107130693D01*
X161557187Y-107181964D01*
X161524256Y-107231857D01*
X163235704Y-107231857D01*
X163191496Y-107172893D01*
X163184572Y-107163565D01*
X163129221Y-107078070D01*
X163091064Y-106991644D01*
X163066008Y-106892613D01*
X163049959Y-106769304D01*
X163049518Y-106763929D01*
X163047189Y-106713067D01*
X163045087Y-106628206D01*
X163043219Y-106511286D01*
X163041596Y-106364246D01*
X163040227Y-106189026D01*
X163039120Y-105987563D01*
X163038285Y-105761798D01*
X163037732Y-105513669D01*
X163037468Y-105245115D01*
X163037503Y-104958077D01*
X163037847Y-104654492D01*
X163038508Y-104336300D01*
X163039209Y-104050881D01*
X163039958Y-103740196D01*
X163040696Y-103462226D01*
X163041515Y-103215022D01*
X163042507Y-102996637D01*
X163043766Y-102805125D01*
X163045383Y-102638537D01*
X163047452Y-102494925D01*
X163050065Y-102372344D01*
X163053315Y-102268844D01*
X163057293Y-102182479D01*
X163062094Y-102111301D01*
X163067809Y-102053363D01*
X163074532Y-102006717D01*
X163082354Y-101969416D01*
X163091368Y-101939512D01*
X163101667Y-101915058D01*
X163113344Y-101894106D01*
X163126492Y-101874709D01*
X163141202Y-101854920D01*
X163157567Y-101832791D01*
X163173396Y-101810615D01*
X163203991Y-101766769D01*
X163222317Y-101739107D01*
X163222759Y-101737949D01*
X163216360Y-101732718D01*
X163193779Y-101728353D01*
X163152502Y-101724788D01*
X163090017Y-101721954D01*
X163003812Y-101719787D01*
X162891373Y-101718217D01*
X162750188Y-101717179D01*
X162577745Y-101716605D01*
X162371530Y-101716429D01*
X161507060Y-101716429D01*
X161552621Y-101770574D01*
X161579026Y-101807763D01*
X161622978Y-101895446D01*
X161661495Y-102004499D01*
X161690893Y-102125468D01*
X161692766Y-102136952D01*
X161698341Y-102197492D01*
X161702563Y-102291056D01*
X161705443Y-102418292D01*
X161706992Y-102579846D01*
X161707221Y-102776368D01*
X161706143Y-103008504D01*
X161700786Y-103783508D01*
X161147429Y-103083742D01*
X161131579Y-103063698D01*
X160991253Y-102886052D01*
X160871453Y-102733914D01*
X160770270Y-102604698D01*
X160685800Y-102495817D01*
X160616135Y-102404685D01*
X160559368Y-102328714D01*
X160513594Y-102265317D01*
X160476906Y-102211908D01*
X160447396Y-102165901D01*
X160423159Y-102124707D01*
X160402288Y-102085741D01*
X160382877Y-102046415D01*
X160353015Y-101976805D01*
X160333724Y-101903372D01*
X160328592Y-101824165D01*
X160329108Y-101716429D01*
X158493127Y-101716429D01*
X157886080Y-101716429D01*
X157905830Y-101706138D01*
X158048136Y-101594032D01*
X158087695Y-101554510D01*
X158204620Y-101408175D01*
X158287588Y-101249367D01*
X158337043Y-101077063D01*
X158353429Y-100890238D01*
X158353429Y-100736715D01*
X160957830Y-100736714D01*
X161120540Y-100736707D01*
X161470089Y-100736660D01*
X161785856Y-100736626D01*
X162069588Y-100736673D01*
X162323031Y-100736872D01*
X162547931Y-100737291D01*
X162746034Y-100737998D01*
X162919087Y-100739065D01*
X163068835Y-100740558D01*
X163197025Y-100742547D01*
X163305403Y-100745102D01*
X163395715Y-100748291D01*
X163469707Y-100752183D01*
X163529125Y-100756848D01*
X163575716Y-100762354D01*
X163611226Y-100768771D01*
X163637400Y-100776167D01*
X163655986Y-100784611D01*
X163668728Y-100794173D01*
X163677374Y-100804922D01*
X163683670Y-100816926D01*
X163689360Y-100830255D01*
X163696193Y-100844978D01*
X163696316Y-100845218D01*
X163699633Y-100854856D01*
X163702676Y-100870993D01*
X163705456Y-100895121D01*
X163707985Y-100928727D01*
X163710274Y-100973301D01*
X163712334Y-101030333D01*
X163714179Y-101101311D01*
X163715817Y-101187725D01*
X163717263Y-101291064D01*
X163718526Y-101412818D01*
X163719619Y-101554475D01*
X163720553Y-101717526D01*
X163721340Y-101903458D01*
X163721991Y-102113762D01*
X163722517Y-102349927D01*
X163722931Y-102613442D01*
X163723244Y-102905797D01*
X163723467Y-103228480D01*
X163723612Y-103582981D01*
X163723691Y-103970789D01*
X163723714Y-104393393D01*
X163723715Y-104476414D01*
X163723755Y-104894614D01*
X163723817Y-105278313D01*
X163723854Y-105629009D01*
X163723817Y-105948204D01*
X163723662Y-106237398D01*
X163723339Y-106498091D01*
X163722801Y-106731784D01*
X163722001Y-106939976D01*
X163720892Y-107124168D01*
X163719916Y-107231857D01*
X163719428Y-107285860D01*
G36*
X163719428Y-107285860D02*
G01*
X163717560Y-107426553D01*
X163715241Y-107547746D01*
X163712425Y-107650940D01*
X163709064Y-107737635D01*
X163705110Y-107809332D01*
X163700517Y-107867530D01*
X163695238Y-107913730D01*
X163689225Y-107949433D01*
X163682430Y-107976137D01*
X163674808Y-107995345D01*
X163666309Y-108008555D01*
X163656889Y-108017268D01*
X163646498Y-108022985D01*
X163635090Y-108027206D01*
X163622618Y-108031430D01*
X163609034Y-108037159D01*
X163601391Y-108040030D01*
X163587371Y-108043165D01*
X163566538Y-108046037D01*
X163537421Y-108048659D01*
X163498544Y-108051040D01*
X163448434Y-108053194D01*
X163385617Y-108055130D01*
X163308620Y-108056862D01*
X163215969Y-108058400D01*
X163106190Y-108059756D01*
X162977810Y-108060941D01*
X162829354Y-108061968D01*
X162659350Y-108062846D01*
X162466323Y-108063589D01*
X162248800Y-108064207D01*
X162005308Y-108064713D01*
X161734371Y-108065116D01*
X161434517Y-108065430D01*
X161104273Y-108065665D01*
X160742164Y-108065834D01*
X160346716Y-108065947D01*
X159916456Y-108066016D01*
X159780108Y-108066029D01*
X159359186Y-108066038D01*
X158972647Y-108065985D01*
X158619034Y-108065860D01*
X158296890Y-108065652D01*
X158004761Y-108065351D01*
X157741188Y-108064946D01*
X157504716Y-108064426D01*
X157293890Y-108063782D01*
X157107251Y-108063002D01*
X156943345Y-108062076D01*
X156800715Y-108060993D01*
X156677905Y-108059743D01*
X156573458Y-108058315D01*
X156485919Y-108056698D01*
X156413830Y-108054883D01*
X156355736Y-108052858D01*
X156310180Y-108050613D01*
X156275707Y-108048137D01*
X156250859Y-108045420D01*
X156234181Y-108042451D01*
X156224217Y-108039220D01*
X156221046Y-108037782D01*
X156208067Y-108033058D01*
X156196165Y-108029608D01*
X156185292Y-108025930D01*
X156175398Y-108020521D01*
X156166437Y-108011879D01*
X156158359Y-107998502D01*
X156151116Y-107978886D01*
X156144661Y-107951531D01*
X156138945Y-107914933D01*
X156133919Y-107867590D01*
X156129536Y-107808000D01*
X156125747Y-107734659D01*
X156122504Y-107646067D01*
X156119759Y-107540720D01*
X156117463Y-107417117D01*
X156115568Y-107273754D01*
X156114946Y-107207367D01*
X156593373Y-107207367D01*
X156593898Y-107213725D01*
X156603521Y-107218877D01*
X156625264Y-107222950D01*
X156662148Y-107226070D01*
X156717193Y-107228365D01*
X156793419Y-107229959D01*
X156893848Y-107230979D01*
X157021501Y-107231551D01*
X157179398Y-107231802D01*
X157370559Y-107231857D01*
X158171314Y-107231857D01*
X158103621Y-107109393D01*
X158035929Y-106986929D01*
X158035929Y-103430929D01*
X158103621Y-103308465D01*
X158171314Y-103186000D01*
X156739993Y-103186000D01*
X156734818Y-105068322D01*
X156729643Y-106950643D01*
X156678903Y-107059008D01*
X156652151Y-107112719D01*
X156621860Y-107166524D01*
X156598984Y-107199615D01*
X156598926Y-107199679D01*
X156593373Y-107207367D01*
X156114946Y-107207367D01*
X156114026Y-107109129D01*
X156112789Y-106921740D01*
X156111808Y-106710085D01*
X156111035Y-106472661D01*
X156110422Y-106207966D01*
X156109921Y-105914498D01*
X156109484Y-105590753D01*
X156109061Y-105235230D01*
X156108605Y-104846426D01*
X156108068Y-104422840D01*
X156107999Y-104371560D01*
X156107400Y-103950657D01*
X156106827Y-103564362D01*
X156106323Y-103211172D01*
X156105930Y-102889584D01*
X156105690Y-102598094D01*
X156105646Y-102335200D01*
X156105840Y-102099398D01*
X156106314Y-101889186D01*
X156107112Y-101703060D01*
X156108274Y-101539517D01*
X156109844Y-101397055D01*
X156111864Y-101274170D01*
X156114377Y-101169359D01*
X156117424Y-101081119D01*
X156121049Y-101007947D01*
X156125293Y-100948340D01*
X156130198Y-100900795D01*
X156135808Y-100863808D01*
X156142165Y-100835878D01*
X156149311Y-100815500D01*
X156157288Y-100801171D01*
X156166139Y-100791390D01*
X156175906Y-100784651D01*
X156186632Y-100779454D01*
X156198358Y-100774293D01*
X156211128Y-100767667D01*
X156214865Y-100765556D01*
X156271405Y-100745118D01*
X156333300Y-100736717D01*
X156403072Y-100736720D01*
X156404234Y-100895467D01*
X156404529Y-100913735D01*
X156426706Y-101099427D01*
X156483188Y-101274147D01*
X156573192Y-101436043D01*
X156695932Y-101583265D01*
X156761798Y-101643311D01*
X156908454Y-101742838D01*
X157068470Y-101812242D01*
X157237185Y-101851487D01*
X157409939Y-101860537D01*
X157582072Y-101839353D01*
X157748922Y-101787899D01*
X157886080Y-101716429D01*
X158493127Y-101716429D01*
X158572957Y-101773862D01*
X158640470Y-101827841D01*
X158735603Y-101915886D01*
X158843507Y-102026230D01*
X158960097Y-102154670D01*
X159081285Y-102297000D01*
X159112494Y-102335062D01*
X159165629Y-102400343D01*
X159235083Y-102485988D01*
X159318556Y-102589140D01*
X159413746Y-102706939D01*
X159518354Y-102836528D01*
X159630077Y-102975047D01*
X159746615Y-103119639D01*
X159800067Y-103186000D01*
X159865667Y-103267444D01*
X159984932Y-103415603D01*
X160102109Y-103561260D01*
X160214896Y-103701554D01*
X160320994Y-103833627D01*
X160418101Y-103954621D01*
X160503916Y-104061678D01*
X160576138Y-104151938D01*
X160632466Y-104222543D01*
X160670599Y-104270635D01*
X160688237Y-104293355D01*
X160689692Y-104301893D01*
X160684850Y-104318132D01*
X160672302Y-104343679D01*
X160650797Y-104380347D01*
X160619080Y-104429949D01*
X160575900Y-104494295D01*
X160520005Y-104575198D01*
X160450141Y-104674471D01*
X160365057Y-104793926D01*
X160263499Y-104935374D01*
X160144216Y-105100629D01*
X160005954Y-105291501D01*
X159847462Y-105509804D01*
X159721177Y-105683571D01*
X159567105Y-105895407D01*
X159431580Y-106081440D01*
X159313024Y-106243734D01*
X159209861Y-106384354D01*
X159120515Y-106505365D01*
X159043411Y-106608832D01*
X158976972Y-106696818D01*
X158919623Y-106771390D01*
X158869786Y-106834610D01*
X158825886Y-106888545D01*
X158786347Y-106935258D01*
X158749593Y-106976814D01*
X158714047Y-107015279D01*
X158678135Y-107052715D01*
X158640278Y-107091189D01*
X158500771Y-107231857D01*
X160376357Y-107231933D01*
X160370464Y-107118275D01*
X160370179Y-107112564D01*
X160369060Y-107067127D01*
X160371181Y-107023593D01*
X160377958Y-106979576D01*
X160390812Y-106932693D01*
X160411160Y-106880558D01*
X160440420Y-106820786D01*
X160480012Y-106750994D01*
X160531353Y-106668797D01*
X160595862Y-106571809D01*
X160674957Y-106457647D01*
X160770057Y-106323925D01*
X160882581Y-106168260D01*
X161013946Y-105988265D01*
X161165572Y-105781557D01*
X161700786Y-105052911D01*
X161705501Y-105897755D01*
X161705919Y-105976562D01*
X161706656Y-106188832D01*
X161706321Y-106369381D01*
X161704519Y-106521628D01*
X161700856Y-106648988D01*
X161694936Y-106754878D01*
X161686367Y-106842715D01*
X161674751Y-106915916D01*
X161659697Y-106977898D01*
X161640807Y-107032076D01*
X161617689Y-107081869D01*
X161589947Y-107130693D01*
X161557187Y-107181964D01*
X161524256Y-107231857D01*
X163235704Y-107231857D01*
X163191496Y-107172893D01*
X163184572Y-107163565D01*
X163129221Y-107078070D01*
X163091064Y-106991644D01*
X163066008Y-106892613D01*
X163049959Y-106769304D01*
X163049518Y-106763929D01*
X163047189Y-106713067D01*
X163045087Y-106628206D01*
X163043219Y-106511286D01*
X163041596Y-106364246D01*
X163040227Y-106189026D01*
X163039120Y-105987563D01*
X163038285Y-105761798D01*
X163037732Y-105513669D01*
X163037468Y-105245115D01*
X163037503Y-104958077D01*
X163037847Y-104654492D01*
X163038508Y-104336300D01*
X163039209Y-104050881D01*
X163039958Y-103740196D01*
X163040696Y-103462226D01*
X163041515Y-103215022D01*
X163042507Y-102996637D01*
X163043766Y-102805125D01*
X163045383Y-102638537D01*
X163047452Y-102494925D01*
X163050065Y-102372344D01*
X163053315Y-102268844D01*
X163057293Y-102182479D01*
X163062094Y-102111301D01*
X163067809Y-102053363D01*
X163074532Y-102006717D01*
X163082354Y-101969416D01*
X163091368Y-101939512D01*
X163101667Y-101915058D01*
X163113344Y-101894106D01*
X163126492Y-101874709D01*
X163141202Y-101854920D01*
X163157567Y-101832791D01*
X163173396Y-101810615D01*
X163203991Y-101766769D01*
X163222317Y-101739107D01*
X163222759Y-101737949D01*
X163216360Y-101732718D01*
X163193779Y-101728353D01*
X163152502Y-101724788D01*
X163090017Y-101721954D01*
X163003812Y-101719787D01*
X162891373Y-101718217D01*
X162750188Y-101717179D01*
X162577745Y-101716605D01*
X162371530Y-101716429D01*
X161507060Y-101716429D01*
X161552621Y-101770574D01*
X161579026Y-101807763D01*
X161622978Y-101895446D01*
X161661495Y-102004499D01*
X161690893Y-102125468D01*
X161692766Y-102136952D01*
X161698341Y-102197492D01*
X161702563Y-102291056D01*
X161705443Y-102418292D01*
X161706992Y-102579846D01*
X161707221Y-102776368D01*
X161706143Y-103008504D01*
X161700786Y-103783508D01*
X161147429Y-103083742D01*
X161131579Y-103063698D01*
X160991253Y-102886052D01*
X160871453Y-102733914D01*
X160770270Y-102604698D01*
X160685800Y-102495817D01*
X160616135Y-102404685D01*
X160559368Y-102328714D01*
X160513594Y-102265317D01*
X160476906Y-102211908D01*
X160447396Y-102165901D01*
X160423159Y-102124707D01*
X160402288Y-102085741D01*
X160382877Y-102046415D01*
X160353015Y-101976805D01*
X160333724Y-101903372D01*
X160328592Y-101824165D01*
X160329108Y-101716429D01*
X158493127Y-101716429D01*
X157886080Y-101716429D01*
X157905830Y-101706138D01*
X158048136Y-101594032D01*
X158087695Y-101554510D01*
X158204620Y-101408175D01*
X158287588Y-101249367D01*
X158337043Y-101077063D01*
X158353429Y-100890238D01*
X158353429Y-100736715D01*
X160957830Y-100736714D01*
X161120540Y-100736707D01*
X161470089Y-100736660D01*
X161785856Y-100736626D01*
X162069588Y-100736673D01*
X162323031Y-100736872D01*
X162547931Y-100737291D01*
X162746034Y-100737998D01*
X162919087Y-100739065D01*
X163068835Y-100740558D01*
X163197025Y-100742547D01*
X163305403Y-100745102D01*
X163395715Y-100748291D01*
X163469707Y-100752183D01*
X163529125Y-100756848D01*
X163575716Y-100762354D01*
X163611226Y-100768771D01*
X163637400Y-100776167D01*
X163655986Y-100784611D01*
X163668728Y-100794173D01*
X163677374Y-100804922D01*
X163683670Y-100816926D01*
X163689360Y-100830255D01*
X163696193Y-100844978D01*
X163696316Y-100845218D01*
X163699633Y-100854856D01*
X163702676Y-100870993D01*
X163705456Y-100895121D01*
X163707985Y-100928727D01*
X163710274Y-100973301D01*
X163712334Y-101030333D01*
X163714179Y-101101311D01*
X163715817Y-101187725D01*
X163717263Y-101291064D01*
X163718526Y-101412818D01*
X163719619Y-101554475D01*
X163720553Y-101717526D01*
X163721340Y-101903458D01*
X163721991Y-102113762D01*
X163722517Y-102349927D01*
X163722931Y-102613442D01*
X163723244Y-102905797D01*
X163723467Y-103228480D01*
X163723612Y-103582981D01*
X163723691Y-103970789D01*
X163723714Y-104393393D01*
X163723715Y-104476414D01*
X163723755Y-104894614D01*
X163723817Y-105278313D01*
X163723854Y-105629009D01*
X163723817Y-105948204D01*
X163723662Y-106237398D01*
X163723339Y-106498091D01*
X163722801Y-106731784D01*
X163722001Y-106939976D01*
X163720892Y-107124168D01*
X163719916Y-107231857D01*
X163719428Y-107285860D01*
G37*
%TD*%
M02*
